G04*
G04 #@! TF.GenerationSoftware,Altium Limited,Altium Designer,20.0.13 (296)*
G04*
G04 Layer_Color=128*
%FSLAX24Y24*%
%MOIN*%
G70*
G01*
G75*
%ADD23C,0.0020*%
D23*
X85998Y112350D02*
X86298D01*
X86148Y112200D02*
Y112500D01*
X87100Y112350D02*
X87400D01*
X87250Y112200D02*
Y112500D01*
X86502Y109161D02*
X86802D01*
X86652Y109011D02*
Y109311D01*
X89049Y109161D02*
X89349D01*
X89199Y109011D02*
Y109311D01*
X89049Y112350D02*
X89349D01*
X89199Y112200D02*
Y112500D01*
X86837Y108511D02*
X87093D01*
X86965Y108383D02*
Y108639D01*
X85498Y108492D02*
X85754D01*
X85626Y108364D02*
Y108620D01*
X86837Y104712D02*
X87093D01*
X86965Y104584D02*
Y104840D01*
X85498Y104732D02*
X85754D01*
X85626Y104604D02*
Y104860D01*
X86406Y101953D02*
X86761D01*
X86584Y101775D02*
Y102130D01*
X86406Y98804D02*
X86760D01*
X86583Y98626D02*
Y98981D01*
X89155Y106484D02*
X89775D01*
X89465Y106175D02*
Y106794D01*
X88524Y90088D02*
X89104D01*
X88814Y89798D02*
Y90378D01*
X94130Y109159D02*
X94210D01*
X94170Y109119D02*
Y109199D01*
X147140Y100750D02*
X147220D01*
X147180Y100710D02*
Y100790D01*
X148081Y100750D02*
X148161D01*
X148121Y100710D02*
Y100790D01*
X147140Y101580D02*
X147220D01*
X147180Y101540D02*
Y101620D01*
X148081Y101580D02*
X148161D01*
X148121Y101540D02*
Y101620D01*
X91760Y97470D02*
X91840D01*
X91800Y97430D02*
Y97510D01*
X92701Y97470D02*
X92781D01*
X92741Y97430D02*
Y97510D01*
X92110Y96850D02*
X92190D01*
X92150Y96810D02*
Y96890D01*
X93091Y96850D02*
X93171D01*
X93131Y96810D02*
Y96890D01*
X123590Y102150D02*
X123670D01*
X123630Y102110D02*
Y102190D01*
X123590Y102520D02*
X123670D01*
X123630Y102480D02*
Y102560D01*
X127330Y100920D02*
X127410D01*
X127370Y100880D02*
Y100960D01*
X127520Y103690D02*
X127600D01*
X127560Y103650D02*
Y103730D01*
X128461Y103690D02*
X128541D01*
X128501Y103650D02*
Y103730D01*
X123439Y103310D02*
X123519D01*
X123479Y103270D02*
Y103350D01*
X122529Y103310D02*
X122609D01*
X122569Y103270D02*
Y103350D01*
X125260Y103700D02*
X125340D01*
X125300Y103660D02*
Y103740D01*
X124350Y103700D02*
X124430D01*
X124390Y103660D02*
Y103740D01*
X123439Y103710D02*
X123519D01*
X123479Y103670D02*
Y103750D01*
X122529Y103710D02*
X122609D01*
X122569Y103670D02*
Y103750D01*
X119230Y103550D02*
X119310D01*
X119270Y103510D02*
Y103590D01*
X138590Y93530D02*
X138670D01*
X138630Y93490D02*
Y93570D01*
X138590Y94390D02*
X138670D01*
X138630Y94350D02*
Y94430D01*
X138590Y95251D02*
X138670D01*
X138630Y95211D02*
Y95291D01*
X138590Y96111D02*
X138670D01*
X138630Y96071D02*
Y96151D01*
X146600Y95240D02*
X146680D01*
X146640Y95200D02*
Y95280D01*
X146600Y95770D02*
X146680D01*
X146640Y95730D02*
Y95810D01*
X144600Y103030D02*
X144680D01*
X144640Y102990D02*
Y103070D01*
X144600Y103850D02*
X144680D01*
X144640Y103810D02*
Y103890D01*
X143600Y100180D02*
X143680D01*
X143640Y100140D02*
Y100220D01*
X145570Y99960D02*
X145650D01*
X145610Y99920D02*
Y100000D01*
X142490Y101900D02*
X142570D01*
X142530Y101860D02*
Y101940D01*
X143210Y101910D02*
X143290D01*
X143250Y101870D02*
Y101950D01*
X144560Y101230D02*
X144640D01*
X144600Y101190D02*
Y101270D01*
X140330Y101350D02*
X140410D01*
X140370Y101310D02*
Y101390D01*
X139880Y101930D02*
X139960D01*
X139920Y101890D02*
Y101970D01*
X143240Y99860D02*
X143320D01*
X143280Y99820D02*
Y99900D01*
X143250Y100550D02*
X143330D01*
X143290Y100510D02*
Y100590D01*
X146140Y97500D02*
X146220D01*
X146180Y97460D02*
Y97540D01*
X145320Y97500D02*
X145400D01*
X145360Y97460D02*
Y97540D01*
X149100Y98220D02*
X149180D01*
X149140Y98180D02*
Y98260D01*
X150041Y97102D02*
X150121D01*
X150081Y97062D02*
Y97142D01*
X149100Y97100D02*
X149180D01*
X149140Y97060D02*
Y97140D01*
X150041Y95982D02*
X150121D01*
X150081Y95942D02*
Y96022D01*
X149100Y95982D02*
X149180D01*
X149140Y95942D02*
Y96022D01*
X149100Y100460D02*
X149180D01*
X149140Y100420D02*
Y100500D01*
X150041Y100462D02*
X150121D01*
X150081Y100422D02*
Y100502D01*
X150041Y99342D02*
X150121D01*
X150081Y99302D02*
Y99382D01*
X149100Y99340D02*
X149180D01*
X149140Y99300D02*
Y99380D01*
X150041Y98222D02*
X150121D01*
X150081Y98182D02*
Y98262D01*
X149100Y98222D02*
X149180D01*
X149140Y98182D02*
Y98262D01*
X149100Y102700D02*
X149180D01*
X149140Y102660D02*
Y102740D01*
X150041Y101580D02*
X150121D01*
X150081Y101540D02*
Y101620D01*
X149100Y101580D02*
X149180D01*
X149140Y101540D02*
Y101620D01*
X149100Y100462D02*
X149180D01*
X149140Y100422D02*
Y100502D01*
X149100Y102702D02*
X149180D01*
X149140Y102662D02*
Y102742D01*
X150041Y102702D02*
X150121D01*
X150081Y102662D02*
Y102742D01*
X149100Y103820D02*
X149180D01*
X149140Y103780D02*
Y103860D01*
X150041Y103822D02*
X150121D01*
X150081Y103782D02*
Y103862D01*
X150041Y104942D02*
X150121D01*
X150081Y104902D02*
Y104982D01*
X149100Y104940D02*
X149180D01*
X149140Y104900D02*
Y104980D01*
X143847Y103030D02*
X143927D01*
X143887Y102990D02*
Y103070D01*
X143093Y103030D02*
X143173D01*
X143133Y102990D02*
Y103070D01*
X140840Y103120D02*
X140920D01*
X140880Y103080D02*
Y103160D01*
X140263Y103120D02*
X140343D01*
X140303Y103080D02*
Y103160D01*
X139600Y102830D02*
X139680D01*
X139640Y102790D02*
Y102870D01*
X139023Y102830D02*
X139103D01*
X139063Y102790D02*
Y102870D01*
X140000Y99280D02*
X140080D01*
X140040Y99240D02*
Y99320D01*
X140000Y99857D02*
X140080D01*
X140040Y99817D02*
Y99897D01*
X139330Y99990D02*
X139410D01*
X139370Y99950D02*
Y100030D01*
X139330Y100567D02*
X139410D01*
X139370Y100527D02*
Y100607D01*
X138650Y100540D02*
X138730D01*
X138690Y100500D02*
Y100580D01*
X138650Y101117D02*
X138730D01*
X138690Y101077D02*
Y101157D01*
X106580Y95350D02*
X106660D01*
X106620Y95310D02*
Y95390D01*
X106580Y96027D02*
X106660D01*
X106620Y95987D02*
Y96067D01*
X106580Y96603D02*
X106660D01*
X106620Y96563D02*
Y96643D01*
X105890Y96027D02*
X105970D01*
X105930Y95987D02*
Y96067D01*
X105890Y96613D02*
X105970D01*
X105930Y96573D02*
Y96653D01*
X105890Y97200D02*
X105970D01*
X105930Y97160D02*
Y97240D01*
X132490Y102270D02*
X132570D01*
X132530Y102230D02*
Y102310D01*
X133370Y102270D02*
X133450D01*
X133410Y102230D02*
Y102310D01*
X134250Y102270D02*
X134330D01*
X134290Y102230D02*
Y102310D01*
X135210Y103360D02*
X135290D01*
X135250Y103320D02*
Y103400D01*
X135797Y103360D02*
X135877D01*
X135837Y103320D02*
Y103400D01*
X136383Y103360D02*
X136463D01*
X136423Y103320D02*
Y103400D01*
X135210Y102260D02*
X135290D01*
X135250Y102220D02*
Y102300D01*
X135797Y102260D02*
X135877D01*
X135837Y102220D02*
Y102300D01*
X136383Y102260D02*
X136463D01*
X136423Y102220D02*
Y102300D01*
X136970Y102260D02*
X137050D01*
X137010Y102220D02*
Y102300D01*
X136960Y101130D02*
X137040D01*
X137000Y101090D02*
Y101170D01*
X136383Y101130D02*
X136463D01*
X136423Y101090D02*
Y101170D01*
X135787Y101130D02*
X135867D01*
X135827Y101090D02*
Y101170D01*
X135210Y101130D02*
X135290D01*
X135250Y101090D02*
Y101170D01*
X121020Y105460D02*
X121100D01*
X121060Y105420D02*
Y105500D01*
X120390Y105460D02*
X120470D01*
X120430Y105420D02*
Y105500D01*
X119760Y105460D02*
X119840D01*
X119800Y105420D02*
Y105500D01*
X119130Y105460D02*
X119210D01*
X119170Y105420D02*
Y105500D01*
X119470Y102020D02*
X119550D01*
X119510Y101980D02*
Y102060D01*
X119470Y102385D02*
X119550D01*
X119510Y102345D02*
Y102425D01*
X119470Y102750D02*
X119550D01*
X119510Y102710D02*
Y102790D01*
X117530Y97030D02*
X117610D01*
X117570Y96990D02*
Y97070D01*
X117530Y97480D02*
X117610D01*
X117570Y97440D02*
Y97520D01*
X116910Y97470D02*
X116990D01*
X116950Y97430D02*
Y97510D01*
X116470Y97020D02*
X116550D01*
X116510Y96980D02*
Y97060D01*
X116360Y96330D02*
X116440D01*
X116400Y96290D02*
Y96370D01*
X115780Y96340D02*
X115860D01*
X115820Y96300D02*
Y96380D01*
X112830Y93390D02*
X112910D01*
X112870Y93350D02*
Y93430D01*
X109270Y91330D02*
X109350D01*
X109310Y91290D02*
Y91370D01*
X109810Y91580D02*
X109890D01*
X109850Y91540D02*
Y91620D01*
X109270Y92110D02*
X109350D01*
X109310Y92070D02*
Y92150D01*
X104820Y90190D02*
X104900D01*
X104860Y90150D02*
Y90230D01*
X104820Y92890D02*
X104900D01*
X104860Y92850D02*
Y92930D01*
X104820Y91540D02*
X104900D01*
X104860Y91500D02*
Y91580D01*
X106160Y91530D02*
X106240D01*
X106200Y91490D02*
Y91570D01*
X106160Y92880D02*
X106240D01*
X106200Y92840D02*
Y92920D01*
X106160Y90180D02*
X106240D01*
X106200Y90140D02*
Y90220D01*
X98730Y91100D02*
X98810D01*
X98770Y91060D02*
Y91140D01*
X97320Y91100D02*
X97400D01*
X97360Y91060D02*
Y91140D01*
X101550Y91100D02*
X101630D01*
X101590Y91060D02*
Y91140D01*
X100140Y91100D02*
X100220D01*
X100180Y91060D02*
Y91140D01*
X100140Y90190D02*
X100220D01*
X100180Y90150D02*
Y90230D01*
X101550Y90190D02*
X101630D01*
X101590Y90150D02*
Y90230D01*
X97320Y90190D02*
X97400D01*
X97360Y90150D02*
Y90230D01*
X98730Y90190D02*
X98810D01*
X98770Y90150D02*
Y90230D01*
X100210Y96970D02*
X100290D01*
X100250Y96930D02*
Y97010D01*
X99130Y96990D02*
X99210D01*
X99170Y96950D02*
Y97030D01*
X99130Y96390D02*
X99210D01*
X99170Y96350D02*
Y96430D01*
X98360Y96390D02*
X98440D01*
X98400Y96350D02*
Y96430D01*
X100030Y94530D02*
X100110D01*
X100070Y94490D02*
Y94570D01*
X100030Y95320D02*
X100110D01*
X100070Y95280D02*
Y95360D01*
X98190Y94530D02*
X98270D01*
X98230Y94490D02*
Y94570D01*
X98960Y94530D02*
X99040D01*
X99000Y94490D02*
Y94570D01*
X98960Y95320D02*
X99040D01*
X99000Y95280D02*
Y95360D01*
X98190Y95320D02*
X98270D01*
X98230Y95280D02*
Y95360D01*
X94810Y92620D02*
X94890D01*
X94850Y92580D02*
Y92660D01*
X94800Y93760D02*
X94880D01*
X94840Y93720D02*
Y93800D01*
X92540Y92660D02*
X92620D01*
X92580Y92620D02*
Y92700D01*
X92740Y93470D02*
X92820D01*
X92780Y93430D02*
Y93510D01*
X93240Y94030D02*
X93320D01*
X93280Y93990D02*
Y94070D01*
X91400Y90190D02*
X91480D01*
X91440Y90150D02*
Y90230D01*
X89990Y90190D02*
X90070D01*
X90030Y90150D02*
Y90230D01*
X94220Y90190D02*
X94300D01*
X94260Y90150D02*
Y90230D01*
X92810Y90190D02*
X92890D01*
X92850Y90150D02*
Y90230D01*
X92810Y91100D02*
X92890D01*
X92850Y91060D02*
Y91140D01*
X94220Y91100D02*
X94300D01*
X94260Y91060D02*
Y91140D01*
X89990Y91100D02*
X90070D01*
X90030Y91060D02*
Y91140D01*
X91400Y91100D02*
X91480D01*
X91440Y91060D02*
Y91140D01*
X87760Y93980D02*
X87840D01*
X87800Y93940D02*
Y94020D01*
X89400Y93980D02*
X89480D01*
X89440Y93940D02*
Y94020D01*
X88180Y97500D02*
X88260D01*
X88220Y97460D02*
Y97540D01*
X89820Y97500D02*
X89900D01*
X89860Y97460D02*
Y97540D01*
X85740Y99370D02*
X85820D01*
X85780Y99330D02*
Y99410D01*
X87380Y99370D02*
X87460D01*
X87420Y99330D02*
Y99410D01*
X85740Y100670D02*
X85820D01*
X85780Y100630D02*
Y100710D01*
X87380Y100670D02*
X87460D01*
X87420Y100630D02*
Y100710D01*
X87380Y102060D02*
X87460D01*
X87420Y102020D02*
Y102100D01*
X85740Y102060D02*
X85820D01*
X85780Y102020D02*
Y102100D01*
X95690Y105050D02*
X95770D01*
X95730Y105010D02*
Y105090D01*
X93280Y100730D02*
X93360D01*
X93320Y100690D02*
Y100770D01*
X93852Y99992D02*
X93932D01*
X93892Y99952D02*
Y100032D01*
X94240Y99540D02*
X94320D01*
X94280Y99500D02*
Y99580D01*
X90720Y110220D02*
X90800D01*
X90760Y110180D02*
Y110260D01*
X90720Y110800D02*
X90800D01*
X90760Y110760D02*
Y110840D01*
X94910Y105660D02*
X94990D01*
X94950Y105620D02*
Y105700D01*
X94602Y105660D02*
X94682D01*
X94642Y105620D02*
Y105700D01*
X96030Y107670D02*
X96110D01*
X96070Y107630D02*
Y107710D01*
X96520Y107670D02*
X96600D01*
X96560Y107630D02*
Y107710D01*
X96030Y108180D02*
X96110D01*
X96070Y108140D02*
Y108220D01*
X96520Y108180D02*
X96600D01*
X96560Y108140D02*
Y108220D01*
X96530Y109690D02*
X96610D01*
X96570Y109650D02*
Y109730D01*
X96040Y109690D02*
X96120D01*
X96080Y109650D02*
Y109730D01*
X92460Y109700D02*
X92540D01*
X92500Y109660D02*
Y109740D01*
X91880Y109700D02*
X91960D01*
X91920Y109660D02*
Y109740D01*
X126849Y96152D02*
X127009D01*
X126929Y96072D02*
Y96232D01*
X123050Y91289D02*
X123130D01*
X123090Y91249D02*
Y91329D01*
X90180Y107400D02*
X90260D01*
X90220Y107360D02*
Y107440D01*
X88390Y107240D02*
X88470D01*
X88430Y107200D02*
Y107280D01*
X88800Y106480D02*
X88880D01*
X88840Y106440D02*
Y106520D01*
X87960Y106460D02*
X88040D01*
X88000Y106420D02*
Y106500D01*
X129940Y95646D02*
X130020D01*
X129980Y95606D02*
Y95686D01*
X132130Y95956D02*
X132210D01*
X132170Y95916D02*
Y95996D01*
X129910Y93952D02*
X130070D01*
X129990Y93872D02*
Y94032D01*
X131740Y95956D02*
X131820D01*
X131780Y95916D02*
Y95996D01*
X129573Y93952D02*
X129733D01*
X129653Y93872D02*
Y94032D01*
X135348Y97171D02*
X135428D01*
X135388Y97131D02*
Y97211D01*
X129598Y95646D02*
X129758D01*
X129678Y95566D02*
Y95726D01*
X135598Y97171D02*
X135678D01*
X135638Y97131D02*
Y97211D01*
X129593Y95404D02*
X129753D01*
X129673Y95324D02*
Y95484D01*
X137171Y96383D02*
X137251D01*
X137211Y96342D02*
Y96423D01*
X131220Y99730D02*
X131300D01*
X131260Y99690D02*
Y99770D01*
X131435Y99730D02*
X131515D01*
X131475Y99690D02*
Y99770D01*
X129460Y97310D02*
X129620D01*
X129540Y97230D02*
Y97390D01*
X136909Y96383D02*
X136989D01*
X136949Y96342D02*
Y96423D01*
X129716Y97310D02*
X129876D01*
X129796Y97230D02*
Y97390D01*
X129192Y97175D02*
X129272D01*
X129232Y97135D02*
Y97215D01*
X128384Y98201D02*
X128544D01*
X128464Y98121D02*
Y98281D01*
X127617Y96407D02*
X127777D01*
X127697Y96327D02*
Y96487D01*
X137076Y93847D02*
X137156D01*
X137116Y93807D02*
Y93887D01*
X129714Y92228D02*
X129874D01*
X129794Y92148D02*
Y92308D01*
X137076Y93606D02*
X137156D01*
X137116Y93566D02*
Y93646D01*
X129986Y92228D02*
X130146D01*
X130066Y92148D02*
Y92308D01*
X131149Y91974D02*
X131309D01*
X131229Y91894D02*
Y92054D01*
X130195Y91974D02*
X130355D01*
X130275Y91894D02*
Y92054D01*
X130553Y91974D02*
X130633D01*
X130593Y91934D02*
Y92014D01*
X130831Y91974D02*
X130991D01*
X130911Y91894D02*
Y92054D01*
X128128Y92569D02*
X128288D01*
X128208Y92489D02*
Y92649D01*
X130830Y96548D02*
X130910D01*
X130870Y96508D02*
Y96588D01*
X129900Y96250D02*
X130060D01*
X129980Y96170D02*
Y96330D01*
X131800Y99013D02*
X131880D01*
X131840Y98973D02*
Y99053D01*
X138900Y96690D02*
X138980D01*
X138940Y96650D02*
Y96730D01*
X135648Y96777D02*
X135728D01*
X135688Y96737D02*
Y96817D01*
X129141Y96143D02*
X129301D01*
X129221Y96063D02*
Y96223D01*
X130900Y99003D02*
X130980D01*
X130940Y98963D02*
Y99043D01*
X145400Y92811D02*
X145480D01*
X145440Y92771D02*
Y92851D01*
X125800Y99120D02*
X125960D01*
X125880Y99040D02*
Y99200D01*
X145400Y92478D02*
X145480D01*
X145440Y92438D02*
Y92518D01*
X125800Y98780D02*
X125960D01*
X125880Y98700D02*
Y98860D01*
X145400Y93722D02*
X145480D01*
X145440Y93682D02*
Y93762D01*
X125440Y99120D02*
X125600D01*
X125520Y99040D02*
Y99200D01*
X145400Y93389D02*
X145480D01*
X145440Y93349D02*
Y93429D01*
X125440Y98780D02*
X125600D01*
X125520Y98700D02*
Y98860D01*
X134620Y101160D02*
X134700D01*
X134660Y101120D02*
Y101200D01*
X134620Y100925D02*
X134700D01*
X134660Y100885D02*
Y100965D01*
X145400Y94300D02*
X145480D01*
X145440Y94260D02*
Y94340D01*
X125050Y98780D02*
X125210D01*
X125130Y98700D02*
Y98860D01*
X145400Y94633D02*
X145480D01*
X145440Y94593D02*
Y94673D01*
X125050Y99120D02*
X125210D01*
X125130Y99040D02*
Y99200D01*
X145400Y90656D02*
X145480D01*
X145440Y90616D02*
Y90696D01*
X124690Y98780D02*
X124850D01*
X124770Y98700D02*
Y98860D01*
X145400Y90989D02*
X145480D01*
X145440Y90949D02*
Y91029D01*
X124690Y99120D02*
X124850D01*
X124770Y99040D02*
Y99200D01*
X135076Y95069D02*
X135156D01*
X135116Y95029D02*
Y95109D01*
X129573Y93081D02*
X129733D01*
X129653Y93001D02*
Y93161D01*
X135076Y95328D02*
X135156D01*
X135116Y95288D02*
Y95368D01*
X129573Y93337D02*
X129733D01*
X129653Y93257D02*
Y93417D01*
X136789Y95197D02*
X136869D01*
X136829Y95157D02*
Y95237D01*
X136460Y92690D02*
X136540D01*
X136500Y92650D02*
Y92730D01*
X137076Y95197D02*
X137156D01*
X137116Y95157D02*
Y95237D01*
X129152Y92825D02*
X129312D01*
X129232Y92745D02*
Y92905D01*
X127782Y92057D02*
X127942D01*
X127862Y91977D02*
Y92137D01*
X129890Y93081D02*
X129970D01*
X129930Y93041D02*
Y93121D01*
X128896Y93081D02*
X129056D01*
X128976Y93001D02*
Y93161D01*
X114303Y96917D02*
X114383D01*
X114343Y96877D02*
Y96957D01*
X114064Y97372D02*
X114144D01*
X114104Y97332D02*
Y97412D01*
X115120Y93410D02*
X115200D01*
X115160Y93370D02*
Y93450D01*
X114640Y96222D02*
X114720D01*
X114680Y96182D02*
Y96262D01*
X89847Y111823D02*
X89927D01*
X89887Y111783D02*
Y111863D01*
X127360Y97687D02*
X127520D01*
X127440Y97607D02*
Y97767D01*
X126849Y97431D02*
X127009D01*
X126929Y97351D02*
Y97511D01*
X127361Y96152D02*
X127521D01*
X127441Y96072D02*
Y96232D01*
X128640Y94360D02*
X128800D01*
X128720Y94280D02*
Y94440D01*
X87660Y97270D02*
X87740D01*
X87700Y97230D02*
Y97310D01*
X129502Y98560D02*
X129662D01*
X129582Y98480D02*
Y98640D01*
X130727Y92496D02*
X130807D01*
X130767Y92456D02*
Y92536D01*
X123266Y96152D02*
X123426D01*
X123346Y96072D02*
Y96232D01*
X91794Y99323D02*
X91874D01*
X91834Y99283D02*
Y99363D01*
X141760Y104120D02*
X141840D01*
X141800Y104080D02*
Y104160D01*
X140570Y104120D02*
X140650D01*
X140610Y104080D02*
Y104160D01*
X101920Y102950D02*
X102000D01*
X101960Y102910D02*
Y102990D01*
X114588Y101790D02*
X114668D01*
X114628Y101750D02*
Y101830D01*
X115610Y101790D02*
X115690D01*
X115650Y101750D02*
Y101830D01*
X140880Y98290D02*
X140960D01*
X140920Y98250D02*
Y98330D01*
X140620Y98290D02*
X140700D01*
X140660Y98250D02*
Y98330D01*
X141862Y95726D02*
X141942D01*
X141902Y95686D02*
Y95766D01*
X132820Y95956D02*
X132900D01*
X132860Y95916D02*
Y95996D01*
X120980Y101810D02*
X121060D01*
X121020Y101770D02*
Y101850D01*
X146150Y104810D02*
X146230D01*
X146190Y104770D02*
Y104850D01*
X124802Y95640D02*
X124962D01*
X124882Y95560D02*
Y95720D01*
X120987Y92314D02*
X121067D01*
X121027Y92274D02*
Y92354D01*
X121618Y92704D02*
X121698D01*
X121658Y92664D02*
Y92744D01*
X93198Y108060D02*
X93278D01*
X93238Y108020D02*
Y108100D01*
X135347Y96776D02*
X135427D01*
X135387Y96736D02*
Y96816D01*
X135860Y97170D02*
X135940D01*
X135900Y97130D02*
Y97210D01*
X135347Y96377D02*
X135427D01*
X135387Y96337D02*
Y96417D01*
X136793Y94017D02*
X136873D01*
X136833Y93977D02*
Y94057D01*
X136793Y93606D02*
X136873D01*
X136833Y93566D02*
Y93646D01*
X95570Y107544D02*
X95650D01*
X95610Y107504D02*
Y107584D01*
X95570Y107817D02*
X95650D01*
X95610Y107777D02*
Y107857D01*
X89050Y105750D02*
X89130D01*
X89090Y105710D02*
Y105790D01*
X89335Y105750D02*
X89415D01*
X89375Y105710D02*
Y105790D01*
X89620Y105750D02*
X89700D01*
X89660Y105710D02*
Y105790D01*
X118027Y104151D02*
X118107D01*
X118067Y104111D02*
Y104191D01*
X144370Y95320D02*
X144450D01*
X144410Y95280D02*
Y95360D01*
X144580Y95700D02*
X144660D01*
X144620Y95660D02*
Y95740D01*
X135510Y92180D02*
X135590D01*
X135550Y92140D02*
Y92220D01*
X135270Y92180D02*
X135350D01*
X135310Y92140D02*
Y92220D01*
X120400Y104380D02*
X120480D01*
X120440Y104340D02*
Y104420D01*
X116990Y90950D02*
X117070D01*
X117030Y90910D02*
Y90990D01*
X116990Y91210D02*
X117070D01*
X117030Y91170D02*
Y91250D01*
X116740Y91200D02*
X116820D01*
X116780Y91160D02*
Y91240D01*
X116480Y91200D02*
X116560D01*
X116520Y91160D02*
Y91240D01*
X115170Y90900D02*
X115250D01*
X115210Y90860D02*
Y90940D01*
X115500Y90900D02*
X115580D01*
X115540Y90860D02*
Y90940D01*
X116527Y93768D02*
X116607D01*
X116567Y93728D02*
Y93808D01*
X116850Y93768D02*
X116930D01*
X116890Y93728D02*
Y93808D01*
X116850Y94038D02*
X116930D01*
X116890Y93998D02*
Y94078D01*
X116527Y94038D02*
X116607D01*
X116567Y93998D02*
Y94078D01*
X116720Y95770D02*
X116800D01*
X116760Y95730D02*
Y95810D01*
X116720Y96020D02*
X116800D01*
X116760Y95980D02*
Y96060D01*
X116440Y95770D02*
X116520D01*
X116480Y95730D02*
Y95810D01*
X116440Y96020D02*
X116520D01*
X116480Y95980D02*
Y96060D01*
X131489Y99013D02*
X131569D01*
X131529Y98973D02*
Y99053D01*
X132080Y99730D02*
X132160D01*
X132120Y99690D02*
Y99770D01*
X131865Y99730D02*
X131945D01*
X131905Y99690D02*
Y99770D01*
X131650Y99730D02*
X131730D01*
X131690Y99690D02*
Y99770D01*
X120987Y92567D02*
X121067D01*
X121027Y92527D02*
Y92607D01*
X121210Y94410D02*
X121290D01*
X121250Y94370D02*
Y94450D01*
X120980Y94410D02*
X121060D01*
X121020Y94370D02*
Y94450D01*
X121430Y95280D02*
X121510D01*
X121470Y95240D02*
Y95320D01*
X137111Y97069D02*
X137191D01*
X137151Y97029D02*
Y97109D01*
X136781Y97074D02*
X136861D01*
X136821Y97034D02*
Y97114D01*
X128896Y96152D02*
X129056D01*
X128976Y96072D02*
Y96232D01*
X127617Y95640D02*
X127777D01*
X127697Y95560D02*
Y95720D01*
X110551Y97714D02*
X110631D01*
X110591Y97674D02*
Y97754D01*
X110075Y101469D02*
X110155D01*
X110115Y101429D02*
Y101509D01*
X121650Y90716D02*
X121730D01*
X121690Y90676D02*
Y90756D01*
X146268Y99198D02*
X146348D01*
X146308Y99158D02*
Y99238D01*
X146268Y99870D02*
X146348D01*
X146308Y99830D02*
Y99910D01*
X147610Y90586D02*
X147690D01*
X147650Y90546D02*
Y90626D01*
X142350Y101220D02*
X142430D01*
X142390Y101180D02*
Y101260D01*
X141945Y90384D02*
X142025D01*
X141985Y90344D02*
Y90424D01*
X142170Y90640D02*
X142250D01*
X142210Y90600D02*
Y90680D01*
X112960Y95270D02*
X113040D01*
X113000Y95230D02*
Y95310D01*
X93480Y105660D02*
X93560D01*
X93520Y105620D02*
Y105700D01*
X96725Y102157D02*
X96805D01*
X96765Y102117D02*
Y102197D01*
X110766Y100684D02*
X110846D01*
X110806Y100644D02*
Y100724D01*
X109900Y94780D02*
X109980D01*
X109940Y94740D02*
Y94820D01*
X109900Y95060D02*
X109980D01*
X109940Y95020D02*
Y95100D01*
X109900Y95380D02*
X109980D01*
X109940Y95340D02*
Y95420D01*
X124802Y94360D02*
X124962D01*
X124882Y94280D02*
Y94440D01*
X124546Y93081D02*
X124706D01*
X124626Y93001D02*
Y93161D01*
X124546Y95384D02*
X124706D01*
X124626Y95304D02*
Y95464D01*
X113910Y101070D02*
X113990D01*
X113950Y101030D02*
Y101110D01*
X121040Y98450D02*
X121120D01*
X121080Y98410D02*
Y98490D01*
X122010Y96540D02*
X122090D01*
X122050Y96500D02*
Y96580D01*
X122010Y95950D02*
X122090D01*
X122050Y95910D02*
Y95990D01*
X121266Y98454D02*
X121346D01*
X121306Y98414D02*
Y98494D01*
X116860Y99677D02*
X116940D01*
X116900Y99637D02*
Y99717D01*
X112656Y101616D02*
X112736D01*
X112696Y101576D02*
Y101656D01*
X111150Y97701D02*
X111230D01*
X111190Y97661D02*
Y97741D01*
X111838Y97374D02*
X111918D01*
X111878Y97334D02*
Y97414D01*
X111022Y99404D02*
X111102D01*
X111062Y99364D02*
Y99444D01*
X111534Y99660D02*
X111614D01*
X111574Y99620D02*
Y99700D01*
X110640Y98840D02*
X110720D01*
X110680Y98800D02*
Y98880D01*
X110259Y99389D02*
X110339D01*
X110299Y99349D02*
Y99429D01*
X110259Y99138D02*
X110339D01*
X110299Y99098D02*
Y99178D01*
X110766Y99148D02*
X110846D01*
X110806Y99108D02*
Y99188D01*
X133070Y96870D02*
X133150D01*
X133110Y96830D02*
Y96910D01*
X107610Y95830D02*
X107690D01*
X107650Y95790D02*
Y95870D01*
X111763Y95672D02*
X111843D01*
X111803Y95632D02*
Y95712D01*
X111464Y95667D02*
X111544D01*
X111504Y95627D02*
Y95707D01*
X90475Y100355D02*
X90555D01*
X90515Y100315D02*
Y100395D01*
X147796Y93699D02*
X147876D01*
X147836Y93659D02*
Y93739D01*
X146331Y93645D02*
X146411D01*
X146371Y93605D02*
Y93685D01*
X146345Y93333D02*
X146425D01*
X146385Y93293D02*
Y93373D01*
X146897Y93384D02*
X146977D01*
X146937Y93344D02*
Y93424D01*
X146345Y92422D02*
X146425D01*
X146385Y92382D02*
Y92462D01*
X146345Y92878D02*
X146425D01*
X146385Y92838D02*
Y92918D01*
X146345Y91967D02*
X146425D01*
X146385Y91927D02*
Y92007D01*
X146345Y91511D02*
X146425D01*
X146385Y91471D02*
Y91551D01*
X146345Y90600D02*
X146425D01*
X146385Y90560D02*
Y90640D01*
X146345Y91056D02*
X146425D01*
X146385Y91016D02*
Y91096D01*
X143129Y95572D02*
X143209D01*
X143169Y95532D02*
Y95612D01*
X132210Y102570D02*
X132290D01*
X132250Y102530D02*
Y102610D01*
X131505Y100652D02*
X131585D01*
X131545Y100612D02*
Y100692D01*
X132240Y101757D02*
X132320D01*
X132280Y101717D02*
Y101797D01*
X128917Y102387D02*
X128997D01*
X128957Y102347D02*
Y102427D01*
X128620Y101605D02*
X128700D01*
X128660Y101565D02*
Y101645D01*
X130148Y100621D02*
X130228D01*
X130188Y100581D02*
Y100661D01*
X130501Y100622D02*
X130581D01*
X130541Y100582D02*
Y100662D01*
X130501Y101085D02*
X130581D01*
X130541Y101045D02*
Y101125D01*
X130149Y100110D02*
X130229D01*
X130189Y100070D02*
Y100150D01*
X146348Y94697D02*
X146428D01*
X146388Y94657D02*
Y94737D01*
X146348Y94244D02*
X146428D01*
X146388Y94204D02*
Y94284D01*
X145590Y100450D02*
X145670D01*
X145630Y100410D02*
Y100490D01*
X146293Y103352D02*
X146373D01*
X146333Y103312D02*
Y103392D01*
X145590Y103610D02*
X145670D01*
X145630Y103570D02*
Y103650D01*
X146194Y101805D02*
X146274D01*
X146234Y101765D02*
Y101845D01*
X145306Y102383D02*
X145386D01*
X145346Y102343D02*
Y102423D01*
X123266Y93337D02*
X123426D01*
X123346Y93257D02*
Y93417D01*
X145600Y104077D02*
X145680D01*
X145640Y104037D02*
Y104117D01*
X123266Y92825D02*
X123426D01*
X123346Y92745D02*
Y92905D01*
X145892Y103108D02*
X145972D01*
X145932Y103068D02*
Y103148D01*
X123266Y92569D02*
X123426D01*
X123346Y92489D02*
Y92649D01*
X145900Y102633D02*
X145980D01*
X145940Y102593D02*
Y102673D01*
X122754Y91801D02*
X122914D01*
X122834Y91721D02*
Y91881D01*
X145900Y102150D02*
X145980D01*
X145940Y102110D02*
Y102190D01*
X122498Y92313D02*
X122658D01*
X122578Y92233D02*
Y92393D01*
X121974Y91801D02*
X122134D01*
X122054Y91721D02*
Y91881D01*
X145905Y104080D02*
X145985D01*
X145945Y104040D02*
Y104120D01*
X122243Y91801D02*
X122403D01*
X122323Y91721D02*
Y91881D01*
X145600Y104560D02*
X145680D01*
X145640Y104520D02*
Y104600D01*
X123010Y92825D02*
X123170D01*
X123090Y92745D02*
Y92905D01*
X123522Y93337D02*
X123682D01*
X123602Y93257D02*
Y93417D01*
X139907Y92411D02*
X139987D01*
X139947Y92371D02*
Y92451D01*
X142876Y98313D02*
X142956D01*
X142916Y98273D02*
Y98353D01*
X142045Y98317D02*
X142125D01*
X142085Y98277D02*
Y98357D01*
X142303Y98307D02*
X142383D01*
X142343Y98267D02*
Y98347D01*
X140480Y91110D02*
X140560D01*
X140520Y91070D02*
Y91150D01*
X142141Y92594D02*
X142221D01*
X142181Y92554D02*
Y92634D01*
X138470Y92260D02*
X138550D01*
X138510Y92220D02*
Y92300D01*
X138470Y91890D02*
X138550D01*
X138510Y91850D02*
Y91930D01*
X138730Y92620D02*
X138810D01*
X138770Y92580D02*
Y92660D01*
X148990Y91490D02*
X149070D01*
X149030Y91450D02*
Y91530D01*
X148690Y91484D02*
X148770D01*
X148730Y91444D02*
Y91524D01*
X148990Y92271D02*
X149070D01*
X149030Y92231D02*
Y92311D01*
X149320Y93410D02*
X149400D01*
X149360Y93370D02*
Y93450D01*
X147950Y94170D02*
X148030D01*
X147990Y94130D02*
Y94210D01*
X147390Y94170D02*
X147470D01*
X147430Y94130D02*
Y94210D01*
X147540Y91498D02*
X147620D01*
X147580Y91458D02*
Y91538D01*
X148990Y92019D02*
X149070D01*
X149030Y91979D02*
Y92059D01*
X148690Y91768D02*
X148770D01*
X148730Y91728D02*
Y91808D01*
X148990Y91768D02*
X149070D01*
X149030Y91728D02*
Y91808D01*
X148690Y92019D02*
X148770D01*
X148730Y91979D02*
Y92059D01*
X148690Y92271D02*
X148770D01*
X148730Y92231D02*
Y92311D01*
X148690Y93135D02*
X148770D01*
X148730Y93095D02*
Y93175D01*
X148990Y92810D02*
X149070D01*
X149030Y92770D02*
Y92850D01*
X148690Y92810D02*
X148770D01*
X148730Y92770D02*
Y92850D01*
X148980Y93460D02*
X149060D01*
X149020Y93420D02*
Y93500D01*
X148690Y93460D02*
X148770D01*
X148730Y93420D02*
Y93500D01*
X147796Y92591D02*
X147876D01*
X147836Y92551D02*
Y92632D01*
X147540Y91970D02*
X147620D01*
X147580Y91930D02*
Y92010D01*
X147540Y92440D02*
X147620D01*
X147580Y92400D02*
Y92480D01*
X147950Y91190D02*
X148030D01*
X147990Y91150D02*
Y91230D01*
X147390Y91190D02*
X147470D01*
X147430Y91150D02*
Y91230D01*
X146721Y104088D02*
X146801D01*
X146761Y104048D02*
Y104128D01*
X147500Y104390D02*
X147580D01*
X147540Y104350D02*
Y104430D01*
X148463Y104254D02*
X148543D01*
X148503Y104214D02*
Y104294D01*
X147472Y104034D02*
X147552D01*
X147512Y103994D02*
Y104074D01*
X146721Y104565D02*
X146801D01*
X146761Y104525D02*
Y104605D01*
X146724Y102367D02*
X146804D01*
X146764Y102327D02*
Y102407D01*
X146720Y103630D02*
X146800D01*
X146760Y103590D02*
Y103670D01*
X146720Y103342D02*
X146800D01*
X146760Y103302D02*
Y103382D01*
X146720Y102827D02*
X146800D01*
X146760Y102787D02*
Y102867D01*
X147470Y102850D02*
X147550D01*
X147510Y102810D02*
Y102890D01*
X148280Y102460D02*
X148360D01*
X148320Y102420D02*
Y102500D01*
X148000Y102460D02*
X148080D01*
X148040Y102420D02*
Y102500D01*
X138260Y103663D02*
X138340D01*
X138300Y103623D02*
Y103703D01*
X122243Y93081D02*
X122403D01*
X122323Y93001D02*
Y93161D01*
X139908Y92633D02*
X139988D01*
X139948Y92593D02*
Y92673D01*
X139907Y92140D02*
X139987D01*
X139947Y92100D02*
Y92180D01*
X128640Y95384D02*
X128800D01*
X128720Y95304D02*
Y95464D01*
X125097Y91545D02*
X125177D01*
X125137Y91505D02*
Y91585D01*
X125353Y91801D02*
X125433D01*
X125393Y91761D02*
Y91841D01*
X128896Y91801D02*
X129056D01*
X128976Y91721D02*
Y91881D01*
X128384Y96407D02*
X128544D01*
X128464Y96327D02*
Y96487D01*
X128389Y96142D02*
X128549D01*
X128469Y96062D02*
Y96222D01*
X116230Y100889D02*
X116310D01*
X116270Y100849D02*
Y100929D01*
X116222Y99677D02*
X116302D01*
X116262Y99637D02*
Y99717D01*
X116530Y99677D02*
X116610D01*
X116570Y99637D02*
Y99717D01*
X116230Y100607D02*
X116310D01*
X116270Y100567D02*
Y100647D01*
X116222Y99250D02*
X116302D01*
X116262Y99210D02*
Y99290D01*
X116530Y99250D02*
X116610D01*
X116570Y99210D02*
Y99290D01*
X116222Y98510D02*
X116302D01*
X116262Y98470D02*
Y98550D01*
X116530Y98510D02*
X116610D01*
X116570Y98470D02*
Y98550D01*
X113888Y99056D02*
X113968D01*
X113928Y99016D02*
Y99096D01*
X114091Y99065D02*
X114171D01*
X114131Y99025D02*
Y99105D01*
X106288Y103129D02*
X106368D01*
X106328Y103089D02*
Y103169D01*
X106500Y103307D02*
X106580D01*
X106540Y103267D02*
Y103347D01*
X104194Y102782D02*
X104274D01*
X104234Y102742D02*
Y102822D01*
X104774Y102950D02*
X104854D01*
X104814Y102910D02*
Y102990D01*
X104506Y102941D02*
X104586D01*
X104546Y102901D02*
Y102981D01*
X104139Y103401D02*
X104219D01*
X104179Y103361D02*
Y103441D01*
X118091Y96310D02*
X118171D01*
X118131Y96270D02*
Y96350D01*
X110330Y95130D02*
X110410D01*
X110370Y95090D02*
Y95170D01*
X110330Y94810D02*
X110410D01*
X110370Y94770D02*
Y94850D01*
X110330Y94530D02*
X110410D01*
X110370Y94490D02*
Y94570D01*
X109735Y98355D02*
X109815D01*
X109775Y98315D02*
Y98395D01*
X115604Y102037D02*
X115684D01*
X115644Y101997D02*
Y102077D01*
X119647Y103601D02*
X119727D01*
X119687Y103561D02*
Y103641D01*
X140480Y100700D02*
X140560D01*
X140520Y100660D02*
Y100740D01*
X140630Y98540D02*
X140710D01*
X140670Y98500D02*
Y98580D01*
X140912Y98826D02*
X140992D01*
X140952Y98786D02*
Y98866D01*
X109151Y101617D02*
X109231D01*
X109191Y101577D02*
Y101657D01*
X109998Y100684D02*
X110078D01*
X110038Y100644D02*
Y100724D01*
X111790Y99404D02*
X111870D01*
X111830Y99364D02*
Y99444D01*
X111022Y99916D02*
X111102D01*
X111062Y99876D02*
Y99956D01*
X110510Y100428D02*
X110590D01*
X110550Y100388D02*
Y100468D01*
X109998Y99404D02*
X110078D01*
X110038Y99364D02*
Y99444D01*
X109998Y99660D02*
X110078D01*
X110038Y99620D02*
Y99700D01*
X110510Y100172D02*
X110590D01*
X110550Y100132D02*
Y100212D01*
X110766Y100172D02*
X110846D01*
X110806Y100132D02*
Y100212D01*
X111170Y98575D02*
X111250D01*
X111210Y98535D02*
Y98615D01*
X111170Y98840D02*
X111250D01*
X111210Y98800D02*
Y98880D01*
X110771Y99409D02*
X110851D01*
X110811Y99369D02*
Y99449D01*
X127361Y96407D02*
X127521D01*
X127441Y96327D02*
Y96487D01*
X97550Y103000D02*
X97630D01*
X97590Y102960D02*
Y103040D01*
X99427Y101513D02*
X99507D01*
X99467Y101473D02*
Y101553D01*
X100952Y101665D02*
X101032D01*
X100992Y101625D02*
Y101705D01*
X96789Y103315D02*
X96869D01*
X96829Y103275D02*
Y103355D01*
X92247Y108958D02*
X92327D01*
X92287Y108918D02*
Y108998D01*
X90584Y109830D02*
X90664D01*
X90624Y109790D02*
Y109870D01*
X97950Y103690D02*
X98030D01*
X97990Y103650D02*
Y103730D01*
X90584Y109060D02*
X90664D01*
X90624Y109020D02*
Y109100D01*
X98420Y103690D02*
X98500D01*
X98460Y103650D02*
Y103730D01*
X99072Y104645D02*
X99152D01*
X99112Y104605D02*
Y104685D01*
X119077Y104157D02*
X119157D01*
X119117Y104117D02*
Y104197D01*
X109280Y104520D02*
X109360D01*
X109320Y104480D02*
Y104560D01*
X109005Y104520D02*
X109085D01*
X109045Y104480D02*
Y104560D01*
X108730Y104520D02*
X108810D01*
X108770Y104480D02*
Y104560D01*
X113680Y104520D02*
X113760D01*
X113720Y104480D02*
Y104560D01*
X113405Y104520D02*
X113485D01*
X113445Y104480D02*
Y104560D01*
X112000Y104520D02*
X112080D01*
X112040Y104480D02*
Y104560D01*
X112275Y104520D02*
X112355D01*
X112315Y104480D02*
Y104560D01*
X112550Y104520D02*
X112630D01*
X112590Y104480D02*
Y104560D01*
X112825Y104520D02*
X112905D01*
X112865Y104480D02*
Y104560D01*
X111723Y104520D02*
X111803D01*
X111763Y104480D02*
Y104560D01*
X110180Y104520D02*
X110260D01*
X110220Y104480D02*
Y104560D01*
X110455Y104520D02*
X110535D01*
X110495Y104480D02*
Y104560D01*
X110730Y104520D02*
X110810D01*
X110770Y104480D02*
Y104560D01*
X111005Y104520D02*
X111085D01*
X111045Y104480D02*
Y104560D01*
X107128Y102438D02*
X107208D01*
X107168Y102398D02*
Y102478D01*
X101018Y93729D02*
X101098D01*
X101059Y93689D02*
Y93769D01*
X101018Y94052D02*
X101098D01*
X101059Y94012D02*
Y94092D01*
X101020Y94375D02*
X101100D01*
X101060Y94335D02*
Y94415D01*
X100517Y93872D02*
X100597D01*
X100557Y93832D02*
Y93912D01*
X108795Y101615D02*
X108875D01*
X108835Y101575D02*
Y101655D01*
X97657Y96986D02*
X97737D01*
X97697Y96946D02*
Y97026D01*
X97416Y97921D02*
X97496D01*
X97456Y97881D02*
Y97961D01*
X99619Y94123D02*
X99699D01*
X99659Y94083D02*
Y94163D01*
X103192Y94561D02*
X103272D01*
X103232Y94521D02*
Y94601D01*
X102932Y94728D02*
X103012D01*
X102972Y94688D02*
Y94768D01*
X103601Y94561D02*
X103681D01*
X103641Y94521D02*
Y94601D01*
X103000Y96473D02*
X103080D01*
X103040Y96433D02*
Y96513D01*
X101909Y96503D02*
X101989D01*
X101949Y96463D02*
Y96543D01*
X108115Y90330D02*
X108195D01*
X108155Y90290D02*
Y90370D01*
X108368Y90330D02*
X108448D01*
X108407Y90290D02*
Y90370D01*
X108620Y90330D02*
X108700D01*
X108660Y90290D02*
Y90370D01*
X108115Y90580D02*
X108195D01*
X108155Y90540D02*
Y90620D01*
X108368Y90580D02*
X108448D01*
X108407Y90540D02*
Y90620D01*
X108620Y90580D02*
X108700D01*
X108660Y90540D02*
Y90620D01*
X108025Y98580D02*
X108105D01*
X108065Y98540D02*
Y98620D01*
X108278Y98580D02*
X108357D01*
X108317Y98540D02*
Y98620D01*
X108530Y98580D02*
X108610D01*
X108570Y98540D02*
Y98620D01*
X91490Y92100D02*
X91570D01*
X91530Y92060D02*
Y92140D01*
X97653Y100384D02*
X97733D01*
X97693Y100344D02*
Y100424D01*
X90937Y92427D02*
X91017D01*
X90977Y92387D02*
Y92467D01*
X98130Y100384D02*
X98210D01*
X98170Y100344D02*
Y100424D01*
X104678Y100210D02*
X104758D01*
X104718Y100170D02*
Y100250D01*
X101046Y95260D02*
X101126D01*
X101086Y95220D02*
Y95300D01*
X127361Y97943D02*
X127521D01*
X127441Y97863D02*
Y98023D01*
X99901Y93829D02*
X99981D01*
X99941Y93789D02*
Y93869D01*
X127617Y97943D02*
X127777D01*
X127697Y97863D02*
Y98023D01*
X127617Y96919D02*
X127777D01*
X127697Y96839D02*
Y96999D01*
X101891Y97952D02*
X101971D01*
X101931Y97912D02*
Y97992D01*
X121602Y92055D02*
X121762D01*
X121682Y91975D02*
Y92135D01*
X121270Y94128D02*
X121430D01*
X121350Y94048D02*
Y94208D01*
X120987Y91930D02*
X121067D01*
X121027Y91890D02*
Y91970D01*
X121262Y91930D02*
X121342D01*
X121302Y91890D02*
Y91970D01*
X121986Y93081D02*
X122146D01*
X122066Y93001D02*
Y93161D01*
X123778Y95640D02*
X123938D01*
X123858Y95560D02*
Y95720D01*
X124034Y95640D02*
X124194D01*
X124114Y95560D02*
Y95720D01*
X126849Y96407D02*
X127009D01*
X126929Y96327D02*
Y96487D01*
X125057Y96663D02*
X125217D01*
X125137Y96583D02*
Y96743D01*
X124546Y97431D02*
X124706D01*
X124626Y97351D02*
Y97511D01*
X125097Y97433D02*
X125177D01*
X125137Y97393D02*
Y97473D01*
X92380Y101220D02*
X92460D01*
X92420Y101180D02*
Y101260D01*
X127361Y96919D02*
X127521D01*
X127441Y96839D02*
Y96999D01*
X92380Y100770D02*
X92460D01*
X92420Y100730D02*
Y100810D01*
X92380Y101680D02*
X92460D01*
X92420Y101640D02*
Y101720D01*
X127872Y97175D02*
X128032D01*
X127952Y97095D02*
Y97255D01*
X92380Y99850D02*
X92460D01*
X92420Y99810D02*
Y99890D01*
X128210Y98780D02*
X128370D01*
X128290Y98700D02*
Y98860D01*
X92580Y97890D02*
X92660D01*
X92620Y97850D02*
Y97930D01*
X128210Y99120D02*
X128370D01*
X128290Y99040D02*
Y99200D01*
X92380Y99070D02*
X92460D01*
X92420Y99030D02*
Y99110D01*
X127920Y98780D02*
X128080D01*
X128000Y98700D02*
Y98860D01*
X92380Y98620D02*
X92460D01*
X92420Y98580D02*
Y98660D01*
X127920Y99120D02*
X128080D01*
X128000Y99040D02*
Y99200D01*
X111786Y99656D02*
X111866D01*
X111826Y99616D02*
Y99696D01*
X131243Y102051D02*
X131323D01*
X131283Y102011D02*
Y102091D01*
X120670Y102786D02*
X120750D01*
X120710Y102746D02*
Y102826D01*
X128128Y97175D02*
X128288D01*
X128208Y97095D02*
Y97255D01*
X131792Y102051D02*
X131872D01*
X131832Y102011D02*
Y102091D01*
X127872Y96663D02*
X128032D01*
X127952Y96583D02*
Y96743D01*
X120980Y102786D02*
X121060D01*
X121020Y102746D02*
Y102826D01*
X131230Y101757D02*
X131310D01*
X131270Y101717D02*
Y101797D01*
X120980Y102392D02*
X121060D01*
X121020Y102352D02*
Y102432D01*
X128384Y97431D02*
X128544D01*
X128464Y97351D02*
Y97511D01*
X131792Y101757D02*
X131872D01*
X131832Y101717D02*
Y101797D01*
X122263Y101423D02*
X122343D01*
X122303Y101383D02*
Y101463D01*
X145400Y91900D02*
X145480D01*
X145440Y91860D02*
Y91940D01*
X126160Y99120D02*
X126320D01*
X126240Y99040D02*
Y99200D01*
X145400Y91567D02*
X145480D01*
X145440Y91527D02*
Y91607D01*
X126160Y98780D02*
X126320D01*
X126240Y98700D02*
Y98860D01*
X132693Y97191D02*
X132773D01*
X132733Y97151D02*
Y97231D01*
X124176Y102763D02*
X124256D01*
X124216Y102723D02*
Y102803D01*
X107257Y100173D02*
X107337D01*
X107297Y100133D02*
Y100213D01*
X107973Y100179D02*
X108053D01*
X108013Y100139D02*
Y100219D01*
X107735Y100176D02*
X107815D01*
X107775Y100136D02*
Y100216D01*
X107496Y100176D02*
X107576D01*
X107536Y100136D02*
Y100216D01*
X109180Y100280D02*
X109260D01*
X109220Y100240D02*
Y100320D01*
X130150Y101142D02*
X130230D01*
X130190Y101102D02*
Y101182D01*
X124006Y102206D02*
X124086D01*
X124046Y102166D02*
Y102246D01*
X124950Y102560D02*
X125030D01*
X124990Y102520D02*
Y102600D01*
X103360Y100210D02*
X103440D01*
X103400Y100170D02*
Y100250D01*
X103057Y100210D02*
X103137D01*
X103097Y100170D02*
Y100250D01*
X102753Y100210D02*
X102833D01*
X102793Y100170D02*
Y100250D01*
X102450Y100210D02*
X102530D01*
X102490Y100170D02*
Y100250D01*
X99039Y101524D02*
X99119D01*
X99079Y101484D02*
Y101564D01*
X100942Y102737D02*
X101022D01*
X100982Y102697D02*
Y102777D01*
X92450Y103040D02*
X92530D01*
X92490Y103000D02*
Y103080D01*
X92180Y103040D02*
X92260D01*
X92220Y103000D02*
Y103080D01*
X123010Y91801D02*
X123170D01*
X123090Y91721D02*
Y91881D01*
X87648Y106886D02*
X87728D01*
X87688Y106846D02*
Y106926D01*
X122754Y91289D02*
X122914D01*
X122834Y91209D02*
Y91369D01*
X89790Y107510D02*
X89870D01*
X89830Y107470D02*
Y107550D01*
X122754Y91545D02*
X122914D01*
X122834Y91465D02*
Y91625D01*
X89790Y107750D02*
X89870D01*
X89830Y107710D02*
Y107790D01*
X93315Y102213D02*
X93394D01*
X93355Y102173D02*
Y102253D01*
X104384Y100500D02*
X104464D01*
X104424Y100460D02*
Y100540D01*
X94976Y103550D02*
X95056D01*
X95016Y103510D02*
Y103590D01*
X94981Y103138D02*
X95061D01*
X95021Y103098D02*
Y103178D01*
X96451Y102590D02*
X96531D01*
X96491Y102550D02*
Y102630D01*
X95312Y103553D02*
X95392D01*
X95352Y103513D02*
Y103593D01*
X112302Y98437D02*
X112382D01*
X112342Y98397D02*
Y98477D01*
X111278Y99404D02*
X111358D01*
X111318Y99364D02*
Y99444D01*
X103640Y103660D02*
X103720D01*
X103680Y103620D02*
Y103700D01*
X124034Y95384D02*
X124194D01*
X124114Y95304D02*
Y95464D01*
X124034Y92313D02*
X124194D01*
X124114Y92233D02*
Y92393D01*
X112302Y99404D02*
X112382D01*
X112342Y99364D02*
Y99444D01*
X111790Y100172D02*
X111870D01*
X111830Y100132D02*
Y100212D01*
X111534Y100172D02*
X111614D01*
X111574Y100132D02*
Y100212D01*
X121986Y93920D02*
X122146D01*
X122066Y93840D02*
Y94000D01*
X112302Y99660D02*
X112382D01*
X112342Y99620D02*
Y99700D01*
X97124Y97914D02*
X97204D01*
X97164Y97874D02*
Y97954D01*
X114920Y100580D02*
X115000D01*
X114960Y100540D02*
Y100620D01*
X113003Y99896D02*
X113083D01*
X113043Y99856D02*
Y99936D01*
X104290Y101840D02*
X104370D01*
X104330Y101800D02*
Y101880D01*
X96142Y107070D02*
X96222D01*
X96182Y107030D02*
Y107110D01*
X111816Y101302D02*
X111896D01*
X111856Y101262D02*
Y101342D01*
X111021Y101523D02*
X111101D01*
X111061Y101483D02*
Y101563D01*
X111811Y101087D02*
X111891D01*
X111851Y101047D02*
Y101127D01*
X111026Y101260D02*
X111106D01*
X111066Y101220D02*
Y101300D01*
X110261Y101286D02*
X110341D01*
X110301Y101246D02*
Y101326D01*
X110428Y101153D02*
X110508D01*
X110468Y101113D02*
Y101193D01*
X109175Y100048D02*
X109255D01*
X109215Y100008D02*
Y100088D01*
X125313Y95128D02*
X125473D01*
X125393Y95048D02*
Y95208D01*
X124292Y94614D02*
X124452D01*
X124372Y94534D02*
Y94694D01*
X100952Y101060D02*
X101032D01*
X100992Y101020D02*
Y101100D01*
X92870Y100150D02*
X92950D01*
X92910Y100110D02*
Y100190D01*
X90033Y104690D02*
X90113D01*
X90073Y104650D02*
Y104730D01*
X91555Y103830D02*
X91635D01*
X91595Y103790D02*
Y103870D01*
X91710Y107210D02*
X91790D01*
X91750Y107170D02*
Y107250D01*
X120566Y92781D02*
X120646D01*
X120606Y92741D02*
Y92821D01*
X120541Y93070D02*
X120621D01*
X120581Y93030D02*
Y93110D01*
X120117Y92929D02*
X120197D01*
X120157Y92889D02*
Y92969D01*
X121986Y93593D02*
X122146D01*
X122066Y93513D02*
Y93673D01*
X112559Y99658D02*
X112639D01*
X112599Y99618D02*
Y99698D01*
X123010Y94107D02*
X123170D01*
X123090Y94027D02*
Y94187D01*
X111976Y95328D02*
X112056D01*
X112016Y95288D02*
Y95368D01*
X111953Y92145D02*
X112033D01*
X111993Y92105D02*
Y92185D01*
X123522Y94104D02*
X123682D01*
X123602Y94024D02*
Y94184D01*
X111021Y100684D02*
X111101D01*
X111061Y100644D02*
Y100724D01*
X112408Y95021D02*
X112488D01*
X112448Y94981D02*
Y95061D01*
X112443Y92443D02*
X112523D01*
X112483Y92403D02*
Y92483D01*
X100950Y103001D02*
X101030D01*
X100990Y102961D02*
Y103041D01*
X122243Y95128D02*
X122403D01*
X122323Y95048D02*
Y95208D01*
X94600Y109159D02*
X94680D01*
X94640Y109119D02*
Y109199D01*
X123778Y94872D02*
X123938D01*
X123858Y94792D02*
Y94952D01*
X95570Y109126D02*
X95650D01*
X95610Y109086D02*
Y109166D01*
X123778Y94616D02*
X123938D01*
X123858Y94536D02*
Y94696D01*
X95570Y108893D02*
X95650D01*
X95610Y108853D02*
Y108933D01*
X123522Y94616D02*
X123682D01*
X123602Y94536D02*
Y94696D01*
X104510Y103960D02*
X104590D01*
X104550Y103920D02*
Y104000D01*
X97855Y102595D02*
X97935D01*
X97895Y102555D02*
Y102635D01*
X97440Y103690D02*
X97520D01*
X97480Y103650D02*
Y103730D01*
X92179Y108121D02*
X92259D01*
X92219Y108081D02*
Y108161D01*
X100950Y103511D02*
X101030D01*
X100990Y103471D02*
Y103551D01*
X100937Y104067D02*
X101017D01*
X100977Y104027D02*
Y104107D01*
X123272Y95128D02*
X123432D01*
X123352Y95048D02*
Y95208D01*
X94910Y107550D02*
X94990D01*
X94950Y107510D02*
Y107590D01*
X123010Y95128D02*
X123170D01*
X123090Y95048D02*
Y95208D01*
X94910Y108893D02*
X94990D01*
X94950Y108853D02*
Y108933D01*
X122754Y95128D02*
X122914D01*
X122834Y95048D02*
Y95208D01*
X93494Y108893D02*
X93574D01*
X93534Y108853D02*
Y108933D01*
X122498Y95128D02*
X122658D01*
X122578Y95048D02*
Y95208D01*
X93810Y109159D02*
X93890D01*
X93850Y109119D02*
Y109199D01*
X93494Y106964D02*
X93574D01*
X93534Y106924D02*
Y107004D01*
X96142Y106752D02*
X96222D01*
X96182Y106712D02*
Y106792D01*
X93494Y107248D02*
X93574D01*
X93534Y107208D02*
Y107288D01*
X103498Y104957D02*
X103578D01*
X103538Y104917D02*
Y104997D01*
X123266Y94104D02*
X123426D01*
X123346Y94024D02*
Y94184D01*
X123776Y93848D02*
X123936D01*
X123856Y93768D02*
Y93928D01*
X122215Y95389D02*
X122295D01*
X122255Y95349D02*
Y95429D01*
X123522Y95128D02*
X123682D01*
X123602Y95048D02*
Y95208D01*
X123778Y95128D02*
X123938D01*
X123858Y95048D02*
Y95208D01*
X123142Y97547D02*
X123302D01*
X123222Y97467D02*
Y97627D01*
X121050Y99830D02*
X121130D01*
X121090Y99790D02*
Y99870D01*
X123522Y97175D02*
X123682D01*
X123602Y97095D02*
Y97255D01*
X102770Y104957D02*
X102850D01*
X102810Y104917D02*
Y104997D01*
X121275Y90838D02*
X121355D01*
X121315Y90798D02*
Y90878D01*
X121272Y90489D02*
X121352D01*
X121312Y90449D02*
Y90529D01*
X122153Y92097D02*
X122313D01*
X122233Y92017D02*
Y92177D01*
X122243Y91289D02*
X122403D01*
X122323Y91209D02*
Y91369D01*
X119454Y91263D02*
X119534D01*
X119494Y91223D02*
Y91303D01*
X121272Y91297D02*
X121352D01*
X121312Y91257D02*
Y91337D01*
X120987Y91297D02*
X121067D01*
X121027Y91257D02*
Y91337D01*
X119830Y91732D02*
X119910D01*
X119870Y91692D02*
Y91772D01*
X122754Y92313D02*
X122914D01*
X122834Y92233D02*
Y92393D01*
X121192Y95285D02*
X121272D01*
X121232Y95245D02*
Y95325D01*
X93810Y106964D02*
X93890D01*
X93850Y106924D02*
Y107004D01*
X93810Y106680D02*
X93890D01*
X93850Y106640D02*
Y106720D01*
X123266Y96663D02*
X123426D01*
X123346Y96583D02*
Y96743D01*
X135817Y95398D02*
X135897D01*
X135857Y95358D02*
Y95438D01*
X122010Y96272D02*
X122090D01*
X122050Y96232D02*
Y96312D01*
X121300Y96880D02*
X121380D01*
X121340Y96840D02*
Y96920D01*
X121980Y96880D02*
X122060D01*
X122020Y96840D02*
Y96920D01*
X121980Y97540D02*
X122060D01*
X122020Y97500D02*
Y97580D01*
X121300Y97540D02*
X121380D01*
X121340Y97500D02*
Y97580D01*
X121110Y93120D02*
X121190D01*
X121150Y93080D02*
Y93160D01*
X121330Y93120D02*
X121410D01*
X121370Y93080D02*
Y93160D01*
X121320Y93741D02*
X121400D01*
X121360Y93701D02*
Y93781D01*
X121100Y93741D02*
X121180D01*
X121140Y93701D02*
Y93781D01*
X121881Y92657D02*
X122041D01*
X121961Y92577D02*
Y92737D01*
X88888Y105238D02*
X88968D01*
X88928Y105198D02*
Y105278D01*
X106799Y100711D02*
X106879D01*
X106839Y100671D02*
Y100751D01*
X107014Y100928D02*
X107094D01*
X107054Y100888D02*
Y100968D01*
X107683Y98071D02*
X107763D01*
X107723Y98031D02*
Y98111D01*
X111170Y98311D02*
X111250D01*
X111210Y98271D02*
Y98351D01*
X111860Y91610D02*
X111940D01*
X111900Y91570D02*
Y91650D01*
X113048Y98450D02*
X113128D01*
X113088Y98410D02*
Y98490D01*
X111860Y91365D02*
X111940D01*
X111900Y91325D02*
Y91405D01*
X142559Y98311D02*
X142639D01*
X142599Y98271D02*
Y98351D01*
X142310Y99102D02*
X142390D01*
X142350Y99062D02*
Y99142D01*
X129655Y99313D02*
X129815D01*
X129735Y99233D02*
Y99393D01*
X120670Y101797D02*
X120750D01*
X120710Y101757D02*
Y101837D01*
X101907Y95870D02*
X101987D01*
X101947Y95830D02*
Y95910D01*
X89460Y96608D02*
X89540D01*
X89500Y96567D02*
Y96648D01*
X89910Y96021D02*
X89990D01*
X89950Y95981D02*
Y96061D01*
X96483Y108920D02*
X96563D01*
X96523Y108880D02*
Y108960D01*
X90040Y110080D02*
X90120D01*
X90080Y110040D02*
Y110120D01*
X114889Y95767D02*
X114969D01*
X114929Y95727D02*
Y95807D01*
X114917Y100315D02*
X114997D01*
X114957Y100275D02*
Y100355D01*
X114272Y100592D02*
X114352D01*
X114312Y100552D02*
Y100632D01*
X112780Y99436D02*
X112860D01*
X112820Y99396D02*
Y99476D01*
X96280Y100384D02*
X96360D01*
X96320Y100344D02*
Y100424D01*
X116159Y91204D02*
X116239D01*
X116199Y91164D02*
Y91244D01*
X124546Y93337D02*
X124706D01*
X124626Y93257D02*
Y93417D01*
X118482Y94502D02*
X118562D01*
X118522Y94462D02*
Y94542D01*
X124290Y94104D02*
X124450D01*
X124370Y94024D02*
Y94184D01*
X123818Y96150D02*
X123898D01*
X123858Y96110D02*
Y96190D01*
X125450Y97220D02*
X125530D01*
X125490Y97180D02*
Y97260D01*
X125057Y93337D02*
X125217D01*
X125137Y93257D02*
Y93417D01*
X102059Y101826D02*
X102139D01*
X102099Y101786D02*
Y101866D01*
X105003Y101115D02*
X105083D01*
X105043Y101075D02*
Y101155D01*
X101738Y100600D02*
X101818D01*
X101778Y100560D02*
Y100640D01*
X112909Y92784D02*
X112989D01*
X112949Y92744D02*
Y92824D01*
X129960Y94812D02*
X130040D01*
X130000Y94772D02*
Y94852D01*
X130569Y93241D02*
X130649D01*
X130609Y93201D02*
Y93281D01*
X137287Y98140D02*
X137367D01*
X137327Y98100D02*
Y98180D01*
X137287Y98463D02*
X137367D01*
X137327Y98423D02*
Y98503D01*
X136478Y98463D02*
X136558D01*
X136518Y98423D02*
Y98503D01*
X136160Y98137D02*
X136240D01*
X136200Y98097D02*
Y98177D01*
X135825Y98137D02*
X135905D01*
X135865Y98097D02*
Y98177D01*
X136480Y98137D02*
X136560D01*
X136520Y98097D02*
Y98177D01*
X136053Y97836D02*
X136133D01*
X136093Y97796D02*
Y97876D01*
X131780Y98200D02*
X131860D01*
X131820Y98160D02*
Y98240D01*
X132717Y98170D02*
X132797D01*
X132757Y98130D02*
Y98210D01*
X132685Y94213D02*
X132765D01*
X132725Y94173D02*
Y94253D01*
X134400Y100925D02*
X134480D01*
X134440Y100885D02*
Y100965D01*
X134400Y101160D02*
X134480D01*
X134440Y101120D02*
Y101200D01*
X132940Y101760D02*
X133020D01*
X132980Y101720D02*
Y101800D01*
X132941Y102011D02*
X133021D01*
X132981Y101971D02*
Y102051D01*
X134210Y99970D02*
X134290D01*
X134250Y99930D02*
Y100010D01*
X133930Y99960D02*
X134010D01*
X133970Y99920D02*
Y100000D01*
X133650Y99960D02*
X133730D01*
X133690Y99920D02*
Y100000D01*
X133990Y101930D02*
X134070D01*
X134030Y101890D02*
Y101970D01*
X133670Y101930D02*
X133750D01*
X133710Y101890D02*
Y101970D01*
X133350Y101930D02*
X133430D01*
X133390Y101890D02*
Y101970D01*
X132240Y101140D02*
X132320D01*
X132280Y101100D02*
Y101180D01*
X131370Y101150D02*
X131450D01*
X131410Y101110D02*
Y101190D01*
X115890Y97050D02*
X115970D01*
X115930Y97010D02*
Y97090D01*
X112548Y96520D02*
X112628D01*
X112588Y96480D02*
Y96560D01*
X115500Y91204D02*
X115580D01*
X115540Y91164D02*
Y91244D01*
X115830Y91204D02*
X115910D01*
X115870Y91164D02*
Y91244D01*
X115170Y91204D02*
X115250D01*
X115210Y91164D02*
Y91244D01*
X126081Y93593D02*
X126241D01*
X126161Y93513D02*
Y93673D01*
X126593Y95384D02*
X126753D01*
X126673Y95304D02*
Y95464D01*
X127060Y92490D02*
X127140D01*
X127100Y92450D02*
Y92530D01*
X143394Y99092D02*
X143474D01*
X143434Y99052D02*
Y99132D01*
X107450Y95260D02*
X107530D01*
X107490Y95220D02*
Y95300D01*
X110975Y94478D02*
X111055D01*
X111015Y94438D02*
Y94518D01*
X119217Y93639D02*
X119297D01*
X119257Y93599D02*
Y93679D01*
X121192Y95590D02*
X121272D01*
X121232Y95550D02*
Y95630D01*
X119210Y94180D02*
X119290D01*
X119250Y94140D02*
Y94220D01*
X120995Y95776D02*
X121075D01*
X121035Y95736D02*
Y95816D01*
X131243Y102356D02*
X131323D01*
X131283Y102316D02*
Y102396D01*
X123221Y101435D02*
X123301D01*
X123261Y101395D02*
Y101475D01*
X122742Y101446D02*
X122822D01*
X122782Y101405D02*
Y101486D01*
X122754Y93337D02*
X122914D01*
X122834Y93257D02*
Y93417D01*
X123266Y91801D02*
X123426D01*
X123346Y91721D02*
Y91881D01*
X90033Y105440D02*
X90113D01*
X90073Y105400D02*
Y105480D01*
X119380Y94960D02*
X119460D01*
X119420Y94920D02*
Y95000D01*
X124034Y94104D02*
X124194D01*
X124114Y94024D02*
Y94184D01*
X123266Y94616D02*
X123426D01*
X123346Y94536D02*
Y94696D01*
X122187Y102971D02*
X122267D01*
X122227Y102931D02*
Y103011D01*
X123221Y101930D02*
X123301D01*
X123261Y101890D02*
Y101970D01*
X122263Y101930D02*
X122343D01*
X122303Y101890D02*
Y101970D01*
X122742Y101930D02*
X122822D01*
X122782Y101890D02*
Y101970D01*
X128880Y101605D02*
X128960D01*
X128920Y101565D02*
Y101645D01*
X128114Y102376D02*
X128194D01*
X128154Y102336D02*
Y102416D01*
X127740Y102700D02*
X127820D01*
X127780Y102660D02*
Y102740D01*
X127742Y102966D02*
X127822D01*
X127782Y102926D02*
Y103006D01*
X126760Y98780D02*
X126920D01*
X126840Y98700D02*
Y98860D01*
X129020Y99320D02*
X129180D01*
X129100Y99240D02*
Y99400D01*
X129335Y99320D02*
X129495D01*
X129415Y99240D02*
Y99400D01*
X96384Y103682D02*
X96464D01*
X96424Y103642D02*
Y103722D01*
X96384Y103315D02*
X96464D01*
X96424Y103275D02*
Y103355D01*
X118755Y104743D02*
X118835D01*
X118795Y104703D02*
Y104783D01*
X118755Y104448D02*
X118835D01*
X118795Y104408D02*
Y104488D01*
X118309Y104743D02*
X118390D01*
X118350Y104703D02*
Y104783D01*
X118311Y104448D02*
X118391D01*
X118351Y104408D02*
Y104488D01*
X118300Y103854D02*
X118380D01*
X118340Y103814D02*
Y103894D01*
X118304Y103577D02*
X118384D01*
X118344Y103537D02*
Y103617D01*
X98200Y104660D02*
X98280D01*
X98240Y104620D02*
Y104700D01*
X96820Y104677D02*
X96900D01*
X96860Y104637D02*
Y104717D01*
X97280Y104671D02*
X97360D01*
X97320Y104631D02*
Y104711D01*
X97280Y104993D02*
X97360D01*
X97320Y104953D02*
Y105033D01*
X126593Y97687D02*
X126753D01*
X126673Y97607D02*
Y97767D01*
X97740Y104660D02*
X97820D01*
X97780Y104620D02*
Y104700D01*
X126470Y98780D02*
X126630D01*
X126550Y98700D02*
Y98860D01*
X126337Y97687D02*
X126497D01*
X126417Y97607D02*
Y97767D01*
X118300Y104151D02*
X118380D01*
X118340Y104111D02*
Y104191D01*
X126337Y97431D02*
X126497D01*
X126417Y97351D02*
Y97511D01*
X126593Y97431D02*
X126753D01*
X126673Y97351D02*
Y97511D01*
X96820Y104993D02*
X96900D01*
X96860Y104953D02*
Y105033D01*
X126593Y97175D02*
X126753D01*
X126673Y97095D02*
Y97255D01*
X130252Y95195D02*
X130332D01*
X130292Y95155D02*
Y95235D01*
X128640Y95128D02*
X128800D01*
X128720Y95048D02*
Y95208D01*
X132495Y95956D02*
X132575D01*
X132535Y95916D02*
Y95996D01*
X128384Y94360D02*
X128544D01*
X128464Y94280D02*
Y94440D01*
X129910Y94358D02*
X130070D01*
X129990Y94278D02*
Y94438D01*
X135641Y95978D02*
X135721D01*
X135681Y95938D02*
Y96018D01*
X128128Y94360D02*
X128288D01*
X128208Y94280D02*
Y94440D01*
X129151Y95127D02*
X129311D01*
X129231Y95047D02*
Y95207D01*
X128886Y95384D02*
X129046D01*
X128966Y95304D02*
Y95464D01*
X129593Y96250D02*
X129753D01*
X129673Y96170D02*
Y96330D01*
X128896Y95896D02*
X129056D01*
X128976Y95816D02*
Y95976D01*
X128388Y95889D02*
X128548D01*
X128468Y95809D02*
Y95969D01*
X136781Y96777D02*
X136861D01*
X136821Y96737D02*
Y96817D01*
X136781Y97371D02*
X136861D01*
X136821Y97331D02*
Y97411D01*
X128640Y94872D02*
X128800D01*
X128720Y94792D02*
Y94952D01*
X128640Y93337D02*
X128800D01*
X128720Y93257D02*
Y93417D01*
X128384Y94872D02*
X128544D01*
X128464Y94792D02*
Y94952D01*
X129713Y92437D02*
X129873D01*
X129793Y92357D02*
Y92517D01*
X129472Y92437D02*
X129632D01*
X129552Y92357D02*
Y92517D01*
X128128Y93081D02*
X128288D01*
X128208Y93001D02*
Y93161D01*
X137076Y94410D02*
X137156D01*
X137116Y94370D02*
Y94450D01*
X126849Y97943D02*
X127009D01*
X126929Y97863D02*
Y98023D01*
X101046Y95608D02*
X101126D01*
X101086Y95568D02*
Y95648D01*
X127360Y97431D02*
X127520D01*
X127440Y97351D02*
Y97511D01*
X126849Y97175D02*
X127009D01*
X126929Y97095D02*
Y97255D01*
X99900Y93440D02*
X99980D01*
X99940Y93400D02*
Y93480D01*
X126593Y96919D02*
X126753D01*
X126673Y96839D02*
Y96999D01*
X100963Y93440D02*
X101043D01*
X101003Y93400D02*
Y93480D01*
X126849Y96919D02*
X127009D01*
X126929Y96839D02*
Y96999D01*
X99193Y98824D02*
X99273D01*
X99233Y98784D02*
Y98864D01*
X127630Y98780D02*
X127790D01*
X127710Y98700D02*
Y98860D01*
X100160Y98824D02*
X100240D01*
X100200Y98784D02*
Y98864D01*
X127630Y99120D02*
X127790D01*
X127710Y99040D02*
Y99200D01*
X100640Y98824D02*
X100720D01*
X100680Y98784D02*
Y98864D01*
X127340Y98780D02*
X127500D01*
X127420Y98700D02*
Y98860D01*
X99680Y98824D02*
X99760D01*
X99720Y98784D02*
Y98864D01*
X127340Y99120D02*
X127500D01*
X127420Y99040D02*
Y99200D01*
X98720Y98824D02*
X98800D01*
X98760Y98784D02*
Y98864D01*
X127050Y99120D02*
X127210D01*
X127130Y99040D02*
Y99200D01*
X98240Y98824D02*
X98320D01*
X98280Y98784D02*
Y98864D01*
X126760Y99120D02*
X126920D01*
X126840Y99040D02*
Y99200D01*
X101002Y98251D02*
X101082D01*
X101042Y98211D02*
Y98291D01*
X127617Y97680D02*
X127777D01*
X127697Y97600D02*
Y97760D01*
X97438Y92445D02*
X97518D01*
X97478Y92405D02*
Y92485D01*
X93810Y107248D02*
X93890D01*
X93850Y107208D02*
Y107288D01*
X93810Y107816D02*
X93890D01*
X93850Y107776D02*
Y107856D01*
X124034Y96407D02*
X124194D01*
X124114Y96327D02*
Y96487D01*
X93810Y107532D02*
X93890D01*
X93850Y107492D02*
Y107572D01*
X123778Y96407D02*
X123938D01*
X123858Y96327D02*
Y96487D01*
X93494Y107532D02*
X93574D01*
X93534Y107492D02*
Y107572D01*
X123522Y96407D02*
X123682D01*
X123602Y96327D02*
Y96487D01*
X123522Y96152D02*
X123682D01*
X123602Y96072D02*
Y96232D01*
X145905Y104560D02*
X145985D01*
X145945Y104520D02*
Y104600D01*
X129152Y93593D02*
X129312D01*
X129232Y93513D02*
Y93673D01*
X130546Y95591D02*
X130626D01*
X130586Y95551D02*
Y95631D01*
X129151Y94872D02*
X129311D01*
X129231Y94792D02*
Y94952D01*
X129900Y95948D02*
X130060D01*
X129980Y95868D02*
Y96028D01*
X129593Y95948D02*
X129753D01*
X129673Y95868D02*
Y96028D01*
X130833Y94409D02*
X130913D01*
X130873Y94369D02*
Y94449D01*
X134545Y96870D02*
X134625D01*
X134585Y96830D02*
Y96910D01*
X130566Y97033D02*
X130646D01*
X130606Y96993D02*
Y97073D01*
X130833Y97362D02*
X130913D01*
X130873Y97322D02*
Y97402D01*
X131740Y95563D02*
X131820D01*
X131780Y95523D02*
Y95603D01*
X132130Y95169D02*
X132210D01*
X132170Y95129D02*
Y95209D01*
X129438Y94872D02*
X129598D01*
X129518Y94792D02*
Y94952D01*
X129573Y94360D02*
X129733D01*
X129653Y94280D02*
Y94440D01*
X129152Y93848D02*
X129312D01*
X129232Y93768D02*
Y93928D01*
X130546Y94804D02*
X130626D01*
X130586Y94764D02*
Y94844D01*
X128896Y93337D02*
X129056D01*
X128976Y93257D02*
Y93417D01*
X136789Y95591D02*
X136869D01*
X136829Y95551D02*
Y95631D01*
X135076Y95588D02*
X135156D01*
X135116Y95548D02*
Y95628D01*
X134643Y97827D02*
X134723D01*
X134683Y97787D02*
Y97867D01*
X136781Y92522D02*
X136861D01*
X136821Y92482D02*
Y92562D01*
X128384Y92313D02*
X128544D01*
X128464Y92233D02*
Y92393D01*
X135641Y96377D02*
X135721D01*
X135681Y96337D02*
Y96417D01*
X130830Y97033D02*
X130910D01*
X130870Y96993D02*
Y97073D01*
X132130Y97191D02*
X132210D01*
X132170Y97151D02*
Y97231D01*
X131739Y97186D02*
X131819D01*
X131779Y97146D02*
Y97226D01*
X131528Y92862D02*
X131608D01*
X131568Y92822D02*
Y92902D01*
X135368Y94809D02*
X135448D01*
X135408Y94769D02*
Y94849D01*
X136793Y94410D02*
X136873D01*
X136833Y94370D02*
Y94450D01*
X136789Y94809D02*
X136869D01*
X136829Y94769D02*
Y94849D01*
X136487Y95984D02*
X136567D01*
X136527Y95944D02*
Y96024D01*
X136487Y96777D02*
X136567D01*
X136527Y96737D02*
Y96817D01*
X136487Y95591D02*
X136567D01*
X136527Y95551D02*
Y95631D01*
X136487Y96378D02*
X136567D01*
X136527Y96338D02*
Y96418D01*
X136793Y93222D02*
X136873D01*
X136833Y93182D02*
Y93262D01*
X137076Y93222D02*
X137156D01*
X137116Y93182D02*
Y93262D01*
X136781Y92872D02*
X136861D01*
X136821Y92832D02*
Y92912D01*
X135076Y95987D02*
X135156D01*
X135116Y95947D02*
Y96027D01*
X135368Y93229D02*
X135448D01*
X135408Y93189D02*
Y93269D01*
X136488Y93222D02*
X136568D01*
X136528Y93182D02*
Y93262D01*
X128128Y92825D02*
X128288D01*
X128208Y92745D02*
Y92905D01*
X135825Y92860D02*
X135905D01*
X135865Y92820D02*
Y92900D01*
X135368Y93621D02*
X135448D01*
X135408Y93581D02*
Y93661D01*
X135076Y94015D02*
X135156D01*
X135116Y93975D02*
Y94055D01*
X135418Y98137D02*
X135498D01*
X135458Y98097D02*
Y98177D01*
X135052Y98137D02*
X135132D01*
X135092Y98097D02*
Y98177D01*
X130833Y95196D02*
X130913D01*
X130873Y95156D02*
Y95236D01*
X128896Y92569D02*
X129056D01*
X128976Y92489D02*
Y92649D01*
X131616Y93406D02*
X131696D01*
X131656Y93366D02*
Y93446D01*
X135347Y95987D02*
X135427D01*
X135387Y95947D02*
Y96027D01*
X136431Y97371D02*
X136511D01*
X136471Y97331D02*
Y97411D01*
X127872Y95640D02*
X128032D01*
X127952Y95560D02*
Y95720D01*
X114210Y103257D02*
X114290D01*
X114250Y103217D02*
Y103297D01*
X125569Y94616D02*
X125729D01*
X125649Y94536D02*
Y94696D01*
X120380Y95776D02*
X120460D01*
X120420Y95736D02*
Y95816D01*
X123765Y101453D02*
X123845D01*
X123805Y101413D02*
Y101493D01*
X124981Y101266D02*
X125061D01*
X125021Y101226D02*
Y101306D01*
X127001Y103791D02*
X127081D01*
X127041Y103750D02*
Y103830D01*
X132085Y92173D02*
X132165D01*
X132125Y92133D02*
Y92213D01*
X131160Y97827D02*
X131240D01*
X131200Y97787D02*
Y97867D01*
X134648Y98137D02*
X134728D01*
X134688Y98097D02*
Y98177D01*
X136487Y94410D02*
X136567D01*
X136527Y94370D02*
Y94450D01*
X136385Y92173D02*
X136465D01*
X136425Y92133D02*
Y92213D01*
X135076Y94409D02*
X135156D01*
X135116Y94369D02*
Y94449D01*
X135076Y93229D02*
X135156D01*
X135116Y93189D02*
Y93269D01*
X135651Y93229D02*
X135731D01*
X135691Y93189D02*
Y93269D01*
X135368Y94015D02*
X135448D01*
X135408Y93975D02*
Y94055D01*
X135651Y94015D02*
X135731D01*
X135691Y93975D02*
Y94055D01*
X135651Y94409D02*
X135731D01*
X135691Y94369D02*
Y94449D01*
X135651Y94809D02*
X135731D01*
X135691Y94769D02*
Y94849D01*
X135651Y95588D02*
X135731D01*
X135691Y95548D02*
Y95628D01*
X134851Y96552D02*
X134931D01*
X134891Y96512D02*
Y96592D01*
X133857Y96870D02*
X133937D01*
X133897Y96830D02*
Y96910D01*
X134841Y96870D02*
X134921D01*
X134881Y96830D02*
Y96910D01*
X134841Y97171D02*
X134921D01*
X134881Y97131D02*
Y97211D01*
X134249Y96870D02*
X134330D01*
X134290Y96830D02*
Y96910D01*
X134251Y97171D02*
X134331D01*
X134291Y97131D02*
Y97211D01*
X133857Y97171D02*
X133937D01*
X133897Y97131D02*
Y97211D01*
X135229Y92860D02*
X135309D01*
X135269Y92820D02*
Y92900D01*
X134048Y93210D02*
X134128D01*
X134088Y93170D02*
Y93250D01*
X134639Y92860D02*
X134719D01*
X134678Y92820D02*
Y92900D01*
X134048Y92860D02*
X134128D01*
X134088Y92820D02*
Y92900D01*
X133457Y92860D02*
X133537D01*
X133497Y92820D02*
Y92900D01*
X132670Y92860D02*
X132750D01*
X132710Y92820D02*
Y92900D01*
X132280Y92860D02*
X132360D01*
X132320Y92820D02*
Y92900D01*
X131884Y92860D02*
X131964D01*
X131924Y92820D02*
Y92900D01*
X130833Y93228D02*
X130913D01*
X130873Y93188D02*
Y93268D01*
X130546Y95197D02*
X130626D01*
X130586Y95157D02*
Y95237D01*
X130546Y95948D02*
X130626D01*
X130586Y95908D02*
Y95988D01*
X131495Y92173D02*
X131575D01*
X131535Y92133D02*
Y92213D01*
X132480Y92173D02*
X132560D01*
X132520Y92133D02*
Y92213D01*
X133267Y92173D02*
X133347D01*
X133307Y92133D02*
Y92213D01*
X133857Y92173D02*
X133937D01*
X133897Y92133D02*
Y92213D01*
X135039Y92173D02*
X135119D01*
X135079Y92133D02*
Y92213D01*
X136023Y92173D02*
X136103D01*
X136063Y92133D02*
Y92213D01*
X136487Y94809D02*
X136567D01*
X136527Y94769D02*
Y94849D01*
X136487Y95197D02*
X136567D01*
X136527Y95157D02*
Y95237D01*
X135825Y97827D02*
X135905D01*
X135865Y97787D02*
Y97867D01*
X135037Y97827D02*
X135117D01*
X135077Y97787D02*
Y97867D01*
X134250Y97827D02*
X134330D01*
X134290Y97787D02*
Y97867D01*
X133856Y97827D02*
X133936D01*
X133896Y97787D02*
Y97867D01*
X132872Y97827D02*
X132952D01*
X132912Y97787D02*
Y97867D01*
X132085Y97827D02*
X132165D01*
X132125Y97787D02*
Y97867D01*
X131494Y97827D02*
X131574D01*
X131534Y97787D02*
Y97867D01*
X130833Y95948D02*
X130913D01*
X130873Y95908D02*
Y95988D01*
X130833Y95590D02*
X130913D01*
X130873Y95550D02*
Y95630D01*
X130833Y94803D02*
X130913D01*
X130873Y94763D02*
Y94843D01*
X130833Y94015D02*
X130913D01*
X130873Y93975D02*
Y94055D01*
X131744Y94213D02*
X131824D01*
X131784Y94173D02*
Y94253D01*
X131744Y94606D02*
X131824D01*
X131784Y94566D02*
Y94646D01*
X131740Y95169D02*
X131820D01*
X131780Y95129D02*
Y95209D01*
X132130Y95563D02*
X132210D01*
X132170Y95523D02*
Y95603D01*
X132495Y95563D02*
X132575D01*
X132535Y95523D02*
Y95603D01*
X131740Y96350D02*
X131820D01*
X131780Y96310D02*
Y96390D01*
X132130Y96350D02*
X132210D01*
X132170Y96310D02*
Y96390D01*
X132130Y96760D02*
X132210D01*
X132170Y96720D02*
Y96800D01*
X131739Y96760D02*
X131819D01*
X131779Y96720D02*
Y96800D01*
X124880Y103470D02*
X124960D01*
X124920Y103430D02*
Y103510D01*
X124570Y103470D02*
X124650D01*
X124610Y103430D02*
Y103510D01*
X127184Y102376D02*
X127264D01*
X127224Y102336D02*
Y102416D01*
X127463Y102376D02*
X127543D01*
X127503Y102336D02*
Y102416D01*
X127453Y102966D02*
X127533D01*
X127493Y102926D02*
Y103006D01*
X127184Y102966D02*
X127264D01*
X127224Y102926D02*
Y103006D01*
X126736Y103470D02*
X126816D01*
X126776Y103430D02*
Y103510D01*
X126430Y103470D02*
X126510D01*
X126470Y103430D02*
Y103510D01*
X126343Y102372D02*
X126423D01*
X126383Y102332D02*
Y102412D01*
X126343Y102166D02*
X126423D01*
X126383Y102126D02*
Y102206D01*
X125933Y102560D02*
X126013D01*
X125973Y102520D02*
Y102600D01*
X125950Y101970D02*
X126030D01*
X125990Y101930D02*
Y102010D01*
X124972Y101578D02*
X125052D01*
X125012Y101538D02*
Y101618D01*
X125542Y101578D02*
X125622D01*
X125582Y101538D02*
Y101618D01*
X125260Y102570D02*
X125340D01*
X125300Y102530D02*
Y102610D01*
X124950Y102010D02*
X125030D01*
X124990Y101970D02*
Y102050D01*
X124950Y102290D02*
X125030D01*
X124990Y102250D02*
Y102330D01*
X124006Y102560D02*
X124086D01*
X124046Y102520D02*
Y102600D01*
X133960Y103682D02*
X134040D01*
X134000Y103642D02*
Y103722D01*
X133960Y103942D02*
X134040D01*
X134000Y103902D02*
Y103982D01*
X133790Y104122D02*
X133870D01*
X133830Y104082D02*
Y104162D01*
X133530Y104122D02*
X133610D01*
X133570Y104082D02*
Y104162D01*
X132813Y103652D02*
X132893D01*
X132853Y103612D02*
Y103692D01*
X131740Y102800D02*
X131820D01*
X131780Y102760D02*
Y102840D01*
X131490Y102810D02*
X131570D01*
X131530Y102770D02*
Y102850D01*
X131930Y102950D02*
X132010D01*
X131970Y102910D02*
Y102990D01*
X131930Y103180D02*
X132010D01*
X131970Y103140D02*
Y103220D01*
X132598Y103920D02*
X132678D01*
X132638Y103880D02*
Y103960D01*
X132598Y103520D02*
X132678D01*
X132638Y103480D02*
Y103560D01*
X132598Y104320D02*
X132678D01*
X132638Y104280D02*
Y104360D01*
X131860Y104120D02*
X131940D01*
X131900Y104080D02*
Y104160D01*
X131590Y104120D02*
X131670D01*
X131630Y104080D02*
Y104160D01*
X131860Y104370D02*
X131940D01*
X131900Y104330D02*
Y104410D01*
X131590Y104370D02*
X131670D01*
X131630Y104330D02*
Y104410D01*
X133310Y102570D02*
X133390D01*
X133350Y102530D02*
Y102610D01*
X133545Y102570D02*
X133625D01*
X133585Y102530D02*
Y102610D01*
X133780Y102570D02*
X133860D01*
X133820Y102530D02*
Y102610D01*
X133780Y102786D02*
X133860D01*
X133820Y102746D02*
Y102826D01*
X133545Y102786D02*
X133625D01*
X133585Y102746D02*
Y102826D01*
X133310Y102786D02*
X133390D01*
X133350Y102746D02*
Y102826D01*
X130150Y103049D02*
X130230D01*
X130190Y103009D02*
Y103089D01*
X130150Y103840D02*
X130230D01*
X130190Y103800D02*
Y103880D01*
X130150Y103576D02*
X130230D01*
X130190Y103536D02*
Y103616D01*
X130150Y103313D02*
X130230D01*
X130190Y103273D02*
Y103353D01*
X130150Y102786D02*
X130230D01*
X130190Y102746D02*
Y102826D01*
X130150Y99640D02*
X130230D01*
X130190Y99600D02*
Y99680D01*
X130150Y104170D02*
X130230D01*
X130190Y104130D02*
Y104210D01*
X130150Y101400D02*
X130230D01*
X130190Y101360D02*
Y101440D01*
X120070Y103590D02*
X120150D01*
X120110Y103550D02*
Y103630D01*
X120938Y103872D02*
X121018D01*
X120978Y103832D02*
Y103912D01*
X120730Y104370D02*
X120810D01*
X120770Y104330D02*
Y104410D01*
X120090Y101950D02*
X120170D01*
X120130Y101910D02*
Y101990D01*
X120090Y102180D02*
X120170D01*
X120130Y102140D02*
Y102220D01*
X118410Y95860D02*
X118490D01*
X118450Y95820D02*
Y95900D01*
X120690Y94930D02*
X120770D01*
X120730Y94890D02*
Y94970D01*
X120380Y95430D02*
X120460D01*
X120420Y95390D02*
Y95470D01*
X119440Y95670D02*
X119520D01*
X119480Y95630D02*
Y95710D01*
X119217Y93360D02*
X119297D01*
X119257Y93320D02*
Y93400D01*
X119610Y93160D02*
X119690D01*
X119650Y93120D02*
Y93200D01*
X120830Y93741D02*
X120910D01*
X120870Y93701D02*
Y93781D01*
X120830Y94080D02*
X120910D01*
X120870Y94040D02*
Y94120D01*
X120636Y94540D02*
X120716D01*
X120676Y94500D02*
Y94580D01*
X120220Y94540D02*
X120300D01*
X120260Y94500D02*
Y94580D01*
X119959Y94540D02*
X120039D01*
X119999Y94500D02*
Y94580D01*
X119620Y94540D02*
X119700D01*
X119660Y94500D02*
Y94580D01*
X119208Y93899D02*
X119288D01*
X119248Y93859D02*
Y93939D01*
X118320Y93468D02*
X118400D01*
X118360Y93428D02*
Y93508D01*
X119127Y91551D02*
X119207D01*
X119167Y91511D02*
Y91591D01*
X119120Y91960D02*
X119200D01*
X119160Y91920D02*
Y92000D01*
X119120Y92201D02*
X119200D01*
X119160Y92161D02*
Y92241D01*
X119591Y92762D02*
X119671D01*
X119631Y92722D02*
Y92802D01*
X120230Y91010D02*
X120310D01*
X120270Y90970D02*
Y91050D01*
X119120Y92470D02*
X119200D01*
X119160Y92430D02*
Y92510D01*
X138794Y103194D02*
X138874D01*
X138834Y103154D02*
Y103234D01*
X143240Y103540D02*
X143320D01*
X143280Y103500D02*
Y103580D01*
X143440Y103540D02*
X143520D01*
X143480Y103500D02*
Y103580D01*
X143440Y103740D02*
X143520D01*
X143480Y103700D02*
Y103780D01*
X143240Y103740D02*
X143320D01*
X143280Y103700D02*
Y103780D01*
X143730Y104630D02*
X143810D01*
X143770Y104590D02*
Y104670D01*
X144030Y104630D02*
X144110D01*
X144070Y104590D02*
Y104670D01*
X144030Y104830D02*
X144110D01*
X144070Y104790D02*
Y104870D01*
X143730Y104830D02*
X143810D01*
X143770Y104790D02*
Y104870D01*
X142160Y104380D02*
X142240D01*
X142200Y104340D02*
Y104420D01*
X140120Y104380D02*
X140200D01*
X140160Y104340D02*
Y104420D01*
X139189Y104301D02*
X139269D01*
X139229Y104261D02*
Y104341D01*
X138370Y104670D02*
X138450D01*
X138410Y104630D02*
Y104710D01*
X144560Y95940D02*
X144640D01*
X144600Y95900D02*
Y95980D01*
X139857Y96377D02*
X139937D01*
X139897Y96337D02*
Y96417D01*
X140119Y95302D02*
X140199D01*
X140160Y95262D02*
Y95342D01*
X139301Y95539D02*
X139381D01*
X139341Y95499D02*
Y95579D01*
X139310Y96690D02*
X139390D01*
X139350Y96650D02*
Y96730D01*
X142380Y96550D02*
X142460D01*
X142420Y96510D02*
Y96590D01*
X142130Y96550D02*
X142210D01*
X142170Y96510D02*
Y96590D01*
X141880Y96550D02*
X141960D01*
X141920Y96510D02*
Y96590D01*
X143720Y95150D02*
X143800D01*
X143760Y95110D02*
Y95190D01*
X143360Y95150D02*
X143440D01*
X143400Y95110D02*
Y95190D01*
X142644Y95010D02*
X142724D01*
X142684Y94970D02*
Y95050D01*
X142344Y95010D02*
X142424D01*
X142384Y94970D02*
Y95050D01*
X142340Y95240D02*
X142420D01*
X142380Y95200D02*
Y95280D01*
X142040Y95240D02*
X142120D01*
X142080Y95200D02*
Y95280D01*
X144370Y96710D02*
X144450D01*
X144410Y96670D02*
Y96750D01*
X143990Y96710D02*
X144070D01*
X144030Y96670D02*
Y96750D01*
X143610Y96710D02*
X143690D01*
X143650Y96670D02*
Y96750D01*
X144370Y97030D02*
X144450D01*
X144410Y96990D02*
Y97070D01*
X143990Y97030D02*
X144070D01*
X144030Y96990D02*
Y97070D01*
X143610Y97030D02*
X143690D01*
X143650Y96990D02*
Y97070D01*
X142141Y92336D02*
X142221D01*
X142181Y92296D02*
Y92376D01*
X141817Y92342D02*
X141897D01*
X141857Y92302D02*
Y92382D01*
X142480Y90980D02*
X142560D01*
X142520Y90940D02*
Y91020D01*
X142480Y90675D02*
X142560D01*
X142520Y90635D02*
Y90715D01*
X142900Y90370D02*
X142980D01*
X142940Y90330D02*
Y90410D01*
X142480Y90370D02*
X142560D01*
X142520Y90330D02*
Y90410D01*
X144220Y91350D02*
X144300D01*
X144260Y91310D02*
Y91390D01*
X144580Y90600D02*
X144660D01*
X144620Y90560D02*
Y90640D01*
X144580Y90970D02*
X144660D01*
X144620Y90930D02*
Y91010D01*
X144580Y91350D02*
X144660D01*
X144620Y91310D02*
Y91390D01*
X144300Y93410D02*
X144380D01*
X144340Y93370D02*
Y93450D01*
X144550Y93150D02*
X144630D01*
X144590Y93110D02*
Y93190D01*
X144550Y92890D02*
X144630D01*
X144590Y92850D02*
Y92930D01*
X144550Y93410D02*
X144630D01*
X144590Y93370D02*
Y93450D01*
X144050Y93410D02*
X144130D01*
X144090Y93370D02*
Y93450D01*
X138740Y91377D02*
X138820D01*
X138780Y91337D02*
Y91417D01*
X138730Y91890D02*
X138810D01*
X138770Y91850D02*
Y91930D01*
X139926Y91447D02*
X140006D01*
X139966Y91407D02*
Y91487D01*
X139926Y91847D02*
X140006D01*
X139966Y91807D02*
Y91887D01*
X140729Y91447D02*
X140808D01*
X140768Y91407D02*
Y91487D01*
X140960Y91110D02*
X141040D01*
X141000Y91070D02*
Y91150D01*
X140980Y91840D02*
X141060D01*
X141020Y91800D02*
Y91880D01*
X140500Y91840D02*
X140580D01*
X140540Y91800D02*
Y91880D01*
X146610Y90290D02*
X146690D01*
X146650Y90250D02*
Y90330D01*
X146840Y90900D02*
X146920D01*
X146880Y90860D02*
Y90940D01*
X146005Y90290D02*
X146085D01*
X146045Y90250D02*
Y90330D01*
X146286Y94016D02*
X146366D01*
X146326Y93976D02*
Y94056D01*
X146290Y93110D02*
X146370D01*
X146330Y93070D02*
Y93150D01*
X146855Y92912D02*
X146935D01*
X146895Y92872D02*
Y92952D01*
X146350Y92210D02*
X146430D01*
X146390Y92170D02*
Y92250D01*
X146855Y92439D02*
X146935D01*
X146895Y92399D02*
Y92479D01*
X146855Y91967D02*
X146935D01*
X146895Y91927D02*
Y92007D01*
X146415Y91298D02*
X146495D01*
X146455Y91258D02*
Y91338D01*
X145400Y91274D02*
X145480D01*
X145440Y91234D02*
Y91314D01*
X145400Y94966D02*
X145480D01*
X145440Y94926D02*
Y95006D01*
X145400Y93990D02*
X145480D01*
X145440Y93950D02*
Y94030D01*
X145400Y93110D02*
X145480D01*
X145440Y93070D02*
Y93150D01*
X145400Y92210D02*
X145480D01*
X145440Y92170D02*
Y92250D01*
X145400Y90290D02*
X145480D01*
X145440Y90250D02*
Y90330D01*
X149630Y92586D02*
X149710D01*
X149670Y92546D02*
Y92626D01*
X149630Y93090D02*
X149710D01*
X149670Y93050D02*
Y93130D01*
X129408Y97943D02*
X129568D01*
X129488Y97863D02*
Y98023D01*
X129655Y98980D02*
X129815D01*
X129735Y98900D02*
Y99060D01*
X129335Y98980D02*
X129495D01*
X129415Y98900D02*
Y99060D01*
X129152Y97943D02*
X129312D01*
X129232Y97863D02*
Y98023D01*
X129020Y98980D02*
X129180D01*
X129100Y98900D02*
Y99060D01*
X128896Y97943D02*
X129056D01*
X128976Y97863D02*
Y98023D01*
X128640Y92057D02*
X128800D01*
X128720Y91977D02*
Y92137D01*
X123010Y92057D02*
X123170D01*
X123090Y91977D02*
Y92137D01*
X128640Y97687D02*
X128800D01*
X128720Y97607D02*
Y97767D01*
X128896Y92313D02*
X129056D01*
X128976Y92233D02*
Y92393D01*
X124034Y91289D02*
X124194D01*
X124114Y91209D02*
Y91369D01*
X128384Y97687D02*
X128544D01*
X128464Y97607D02*
Y97767D01*
X128640Y92569D02*
X128800D01*
X128720Y92489D02*
Y92649D01*
X122754Y92825D02*
X122914D01*
X122834Y92745D02*
Y92905D01*
X122243Y93593D02*
X122403D01*
X122323Y93513D02*
Y93673D01*
X123522Y92313D02*
X123682D01*
X123602Y92233D02*
Y92393D01*
X124034Y91545D02*
X124194D01*
X124114Y91465D02*
Y91625D01*
X126470Y99120D02*
X126630D01*
X126550Y99040D02*
Y99200D01*
X128128Y97431D02*
X128288D01*
X128208Y97351D02*
Y97511D01*
X123010Y92569D02*
X123170D01*
X123090Y92489D02*
Y92649D01*
X122243Y94872D02*
X122403D01*
X122323Y94792D02*
Y94952D01*
X124034Y91801D02*
X124194D01*
X124114Y91721D02*
Y91881D01*
X128896Y93593D02*
X129056D01*
X128976Y93513D02*
Y93673D01*
X122498Y94872D02*
X122658D01*
X122578Y94792D02*
Y94952D01*
X124034Y92057D02*
X124194D01*
X124114Y91977D02*
Y92137D01*
X128896Y93848D02*
X129056D01*
X128976Y93768D02*
Y93928D01*
X128384Y93593D02*
X128544D01*
X128464Y93513D02*
Y93673D01*
X127361Y92057D02*
X127521D01*
X127441Y91977D02*
Y92137D01*
X123010Y93337D02*
X123170D01*
X123090Y93257D02*
Y93417D01*
X125057Y97687D02*
X125217D01*
X125137Y97607D02*
Y97767D01*
X128896Y94360D02*
X129056D01*
X128976Y94280D02*
Y94440D01*
X122754Y94104D02*
X122914D01*
X122834Y94024D02*
Y94184D01*
X128384Y93081D02*
X128544D01*
X128464Y93001D02*
Y93161D01*
X125825Y97687D02*
X125985D01*
X125905Y97607D02*
Y97767D01*
X127872Y96919D02*
X128032D01*
X127952Y96839D02*
Y96999D01*
X124802Y92057D02*
X124962D01*
X124882Y91977D02*
Y92137D01*
X128384Y93337D02*
X128544D01*
X128464Y93257D02*
Y93417D01*
X124546Y92569D02*
X124706D01*
X124626Y92489D02*
Y92649D01*
X126593Y92057D02*
X126753D01*
X126673Y91977D02*
Y92137D01*
X128128Y93337D02*
X128288D01*
X128208Y93257D02*
Y93417D01*
X125569Y92057D02*
X125729D01*
X125649Y91977D02*
Y92137D01*
X127361Y97175D02*
X127521D01*
X127441Y97095D02*
Y97255D01*
X127872Y93337D02*
X128032D01*
X127952Y93257D02*
Y93417D01*
X124290Y92569D02*
X124450D01*
X124370Y92489D02*
Y92649D01*
X127617Y93337D02*
X127777D01*
X127697Y93257D02*
Y93417D01*
X124034Y93081D02*
X124194D01*
X124114Y93001D02*
Y93161D01*
X124034Y92825D02*
X124194D01*
X124114Y92745D02*
Y92905D01*
X128128Y95384D02*
X128288D01*
X128208Y95304D02*
Y95464D01*
X128128Y95128D02*
X128288D01*
X128208Y95048D02*
Y95208D01*
X123778Y93337D02*
X123938D01*
X123858Y93257D02*
Y93417D01*
X127872Y95128D02*
X128032D01*
X127952Y95048D02*
Y95208D01*
X127617Y93593D02*
X127777D01*
X127697Y93513D02*
Y93673D01*
X125057Y93081D02*
X125217D01*
X125137Y93001D02*
Y93161D01*
X127617Y95384D02*
X127777D01*
X127697Y95304D02*
Y95464D01*
X127105Y96407D02*
X127265D01*
X127185Y96327D02*
Y96487D01*
X127361Y93337D02*
X127521D01*
X127441Y93257D02*
Y93417D01*
X127361Y95896D02*
X127521D01*
X127441Y95816D02*
Y95976D01*
X127617Y93848D02*
X127777D01*
X127697Y93768D02*
Y93928D01*
X124034Y93848D02*
X124194D01*
X124114Y93768D02*
Y93928D01*
X127617Y94104D02*
X127777D01*
X127697Y94024D02*
Y94184D01*
X127617Y95128D02*
X127777D01*
X127697Y95048D02*
Y95208D01*
X124034Y94616D02*
X124194D01*
X124114Y94536D02*
Y94696D01*
X124546Y96152D02*
X124706D01*
X124626Y96072D02*
Y96232D01*
X127361Y93848D02*
X127521D01*
X127441Y93768D02*
Y93928D01*
X124546Y93848D02*
X124706D01*
X124626Y93768D02*
Y93928D01*
X126337Y96407D02*
X126497D01*
X126417Y96327D02*
Y96487D01*
X125057Y96407D02*
X125217D01*
X125137Y96327D02*
Y96487D01*
X127361Y94104D02*
X127521D01*
X127441Y94024D02*
Y94184D01*
X127361Y95128D02*
X127521D01*
X127441Y95048D02*
Y95208D01*
X127361Y94616D02*
X127521D01*
X127441Y94536D02*
Y94696D01*
X127105Y95640D02*
X127265D01*
X127185Y95560D02*
Y95720D01*
X125057Y96152D02*
X125217D01*
X125137Y96072D02*
Y96232D01*
X124802Y95896D02*
X124962D01*
X124882Y95816D02*
Y95976D01*
X126593Y93593D02*
X126753D01*
X126673Y93513D02*
Y93673D01*
X125569Y96152D02*
X125729D01*
X125649Y96072D02*
Y96232D01*
X126849Y94360D02*
X127009D01*
X126929Y94280D02*
Y94440D01*
X124546Y94616D02*
X124706D01*
X124626Y94536D02*
Y94696D01*
X126849Y95640D02*
X127009D01*
X126929Y95560D02*
Y95720D01*
X125057Y95896D02*
X125217D01*
X125137Y95816D02*
Y95976D01*
X126593Y93848D02*
X126753D01*
X126673Y93768D02*
Y93928D01*
X125057Y93848D02*
X125217D01*
X125137Y93768D02*
Y93928D01*
X126849Y95384D02*
X127009D01*
X126929Y95304D02*
Y95464D01*
X125313Y93848D02*
X125473D01*
X125393Y93768D02*
Y93928D01*
X126081Y95896D02*
X126241D01*
X126161Y95816D02*
Y95976D01*
X125569Y95896D02*
X125729D01*
X125649Y95816D02*
Y95976D01*
X126849Y95128D02*
X127009D01*
X126929Y95048D02*
Y95208D01*
X124802Y95128D02*
X124962D01*
X124882Y95048D02*
Y95208D01*
X126081Y93848D02*
X126241D01*
X126161Y93768D02*
Y93928D01*
X126593Y95640D02*
X126753D01*
X126673Y95560D02*
Y95720D01*
X125057Y95640D02*
X125217D01*
X125137Y95560D02*
Y95720D01*
X126593Y94104D02*
X126753D01*
X126673Y94024D02*
Y94184D01*
X126593Y94360D02*
X126753D01*
X126673Y94280D02*
Y94440D01*
X125057Y94360D02*
X125217D01*
X125137Y94280D02*
Y94440D01*
X126081Y95640D02*
X126241D01*
X126161Y95560D02*
Y95720D01*
X126593Y95128D02*
X126753D01*
X126673Y95048D02*
Y95208D01*
X125569Y95640D02*
X125729D01*
X125649Y95560D02*
Y95720D01*
X126593Y94616D02*
X126753D01*
X126673Y94536D02*
Y94696D01*
X125057Y95128D02*
X125217D01*
X125137Y95048D02*
Y95208D01*
X125569Y94360D02*
X125729D01*
X125649Y94280D02*
Y94440D01*
X125313Y94360D02*
X125473D01*
X125393Y94280D02*
Y94440D01*
X126081Y95384D02*
X126241D01*
X126161Y95304D02*
Y95464D01*
X125569Y95128D02*
X125729D01*
X125649Y95048D02*
Y95208D01*
X126081Y94616D02*
X126241D01*
X126161Y94536D02*
Y94696D01*
X142860Y101580D02*
X142940D01*
X142900Y101540D02*
Y101620D01*
X141240Y101210D02*
X141320D01*
X141280Y101170D02*
Y101250D01*
X142330Y100280D02*
X142410D01*
X142370Y100240D02*
Y100320D01*
X142330Y100050D02*
X142410D01*
X142370Y100010D02*
Y100090D01*
X142860Y100769D02*
X142940D01*
X142900Y100729D02*
Y100809D01*
X140990Y99960D02*
X141070D01*
X141030Y99920D02*
Y100000D01*
X140990Y100310D02*
X141070D01*
X141030Y100270D02*
Y100350D01*
X143260Y101200D02*
X143340D01*
X143300Y101160D02*
Y101240D01*
X144130Y101197D02*
X144210D01*
X144170Y101157D02*
Y101237D01*
X144130Y101757D02*
X144210D01*
X144170Y101717D02*
Y101797D01*
X144130Y100664D02*
X144210D01*
X144170Y100624D02*
Y100704D01*
X144130Y100987D02*
X144210D01*
X144170Y100947D02*
Y101027D01*
X144130Y101447D02*
X144210D01*
X144170Y101407D02*
Y101487D01*
X144130Y99350D02*
X144210D01*
X144170Y99310D02*
Y99390D01*
X144130Y98890D02*
X144210D01*
X144170Y98850D02*
Y98930D01*
X142857Y99459D02*
X142937D01*
X142897Y99419D02*
Y99499D01*
X140570Y99593D02*
X140650D01*
X140610Y99553D02*
Y99633D01*
X143770Y97880D02*
X143850D01*
X143810Y97840D02*
Y97920D01*
X143770Y98150D02*
X143850D01*
X143810Y98110D02*
Y98190D01*
X141392Y97760D02*
X141472D01*
X141432Y97720D02*
Y97800D01*
X141392Y98267D02*
X141472D01*
X141432Y98227D02*
Y98307D01*
X141150Y98267D02*
X141230D01*
X141190Y98227D02*
Y98307D01*
X141140Y97760D02*
X141220D01*
X141180Y97720D02*
Y97800D01*
X142012Y99300D02*
X142092D01*
X142052Y99260D02*
Y99340D01*
X141280Y99110D02*
X141360D01*
X141320Y99070D02*
Y99150D01*
X144130Y98567D02*
X144210D01*
X144170Y98527D02*
Y98607D01*
X144130Y99660D02*
X144210D01*
X144170Y99620D02*
Y99700D01*
X144130Y99100D02*
X144210D01*
X144170Y99060D02*
Y99140D01*
X148181Y105299D02*
X148261D01*
X148221Y105259D02*
Y105339D01*
X147810Y104970D02*
X147890D01*
X147850Y104930D02*
Y105010D01*
X146721Y105290D02*
X146801D01*
X146761Y105250D02*
Y105330D01*
X145310Y102875D02*
X145390D01*
X145350Y102835D02*
Y102915D01*
X145870Y99450D02*
X145950D01*
X145910Y99410D02*
Y99490D01*
X145870Y99000D02*
X145950D01*
X145910Y98960D02*
Y99040D01*
X145870Y98550D02*
X145950D01*
X145910Y98510D02*
Y98590D01*
X145870Y98050D02*
X145950D01*
X145910Y98010D02*
Y98090D01*
X146268Y98248D02*
X146348D01*
X146308Y98208D02*
Y98288D01*
X146268Y99648D02*
X146348D01*
X146308Y99608D02*
Y99688D01*
X146268Y98748D02*
X146348D01*
X146308Y98708D02*
Y98788D01*
X113641Y100582D02*
X113721D01*
X113681Y100542D02*
Y100622D01*
X112810Y98450D02*
X112890D01*
X112850Y98410D02*
Y98490D01*
X113048Y98190D02*
X113128D01*
X113088Y98150D02*
Y98230D01*
X112810Y98190D02*
X112890D01*
X112850Y98150D02*
Y98230D01*
X111780Y97720D02*
X111860D01*
X111820Y97680D02*
Y97760D01*
X111500Y97720D02*
X111580D01*
X111540Y97680D02*
Y97760D01*
X113377Y100127D02*
X113457D01*
X113417Y100087D02*
Y100167D01*
X108206Y100840D02*
X108286D01*
X108246Y100800D02*
Y100880D01*
X111780Y97060D02*
X111860D01*
X111820Y97020D02*
Y97100D01*
X111417Y97060D02*
X111497D01*
X111457Y97020D02*
Y97100D01*
X111053Y97060D02*
X111133D01*
X111093Y97020D02*
Y97100D01*
X110690Y97060D02*
X110770D01*
X110730Y97020D02*
Y97100D01*
X110307Y97060D02*
X110387D01*
X110347Y97020D02*
Y97100D01*
X109963Y97060D02*
X110043D01*
X110003Y97020D02*
Y97100D01*
X109600Y97060D02*
X109680D01*
X109640Y97020D02*
Y97100D01*
X108319Y101616D02*
X108399D01*
X108359Y101576D02*
Y101656D01*
X108036Y101288D02*
X108116D01*
X108076Y101248D02*
Y101328D01*
X114057Y97145D02*
X114137D01*
X114097Y97105D02*
Y97185D01*
X109006Y99606D02*
X109086D01*
X109046Y99566D02*
Y99646D01*
X107682Y98570D02*
X107762D01*
X107722Y98530D02*
Y98610D01*
X107682Y98321D02*
X107762D01*
X107722Y98281D02*
Y98361D01*
X107560Y101800D02*
X107640D01*
X107600Y101760D02*
Y101840D01*
X110602Y98416D02*
X110682D01*
X110642Y98376D02*
Y98456D01*
X110369Y98420D02*
X110449D01*
X110409Y98380D02*
Y98460D01*
X110135Y98420D02*
X110215D01*
X110175Y98380D02*
Y98460D01*
X109100Y94500D02*
X109180D01*
X109140Y94460D02*
Y94540D01*
X107450Y94080D02*
X107530D01*
X107490Y94040D02*
Y94120D01*
X108133Y94080D02*
X108213D01*
X108173Y94040D02*
Y94120D01*
X107796Y94080D02*
X107876D01*
X107836Y94040D02*
Y94120D01*
X107450Y94345D02*
X107530D01*
X107490Y94305D02*
Y94385D01*
X107450Y94610D02*
X107530D01*
X107490Y94570D02*
Y94650D01*
X109592Y93810D02*
X109672D01*
X109632Y93770D02*
Y93850D01*
X109872Y94083D02*
X109952D01*
X109912Y94043D02*
Y94123D01*
X109872Y93810D02*
X109952D01*
X109912Y93770D02*
Y93850D01*
X109311Y93810D02*
X109391D01*
X109351Y93770D02*
Y93850D01*
X109030Y93810D02*
X109110D01*
X109070Y93770D02*
Y93850D01*
X109030Y94083D02*
X109110D01*
X109070Y94043D02*
Y94123D01*
X108460Y95620D02*
X108540D01*
X108500Y95580D02*
Y95660D01*
X114497Y100894D02*
X114577D01*
X114537Y100854D02*
Y100934D01*
X115242Y99235D02*
X115322D01*
X115282Y99195D02*
Y99275D01*
X115242Y99958D02*
X115322D01*
X115282Y99918D02*
Y99998D01*
X113590Y101580D02*
X113670D01*
X113630Y101540D02*
Y101620D01*
X113900Y101580D02*
X113980D01*
X113940Y101540D02*
Y101620D01*
X114060Y101790D02*
X114140D01*
X114100Y101750D02*
Y101830D01*
X113750Y101790D02*
X113830D01*
X113790Y101750D02*
Y101830D01*
X113440Y101790D02*
X113520D01*
X113480Y101750D02*
Y101830D01*
X112924Y101620D02*
X113004D01*
X112964Y101580D02*
Y101659D01*
X114517Y99224D02*
X114597D01*
X114557Y99184D02*
Y99264D01*
X114903Y99223D02*
X114983D01*
X114943Y99183D02*
Y99263D01*
X114517Y99958D02*
X114597D01*
X114557Y99918D02*
Y99998D01*
X114903Y99958D02*
X114983D01*
X114943Y99918D02*
Y99998D01*
X113567Y103257D02*
X113647D01*
X113607Y103217D02*
Y103297D01*
X113889Y103257D02*
X113969D01*
X113929Y103217D02*
Y103297D01*
X108530Y98820D02*
X108610D01*
X108570Y98780D02*
Y98860D01*
X108278Y98820D02*
X108357D01*
X108317Y98780D02*
Y98860D01*
X108025Y98820D02*
X108105D01*
X108065Y98780D02*
Y98860D01*
X109175Y99817D02*
X109255D01*
X109215Y99777D02*
Y99857D01*
X109155Y100705D02*
X109235D01*
X109195Y100665D02*
Y100745D01*
X110756Y99916D02*
X110836D01*
X110796Y99876D02*
Y99956D01*
X108738Y99617D02*
X108818D01*
X108778Y99577D02*
Y99657D01*
X109260Y101100D02*
X109340D01*
X109300Y101060D02*
Y101140D01*
X109250Y101340D02*
X109330D01*
X109290Y101300D02*
Y101380D01*
X109473Y100878D02*
X109553D01*
X109513Y100838D02*
Y100918D01*
X116230Y101200D02*
X116310D01*
X116270Y101160D02*
Y101240D01*
X109470Y101110D02*
X109550D01*
X109510Y101070D02*
Y101150D01*
X109100Y100970D02*
X109180D01*
X109140Y100930D02*
Y101010D01*
X114920Y100870D02*
X115000D01*
X114960Y100830D02*
Y100910D01*
X112728Y100830D02*
X112808D01*
X112768Y100790D02*
Y100870D01*
X111021Y100994D02*
X111101D01*
X111061Y100954D02*
Y101034D01*
X112570Y100172D02*
X112650D01*
X112610Y100132D02*
Y100212D01*
X113033Y99436D02*
X113113D01*
X113073Y99396D02*
Y99476D01*
X113285Y99436D02*
X113365D01*
X113325Y99396D02*
Y99476D01*
X112304Y100172D02*
X112384D01*
X112344Y100132D02*
Y100212D01*
X112715Y101076D02*
X112795D01*
X112755Y101036D02*
Y101116D01*
X115490Y97890D02*
X115570D01*
X115530Y97850D02*
Y97930D01*
X115190Y97890D02*
X115270D01*
X115230Y97850D02*
Y97930D01*
X114913Y98370D02*
X114993D01*
X114953Y98330D02*
Y98410D01*
X114913Y98037D02*
X114993D01*
X114953Y97997D02*
Y98077D01*
X116530Y97650D02*
X116610D01*
X116570Y97610D02*
Y97690D01*
X116530Y98230D02*
X116610D01*
X116570Y98190D02*
Y98270D01*
X116530Y97940D02*
X116610D01*
X116570Y97900D02*
Y97980D01*
X116222Y97940D02*
X116302D01*
X116262Y97900D02*
Y97980D01*
X116222Y98230D02*
X116302D01*
X116262Y98190D02*
Y98270D01*
X114298Y97144D02*
X114378D01*
X114338Y97104D02*
Y97184D01*
X114060Y96917D02*
X114140D01*
X114100Y96877D02*
Y96957D01*
X113680Y96910D02*
X113760D01*
X113720Y96870D02*
Y96950D01*
X113392Y96910D02*
X113472D01*
X113432Y96870D02*
Y96950D01*
X113392Y96520D02*
X113472D01*
X113432Y96480D02*
Y96560D01*
X113104Y96520D02*
X113184D01*
X113144Y96480D02*
Y96560D01*
X112816Y96520D02*
X112896D01*
X112856Y96480D02*
Y96560D01*
X112180Y96520D02*
X112260D01*
X112220Y96480D02*
Y96560D01*
X114913Y97370D02*
X114993D01*
X114953Y97330D02*
Y97410D01*
X114913Y97703D02*
X114993D01*
X114953Y97663D02*
Y97743D01*
X115564Y97050D02*
X115644D01*
X115604Y97010D02*
Y97090D01*
X115239Y97050D02*
X115318D01*
X115279Y97010D02*
Y97090D01*
X113100Y103257D02*
X113180D01*
X113140Y103217D02*
Y103297D01*
X111722Y103260D02*
X111802D01*
X111762Y103220D02*
Y103300D01*
X112825Y103257D02*
X112905D01*
X112865Y103217D02*
Y103297D01*
X112549Y103257D02*
X112629D01*
X112589Y103217D02*
Y103297D01*
X112274Y103257D02*
X112354D01*
X112314Y103217D02*
Y103297D01*
X111998Y103257D02*
X112078D01*
X112038Y103217D02*
Y103297D01*
X111300Y103260D02*
X111380D01*
X111340Y103220D02*
Y103300D01*
X111025Y103260D02*
X111105D01*
X111065Y103220D02*
Y103300D01*
X110750Y103260D02*
X110830D01*
X110790Y103220D02*
Y103300D01*
X110475Y103260D02*
X110555D01*
X110515Y103220D02*
Y103300D01*
X110200Y103260D02*
X110280D01*
X110240Y103220D02*
Y103300D01*
X107912Y103260D02*
X107992D01*
X107952Y103220D02*
Y103300D01*
X109420Y103260D02*
X109500D01*
X109460Y103220D02*
Y103300D01*
X108460Y103260D02*
X108540D01*
X108500Y103220D02*
Y103300D01*
X108160Y103260D02*
X108240D01*
X108200Y103220D02*
Y103300D01*
X111534Y100684D02*
X111614D01*
X111574Y100644D02*
Y100724D01*
X112302Y100684D02*
X112382D01*
X112342Y100644D02*
Y100724D01*
X112046Y100684D02*
X112126D01*
X112086Y100644D02*
Y100724D01*
X111534Y100428D02*
X111614D01*
X111574Y100388D02*
Y100468D01*
X112046Y100428D02*
X112126D01*
X112086Y100388D02*
Y100468D01*
X111790Y100428D02*
X111870D01*
X111830Y100388D02*
Y100468D01*
X112046Y100172D02*
X112126D01*
X112086Y100132D02*
Y100212D01*
X111534Y99404D02*
X111614D01*
X111574Y99364D02*
Y99444D01*
X111534Y99148D02*
X111614D01*
X111574Y99108D02*
Y99188D01*
X112046Y98893D02*
X112126D01*
X112086Y98853D02*
Y98933D01*
X112046Y99404D02*
X112126D01*
X112086Y99364D02*
Y99444D01*
X112046Y99660D02*
X112126D01*
X112086Y99620D02*
Y99700D01*
X111790Y98893D02*
X111870D01*
X111830Y98853D02*
Y98933D01*
X111790Y99148D02*
X111870D01*
X111830Y99108D02*
Y99188D01*
X109998Y99148D02*
X110078D01*
X110038Y99108D02*
Y99188D01*
X111278Y99148D02*
X111358D01*
X111318Y99108D02*
Y99188D01*
X111022Y100172D02*
X111102D01*
X111062Y100132D02*
Y100212D01*
X110766Y100428D02*
X110846D01*
X110806Y100388D02*
Y100468D01*
X110254Y100684D02*
X110334D01*
X110294Y100644D02*
Y100724D01*
X111022Y100428D02*
X111102D01*
X111062Y100388D02*
Y100468D01*
X102988Y101826D02*
X103068D01*
X103028Y101786D02*
Y101866D01*
X110965Y94168D02*
X111045D01*
X111005Y94128D02*
Y94208D01*
X110960Y93900D02*
X111040D01*
X111000Y93860D02*
Y93940D01*
X111195Y93718D02*
X111275D01*
X111235Y93678D02*
Y93758D01*
X111518Y93718D02*
X111598D01*
X111558Y93678D02*
Y93758D01*
X111842Y93718D02*
X111922D01*
X111882Y93678D02*
Y93758D01*
X112155Y93718D02*
X112235D01*
X112195Y93678D02*
Y93758D01*
X111845Y94168D02*
X111925D01*
X111885Y94128D02*
Y94208D01*
X114889Y96022D02*
X114969D01*
X114929Y95982D02*
Y96062D01*
X115290Y96020D02*
X115370D01*
X115330Y95980D02*
Y96060D01*
X115290Y95770D02*
X115370D01*
X115330Y95730D02*
Y95810D01*
X115692Y96020D02*
X115772D01*
X115732Y95980D02*
Y96060D01*
X115692Y95770D02*
X115772D01*
X115732Y95730D02*
Y95810D01*
X116093Y96020D02*
X116173D01*
X116133Y95980D02*
Y96060D01*
X116093Y95770D02*
X116173D01*
X116133Y95730D02*
Y95810D01*
X115135Y94038D02*
X115215D01*
X115175Y93998D02*
Y94078D01*
X115492Y94038D02*
X115572D01*
X115532Y93998D02*
Y94078D01*
X115848Y94038D02*
X115928D01*
X115888Y93998D02*
Y94078D01*
X116205Y94038D02*
X116285D01*
X116245Y93998D02*
Y94078D01*
X116205Y93768D02*
X116285D01*
X116245Y93728D02*
Y93808D01*
X115848Y93768D02*
X115928D01*
X115888Y93728D02*
Y93808D01*
X115492Y93768D02*
X115572D01*
X115532Y93728D02*
Y93808D01*
X115135Y93768D02*
X115215D01*
X115175Y93728D02*
Y93808D01*
X110975Y94803D02*
X111055D01*
X111015Y94763D02*
Y94843D01*
X110975Y95208D02*
X111055D01*
X111015Y95168D02*
Y95248D01*
X111294Y95208D02*
X111374D01*
X111334Y95168D02*
Y95248D01*
X111965Y95021D02*
X112045D01*
X112005Y94981D02*
Y95061D01*
X112889Y94442D02*
X112969D01*
X112929Y94402D02*
Y94482D01*
X112874Y94743D02*
X112954D01*
X112914Y94703D02*
Y94783D01*
X112909Y92165D02*
X112989D01*
X112949Y92125D02*
Y92205D01*
X112909Y91864D02*
X112989D01*
X112949Y91824D02*
Y91904D01*
X111960Y92443D02*
X112040D01*
X112000Y92403D02*
Y92483D01*
X111658Y92631D02*
X111738D01*
X111698Y92591D02*
Y92671D01*
X111329Y92630D02*
X111409D01*
X111369Y92590D02*
Y92670D01*
X111000Y92630D02*
X111080D01*
X111040Y92590D02*
Y92670D01*
X111000Y92305D02*
X111080D01*
X111040Y92265D02*
Y92345D01*
X111000Y91980D02*
X111080D01*
X111040Y91940D02*
Y92020D01*
X111800Y93103D02*
X111880D01*
X111840Y93063D02*
Y93143D01*
X116680Y92920D02*
X116760D01*
X116720Y92880D02*
Y92960D01*
X116680Y93200D02*
X116760D01*
X116720Y93160D02*
Y93240D01*
X116258Y92920D02*
X116338D01*
X116298Y92880D02*
Y92960D01*
X116258Y93200D02*
X116338D01*
X116298Y93160D02*
Y93240D01*
X115836Y92920D02*
X115916D01*
X115876Y92880D02*
Y92960D01*
X115836Y93200D02*
X115916D01*
X115876Y93160D02*
Y93240D01*
X115413Y92920D02*
X115493D01*
X115453Y92880D02*
Y92960D01*
X115413Y93200D02*
X115493D01*
X115453Y93160D02*
Y93240D01*
X111767Y91140D02*
X111847D01*
X111807Y91100D02*
Y91180D01*
X111448Y91140D02*
X111528D01*
X111488Y91100D02*
Y91180D01*
X111130Y91140D02*
X111210D01*
X111170Y91100D02*
Y91180D01*
X111000Y91365D02*
X111080D01*
X111040Y91325D02*
Y91405D01*
X111000Y91610D02*
X111080D01*
X111040Y91570D02*
Y91650D01*
X100890Y96150D02*
X100970D01*
X100930Y96110D02*
Y96190D01*
X101907Y96145D02*
X101987D01*
X101947Y96105D02*
Y96185D01*
X102606Y94992D02*
X102686D01*
X102646Y94952D02*
Y95032D01*
X104040Y95000D02*
X104120D01*
X104080Y94960D02*
Y95040D01*
X104036Y95601D02*
X104116D01*
X104076Y95561D02*
Y95641D01*
X103700Y96083D02*
X103780D01*
X103740Y96043D02*
Y96123D01*
X104435Y96705D02*
X104515D01*
X104475Y96665D02*
Y96745D01*
X104435Y96209D02*
X104515D01*
X104475Y96169D02*
Y96249D01*
X104435Y97111D02*
X104515D01*
X104475Y97071D02*
Y97151D01*
X103445Y98134D02*
X103525D01*
X103485Y98094D02*
Y98174D01*
X103883Y98130D02*
X103963D01*
X103923Y98090D02*
Y98170D01*
X103050Y98130D02*
X103130D01*
X103090Y98090D02*
Y98170D01*
X102190Y97620D02*
X102270D01*
X102230Y97580D02*
Y97660D01*
X101877Y97307D02*
X101957D01*
X101917Y97267D02*
Y97347D01*
X101433Y97307D02*
X101513D01*
X101473Y97267D02*
Y97347D01*
X97865Y98824D02*
X97945D01*
X97905Y98784D02*
Y98864D01*
X97865Y98550D02*
X97945D01*
X97905Y98510D02*
Y98590D01*
X100340Y97950D02*
X100420D01*
X100380Y97910D02*
Y97990D01*
X99990Y97950D02*
X100070D01*
X100030Y97910D02*
Y97990D01*
X99560Y97950D02*
X99640D01*
X99600Y97910D02*
Y97990D01*
X99220Y97950D02*
X99300D01*
X99260Y97910D02*
Y97990D01*
X98790Y97950D02*
X98870D01*
X98830Y97910D02*
Y97990D01*
X98360Y97950D02*
X98440D01*
X98400Y97910D02*
Y97990D01*
X101002Y98553D02*
X101082D01*
X101042Y98513D02*
Y98593D01*
X98150Y96990D02*
X98230D01*
X98190Y96950D02*
Y97030D01*
X97780Y94890D02*
X97860D01*
X97820Y94850D02*
Y94930D01*
X97780Y96270D02*
X97860D01*
X97820Y96230D02*
Y96310D01*
X96365Y95686D02*
X96445D01*
X96405Y95646D02*
Y95726D01*
X96530Y96670D02*
X96610D01*
X96570Y96630D02*
Y96710D01*
X94922Y94503D02*
X95002D01*
X94962Y94463D02*
Y94543D01*
X95390Y94151D02*
X95470D01*
X95430Y94111D02*
Y94191D01*
X98151Y92445D02*
X98231D01*
X98191Y92405D02*
Y92485D01*
X103006Y93754D02*
X103087D01*
X103047Y93714D02*
Y93794D01*
X101941Y94117D02*
X102021D01*
X101981Y94077D02*
Y94157D01*
X102350Y94108D02*
X102430D01*
X102390Y94068D02*
Y94148D01*
X102745Y93996D02*
X102825D01*
X102785Y93956D02*
Y94036D01*
X102289Y93490D02*
X102369D01*
X102329Y93450D02*
Y93530D01*
X101939D02*
X102019D01*
X101979Y93490D02*
Y93570D01*
X103060Y92489D02*
X103140D01*
X103100Y92449D02*
Y92529D01*
X103059Y93180D02*
X103139D01*
X103099Y93140D02*
Y93220D01*
X103109Y91870D02*
X103189D01*
X103149Y91830D02*
Y91910D01*
X103239Y90400D02*
X103319D01*
X103279Y90360D02*
Y90440D01*
X103239Y90750D02*
X103319D01*
X103279Y90710D02*
Y90790D01*
X103239Y91120D02*
X103319D01*
X103279Y91080D02*
Y91160D01*
X103059Y92831D02*
X103139D01*
X103099Y92791D02*
Y92871D01*
X103239Y91510D02*
X103319D01*
X103279Y91470D02*
Y91550D01*
X102238Y91120D02*
X102318D01*
X102278Y91080D02*
Y91160D01*
X102248Y90750D02*
X102328D01*
X102288Y90710D02*
Y90790D01*
X102248Y90400D02*
X102328D01*
X102288Y90360D02*
Y90440D01*
X102259Y91520D02*
X102339D01*
X102299Y91480D02*
Y91560D01*
X102407Y92831D02*
X102487D01*
X102447Y92791D02*
Y92871D01*
X102407Y92489D02*
X102487D01*
X102447Y92449D02*
Y92529D01*
X102397Y91875D02*
X102477D01*
X102437Y91835D02*
Y91915D01*
X102407Y93179D02*
X102487D01*
X102447Y93139D02*
Y93219D01*
X102407Y92180D02*
X102487D01*
X102447Y92140D02*
Y92220D01*
X102902Y90400D02*
X102982D01*
X102942Y90360D02*
Y90440D01*
X102575Y90400D02*
X102655D01*
X102615Y90360D02*
Y90440D01*
X95854Y90400D02*
X95934D01*
X95894Y90360D02*
Y90440D01*
X95527Y90400D02*
X95607D01*
X95567Y90360D02*
Y90440D01*
X96022Y92180D02*
X96102D01*
X96062Y92140D02*
Y92220D01*
X96490Y93530D02*
X96570D01*
X96530Y93490D02*
Y93570D01*
X96140Y93490D02*
X96220D01*
X96180Y93450D02*
Y93530D01*
X96022Y93179D02*
X96102D01*
X96062Y93139D02*
Y93219D01*
X96032Y91875D02*
X96112D01*
X96072Y91835D02*
Y91915D01*
X96022Y92489D02*
X96102D01*
X96062Y92449D02*
Y92529D01*
X96022Y92831D02*
X96102D01*
X96062Y92791D02*
Y92871D01*
X96170Y91520D02*
X96250D01*
X96210Y91480D02*
Y91560D01*
X96181Y90400D02*
X96261D01*
X96221Y90360D02*
Y90440D01*
X96181Y90750D02*
X96261D01*
X96221Y90710D02*
Y90790D01*
X96191Y91120D02*
X96271D01*
X96231Y91080D02*
Y91160D01*
X95190Y91510D02*
X95270D01*
X95230Y91470D02*
Y91550D01*
X95665Y94050D02*
X95745D01*
X95705Y94010D02*
Y94090D01*
X96040Y94151D02*
X96120D01*
X96080Y94111D02*
Y94191D01*
X96410Y94180D02*
X96490D01*
X96450Y94140D02*
Y94220D01*
X95370Y92831D02*
X95450D01*
X95410Y92791D02*
Y92871D01*
X95370Y92489D02*
X95450D01*
X95410Y92449D02*
Y92529D01*
X95190Y91120D02*
X95270D01*
X95230Y91080D02*
Y91160D01*
X95190Y90750D02*
X95270D01*
X95230Y90710D02*
Y90790D01*
X95190Y90400D02*
X95270D01*
X95230Y90360D02*
Y90440D01*
X95320Y91870D02*
X95400D01*
X95360Y91830D02*
Y91910D01*
X95370Y93180D02*
X95450D01*
X95410Y93140D02*
Y93220D01*
X95381Y93775D02*
X95461D01*
X95421Y93735D02*
Y93815D01*
X99530Y103210D02*
X99610D01*
X99570Y103170D02*
Y103250D01*
X95307Y102670D02*
X95387D01*
X95347Y102630D02*
Y102710D01*
X95309Y103130D02*
X95389D01*
X95349Y103090D02*
Y103170D01*
X96451Y102157D02*
X96531D01*
X96491Y102117D02*
Y102197D01*
X95370Y101760D02*
X95450D01*
X95410Y101720D02*
Y101800D01*
X97440Y102160D02*
X97520D01*
X97480Y102120D02*
Y102200D01*
X97855Y102160D02*
X97935D01*
X97895Y102120D02*
Y102200D01*
X98270Y102160D02*
X98350D01*
X98310Y102120D02*
Y102200D01*
X97440Y102595D02*
X97520D01*
X97480Y102555D02*
Y102635D01*
X98270Y102595D02*
X98350D01*
X98310Y102555D02*
Y102635D01*
X98270Y103000D02*
X98350D01*
X98310Y102960D02*
Y103040D01*
X97855Y103000D02*
X97935D01*
X97895Y102960D02*
Y103040D01*
X98582Y101524D02*
X98662D01*
X98622Y101484D02*
Y101564D01*
X97944Y101524D02*
X98024D01*
X97984Y101484D02*
Y101564D01*
X97187Y100384D02*
X97267D01*
X97227Y100344D02*
Y100424D01*
X103000Y104967D02*
X103080D01*
X103040Y104927D02*
Y105007D01*
X104190Y103960D02*
X104270D01*
X104230Y103920D02*
Y104000D01*
X101932Y103960D02*
X102012D01*
X101972Y103920D02*
Y104000D01*
X103810Y104957D02*
X103890D01*
X103850Y104917D02*
Y104997D01*
X103900Y103960D02*
X103980D01*
X103940Y103920D02*
Y104000D01*
X103150Y103960D02*
X103230D01*
X103190Y103920D02*
Y104000D01*
X103395Y103960D02*
X103475D01*
X103435Y103920D02*
Y104000D01*
X103640Y103960D02*
X103720D01*
X103680Y103920D02*
Y104000D01*
X103395Y103660D02*
X103475D01*
X103435Y103620D02*
Y103700D01*
X103150Y103660D02*
X103230D01*
X103190Y103620D02*
Y103700D01*
X102270Y103660D02*
X102350D01*
X102310Y103620D02*
Y103700D01*
X102515Y103660D02*
X102595D01*
X102555Y103620D02*
Y103700D01*
X102760Y103660D02*
X102840D01*
X102800Y103620D02*
Y103700D01*
X102760Y103960D02*
X102840D01*
X102800Y103920D02*
Y104000D01*
X102515Y103960D02*
X102595D01*
X102555Y103920D02*
Y104000D01*
X102270Y103960D02*
X102350D01*
X102310Y103920D02*
Y104000D01*
X93150Y109800D02*
X93230D01*
X93190Y109760D02*
Y109840D01*
X95570Y109360D02*
X95650D01*
X95610Y109320D02*
Y109400D01*
X95570Y108450D02*
X95650D01*
X95610Y108410D02*
Y108490D01*
X95076Y106450D02*
X95156D01*
X95116Y106410D02*
Y106490D01*
X94590Y106450D02*
X94670D01*
X94630Y106410D02*
Y106490D01*
X94120Y107248D02*
X94200D01*
X94160Y107208D02*
Y107288D01*
X93167Y108893D02*
X93247D01*
X93207Y108853D02*
Y108933D01*
X93810Y108893D02*
X93890D01*
X93850Y108853D02*
Y108933D01*
X94130Y108893D02*
X94210D01*
X94170Y108853D02*
Y108933D01*
X94590Y108893D02*
X94670D01*
X94630Y108853D02*
Y108933D01*
X94600Y107816D02*
X94680D01*
X94640Y107776D02*
Y107856D01*
X94910Y107816D02*
X94990D01*
X94950Y107776D02*
Y107856D01*
X93494Y107816D02*
X93574D01*
X93534Y107776D02*
Y107856D01*
X90040Y110790D02*
X90120D01*
X90080Y110750D02*
Y110830D01*
X90350Y110790D02*
X90430D01*
X90390Y110750D02*
Y110830D01*
X90640Y112040D02*
X90720D01*
X90680Y112000D02*
Y112080D01*
X90640Y112400D02*
X90720D01*
X90680Y112360D02*
Y112440D01*
X90640Y111320D02*
X90720D01*
X90680Y111280D02*
Y111360D01*
X90640Y111680D02*
X90720D01*
X90680Y111640D02*
Y111720D01*
X90837Y108820D02*
X90917D01*
X90877Y108780D02*
Y108860D01*
X91160Y108820D02*
X91240D01*
X91200Y108780D02*
Y108860D01*
X91160Y109570D02*
X91240D01*
X91200Y109530D02*
Y109610D01*
X90584Y108690D02*
X90664D01*
X90624Y108650D02*
Y108730D01*
X90584Y109440D02*
X90664D01*
X90624Y109400D02*
Y109480D01*
X87980Y104310D02*
X88060D01*
X88020Y104270D02*
Y104350D01*
X88440Y104310D02*
X88520D01*
X88480Y104270D02*
Y104350D01*
X89335Y105440D02*
X89415D01*
X89375Y105400D02*
Y105480D01*
X89754Y104309D02*
X89834D01*
X89794Y104269D02*
Y104349D01*
X89497Y104310D02*
X89577D01*
X89537Y104270D02*
Y104350D01*
X89240Y104310D02*
X89320D01*
X89280Y104270D02*
Y104350D01*
X89620Y105440D02*
X89700D01*
X89660Y105400D02*
Y105480D01*
X89050Y105440D02*
X89130D01*
X89090Y105400D02*
Y105480D01*
X88590Y105440D02*
X88670D01*
X88630Y105400D02*
Y105480D01*
X88020Y105380D02*
X88100D01*
X88060Y105340D02*
Y105420D01*
X87750Y105380D02*
X87830D01*
X87790Y105340D02*
Y105420D01*
X87495Y105870D02*
X87575D01*
X87535Y105830D02*
Y105910D01*
X87240Y105870D02*
X87320D01*
X87280Y105830D02*
Y105910D01*
X87495Y105625D02*
X87575D01*
X87535Y105585D02*
Y105665D01*
X87240Y105625D02*
X87320D01*
X87280Y105585D02*
Y105665D01*
X87240Y105380D02*
X87320D01*
X87280Y105340D02*
Y105420D01*
X87495Y105380D02*
X87575D01*
X87535Y105340D02*
Y105420D01*
X87635Y107246D02*
X87715D01*
X87675Y107206D02*
Y107286D01*
X90090Y108040D02*
X90170D01*
X90130Y108000D02*
Y108080D01*
X88230Y106610D02*
X88310D01*
X88270Y106570D02*
Y106650D01*
X88230Y106370D02*
X88310D01*
X88270Y106330D02*
Y106410D01*
X88230Y107780D02*
X88310D01*
X88270Y107740D02*
Y107820D01*
X88230Y107540D02*
X88310D01*
X88270Y107500D02*
Y107580D01*
X88920Y106120D02*
X89000D01*
X88960Y106080D02*
Y106160D01*
X88920Y106820D02*
X89000D01*
X88960Y106780D02*
Y106860D01*
X90900Y107800D02*
X90980D01*
X90940Y107760D02*
Y107840D01*
X90090Y108260D02*
X90170D01*
X90130Y108220D02*
Y108300D01*
X90324Y108409D02*
X90404D01*
X90364Y108369D02*
Y108449D01*
X90584Y108410D02*
X90664D01*
X90624Y108370D02*
Y108450D01*
X91780Y108400D02*
X91860D01*
X91820Y108360D02*
Y108440D01*
X92179Y107830D02*
X92259D01*
X92219Y107790D02*
Y107870D01*
X91380Y106440D02*
X91460D01*
X91420Y106400D02*
Y106480D01*
X91380Y105840D02*
X91460D01*
X91420Y105800D02*
Y105880D01*
X91380Y106070D02*
X91460D01*
X91420Y106030D02*
Y106110D01*
X93752Y105660D02*
X93832D01*
X93792Y105620D02*
Y105700D01*
X94023Y105660D02*
X94103D01*
X94063Y105620D02*
Y105700D01*
X94293Y105660D02*
X94373D01*
X94333Y105620D02*
Y105700D01*
X92180Y103250D02*
X92260D01*
X92220Y103210D02*
Y103290D01*
X92450Y103250D02*
X92530D01*
X92490Y103210D02*
Y103290D01*
X91370Y102760D02*
X91450D01*
X91410Y102720D02*
Y102800D01*
X91370Y102430D02*
X91450D01*
X91410Y102390D02*
Y102470D01*
X94090Y103660D02*
X94170D01*
X94130Y103620D02*
Y103700D01*
X93820Y103660D02*
X93900D01*
X93860Y103620D02*
Y103700D01*
X93550Y103660D02*
X93630D01*
X93590Y103620D02*
Y103700D01*
X94090Y103900D02*
X94170D01*
X94130Y103860D02*
Y103940D01*
X93820Y103900D02*
X93900D01*
X93860Y103860D02*
Y103940D01*
X93550Y103900D02*
X93630D01*
X93590Y103860D02*
Y103940D01*
X92340Y102750D02*
X92420D01*
X92380Y102710D02*
Y102790D01*
X91889Y103830D02*
X91969D01*
X91929Y103790D02*
Y103870D01*
X91220Y103830D02*
X91300D01*
X91260Y103790D02*
Y103870D01*
X91550Y100220D02*
X91630D01*
X91590Y100180D02*
Y100260D01*
X91550Y100470D02*
X91630D01*
X91590Y100430D02*
Y100510D01*
X90260Y91800D02*
X90340D01*
X90300Y91760D02*
Y91840D01*
X92900Y97890D02*
X92980D01*
X92940Y97850D02*
Y97930D01*
X92870Y100570D02*
X92950D01*
X92910Y100530D02*
Y100610D01*
X92665Y101680D02*
X92745D01*
X92705Y101640D02*
Y101720D01*
X92670Y101220D02*
X92750D01*
X92710Y101180D02*
Y101260D01*
X92670Y100770D02*
X92750D01*
X92710Y100730D02*
Y100810D01*
X91780Y98420D02*
X91860D01*
X91820Y98380D02*
Y98460D01*
X91790Y100990D02*
X91870D01*
X91830Y100950D02*
Y101030D01*
X91780Y101940D02*
X91860D01*
X91820Y101900D02*
Y101980D01*
X91010Y97450D02*
X91090D01*
X91050Y97410D02*
Y97490D01*
X91785Y101455D02*
X91865D01*
X91825Y101415D02*
Y101495D01*
X91790Y99620D02*
X91870D01*
X91830Y99580D02*
Y99660D01*
X91784Y97890D02*
X91864D01*
X91824Y97850D02*
Y97930D01*
X92120Y97890D02*
X92200D01*
X92160Y97850D02*
Y97930D01*
X91440Y99490D02*
X91520D01*
X91480Y99450D02*
Y99530D01*
X91580Y95500D02*
X91660D01*
X91620Y95460D02*
Y95540D01*
X91160Y95500D02*
X91240D01*
X91200Y95460D02*
Y95540D01*
X89570Y96021D02*
X89650D01*
X89610Y95981D02*
Y96061D01*
X92110Y96150D02*
X92190D01*
X92150Y96110D02*
Y96190D01*
X91258Y95802D02*
X91338D01*
X91298Y95762D02*
Y95842D01*
X90760Y96150D02*
X90840D01*
X90800Y96110D02*
Y96190D01*
X89860Y96950D02*
X89940D01*
X89900Y96910D02*
Y96990D01*
X90760Y94150D02*
X90840D01*
X90800Y94110D02*
Y94190D01*
X91210Y94500D02*
X91290D01*
X91250Y94460D02*
Y94540D01*
X90161Y95249D02*
X90241D01*
X90201Y95209D02*
Y95289D01*
X89910Y94200D02*
X89990D01*
X89950Y94160D02*
Y94240D01*
X87810Y94600D02*
X87890D01*
X87850Y94560D02*
Y94640D01*
X88210Y94600D02*
X88290D01*
X88250Y94560D02*
Y94640D01*
X88210Y96000D02*
X88290D01*
X88250Y95960D02*
Y96040D01*
X87810Y96000D02*
X87890D01*
X87850Y95960D02*
Y96040D01*
X93610Y94850D02*
X93690D01*
X93650Y94810D02*
Y94890D01*
X92294Y94066D02*
X92374D01*
X92334Y94026D02*
Y94106D01*
X92710Y94500D02*
X92790D01*
X92750Y94460D02*
Y94540D01*
X91610Y94400D02*
X91690D01*
X91650Y94360D02*
Y94440D01*
X90010Y95000D02*
X90090D01*
X90050Y94960D02*
Y95040D01*
X91160Y93500D02*
X91240D01*
X91200Y93460D02*
Y93540D01*
X91710Y93500D02*
X91790D01*
X91750Y93460D02*
Y93540D01*
X92158Y93048D02*
X92238D01*
X92198Y93008D02*
Y93088D01*
X89860Y93400D02*
X89940D01*
X89900Y93360D02*
Y93440D01*
X89860Y91900D02*
X89940D01*
X89900Y91860D02*
Y91940D01*
X90260Y93500D02*
X90340D01*
X90300Y93460D02*
Y93540D01*
X90710Y93500D02*
X90790D01*
X90750Y93460D02*
Y93540D01*
M02*
