G04*
G04 #@! TF.GenerationSoftware,Altium Limited,Altium Designer,20.0.13 (296)*
G04*
G04 Layer_Color=8421504*
%FSLAX24Y24*%
%MOIN*%
G70*
G01*
G75*
%ADD25R,0.0201X0.0201*%
%ADD26R,0.0394X0.0315*%
%ADD27R,0.0098X0.0118*%
%ADD28C,0.0091*%
%ADD29R,0.0299X0.0315*%
%ADD30O,0.0551X0.0984*%
%ADD31R,0.0236X0.0551*%
%ADD32R,0.0098X0.0157*%
%ADD33R,0.0157X0.0098*%
%ADD34C,0.0079*%
%ADD35R,0.0551X0.0394*%
%ADD36R,0.0551X0.0236*%
%ADD37R,0.0453X0.0551*%
%ADD38R,0.0118X0.0098*%
%ADD39R,0.0394X0.0236*%
%ADD40R,0.0394X0.0118*%
%ADD41R,0.0709X0.0315*%
%ADD42R,0.0394X0.0394*%
%ADD43R,0.0787X0.0709*%
%ADD44R,0.0315X0.0299*%
%ADD45R,0.0201X0.0201*%
%ADD46C,0.0118*%
%ADD47R,0.0394X0.1181*%
%ADD48R,0.0354X0.0236*%
%ADD49R,0.0354X0.0610*%
%ADD50R,0.0354X0.0472*%
%ADD51R,0.0236X0.0354*%
%ADD52R,0.0610X0.0354*%
%ADD53R,0.0472X0.0354*%
%ADD54R,0.0472X0.0630*%
%ADD55R,0.0600X0.0236*%
%ADD56R,0.0600X0.0600*%
%ADD57R,0.0315X0.0118*%
%ADD58R,0.0354X0.0197*%
%ADD59R,0.1181X0.0394*%
%ADD60R,0.0394X0.0394*%
%ADD61R,0.0197X0.0118*%
%ADD62R,0.0689X0.1024*%
%ADD63R,0.0394X0.0551*%
%ADD64R,0.0472X0.0079*%
%ADD65R,0.0472X0.0315*%
%ADD66R,0.0630X0.1063*%
%ADD67R,0.0197X0.0098*%
%ADD68R,0.0098X0.0197*%
%ADD69R,0.1122X0.1122*%
%ADD70R,0.0709X0.0118*%
%ADD71R,0.0472X0.0709*%
%ADD72R,0.0433X0.0591*%
%ADD73R,0.0217X0.0217*%
%ADD74R,0.0197X0.0157*%
%ADD75R,0.0098X0.0217*%
%ADD76R,0.0591X0.0315*%
%ADD77R,0.0591X0.0591*%
%ADD78R,0.0748X0.2087*%
%ADD79R,0.0472X0.0236*%
%ADD80R,0.0472X0.0472*%
%ADD81R,0.2087X0.0748*%
%ADD82R,0.0157X0.0157*%
%ADD83R,0.0236X0.0472*%
%ADD84R,0.0591X0.1575*%
%ADD85R,0.0079X0.0472*%
%ADD86R,0.0276X0.0472*%
%ADD87R,0.1575X0.0591*%
%ADD88R,0.0394X0.0098*%
%ADD89R,0.0098X0.0394*%
%ADD90C,0.0236*%
%ADD91R,0.0197X0.0512*%
%ADD92R,0.0512X0.0197*%
D25*
X143320Y104368D02*
D03*
Y104045D02*
D03*
X143760Y100990D02*
D03*
Y100667D02*
D03*
Y101450D02*
D03*
Y101773D02*
D03*
Y99350D02*
D03*
Y99673D02*
D03*
Y98890D02*
D03*
Y98567D02*
D03*
X140150Y96700D02*
D03*
Y96377D02*
D03*
X139650Y95539D02*
D03*
Y95861D02*
D03*
Y96711D02*
D03*
Y96389D02*
D03*
X132060Y100660D02*
D03*
Y100337D02*
D03*
X132070Y101147D02*
D03*
Y101470D02*
D03*
X131610D02*
D03*
Y101147D02*
D03*
X119840Y96880D02*
D03*
Y97203D02*
D03*
X120330Y97203D02*
D03*
Y96880D02*
D03*
Y97991D02*
D03*
Y97669D02*
D03*
X119840Y98003D02*
D03*
Y97680D02*
D03*
X120836Y99670D02*
D03*
Y99993D02*
D03*
X112690Y92779D02*
D03*
Y93101D02*
D03*
X112230D02*
D03*
Y92779D02*
D03*
X98240Y104089D02*
D03*
Y104412D02*
D03*
X97780Y104089D02*
D03*
Y104412D02*
D03*
X97320Y104090D02*
D03*
Y104413D02*
D03*
X96860Y104090D02*
D03*
Y104413D02*
D03*
X99080Y101160D02*
D03*
Y100837D02*
D03*
X98620Y101163D02*
D03*
Y100840D02*
D03*
X98160Y101170D02*
D03*
Y100847D02*
D03*
X97693Y101170D02*
D03*
Y100847D02*
D03*
X97227Y101170D02*
D03*
Y100847D02*
D03*
X96760D02*
D03*
Y101170D02*
D03*
X102773Y92647D02*
D03*
Y92970D02*
D03*
X102803Y97297D02*
D03*
Y97620D02*
D03*
Y96797D02*
D03*
Y96474D02*
D03*
X102300Y96479D02*
D03*
Y96801D02*
D03*
X100680Y98553D02*
D03*
Y98230D02*
D03*
X100200Y98553D02*
D03*
Y98230D02*
D03*
X99720Y98553D02*
D03*
Y98230D02*
D03*
X99240Y98553D02*
D03*
Y98230D02*
D03*
X98760Y98553D02*
D03*
Y98230D02*
D03*
X98280Y98553D02*
D03*
Y98230D02*
D03*
X95740Y92647D02*
D03*
Y92970D02*
D03*
X90300Y92877D02*
D03*
Y93200D02*
D03*
X90750D02*
D03*
Y92877D02*
D03*
X91200D02*
D03*
Y93200D02*
D03*
X90300Y92423D02*
D03*
Y92100D02*
D03*
X90750D02*
D03*
Y92423D02*
D03*
X91200D02*
D03*
Y92100D02*
D03*
X94660Y106757D02*
D03*
Y107080D02*
D03*
X95116Y106757D02*
D03*
Y107080D02*
D03*
X140150Y95861D02*
D03*
Y95539D02*
D03*
X112695Y95669D02*
D03*
Y95346D02*
D03*
X112245D02*
D03*
Y95669D02*
D03*
D26*
X141682Y103730D02*
D03*
X140698D02*
D03*
X88916Y96550D02*
D03*
X89900D02*
D03*
D27*
X146308Y99450D02*
D03*
X146092D02*
D03*
X146308Y99000D02*
D03*
X146092D02*
D03*
X146308Y98550D02*
D03*
X146092D02*
D03*
X146308Y98050D02*
D03*
X146092D02*
D03*
X89633Y95000D02*
D03*
X89850D02*
D03*
X89633Y95400D02*
D03*
X89850D02*
D03*
X91825Y98180D02*
D03*
X92042D02*
D03*
X91825Y98630D02*
D03*
X92042D02*
D03*
Y99080D02*
D03*
X91825D02*
D03*
Y99910D02*
D03*
X92042D02*
D03*
X91825Y100810D02*
D03*
X92042D02*
D03*
X91825Y101210D02*
D03*
X92042D02*
D03*
X91825Y101660D02*
D03*
X92042D02*
D03*
X90062Y112410D02*
D03*
X90278D02*
D03*
X90062Y111680D02*
D03*
X90278D02*
D03*
X90063Y109440D02*
D03*
X90280D02*
D03*
X90063Y108690D02*
D03*
X90280D02*
D03*
X140609Y104380D02*
D03*
X140392D02*
D03*
X141793D02*
D03*
X142010D02*
D03*
D28*
X142703Y101003D02*
D03*
X143097Y101397D02*
D03*
Y101003D02*
D03*
X142900D02*
D03*
Y101200D02*
D03*
X142703D02*
D03*
Y101397D02*
D03*
X142900D02*
D03*
X143097Y101200D02*
D03*
X142703Y98906D02*
D03*
X143097Y99300D02*
D03*
Y98906D02*
D03*
X142900D02*
D03*
Y99103D02*
D03*
X142703D02*
D03*
Y99300D02*
D03*
X142900D02*
D03*
X143097Y99103D02*
D03*
X131141Y97559D02*
D03*
X136259D02*
D03*
X131141Y92441D02*
D03*
X136259D02*
D03*
X131141Y97165D02*
D03*
X134094Y97559D02*
D03*
X136259Y93819D02*
D03*
X136062D02*
D03*
X135668Y97362D02*
D03*
X135472D02*
D03*
X135865Y95197D02*
D03*
X136062D02*
D03*
Y96181D02*
D03*
X136259D02*
D03*
X136062Y94016D02*
D03*
X135865Y97362D02*
D03*
X136259Y95394D02*
D03*
X135865Y95984D02*
D03*
X136259Y94213D02*
D03*
X135865Y94016D02*
D03*
X136062Y97165D02*
D03*
Y96968D02*
D03*
X136259D02*
D03*
X135865Y96772D02*
D03*
Y93622D02*
D03*
X136062D02*
D03*
Y96772D02*
D03*
X136259Y93425D02*
D03*
X136062Y93228D02*
D03*
X135865D02*
D03*
X136259Y93032D02*
D03*
X136062Y92835D02*
D03*
X136259D02*
D03*
X134487Y97362D02*
D03*
X134684Y97559D02*
D03*
Y97362D02*
D03*
X134881Y97559D02*
D03*
X135865Y96378D02*
D03*
X135078Y97362D02*
D03*
X135275Y97559D02*
D03*
Y97362D02*
D03*
X135472Y97559D02*
D03*
X136259Y95000D02*
D03*
X135865Y94803D02*
D03*
X136062D02*
D03*
X136259Y94606D02*
D03*
X135865Y94409D02*
D03*
X136062D02*
D03*
Y96378D02*
D03*
X136259Y96575D02*
D03*
X131338Y95591D02*
D03*
X131535D02*
D03*
Y95984D02*
D03*
X131338D02*
D03*
X131141Y95787D02*
D03*
X131338D02*
D03*
Y96772D02*
D03*
X131535D02*
D03*
X131338Y96575D02*
D03*
Y96378D02*
D03*
X131141Y96181D02*
D03*
Y95394D02*
D03*
X131338D02*
D03*
Y95197D02*
D03*
X131535D02*
D03*
X131141Y95000D02*
D03*
X134487Y92638D02*
D03*
Y92441D02*
D03*
X131338Y93622D02*
D03*
Y93819D02*
D03*
X132913Y92638D02*
D03*
Y92441D02*
D03*
X131928Y92638D02*
D03*
Y92441D02*
D03*
X134291D02*
D03*
X131535Y93622D02*
D03*
X132716Y92441D02*
D03*
X132125Y92638D02*
D03*
X133109Y92441D02*
D03*
Y92638D02*
D03*
X131732Y92441D02*
D03*
X131535Y92638D02*
D03*
X131338Y92835D02*
D03*
X131141D02*
D03*
X135668Y92638D02*
D03*
X135472D02*
D03*
X131141Y93032D02*
D03*
X135472Y92441D02*
D03*
X135275D02*
D03*
X135078Y92638D02*
D03*
X134881D02*
D03*
Y92441D02*
D03*
X134684D02*
D03*
X131141Y93819D02*
D03*
X131338Y94016D02*
D03*
X131535D02*
D03*
X131141Y94213D02*
D03*
X131535Y93228D02*
D03*
Y94409D02*
D03*
X131338D02*
D03*
X131141Y94606D02*
D03*
X131535Y94803D02*
D03*
X134094Y92441D02*
D03*
X133897Y92638D02*
D03*
X133700Y92441D02*
D03*
Y92638D02*
D03*
X133503Y92441D02*
D03*
X133306Y92638D02*
D03*
X131338Y93228D02*
D03*
X131141Y93425D02*
D03*
X132322Y97559D02*
D03*
Y97362D02*
D03*
X132716Y97559D02*
D03*
Y97362D02*
D03*
X132519D02*
D03*
Y97559D02*
D03*
X133700Y97362D02*
D03*
Y97559D02*
D03*
X133503Y97362D02*
D03*
Y97559D02*
D03*
X133306D02*
D03*
X132125Y97362D02*
D03*
X131928Y97559D02*
D03*
X131732Y97362D02*
D03*
Y97559D02*
D03*
X131535Y97362D02*
D03*
X132519Y92638D02*
D03*
X133109Y97362D02*
D03*
X131535Y96378D02*
D03*
X135865Y95591D02*
D03*
X136062Y95787D02*
D03*
X136259Y92638D02*
D03*
X136062D02*
D03*
X131338Y97165D02*
D03*
X132322Y92638D02*
D03*
X131338D02*
D03*
Y97559D02*
D03*
X134094Y97362D02*
D03*
X131338Y95000D02*
D03*
X135275Y92638D02*
D03*
X134684D02*
D03*
X136062Y93032D02*
D03*
X135865Y92638D02*
D03*
Y92441D02*
D03*
X136062Y93425D02*
D03*
Y94213D02*
D03*
Y94606D02*
D03*
Y95000D02*
D03*
Y95394D02*
D03*
Y95984D02*
D03*
X136259Y95787D02*
D03*
X136062Y96575D02*
D03*
X134881Y97362D02*
D03*
X135668Y97559D02*
D03*
X136062Y97362D02*
D03*
Y97559D02*
D03*
X134094Y92638D02*
D03*
X133503D02*
D03*
X132716D02*
D03*
X133897Y97362D02*
D03*
X133306D02*
D03*
X132913D02*
D03*
X134291D02*
D03*
X131732Y92638D02*
D03*
X131141D02*
D03*
X131338Y93032D02*
D03*
X132125Y92441D02*
D03*
X131338Y93425D02*
D03*
Y94213D02*
D03*
Y94803D02*
D03*
Y94606D02*
D03*
X131928Y97362D02*
D03*
X131338D02*
D03*
X131141Y96968D02*
D03*
X131338D02*
D03*
X131141Y96378D02*
D03*
X131338Y96181D02*
D03*
X136259Y96378D02*
D03*
X136062Y92441D02*
D03*
X135668D02*
D03*
X135078D02*
D03*
X136259Y93228D02*
D03*
Y93622D02*
D03*
Y94016D02*
D03*
Y94409D02*
D03*
Y94803D02*
D03*
Y95197D02*
D03*
Y95591D02*
D03*
X136062D02*
D03*
X136259Y95984D02*
D03*
Y96772D02*
D03*
Y97165D02*
D03*
X135865Y97559D02*
D03*
X136259Y97362D02*
D03*
X135078Y97559D02*
D03*
X133897Y92441D02*
D03*
X133306D02*
D03*
X134291Y92638D02*
D03*
X132322Y92441D02*
D03*
X132519D02*
D03*
X134487Y97559D02*
D03*
X134291D02*
D03*
X132913D02*
D03*
X133109D02*
D03*
X133897D02*
D03*
X131338Y92441D02*
D03*
X131535D02*
D03*
X131141Y93228D02*
D03*
Y93622D02*
D03*
Y94016D02*
D03*
Y94409D02*
D03*
Y94803D02*
D03*
Y95591D02*
D03*
Y95984D02*
D03*
Y97362D02*
D03*
X132125Y97559D02*
D03*
X131535D02*
D03*
X131141Y96575D02*
D03*
Y96772D02*
D03*
Y95197D02*
D03*
X126175Y102166D02*
D03*
X125978Y102363D02*
D03*
X125387Y101378D02*
D03*
X125191Y101575D02*
D03*
X125584Y101378D02*
D03*
X125191Y101772D02*
D03*
X124600Y102363D02*
D03*
X124403Y102166D02*
D03*
X125781Y102363D02*
D03*
X124600Y102953D02*
D03*
X124403Y102559D02*
D03*
X126569D02*
D03*
X126175Y101969D02*
D03*
X124403Y102363D02*
D03*
Y102756D02*
D03*
X124600Y102559D02*
D03*
X124797D02*
D03*
X126569Y102166D02*
D03*
X124797Y102363D02*
D03*
X126962Y102756D02*
D03*
Y102559D02*
D03*
Y102363D02*
D03*
X126765Y102953D02*
D03*
Y102756D02*
D03*
Y102559D02*
D03*
Y102363D02*
D03*
Y102166D02*
D03*
X125191Y102363D02*
D03*
X126569Y102953D02*
D03*
X124797Y102166D02*
D03*
X128340Y102559D02*
D03*
Y102166D02*
D03*
Y101575D02*
D03*
Y101181D02*
D03*
X128143Y102953D02*
D03*
Y100788D02*
D03*
X127750Y103150D02*
D03*
Y100591D02*
D03*
X126962Y103150D02*
D03*
Y102953D02*
D03*
Y102166D02*
D03*
Y101969D02*
D03*
Y101772D02*
D03*
Y101575D02*
D03*
Y101378D02*
D03*
Y101181D02*
D03*
Y100985D02*
D03*
Y100788D02*
D03*
Y100591D02*
D03*
X126765Y103150D02*
D03*
Y101969D02*
D03*
Y101772D02*
D03*
Y101575D02*
D03*
Y101378D02*
D03*
Y101181D02*
D03*
Y100985D02*
D03*
Y100788D02*
D03*
Y100591D02*
D03*
X126569Y103150D02*
D03*
Y102756D02*
D03*
Y102363D02*
D03*
Y101969D02*
D03*
Y101772D02*
D03*
Y101575D02*
D03*
Y101378D02*
D03*
Y101181D02*
D03*
Y100985D02*
D03*
Y100788D02*
D03*
Y100591D02*
D03*
X126372Y103150D02*
D03*
Y102953D02*
D03*
Y102756D02*
D03*
Y102559D02*
D03*
Y100985D02*
D03*
Y100788D02*
D03*
Y100591D02*
D03*
X126175Y103150D02*
D03*
Y102953D02*
D03*
Y102756D02*
D03*
Y102363D02*
D03*
Y101772D02*
D03*
Y101575D02*
D03*
Y101378D02*
D03*
Y100985D02*
D03*
Y100788D02*
D03*
Y100591D02*
D03*
X125978Y103150D02*
D03*
Y102953D02*
D03*
Y102756D02*
D03*
Y101378D02*
D03*
Y100985D02*
D03*
Y100788D02*
D03*
Y100591D02*
D03*
X125781Y103150D02*
D03*
Y102953D02*
D03*
Y102756D02*
D03*
Y101378D02*
D03*
Y100985D02*
D03*
Y100788D02*
D03*
Y100591D02*
D03*
X125584Y103150D02*
D03*
Y102953D02*
D03*
Y102756D02*
D03*
Y102363D02*
D03*
Y100985D02*
D03*
Y100788D02*
D03*
Y100591D02*
D03*
X125387Y103150D02*
D03*
Y102953D02*
D03*
Y102756D02*
D03*
Y102363D02*
D03*
Y100985D02*
D03*
Y100788D02*
D03*
Y100591D02*
D03*
X125191Y103150D02*
D03*
Y102953D02*
D03*
Y102756D02*
D03*
Y102166D02*
D03*
Y101969D02*
D03*
Y101378D02*
D03*
Y100985D02*
D03*
Y100788D02*
D03*
Y100591D02*
D03*
X124994Y103150D02*
D03*
Y102953D02*
D03*
Y102756D02*
D03*
Y100985D02*
D03*
Y100788D02*
D03*
Y100591D02*
D03*
X124797Y103150D02*
D03*
Y102953D02*
D03*
Y102756D02*
D03*
Y101969D02*
D03*
Y101772D02*
D03*
Y101575D02*
D03*
Y101378D02*
D03*
Y101181D02*
D03*
Y100985D02*
D03*
Y100788D02*
D03*
Y100591D02*
D03*
X124600Y103150D02*
D03*
Y102756D02*
D03*
Y102166D02*
D03*
Y101969D02*
D03*
Y101772D02*
D03*
Y101575D02*
D03*
Y101378D02*
D03*
Y101181D02*
D03*
Y100985D02*
D03*
Y100788D02*
D03*
Y100591D02*
D03*
X124403Y103150D02*
D03*
Y102953D02*
D03*
Y101969D02*
D03*
Y101772D02*
D03*
Y101575D02*
D03*
Y101378D02*
D03*
Y101181D02*
D03*
Y100985D02*
D03*
Y100788D02*
D03*
Y100591D02*
D03*
X123616Y103150D02*
D03*
Y100591D02*
D03*
X123222Y102953D02*
D03*
Y100788D02*
D03*
X123025Y102559D02*
D03*
Y102166D02*
D03*
Y101575D02*
D03*
Y101181D02*
D03*
D29*
X142882Y98010D02*
D03*
X143480D02*
D03*
X141682D02*
D03*
X142280D02*
D03*
X103980Y101821D02*
D03*
X103382D02*
D03*
X92596Y100360D02*
D03*
X91997D02*
D03*
X100479Y102910D02*
D03*
X99881D02*
D03*
X88030Y105750D02*
D03*
X88629D02*
D03*
X114309Y96570D02*
D03*
X113711D02*
D03*
X147848Y105300D02*
D03*
X147250D02*
D03*
X116659Y90820D02*
D03*
X116061D02*
D03*
X115899Y100894D02*
D03*
X115301D02*
D03*
X99882Y103520D02*
D03*
X100480D02*
D03*
X99882Y104140D02*
D03*
X100480D02*
D03*
X115899Y98907D02*
D03*
X115301D02*
D03*
X108359Y101300D02*
D03*
X108958D02*
D03*
X114312Y100244D02*
D03*
X113713D02*
D03*
X108239Y100517D02*
D03*
X108837D02*
D03*
X141372Y100150D02*
D03*
X141970D02*
D03*
X96000Y96280D02*
D03*
X95402D02*
D03*
X115899Y99569D02*
D03*
X115301D02*
D03*
X114262Y100894D02*
D03*
X113663D02*
D03*
X138911Y92250D02*
D03*
X139509D02*
D03*
X115899Y100282D02*
D03*
X115301D02*
D03*
X100479Y102290D02*
D03*
X99881D02*
D03*
X96073Y101020D02*
D03*
X95474D02*
D03*
X115890Y98244D02*
D03*
X115292D02*
D03*
X132219Y91650D02*
D03*
X131621D02*
D03*
X135860Y91750D02*
D03*
X135262D02*
D03*
X99881Y101050D02*
D03*
X100479D02*
D03*
X108249Y99890D02*
D03*
X108848D02*
D03*
X96023Y102120D02*
D03*
X95424D02*
D03*
X99882Y101670D02*
D03*
X100480D02*
D03*
D30*
X144000Y94100D02*
D03*
X142268D02*
D03*
D31*
X132276Y102988D02*
D03*
X132650D02*
D03*
X133024D02*
D03*
Y104012D02*
D03*
X132276D02*
D03*
X133354Y101350D02*
D03*
X132980D02*
D03*
X132606D02*
D03*
Y100326D02*
D03*
X133354D02*
D03*
D32*
X119995Y93358D02*
D03*
X120503D02*
D03*
X120673D02*
D03*
X119657D02*
D03*
X119826D02*
D03*
X119995Y94302D02*
D03*
X119826D02*
D03*
X119657D02*
D03*
X119487D02*
D03*
Y93358D02*
D03*
X120334Y94302D02*
D03*
X120503D02*
D03*
X120673D02*
D03*
X120165Y93358D02*
D03*
X120334D02*
D03*
X120165Y94302D02*
D03*
D33*
X119509Y93915D02*
D03*
X120651Y93576D02*
D03*
Y93745D02*
D03*
Y93915D02*
D03*
Y94084D02*
D03*
X119509Y93576D02*
D03*
Y94084D02*
D03*
Y93745D02*
D03*
D34*
X120573Y95108D02*
D03*
Y95423D02*
D03*
X120730Y95580D02*
D03*
X121045Y95265D02*
D03*
X120730Y95108D02*
D03*
X120573Y95265D02*
D03*
X120887Y95580D02*
D03*
X121045D02*
D03*
X120573D02*
D03*
X120887Y95423D02*
D03*
X121045D02*
D03*
X120730Y95265D02*
D03*
X120887D02*
D03*
X121045Y95108D02*
D03*
X112383Y91483D02*
D03*
Y91640D02*
D03*
X112225Y91483D02*
D03*
Y91640D02*
D03*
X112697Y91797D02*
D03*
Y91955D02*
D03*
X112540Y91797D02*
D03*
X112383Y91955D02*
D03*
X112540D02*
D03*
X112225Y91797D02*
D03*
X112383D02*
D03*
X112697Y91483D02*
D03*
Y91640D02*
D03*
X112540Y91483D02*
D03*
Y91640D02*
D03*
X112697Y92112D02*
D03*
X112540D02*
D03*
X112225Y91955D02*
D03*
X112383Y92112D02*
D03*
X112225D02*
D03*
X112347Y94060D02*
D03*
Y94218D02*
D03*
X112190Y94060D02*
D03*
Y94218D02*
D03*
X112662Y94375D02*
D03*
Y94533D02*
D03*
X112505Y94375D02*
D03*
X112347Y94533D02*
D03*
X112505D02*
D03*
X112190Y94375D02*
D03*
X112347D02*
D03*
X112662Y94060D02*
D03*
Y94218D02*
D03*
X112505Y94060D02*
D03*
Y94218D02*
D03*
X112662Y94690D02*
D03*
X112505D02*
D03*
X112190Y94533D02*
D03*
X112347Y94690D02*
D03*
X112190D02*
D03*
D35*
X119830Y95280D02*
D03*
X118964Y94906D02*
D03*
Y95654D02*
D03*
X90800Y95248D02*
D03*
Y94500D02*
D03*
X91666Y94874D02*
D03*
X90800Y96550D02*
D03*
Y95802D02*
D03*
X91666Y96176D02*
D03*
X108008Y95254D02*
D03*
Y94506D02*
D03*
X108874Y94880D02*
D03*
X138854Y104304D02*
D03*
Y103556D02*
D03*
X139720Y103930D02*
D03*
X92334Y95224D02*
D03*
Y94476D02*
D03*
X93200Y94850D02*
D03*
D36*
X102968Y101204D02*
D03*
Y100830D02*
D03*
Y100456D02*
D03*
X103992D02*
D03*
Y100830D02*
D03*
Y101204D02*
D03*
X91850Y103498D02*
D03*
Y103124D02*
D03*
Y102750D02*
D03*
X92874D02*
D03*
Y103498D02*
D03*
X91882Y105686D02*
D03*
Y106060D02*
D03*
Y106434D02*
D03*
X90858D02*
D03*
Y106060D02*
D03*
Y105686D02*
D03*
D37*
X104053Y97547D02*
D03*
X103423Y96523D02*
D03*
X104053D02*
D03*
X103423Y97547D02*
D03*
X95435Y94608D02*
D03*
X96065Y95632D02*
D03*
X95435D02*
D03*
X96065Y94608D02*
D03*
X118585Y97602D02*
D03*
X119215Y96578D02*
D03*
X118585D02*
D03*
X119215Y97602D02*
D03*
D38*
X89900Y92883D02*
D03*
Y93100D02*
D03*
Y92417D02*
D03*
Y92200D02*
D03*
D39*
X88037Y95989D02*
D03*
Y94611D02*
D03*
D40*
X89022Y95398D02*
D03*
Y95595D02*
D03*
Y95005D02*
D03*
Y95202D02*
D03*
D41*
X89487Y104920D02*
D03*
X88227D02*
D03*
D42*
X93900Y104400D02*
D03*
Y105187D02*
D03*
X121680Y98324D02*
D03*
Y97536D02*
D03*
X121660Y92396D02*
D03*
Y93184D02*
D03*
X116660Y95284D02*
D03*
Y94496D02*
D03*
X115920Y95284D02*
D03*
Y94496D02*
D03*
X131820Y99307D02*
D03*
Y98520D02*
D03*
X115170Y95284D02*
D03*
Y94496D02*
D03*
X116820Y91683D02*
D03*
Y92470D02*
D03*
X116090D02*
D03*
Y91683D02*
D03*
X115390Y92470D02*
D03*
Y91683D02*
D03*
D43*
X92950Y104450D02*
D03*
Y105946D02*
D03*
D44*
X95680Y106403D02*
D03*
Y107001D02*
D03*
X130390Y92923D02*
D03*
Y92324D02*
D03*
X91750Y93048D02*
D03*
Y92450D02*
D03*
X102125Y100593D02*
D03*
Y101192D02*
D03*
X90180Y106410D02*
D03*
Y105812D02*
D03*
X113620Y102749D02*
D03*
Y102151D02*
D03*
X102300Y95002D02*
D03*
Y95600D02*
D03*
X121699Y96869D02*
D03*
Y96271D02*
D03*
X143860Y104289D02*
D03*
Y103691D02*
D03*
X110710Y104133D02*
D03*
Y103535D02*
D03*
X112038Y104133D02*
D03*
Y103535D02*
D03*
X131142Y99336D02*
D03*
Y98737D02*
D03*
X131650Y103152D02*
D03*
Y103750D02*
D03*
X113530Y104133D02*
D03*
Y103535D02*
D03*
X110073Y104133D02*
D03*
Y103535D02*
D03*
X110384Y97439D02*
D03*
Y98038D02*
D03*
X109513Y94810D02*
D03*
Y94212D02*
D03*
X130470Y99333D02*
D03*
Y98734D02*
D03*
X111346Y104133D02*
D03*
Y103535D02*
D03*
X142760Y104289D02*
D03*
Y103691D02*
D03*
X102966Y95002D02*
D03*
Y95600D02*
D03*
X108580Y104133D02*
D03*
Y103534D02*
D03*
X118680Y93479D02*
D03*
Y92881D02*
D03*
X134010Y100321D02*
D03*
Y100919D02*
D03*
X110999Y97430D02*
D03*
Y98028D02*
D03*
X98780Y104099D02*
D03*
Y104697D02*
D03*
X133650Y103750D02*
D03*
Y103152D02*
D03*
X142200Y96198D02*
D03*
Y95600D02*
D03*
X121659Y93841D02*
D03*
Y94439D02*
D03*
X114240Y102749D02*
D03*
Y102151D02*
D03*
X111480Y92149D02*
D03*
Y91551D02*
D03*
X109749Y97430D02*
D03*
Y98028D02*
D03*
X109272Y104133D02*
D03*
Y103535D02*
D03*
X111480Y94739D02*
D03*
Y94141D02*
D03*
X103640Y95599D02*
D03*
Y95001D02*
D03*
X104710Y100515D02*
D03*
Y101113D02*
D03*
X144250Y95652D02*
D03*
Y96250D02*
D03*
X112730Y104133D02*
D03*
Y103535D02*
D03*
D45*
X119859Y96400D02*
D03*
X120181D02*
D03*
X134251Y101480D02*
D03*
X133929D02*
D03*
X132761Y99360D02*
D03*
X132439D02*
D03*
X146177Y104083D02*
D03*
X146500D02*
D03*
X90390Y111320D02*
D03*
X90067D02*
D03*
X90391Y112040D02*
D03*
X90069D02*
D03*
X90857Y109070D02*
D03*
X91180D02*
D03*
X90857Y109830D02*
D03*
X91180D02*
D03*
X90390D02*
D03*
X90067D02*
D03*
X90390Y109060D02*
D03*
X90067D02*
D03*
X89950Y95780D02*
D03*
X89627D02*
D03*
X89639Y94550D02*
D03*
X89961D02*
D03*
X118507Y92330D02*
D03*
X118830D02*
D03*
X104230Y104765D02*
D03*
X104553D02*
D03*
X139410Y91710D02*
D03*
X139087D02*
D03*
X142173Y91100D02*
D03*
X141850D02*
D03*
X142173Y92100D02*
D03*
X141850D02*
D03*
X141850Y91600D02*
D03*
X142173D02*
D03*
X120437Y101550D02*
D03*
X120760D02*
D03*
X96523Y109150D02*
D03*
X96200D02*
D03*
X132761Y98420D02*
D03*
X132439D02*
D03*
X141172Y101687D02*
D03*
X140849D02*
D03*
X130873Y100399D02*
D03*
X130550D02*
D03*
X145859Y91967D02*
D03*
X146181D02*
D03*
X96103Y104030D02*
D03*
X95780D02*
D03*
X130873Y103152D02*
D03*
X130550D02*
D03*
X146500Y102633D02*
D03*
X146177D02*
D03*
X142050Y98560D02*
D03*
X141727D02*
D03*
X95779Y103130D02*
D03*
X96102D02*
D03*
X142050Y100700D02*
D03*
X141727D02*
D03*
X120437Y102000D02*
D03*
X120760D02*
D03*
X142921Y98560D02*
D03*
X142599D02*
D03*
X95740Y92160D02*
D03*
X95417D02*
D03*
X104553Y104290D02*
D03*
X104230D02*
D03*
Y105240D02*
D03*
X104553D02*
D03*
X145859Y92878D02*
D03*
X146181D02*
D03*
X120437Y104100D02*
D03*
X120760D02*
D03*
X130873Y102693D02*
D03*
X130550D02*
D03*
X132439Y98890D02*
D03*
X132761D02*
D03*
X146500Y103600D02*
D03*
X146177D02*
D03*
X146501Y104560D02*
D03*
X146179D02*
D03*
X142047Y101207D02*
D03*
X141724D02*
D03*
X118507Y91430D02*
D03*
X118830D02*
D03*
X141720Y101687D02*
D03*
X142043D02*
D03*
X120437Y103600D02*
D03*
X120760D02*
D03*
X146500Y102150D02*
D03*
X146177D02*
D03*
X96103Y103580D02*
D03*
X95780D02*
D03*
X95779Y101570D02*
D03*
X96102D02*
D03*
X145859Y91056D02*
D03*
X146181D02*
D03*
X130873Y101317D02*
D03*
X130550D02*
D03*
X149027Y93100D02*
D03*
X149350D02*
D03*
X142050Y99100D02*
D03*
X141727D02*
D03*
X115442Y101572D02*
D03*
X115765D02*
D03*
X102773Y93470D02*
D03*
X103096D02*
D03*
X130873Y103611D02*
D03*
X130550D02*
D03*
X145859Y94700D02*
D03*
X146181D02*
D03*
X145859Y92422D02*
D03*
X146181D02*
D03*
X130871Y100858D02*
D03*
X130549D02*
D03*
X95740Y93470D02*
D03*
X95417D02*
D03*
X141727Y99600D02*
D03*
X142050D02*
D03*
X130873Y102234D02*
D03*
X130550D02*
D03*
Y99940D02*
D03*
X130873D02*
D03*
X145859Y91511D02*
D03*
X146181D02*
D03*
X102773Y92160D02*
D03*
X103096D02*
D03*
X145859Y94244D02*
D03*
X146181D02*
D03*
X139420Y91240D02*
D03*
X139097D02*
D03*
X141172Y99600D02*
D03*
X140850D02*
D03*
X130873Y101776D02*
D03*
X130550D02*
D03*
X145859Y90600D02*
D03*
X146181D02*
D03*
X145859Y93333D02*
D03*
X146181D02*
D03*
X130550Y104070D02*
D03*
X130873D02*
D03*
X145859Y93789D02*
D03*
X146181D02*
D03*
X95777Y102670D02*
D03*
X96100D02*
D03*
X118507Y91880D02*
D03*
X118830D02*
D03*
X96523Y108690D02*
D03*
X96200D02*
D03*
X146500Y103117D02*
D03*
X146177D02*
D03*
X140850Y100700D02*
D03*
X141172D02*
D03*
X114951Y101570D02*
D03*
X114628D02*
D03*
D46*
X110422Y100300D02*
D03*
X110166D02*
D03*
X111958Y100044D02*
D03*
X110678Y100300D02*
D03*
X111702Y99788D02*
D03*
Y100044D02*
D03*
Y100812D02*
D03*
X110678Y100044D02*
D03*
X111190Y99020D02*
D03*
X110166Y100556D02*
D03*
X110422Y100044D02*
D03*
X110166D02*
D03*
X110422Y100812D02*
D03*
X112470Y99276D02*
D03*
X111702Y99532D02*
D03*
X110678Y100556D02*
D03*
X110934D02*
D03*
X111190Y99532D02*
D03*
X111446Y99020D02*
D03*
X112470D02*
D03*
X112214D02*
D03*
X110422D02*
D03*
X110166D02*
D03*
X110934D02*
D03*
X110166Y99532D02*
D03*
Y99276D02*
D03*
X111446Y100812D02*
D03*
X110678D02*
D03*
X110166D02*
D03*
X111702Y99020D02*
D03*
X112470Y100812D02*
D03*
X110934D02*
D03*
X111190D02*
D03*
X111446Y100556D02*
D03*
X110934Y99788D02*
D03*
X110422Y100556D02*
D03*
X111958Y99020D02*
D03*
X111446Y99532D02*
D03*
X110422Y99276D02*
D03*
X110678D02*
D03*
Y99020D02*
D03*
X110422Y99532D02*
D03*
X111190Y99276D02*
D03*
X110678Y99788D02*
D03*
X112214Y100044D02*
D03*
X112470Y99788D02*
D03*
Y100556D02*
D03*
X110934Y100044D02*
D03*
X111190Y99788D02*
D03*
X111446Y100044D02*
D03*
X112470Y99532D02*
D03*
X111958Y99788D02*
D03*
X111446Y100300D02*
D03*
X112214Y99532D02*
D03*
Y99788D02*
D03*
X112470Y100044D02*
D03*
X111958Y100300D02*
D03*
Y99532D02*
D03*
X111190Y100556D02*
D03*
Y100300D02*
D03*
X111702Y99276D02*
D03*
X110934D02*
D03*
X112470Y100300D02*
D03*
X112214D02*
D03*
Y100812D02*
D03*
X111958Y100556D02*
D03*
Y100812D02*
D03*
X110934Y99532D02*
D03*
X110422Y99788D02*
D03*
X110934Y100300D02*
D03*
X112214Y99276D02*
D03*
X111446Y99788D02*
D03*
Y99276D02*
D03*
X111190Y100044D02*
D03*
X111702Y100556D02*
D03*
X112214D02*
D03*
X111702Y100300D02*
D03*
X111958Y99276D02*
D03*
X110166Y99788D02*
D03*
X110678Y99532D02*
D03*
X122450Y98327D02*
D03*
X122706D02*
D03*
X122962D02*
D03*
X123218D02*
D03*
X123474D02*
D03*
X123730D02*
D03*
X123986D02*
D03*
X124242D02*
D03*
X124498D02*
D03*
X124754D02*
D03*
X126289D02*
D03*
X126545D02*
D03*
X128592D02*
D03*
X122450Y98071D02*
D03*
X122706D02*
D03*
X122962D02*
D03*
X123218D02*
D03*
X123474D02*
D03*
X123730D02*
D03*
X123986D02*
D03*
X124242D02*
D03*
X124498D02*
D03*
X124754D02*
D03*
X126289D02*
D03*
X128336D02*
D03*
X122450Y97815D02*
D03*
X122706D02*
D03*
X128080D02*
D03*
X128336D02*
D03*
X122450Y97559D02*
D03*
X122706D02*
D03*
X122962D02*
D03*
X125010D02*
D03*
X125265D02*
D03*
X125777D02*
D03*
X126033D02*
D03*
X126545D02*
D03*
X127313D02*
D03*
X128080D02*
D03*
X128336D02*
D03*
X129104D02*
D03*
X129360D02*
D03*
X122450Y97303D02*
D03*
X122706D02*
D03*
X124242D02*
D03*
X125010D02*
D03*
X125265D02*
D03*
X125777D02*
D03*
X126033D02*
D03*
X127824D02*
D03*
X128080D02*
D03*
X129104D02*
D03*
X129360D02*
D03*
X122450Y97047D02*
D03*
X122706D02*
D03*
X122962D02*
D03*
X123218D02*
D03*
X123986D02*
D03*
X124498D02*
D03*
X125010D02*
D03*
X125265D02*
D03*
X125777D02*
D03*
X126033D02*
D03*
X127824D02*
D03*
X128848D02*
D03*
X129104D02*
D03*
X129360D02*
D03*
X122450Y96791D02*
D03*
X122706D02*
D03*
X123474D02*
D03*
X123730D02*
D03*
X124242D02*
D03*
X124498D02*
D03*
X125010D02*
D03*
X125265D02*
D03*
X125777D02*
D03*
X126033D02*
D03*
X127569D02*
D03*
X128336D02*
D03*
X129104D02*
D03*
X129360D02*
D03*
X122450Y96535D02*
D03*
X122706D02*
D03*
X122962D02*
D03*
X123218D02*
D03*
X123474D02*
D03*
X123730D02*
D03*
X123986D02*
D03*
X124498D02*
D03*
X125010D02*
D03*
X125777D02*
D03*
X126033D02*
D03*
X126545D02*
D03*
X127313D02*
D03*
X127824D02*
D03*
X128080D02*
D03*
X128336D02*
D03*
X128592D02*
D03*
X128848D02*
D03*
X122450Y96280D02*
D03*
X122706D02*
D03*
X122962D02*
D03*
X123218D02*
D03*
X125777D02*
D03*
X126033D02*
D03*
X126801D02*
D03*
X128336D02*
D03*
X128592D02*
D03*
X122450Y96024D02*
D03*
X122706D02*
D03*
X122450Y95768D02*
D03*
X122706D02*
D03*
X122962D02*
D03*
X123218D02*
D03*
X123474D02*
D03*
X123730D02*
D03*
X127824D02*
D03*
X128080D02*
D03*
X122450Y95512D02*
D03*
X122706D02*
D03*
X122962D02*
D03*
X123218D02*
D03*
X123730D02*
D03*
X122450Y95256D02*
D03*
X122706D02*
D03*
X127824Y95000D02*
D03*
X129104D02*
D03*
X129360D02*
D03*
X123730Y94744D02*
D03*
X127824D02*
D03*
X128080D02*
D03*
X128336D02*
D03*
X128592D02*
D03*
X128848D02*
D03*
X129104D02*
D03*
Y94488D02*
D03*
X123986Y94232D02*
D03*
X127824D02*
D03*
X122450Y93976D02*
D03*
X122706D02*
D03*
X122962D02*
D03*
X123218D02*
D03*
X123474D02*
D03*
X123730D02*
D03*
X127824D02*
D03*
X128080D02*
D03*
X128336D02*
D03*
X128592D02*
D03*
X122706Y93720D02*
D03*
Y93465D02*
D03*
X123474D02*
D03*
X124242D02*
D03*
X127824D02*
D03*
X129104D02*
D03*
X129360D02*
D03*
X122962Y93209D02*
D03*
X123474D02*
D03*
X123730D02*
D03*
X129360D02*
D03*
X122450Y92953D02*
D03*
X123730D02*
D03*
X124498D02*
D03*
X125777D02*
D03*
X126033D02*
D03*
X126545D02*
D03*
X126801D02*
D03*
X127313D02*
D03*
X122450Y92697D02*
D03*
X122706D02*
D03*
X123986D02*
D03*
X124242D02*
D03*
X126033D02*
D03*
X129104D02*
D03*
X122450Y92441D02*
D03*
X122962D02*
D03*
X123730D02*
D03*
X123986D02*
D03*
X125777D02*
D03*
X126033D02*
D03*
X126801D02*
D03*
X127313D02*
D03*
X126033Y92185D02*
D03*
X126801D02*
D03*
X127569D02*
D03*
X123730Y91929D02*
D03*
X125777D02*
D03*
X126033D02*
D03*
X122706Y91673D02*
D03*
X123218D02*
D03*
X123474D02*
D03*
X123730D02*
D03*
X123986D02*
D03*
X126033D02*
D03*
X127313D02*
D03*
X122706Y91417D02*
D03*
X123218D02*
D03*
X123474D02*
D03*
X123730D02*
D03*
X123986D02*
D03*
X126289D02*
D03*
X127313D02*
D03*
X127569D02*
D03*
X122450Y91929D02*
D03*
X123474Y92697D02*
D03*
X122450Y91673D02*
D03*
X122706Y92185D02*
D03*
X122962D02*
D03*
X123218Y91929D02*
D03*
X127569Y96280D02*
D03*
X122706Y92441D02*
D03*
X125777Y93209D02*
D03*
X125265D02*
D03*
X129104Y92185D02*
D03*
X129360D02*
D03*
X129104Y95512D02*
D03*
X129360D02*
D03*
X129104Y92953D02*
D03*
X129360D02*
D03*
X129104Y96535D02*
D03*
X129360D02*
D03*
X128848Y92185D02*
D03*
Y95000D02*
D03*
X128336Y92953D02*
D03*
Y95512D02*
D03*
X129360Y92441D02*
D03*
X129104D02*
D03*
X128848Y96280D02*
D03*
X128336Y95768D02*
D03*
X129104Y96280D02*
D03*
X129360Y96024D02*
D03*
X128080Y93209D02*
D03*
X129104Y91929D02*
D03*
X128080Y95512D02*
D03*
X128336Y92697D02*
D03*
X128848Y92441D02*
D03*
X128080Y92953D02*
D03*
X128592Y92441D02*
D03*
X129104Y91673D02*
D03*
X129360D02*
D03*
X129104Y95768D02*
D03*
X128848Y95512D02*
D03*
X129360Y95768D02*
D03*
X128592Y95512D02*
D03*
X129360Y96280D02*
D03*
X128336Y95000D02*
D03*
X129360Y95256D02*
D03*
X128080Y95000D02*
D03*
X129104Y95256D02*
D03*
X128080Y93465D02*
D03*
X128336D02*
D03*
X128592Y93209D02*
D03*
X128336D02*
D03*
X128848Y92697D02*
D03*
X129360Y91929D02*
D03*
X128848Y95768D02*
D03*
X129104Y96024D02*
D03*
X128848Y93465D02*
D03*
X129104Y93209D02*
D03*
X129360Y93976D02*
D03*
X129104D02*
D03*
X128848Y93209D02*
D03*
X129360Y92697D02*
D03*
Y94744D02*
D03*
Y94488D02*
D03*
X128848Y94232D02*
D03*
X129360D02*
D03*
X129104D02*
D03*
X128080D02*
D03*
X128336D02*
D03*
X129360Y93720D02*
D03*
X129104D02*
D03*
X128848Y93976D02*
D03*
X128592Y91673D02*
D03*
Y91417D02*
D03*
X125265Y91673D02*
D03*
Y91417D02*
D03*
X127824Y91673D02*
D03*
Y91417D02*
D03*
X124498D02*
D03*
Y91673D02*
D03*
X128848D02*
D03*
X125777Y91417D02*
D03*
X127313Y92697D02*
D03*
X125265Y92441D02*
D03*
X128336Y91417D02*
D03*
Y91673D02*
D03*
X124498Y92185D02*
D03*
Y91929D02*
D03*
X125010Y92441D02*
D03*
X124754Y91417D02*
D03*
X127824Y92441D02*
D03*
X128592Y91929D02*
D03*
X125010Y92697D02*
D03*
X127824D02*
D03*
X128336Y91929D02*
D03*
X128080Y92441D02*
D03*
X128336Y92185D02*
D03*
X129360Y91417D02*
D03*
X129104D02*
D03*
X125010D02*
D03*
X125265Y91929D02*
D03*
X125010Y91673D02*
D03*
X125265Y92185D02*
D03*
Y92697D02*
D03*
X125521Y91673D02*
D03*
X125777Y92697D02*
D03*
X125521Y91417D02*
D03*
X125777Y91673D02*
D03*
X127569Y92697D02*
D03*
X128080Y91673D02*
D03*
Y91417D02*
D03*
X127569Y92441D02*
D03*
X128080Y91929D02*
D03*
X128848Y91417D02*
D03*
X125010Y91929D02*
D03*
X124754Y91673D02*
D03*
X126801Y92697D02*
D03*
X127569Y91673D02*
D03*
X126801Y91417D02*
D03*
Y91673D02*
D03*
X127569Y91929D02*
D03*
X127313D02*
D03*
X126033Y91417D02*
D03*
X126289Y91673D02*
D03*
X126545Y91417D02*
D03*
Y91929D02*
D03*
Y91673D02*
D03*
Y92697D02*
D03*
Y92441D02*
D03*
X127057Y91417D02*
D03*
X126801Y91929D02*
D03*
X127057Y91673D02*
D03*
X127569Y94232D02*
D03*
X126545Y93209D02*
D03*
X127569Y95000D02*
D03*
Y95512D02*
D03*
X123986Y97303D02*
D03*
X123218Y94744D02*
D03*
X122450Y93465D02*
D03*
Y93720D02*
D03*
X123218Y95000D02*
D03*
X123474D02*
D03*
X122450D02*
D03*
X124242Y95512D02*
D03*
X123986D02*
D03*
X124242Y95768D02*
D03*
X123986Y96280D02*
D03*
X124242D02*
D03*
X123730D02*
D03*
X122962Y95000D02*
D03*
X122706D02*
D03*
X124242Y93976D02*
D03*
X123218Y92697D02*
D03*
Y94232D02*
D03*
X124242D02*
D03*
Y95000D02*
D03*
X123986Y95768D02*
D03*
X123474Y94232D02*
D03*
X126801Y97047D02*
D03*
X127569Y97559D02*
D03*
Y98071D02*
D03*
X122706Y93209D02*
D03*
X124754Y94744D02*
D03*
X122450Y93209D02*
D03*
X123218Y93465D02*
D03*
X126801Y96791D02*
D03*
X126545D02*
D03*
X128336Y98327D02*
D03*
X128080Y98071D02*
D03*
X124242Y92185D02*
D03*
Y91929D02*
D03*
X127824Y95512D02*
D03*
X125265Y92953D02*
D03*
X126545Y98071D02*
D03*
X126801Y97559D02*
D03*
Y97303D02*
D03*
Y97815D02*
D03*
Y98071D02*
D03*
X126545Y97047D02*
D03*
X123474Y92185D02*
D03*
X128592Y98071D02*
D03*
X128080Y96280D02*
D03*
X127824D02*
D03*
X128592Y97303D02*
D03*
X128336Y97047D02*
D03*
X128592Y97815D02*
D03*
X125265Y98071D02*
D03*
Y98327D02*
D03*
X125521Y98071D02*
D03*
Y98327D02*
D03*
X125777Y98071D02*
D03*
Y98327D02*
D03*
X126033Y98071D02*
D03*
Y98327D02*
D03*
X125010Y98071D02*
D03*
Y98327D02*
D03*
X123986Y95000D02*
D03*
X127313Y97815D02*
D03*
X127569D02*
D03*
X127313Y97303D02*
D03*
X123986Y93465D02*
D03*
X127824Y98327D02*
D03*
X127313Y98071D02*
D03*
X127057Y98327D02*
D03*
X127313D02*
D03*
X127569D02*
D03*
Y93976D02*
D03*
X126801Y93209D02*
D03*
X125777Y94232D02*
D03*
X126033Y95256D02*
D03*
X124498Y93209D02*
D03*
X125010Y92953D02*
D03*
X124498Y94232D02*
D03*
X122450Y94744D02*
D03*
X125265Y96280D02*
D03*
X126801Y96535D02*
D03*
X124242Y92441D02*
D03*
X124498Y95000D02*
D03*
Y92697D02*
D03*
Y93976D02*
D03*
Y94744D02*
D03*
X125265Y96535D02*
D03*
X127057Y98071D02*
D03*
X126801Y98327D02*
D03*
X122706Y92953D02*
D03*
X127313Y96791D02*
D03*
X127569Y97303D02*
D03*
X128080Y98327D02*
D03*
X127824Y98071D02*
D03*
X127569Y97047D02*
D03*
X122706Y94232D02*
D03*
X122450D02*
D03*
X122962Y91673D02*
D03*
Y91417D02*
D03*
X123730Y92185D02*
D03*
X122962Y94744D02*
D03*
X122450Y94488D02*
D03*
X122706D02*
D03*
X123986Y93209D02*
D03*
X123730Y93465D02*
D03*
Y95000D02*
D03*
X123986Y94744D02*
D03*
X126545Y97815D02*
D03*
Y97303D02*
D03*
X123986Y93976D02*
D03*
X124242Y92953D02*
D03*
X128080Y96791D02*
D03*
X128848Y98327D02*
D03*
X122962Y93465D02*
D03*
X127824Y93209D02*
D03*
X127569Y92953D02*
D03*
X122706Y91929D02*
D03*
X123730Y94232D02*
D03*
X123474Y94744D02*
D03*
X124242D02*
D03*
X127313Y97047D02*
D03*
X123474Y92953D02*
D03*
X122962Y92697D02*
D03*
X123218Y93209D02*
D03*
X122450Y91417D02*
D03*
X123218Y92441D02*
D03*
X129360Y98327D02*
D03*
X129104D02*
D03*
Y98071D02*
D03*
X129360D02*
D03*
X128848D02*
D03*
X129104Y97815D02*
D03*
X129360D02*
D03*
X128848D02*
D03*
Y97303D02*
D03*
Y97559D02*
D03*
X128592Y97047D02*
D03*
X127569Y95768D02*
D03*
X127313Y96280D02*
D03*
X124498Y97815D02*
D03*
Y97559D02*
D03*
X124242Y97047D02*
D03*
X124498Y95512D02*
D03*
X123730Y97815D02*
D03*
Y97559D02*
D03*
X124242Y97815D02*
D03*
Y97559D02*
D03*
X123474D02*
D03*
Y97815D02*
D03*
X123218D02*
D03*
Y97303D02*
D03*
X127313Y95000D02*
D03*
X127569Y93465D02*
D03*
X126801D02*
D03*
X126545D02*
D03*
X127313Y93209D02*
D03*
X126033D02*
D03*
X127569Y94744D02*
D03*
X127313D02*
D03*
Y93976D02*
D03*
Y94232D02*
D03*
X126033Y93465D02*
D03*
X125777D02*
D03*
X126545Y94744D02*
D03*
X126801Y95000D02*
D03*
X126545D02*
D03*
Y95256D02*
D03*
Y95512D02*
D03*
X126801D02*
D03*
X126545Y94232D02*
D03*
Y93976D02*
D03*
Y94488D02*
D03*
X126801Y95256D02*
D03*
X127057Y93720D02*
D03*
Y93976D02*
D03*
X126289Y94744D02*
D03*
X125777D02*
D03*
X125521D02*
D03*
X126289Y95000D02*
D03*
X125777D02*
D03*
X125521D02*
D03*
X126289Y95512D02*
D03*
Y95768D02*
D03*
X126801Y96024D02*
D03*
X126033D02*
D03*
X125777D02*
D03*
X125521D02*
D03*
X125265Y93465D02*
D03*
Y96024D02*
D03*
X125010D02*
D03*
X124754D02*
D03*
X125010Y96280D02*
D03*
X124498D02*
D03*
X126801Y94744D02*
D03*
Y93976D02*
D03*
Y94232D02*
D03*
Y94488D02*
D03*
X127057D02*
D03*
X128592Y92697D02*
D03*
X128848Y91929D02*
D03*
X128592Y94232D02*
D03*
Y95000D02*
D03*
Y95768D02*
D03*
X128080Y92185D02*
D03*
X127313D02*
D03*
X126545D02*
D03*
X128592Y93465D02*
D03*
X127313D02*
D03*
X126033Y93720D02*
D03*
X126289D02*
D03*
Y93976D02*
D03*
X126033D02*
D03*
X126289Y94232D02*
D03*
Y94488D02*
D03*
Y95256D02*
D03*
X127313Y95512D02*
D03*
Y95768D02*
D03*
X127057Y95512D02*
D03*
X126801Y95768D02*
D03*
X127057D02*
D03*
Y96024D02*
D03*
X126545D02*
D03*
Y95768D02*
D03*
X127057Y95000D02*
D03*
Y95256D02*
D03*
Y94744D02*
D03*
Y94232D02*
D03*
X126801Y93720D02*
D03*
X126545D02*
D03*
X126289Y96024D02*
D03*
X124242Y91417D02*
D03*
Y91673D02*
D03*
X124498Y92441D02*
D03*
X125777Y92185D02*
D03*
X125010D02*
D03*
Y93209D02*
D03*
X125777Y93720D02*
D03*
Y93976D02*
D03*
X125010Y93720D02*
D03*
X124754D02*
D03*
X125010Y93465D02*
D03*
X125521Y93720D02*
D03*
X125265D02*
D03*
X126033Y94232D02*
D03*
Y94488D02*
D03*
X125777D02*
D03*
X126033Y94744D02*
D03*
X125010D02*
D03*
X125265D02*
D03*
Y95000D02*
D03*
X125010D02*
D03*
Y95256D02*
D03*
X126033Y95000D02*
D03*
X124754D02*
D03*
Y95256D02*
D03*
X125777D02*
D03*
X125521D02*
D03*
X125265D02*
D03*
X125777Y97815D02*
D03*
X126033D02*
D03*
X124498Y97303D02*
D03*
X125010Y97815D02*
D03*
X125265D02*
D03*
X123730Y97303D02*
D03*
X122962Y91929D02*
D03*
X123474D02*
D03*
X122706Y94744D02*
D03*
X122962Y94232D02*
D03*
X123474Y95512D02*
D03*
Y96280D02*
D03*
Y97047D02*
D03*
X122962Y97815D02*
D03*
Y97303D02*
D03*
X122450Y92185D02*
D03*
X125010Y95512D02*
D03*
X125265Y95768D02*
D03*
X124754D02*
D03*
Y95512D02*
D03*
X125010Y95768D02*
D03*
X125777Y95512D02*
D03*
X125521D02*
D03*
Y95768D02*
D03*
X125265Y95512D02*
D03*
X125777Y95768D02*
D03*
X126033D02*
D03*
Y95512D02*
D03*
X124498Y95768D02*
D03*
X126545Y96280D02*
D03*
X124498Y93465D02*
D03*
X124754Y93976D02*
D03*
Y94232D02*
D03*
Y94488D02*
D03*
X125010D02*
D03*
Y94232D02*
D03*
Y93976D02*
D03*
X125265D02*
D03*
X125521D02*
D03*
X125265Y94232D02*
D03*
Y94488D02*
D03*
X125521Y94232D02*
D03*
Y94488D02*
D03*
D47*
X109580Y102436D02*
D03*
X108697D02*
D03*
X91700Y104740D02*
D03*
X90817D02*
D03*
X112830Y102394D02*
D03*
X111947D02*
D03*
X114478Y98474D02*
D03*
X113595D02*
D03*
D48*
X138200Y98699D02*
D03*
Y101101D02*
D03*
X145000Y98699D02*
D03*
Y101101D02*
D03*
X137600Y100499D02*
D03*
Y102901D02*
D03*
X117800Y92949D02*
D03*
Y95351D02*
D03*
Y100499D02*
D03*
Y102901D02*
D03*
X137600Y92949D02*
D03*
Y95351D02*
D03*
X145000Y92949D02*
D03*
Y95351D02*
D03*
X138200Y92949D02*
D03*
Y95351D02*
D03*
X117300Y100500D02*
D03*
Y102902D02*
D03*
X105400Y100499D02*
D03*
Y102901D02*
D03*
X117300Y92949D02*
D03*
Y95351D02*
D03*
X105400Y92949D02*
D03*
Y95351D02*
D03*
X94550Y101628D02*
D03*
Y104029D02*
D03*
Y94491D02*
D03*
Y96892D02*
D03*
X101400Y101628D02*
D03*
Y104029D02*
D03*
X104850Y94491D02*
D03*
Y96892D02*
D03*
D49*
X138200Y99239D02*
D03*
Y100561D02*
D03*
X145000Y99239D02*
D03*
Y100561D02*
D03*
X137600Y101039D02*
D03*
Y102361D02*
D03*
X117800Y93489D02*
D03*
Y94811D02*
D03*
Y101039D02*
D03*
Y102361D02*
D03*
X137600Y93489D02*
D03*
Y94811D02*
D03*
X145000Y93489D02*
D03*
Y94811D02*
D03*
X138200Y93489D02*
D03*
Y94811D02*
D03*
X117300Y101039D02*
D03*
Y102362D02*
D03*
X105400Y101039D02*
D03*
Y102361D02*
D03*
X117300Y93489D02*
D03*
Y94811D02*
D03*
X105400Y93489D02*
D03*
Y94811D02*
D03*
X94550Y102167D02*
D03*
Y103490D02*
D03*
Y95030D02*
D03*
Y96353D02*
D03*
X101400Y102167D02*
D03*
Y103490D02*
D03*
X104850Y95030D02*
D03*
Y96353D02*
D03*
D50*
X138200Y99900D02*
D03*
X145000D02*
D03*
X137600Y101700D02*
D03*
X117800Y94150D02*
D03*
Y101700D02*
D03*
X137600Y94150D02*
D03*
X145000D02*
D03*
X138200D02*
D03*
X117300Y101701D02*
D03*
X105400Y101700D02*
D03*
X117300Y94150D02*
D03*
X105400D02*
D03*
X94550Y102829D02*
D03*
Y95691D02*
D03*
X101400Y102829D02*
D03*
X104850Y95691D02*
D03*
D51*
X131049Y105150D02*
D03*
X133451D02*
D03*
X121738D02*
D03*
X124139D02*
D03*
X121749Y90000D02*
D03*
X124151D02*
D03*
X131049D02*
D03*
X133451D02*
D03*
X140549D02*
D03*
X142951D02*
D03*
X140549Y102350D02*
D03*
X142951D02*
D03*
X109949Y105150D02*
D03*
X112351D02*
D03*
X109949Y90000D02*
D03*
X112351D02*
D03*
X100551Y91780D02*
D03*
X98149D02*
D03*
X100551Y99480D02*
D03*
X98149D02*
D03*
X99101Y100020D02*
D03*
X96699D02*
D03*
X99112Y105400D02*
D03*
X96711D02*
D03*
D52*
X131589Y105150D02*
D03*
X132911D02*
D03*
X122277D02*
D03*
X123600D02*
D03*
X122289Y90000D02*
D03*
X123611D02*
D03*
X131589D02*
D03*
X132911D02*
D03*
X141089D02*
D03*
X142411D02*
D03*
X141089Y102350D02*
D03*
X142411D02*
D03*
X110489Y105150D02*
D03*
X111811D02*
D03*
X110489Y90000D02*
D03*
X111811D02*
D03*
X100011Y91780D02*
D03*
X98689D02*
D03*
X100011Y99480D02*
D03*
X98689D02*
D03*
X98561Y100020D02*
D03*
X97239D02*
D03*
X98573Y105400D02*
D03*
X97250D02*
D03*
D53*
X132250Y105150D02*
D03*
X122939D02*
D03*
X122950Y90000D02*
D03*
X132250D02*
D03*
X141750D02*
D03*
Y102350D02*
D03*
X111150Y105150D02*
D03*
Y90000D02*
D03*
X99350Y91780D02*
D03*
Y99480D02*
D03*
X97900Y100020D02*
D03*
X97911Y105400D02*
D03*
D54*
X144150Y91850D02*
D03*
X142969D02*
D03*
X144131Y92850D02*
D03*
X142950D02*
D03*
X140609Y105030D02*
D03*
X141790D02*
D03*
X142950Y90850D02*
D03*
X144131D02*
D03*
D55*
X91031Y100355D02*
D03*
Y99922D02*
D03*
Y101221D02*
D03*
Y98622D02*
D03*
Y100788D02*
D03*
Y99056D02*
D03*
Y98189D02*
D03*
Y101654D02*
D03*
Y99489D02*
D03*
D56*
X90519Y103465D02*
D03*
X86740Y104095D02*
D03*
X86582Y97166D02*
D03*
X90519Y97481D02*
D03*
D57*
X147200Y104241D02*
D03*
Y103847D02*
D03*
Y103650D02*
D03*
Y103453D02*
D03*
Y103256D02*
D03*
Y103059D02*
D03*
Y104044D02*
D03*
Y102863D02*
D03*
D58*
X148184Y104634D02*
D03*
Y102469D02*
D03*
D59*
X95700Y96897D02*
D03*
Y97780D02*
D03*
X112629Y96971D02*
D03*
Y97854D02*
D03*
X110801Y102807D02*
D03*
Y101924D02*
D03*
D60*
X113753Y99544D02*
D03*
X114540D02*
D03*
X113703Y97494D02*
D03*
X114490D02*
D03*
X136140Y98540D02*
D03*
X136927D02*
D03*
X115340Y97494D02*
D03*
X116127D02*
D03*
X109358Y99220D02*
D03*
X108570D02*
D03*
X107177Y101870D02*
D03*
X106390D02*
D03*
X93400Y96250D02*
D03*
X92613D02*
D03*
D61*
X140237Y91841D02*
D03*
Y91053D02*
D03*
X141300Y91447D02*
D03*
Y91053D02*
D03*
Y91250D02*
D03*
X140237Y91447D02*
D03*
X141300Y91841D02*
D03*
Y91644D02*
D03*
X140237D02*
D03*
Y91250D02*
D03*
D62*
X140768Y91447D02*
D03*
D63*
X140776Y95617D02*
D03*
X141524D02*
D03*
X141150Y96483D02*
D03*
X92558Y107926D02*
D03*
X91810D02*
D03*
X92184Y107060D02*
D03*
X91284Y107926D02*
D03*
X90536D02*
D03*
X90910Y107060D02*
D03*
X142826Y95634D02*
D03*
X143574D02*
D03*
X143200Y96500D02*
D03*
D64*
X148200Y93857D02*
D03*
X147216Y93542D02*
D03*
Y93699D02*
D03*
Y93069D02*
D03*
Y93227D02*
D03*
Y92597D02*
D03*
Y92754D02*
D03*
Y92124D02*
D03*
Y92282D02*
D03*
X148200Y93699D02*
D03*
X147216Y91652D02*
D03*
Y91809D02*
D03*
X148200Y91494D02*
D03*
Y92597D02*
D03*
X147216Y93857D02*
D03*
Y93384D02*
D03*
Y92912D02*
D03*
Y92439D02*
D03*
Y91967D02*
D03*
Y91494D02*
D03*
X148200Y92439D02*
D03*
Y92124D02*
D03*
Y91967D02*
D03*
Y91652D02*
D03*
Y91809D02*
D03*
Y92282D02*
D03*
Y93542D02*
D03*
Y93384D02*
D03*
Y93069D02*
D03*
Y92912D02*
D03*
Y92754D02*
D03*
Y93227D02*
D03*
D65*
Y94192D02*
D03*
Y91200D02*
D03*
X147216Y94192D02*
D03*
Y91200D02*
D03*
D66*
X106389Y100840D02*
D03*
X107491D02*
D03*
X103681Y102860D02*
D03*
X102579D02*
D03*
D67*
X98687Y102276D02*
D03*
Y102119D02*
D03*
Y102749D02*
D03*
Y103221D02*
D03*
Y102906D02*
D03*
Y102434D02*
D03*
Y102591D02*
D03*
X97113Y102749D02*
D03*
Y102119D02*
D03*
Y103221D02*
D03*
Y102906D02*
D03*
Y103064D02*
D03*
Y102434D02*
D03*
X98687Y103064D02*
D03*
X97113Y102276D02*
D03*
Y102591D02*
D03*
D68*
X97506Y101883D02*
D03*
X98136Y103457D02*
D03*
X98451Y101883D02*
D03*
X97349D02*
D03*
X97821D02*
D03*
X97664D02*
D03*
X97506Y103457D02*
D03*
X97979Y101883D02*
D03*
X97664Y103457D02*
D03*
X97349D02*
D03*
X97821D02*
D03*
X98451D02*
D03*
X97979D02*
D03*
X98136Y101883D02*
D03*
X98294Y103457D02*
D03*
Y101883D02*
D03*
D69*
X97900Y102670D02*
D03*
D70*
X129567Y103967D02*
D03*
Y103770D02*
D03*
Y102589D02*
D03*
Y101211D02*
D03*
Y100030D02*
D03*
Y99833D02*
D03*
X121633Y100030D02*
D03*
Y100227D02*
D03*
Y100424D02*
D03*
Y102195D02*
D03*
Y103770D02*
D03*
Y100817D02*
D03*
Y102786D02*
D03*
Y101408D02*
D03*
Y102392D02*
D03*
Y102589D02*
D03*
Y101014D02*
D03*
X129567Y100227D02*
D03*
Y103573D02*
D03*
Y101605D02*
D03*
X121633Y101211D02*
D03*
Y100620D02*
D03*
Y103573D02*
D03*
Y103376D02*
D03*
Y102983D02*
D03*
Y103180D02*
D03*
X129567Y103376D02*
D03*
Y103180D02*
D03*
Y102983D02*
D03*
Y102786D02*
D03*
Y101014D02*
D03*
Y100817D02*
D03*
Y100620D02*
D03*
Y100424D02*
D03*
X121633Y101605D02*
D03*
Y101998D02*
D03*
X129567Y102392D02*
D03*
Y102195D02*
D03*
Y101998D02*
D03*
Y101408D02*
D03*
X121633Y104164D02*
D03*
Y99636D02*
D03*
X129567Y104164D02*
D03*
Y101802D02*
D03*
X121633Y103967D02*
D03*
Y101802D02*
D03*
X129567Y99636D02*
D03*
X121633Y99833D02*
D03*
D71*
X96220Y89853D02*
D03*
X95260D02*
D03*
X103249D02*
D03*
X102288D02*
D03*
D72*
X95740Y91020D02*
D03*
X102769D02*
D03*
D73*
X102595Y105262D02*
D03*
Y104318D02*
D03*
X103225Y105262D02*
D03*
Y104318D02*
D03*
D74*
X102300Y105262D02*
D03*
Y104318D02*
D03*
X103520Y105262D02*
D03*
Y104318D02*
D03*
D75*
X102989Y105262D02*
D03*
X102831D02*
D03*
Y104318D02*
D03*
X102989D02*
D03*
D76*
X147050Y99472D02*
D03*
Y99000D02*
D03*
Y98528D02*
D03*
Y98055D02*
D03*
D77*
X148534Y100024D02*
D03*
Y97504D02*
D03*
D78*
X140929Y93770D02*
D03*
X139590D02*
D03*
D79*
X89307Y92886D02*
D03*
Y92414D02*
D03*
D80*
X87811Y93241D02*
D03*
Y92059D02*
D03*
D81*
X106771Y98327D02*
D03*
Y99666D02*
D03*
D82*
X140928Y98010D02*
D03*
X141180D02*
D03*
X141201Y98557D02*
D03*
X140949D02*
D03*
D83*
X115320Y102070D02*
D03*
X114966D02*
D03*
Y104550D02*
D03*
X115320D02*
D03*
D84*
X114621Y92020D02*
D03*
X113440D02*
D03*
D85*
X93534Y109571D02*
D03*
X94794D02*
D03*
Y108229D02*
D03*
X94636Y109571D02*
D03*
X94479Y108229D02*
D03*
X94321D02*
D03*
X94164D02*
D03*
X94006D02*
D03*
X93849D02*
D03*
X93691D02*
D03*
Y109571D02*
D03*
X93849D02*
D03*
X94006D02*
D03*
X94321D02*
D03*
X95109Y108229D02*
D03*
X94951D02*
D03*
X95109Y109571D02*
D03*
X94951D02*
D03*
X94479D02*
D03*
X94636Y108229D02*
D03*
X95266Y109571D02*
D03*
X94164D02*
D03*
X93534Y108229D02*
D03*
X95266D02*
D03*
D86*
X95620Y109571D02*
D03*
X93180D02*
D03*
Y108229D02*
D03*
X95620D02*
D03*
D87*
X113940Y95321D02*
D03*
Y94140D02*
D03*
D88*
X119480Y92324D02*
D03*
X120661Y91733D02*
D03*
X119480Y91536D02*
D03*
X120661Y92127D02*
D03*
Y92324D02*
D03*
X119480Y91733D02*
D03*
Y92127D02*
D03*
X120661Y91536D02*
D03*
X119480Y91930D02*
D03*
X120661D02*
D03*
D89*
X120267Y92521D02*
D03*
X120267Y91339D02*
D03*
X120071D02*
D03*
X119874Y92521D02*
D03*
Y91339D02*
D03*
X120071Y92521D02*
D03*
D90*
X98900Y93836D02*
D03*
X99609D02*
D03*
X100317D02*
D03*
D91*
X99609Y92980D02*
D03*
X99254D02*
D03*
X98900D02*
D03*
X98546D02*
D03*
X97837D02*
D03*
X101026Y97527D02*
D03*
X100672D02*
D03*
X101026Y92980D02*
D03*
X99963D02*
D03*
X97483D02*
D03*
Y97527D02*
D03*
X100672Y92980D02*
D03*
X100317D02*
D03*
X99963Y97527D02*
D03*
X100317D02*
D03*
X98546D02*
D03*
X98900D02*
D03*
X99609D02*
D03*
X99254D02*
D03*
X97837D02*
D03*
X98191Y92980D02*
D03*
Y97527D02*
D03*
D92*
X96981Y95254D02*
D03*
Y95608D02*
D03*
Y95962D02*
D03*
Y96317D02*
D03*
X101528Y94899D02*
D03*
Y94545D02*
D03*
X96981Y93836D02*
D03*
Y94545D02*
D03*
X101528Y96671D02*
D03*
Y95254D02*
D03*
Y95608D02*
D03*
Y95962D02*
D03*
X96981Y96671D02*
D03*
Y94899D02*
D03*
X101528Y93836D02*
D03*
Y96317D02*
D03*
X96981Y97025D02*
D03*
X101528D02*
D03*
X96981Y93482D02*
D03*
X101528D02*
D03*
X96981Y94191D02*
D03*
X101528D02*
D03*
M02*
