M48
;Layer_Color=9474304
;FILE_FORMAT=2:5
INCH,LZ
;TYPE=PLATED
T1F00S00C0.00800
T2F00S00C0.01600
T5F00S00C0.03543
;TYPE=NON_PLATED
T6F00S00C0.05799
T7F00S00C0.06193
%
T01
X141Y09111
X1407685Y0914468
X14102Y09184
X1418569Y0923417
X142181Y092336
Y0925941
X14252Y09098
Y090675
Y09037
X14294
X1419847Y0903844
X14221Y09064
X14462Y0906
Y09097
Y09135
X14426
X14544Y0912744
Y0909886
Y0906556
Y09029
X146045
X14665
X1463853Y0906
Y0910556
X146455Y0912978
X1463853Y0915111
Y0919667
X14639Y09221
X1463853Y0924222
Y0928778
X14633Y09311
X1463853Y0933333
X1463706Y0936452
X1469372Y0933841
X1468948Y0929117
Y0924393
Y0919668
X14758Y09197
Y09244
X1478364Y0925915
Y0936991
X14873Y09346
X14902
X14936Y09341
X14967Y09309
Y0925859
X14903Y09281
X14873
Y093135
Y092271
Y0920193
Y0917676
Y0914844
X14903Y09149
Y0917676
Y0920193
Y092271
X14799Y09119
X14743
X14758Y0914976
X1476498Y090586
X14688Y0909
X14544Y0915667
Y0918997
Y09221
Y0924778
Y0928108
Y09311
Y0933889
Y0937219
X14459Y09341
X14434
X14409
X14459Y09315
Y09289
X1399483Y0926327
X1399472Y0924109
Y09214
X1399662Y0918466
Y0914468
X14052Y09111
X14054Y09184
X13877Y09189
X13851
Y09226
X13877Y09262
X13863Y09353
X1371159Y0936056
X1368332Y0936058
Y0932216
X1371159
X1365283
X1365Y0926898
X1368207Y0925222
Y0928719
X1358654Y09286
X1356912Y0932293
X1354083
X1351163
X1352691Y09286
X1346785
X134088
Y09321
X1334974Y09286
X13271
X13232
X1319237
X1315678Y0928617
X1316558Y0934058
X1308726Y0932277
X1306087Y0932406
X12993Y0930807
X1307669Y0924961
X1305931Y0919741
X1315353Y0921726
X1321253
X1325195
X1333069
X1338975
X1350786
X13531Y09218
X13555
X1360628Y0921726
X1364246
X1354083Y0936214
X13878Y0913771
X1271Y09249
X1253934Y0918012
X1251375Y0915453
X12309Y0912894
X1213118Y0912967
X1210272
Y09193
X1213019
X1210272Y0923143
Y0925671
X1206062Y0927811
X1205806Y0930705
X1201567Y0929292
X1196312Y0927621
X11965Y09316
X1192566Y09336
Y0936392
X1183602Y0934684
X11916Y09247
Y0922013
Y09196
X1191668Y0915509
X1194941Y0912629
X1198701Y0917322
X12027Y09101
X1213146Y0908378
X1213118Y0904893
X1216903Y0907156
X1216583Y0927043
X12137Y0931196
X12115
X12114Y0937414
X12136
X12087
X11672Y0932
Y09292
X1162978
Y0932
X1158756
Y09292
X1154533
Y0932
X11516Y09341
X11521Y0912039
Y0909
X1155398
Y0912039
X1158696
X1161994
X11652Y0912
X11678
X11703Y09121
Y09095
X1129495Y091864
Y092165
Y0927843
X11287Y09339
X112195Y0937176
X1118816
X1115583
X111235
X11184Y0931028
X1116981Y0926306
X1113691Y09263
X11104
Y092305
Y09198
Y09161
Y091365
X11117Y09114
X1114883
X1118067
X1119Y091365
Y09161
X1119929Y0921452
X1119996Y0924432
X1124827
X10985Y09158
X10931Y09133
Y09211
X10866Y09058
Y09033
X1084075
Y09058
X108155
Y09033
X1062Y09018
X10486Y09019
Y09154
Y09289
X1062Y09288
Y09153
X1032786Y09151
Y09112
Y09075
Y0904
X1029418
X1026149
X102288
X102288Y09075
X102278Y09112
X1022986Y09152
X1024367Y091875
X1024467Y09218
Y0924894
Y0928315
Y0931786
X1023286Y09349
X1019786Y09353
X101003Y09344
X1010585Y0937291
X09994Y09344
X10018Y0911
Y09019
X10159
Y0911
X1031486Y09187
X1031Y0924894
X1030986Y0928315
Y09318
X0981913Y0924453
X0974776
X0960619Y0924894
Y09218
X0960719Y091875
X09621Y09152
X0962306Y09112
X0962206Y09075
X0962206Y0904
X0958937
X0955669
X09523
Y09075
Y09112
Y09151
X09536Y09187
X09541Y0924894
Y0928315
Y09318
X0960619Y0931786
Y0928315
X09618Y09349
X09653Y09353
X09485Y09262
X09426Y0911
Y09019
X09736
Y0911
X09877
Y09019
X09285
Y0911
X09144
Y09019
X09003
Y0911
X0899Y0919
X0903Y0918
X0909771Y0924267
X09153Y0921
X09258Y09266
X0921984Y0930484
X09175Y0935
X0912
X09075
X0903
X0899Y0934
X09278Y09347
X0923339Y0940661
X09275Y0945
X09328Y09403
X09365Y09485
X09165Y0944
X09125Y0945
X0908Y09415
X08995Y0942
X08944Y09398
X09005Y095
X090201Y095249
X08995Y0960214
X08961
X0895Y0966075
X0899Y09695
X08986Y0975
X09105Y09745
X0918Y09747
X0918242Y09789
X09216
X09262
X09294
X092741Y09747
X093131Y09685
X09215
Y09615
X09162Y0955
X0912
X091298Y095802
X0908Y09615
X08825Y096
X08785
Y0946
X08825
X0878Y09398
X0877Y09727
X08822Y0975
X08742Y09937
Y10067
Y10206
X08578
Y10067
Y09937
X0905147Y1003547
X09159Y10047
Y10022
X09183Y09962
X0918345Y0993229
X09148Y09949
X09242Y09985
Y09907
Y09862
X09182Y09842
X09183Y10099
X0918255Y1014545
X09182Y10194
X09242Y10168
X092705
X09271Y10122
X09242
Y10077
X09271
X09291Y10057
Y10015
X09332Y10073
X0933545Y1022127
X09238Y10275
X09249Y10304
Y10325
X09222
Y10304
X091929Y10383
X0915945
X09126
X09141Y10276
Y10243
X09359Y10366
Y1039
X09352Y10566
X0935339Y106964
Y1072481
Y1075321
Y1078161
X0932381Y1080603
X0932065Y1088925
X0935339
X0922869Y1089579
X092219Y1081209
X0922186Y10783
X09182Y1084
X0912Y10882
X0908772
X0906236Y10869
Y10841
X090364Y1084088
X09013Y1082603
Y10804
X08983Y10775
Y10751
X09022Y1074
X09094Y1078
X0917497Y1072097
X09142Y10644
Y10607
Y10584
X090073Y10544
X08966
X089375
X08909
Y10575
X089375
X08966
X08896Y10612
X08884Y10648
X08896Y10682
X08827Y10661
Y10637
X088Y10646
X0876878Y1068863
X0876749Y1072461
X08843Y10724
X08827Y1075399
Y10778
X08806Y10538
X08779
X087535
Y105625
Y10587
X08728
Y105625
Y10538
X08863Y10544
X088928Y105238
X08928Y10431
X0895371
X0897941Y1043087
X090073Y10469
X08848Y10431
X08802
X0906236Y10906
X09385Y1091587
Y1088925
X09417
Y1091587
X09464
X09463Y1088925
X09495
X09561
Y1091263
Y10936
Y10845
Y1078172
Y1075438
X09607Y10767
X09656
Y10818
X09607
X0965228Y10892
X0961819Y10707
Y1067523
X0951156Y10645
X09463
X0946417Y10566
X09495
X0943334
X0940629
X0937924
X09385Y10668
Y106964
Y1072481
Y1075321
Y1078161
X09464
X09495
Y10755
X09416Y1072481
X09413Y1039
Y10366
X09386
Y1039
X0950159Y1035499
X095352Y1035526
X0953487Y10313
X0950213Y103138
X0953472Y10267
X09541Y10176
X0964906Y1021569
X0967654Y1021567
X0964906Y10259
X0964242Y1033148
Y1036815
X096829Y1033148
X09748Y10369
X09799
X09846
X09831Y103
Y102595
X097895
Y103
X09759
X09748Y102595
Y10216
X097895
X09831
X0986216Y101524
X0990786
X0994667Y1015133
X0979843Y101524
X09817Y1003836
X0976933
X0972267
X09632
X0938916Y0999922
X09428Y09954
X0979055Y0988239
Y09855
X09828Y0988239
X09876
X0992327
X09972
X1002
X10068
X1010421Y0985528
Y0982509
X10038Y09795
X10003
X0996
X09926
X09883
X0984
X0974564Y0979208
X0971639Y0979143
X0976972Y0969861
X09819Y09699
X0984Y09639
X09782Y09627
X09823Y09532
X099
Y09453
X09823
X09782Y09489
X09645Y09418
X0960802Y0941515
X0957054Y09405
X09543Y0941515
X0954209Y0937754
X09484Y09376
X0949624Y0945032
X0964055Y0956857
X09657Y09667
X09917Y09639
Y09699
X10025Y09697
X10093Y09615
X1010865Y0956079
Y09526
X1010603Y0943751
X1010585Y0940521
X1005572Y0938724
X0999414Y093829
X0996586Y0941231
X10007Y09453
Y09532
X1019469Y0958703
Y0961453
X1019487Y0965032
X1019169Y0973069
X1014732
X1022299Y0976199
X101931Y0979523
X10309Y09813
X1034848Y0981335
X1039231Y09813
X1044749Y097111
Y0967051
Y0962088
X10374Y0960828
X1040763Y0956007
X10408Y095
X1036408Y0945608
X1032324
X1029721Y0947282
X1026457Y0949916
X1027849Y0939961
X1030465Y0937544
X1023902Y0941084
X1019814Y0941167
X10304Y0964728
X10593Y0966133
Y0960267
X10662
Y0966033
Y09535
X10749Y09526
Y09461
Y0943452
Y0940803
X1078365
X1081729
X10907Y0940826
Y09381
X1093508
X10914Y0945
X1085Y09562
X10765Y09583
X1077234Y0980714
X1077216Y0983207
Y09857
X108065Y09858
Y09882
X1083175
Y09858
X10857
Y09882
X1087784Y0996165
X1090465Y0996063
X1092154Y0998168
Y1000484
X10922Y10028
X1091954Y1007054
X10914Y10097
X1093Y1011
X10929Y10134
X1091912Y101617
X108835Y101615
X1083585Y1016163
X1080762Y1012875
X1082456Y1008403
X1080134Y1001793
X1077747Y1001765
X1075361
X1072975Y1001728
X1068393Y1007111
X1070535Y1009282
X1076Y1018
X1071677Y102438
X1065399Y1033073
X1063282Y1031293
X1048143Y1029497
X1045465Y1029413
X1042344Y1027823
X1041787Y1034015
X10423Y10396
X10394
X10368
X103435
X10319
Y10366
X103435
X10368
X1028
X102555
X10231
Y10396
X102555
X1028
X1019724
X10196Y10295
X10099Y1030007
X1009819Y102737
X10099Y1035106
X1009775Y1040671
X09957Y10321
X0991118Y1046448
X09824Y10466
X09778
X0973204Y1046713
Y1049926
X09686
Y1046772
X09573Y10505
X10281Y1049567
X10304Y1049667
X1035385Y1049567
X10385
X10455Y10396
X10433Y10184
X1030278Y1018259
X1020989
X1009919Y101665
Y1010603
X1017776Y1005997
X10249Y10021
X1027933
X1030967
X1034
X1044244Y1005
X1047175Y10021
X1050431Y1011151
X10593Y0972
X107952Y1032601
X1082
X1085
X10877Y10452
X109045
X10932
X11022
X110495
X11077
X111045
X111763
X11204
X112315
X11259
X112865
X113445
X11372
X1136071Y1032571
X1139286
X11425
X11314
X1128646
X1125892
X1123137
X1120383
X1117618Y1032601
X11134Y1032601
X111065
X11079
X110515
X11024
X10946
X10951Y10111
X1095129Y1008782
X1100384Y1006839
X1102943
X1108061
X1110614
X111062Y100428
X111062Y100172
X111062Y0999161
X1107961
X1108061Y100172
X1105502
Y100428
X1108061
X1115738
Y1006839
Y100172
X1118298
Y100428
X1120857
Y1006839
X1123416
X1123439Y100172
X1120857
Y0996602
X1123416
Y0994043
X1120857
X1118298Y0994043
X1118261Y0996557
X1115738Y0996602
Y0994043
X1113179
Y0991484
X1115738
X1118298
Y0988925
X1120857
X1123416Y0984371
X11285Y09845
X1130885
Y09819
X11285
X11282Y0994358
X1130725
X113325
X113043Y0998962
X1134173Y1001273
X1136814Y1005821
X1143116Y1005921
X1145372Y1008941
X11496Y10087
Y10058
X1149567Y1003154
X1149432Y0999584
X1152821
Y0992354
X1149432Y0992229
X1145567Y0992237
X1141312Y0990646
X1139278Y099056
X1145567Y0999584
X11395Y10107
X11394Y10158
X11363
X11348Y10179
X11379
X1141
X1146282
X11565
X1156443Y1020366
X11627Y1012
Y1008887
Y1006074
X1162619Y0996767
X11657
X1169
X11657Y09925
X1162619
Y09851
Y09823
Y09794
X11657
Y09765
X11695Y09747
X11757Y09748
Y09703
X11651Y09702
X11593Y09705
X1156042
X1152785
X1149527Y09737
Y0977033
Y0980367
Y09837
X11523Y09789
X11553
X11657Y09823
Y09851
X1164Y09633
X11648Y09602
Y09577
X11676
Y09602
X1161333
Y09577
X1157318
Y09602
X1153302
Y09577
X1149286Y0957667
Y0960223
X1146803Y0962221
X1143435Y0969175
X1143377Y0971442
X1140967Y0971449
X1140995Y0969175
X11372Y09691
X113432
Y09652
X113144
X112856
X112588
X11222
X11182Y09706
X1114567
X1110933
X11073
X1103467
X1100033
X10964
X1097753Y0983551
X1101752Y0984198
X1104088
X1106424Y0984157
X11068Y09884
X1108061Y0991484
X1108111Y0994093
X111062Y0994043
X11121Y09884
Y0985752
Y0983105
X11119Y0977012
X11154Y09772
X11182
X111878Y0973743
X1105911Y097714
X1102993Y0991384
Y0993893
X1100384Y0994043
Y0991484
Y0996602
X1101153Y1014686
X1103014Y1012856
X1104683Y1011526
X1110657Y1012603
X1110615Y1015228
X1110614Y1009937
X1118509Y1010874
X1118564Y1013017
X1127545Y101076
X1127683Y10083
X11261Y100172
X1125994Y0996576
X1126959Y1016161
X1129637Y1016195
X1141038Y0973724
X11582Y09634
X1181311Y0963103
X11845Y09586
X11948Y09567
X11942Y09496
X11966Y09454
X1199986
X12026
X1206756
X12073Y09493
X12102Y09441
X12125
X12087Y09408
X1212319Y0952849
X12147Y09528
X1212319Y0955898
X1210351Y0957758
X12042
Y09543
X1222549Y0953892
X12205Y09595
Y0962721
Y09654
X12202Y09688
Y09754
X12134
Y09688
X1213058Y0984539
X12108Y09845
X12109Y09983
X12102Y10181
X1207105Y1017972
X12013Y10195
Y10218
X11951Y10202
Y102385
Y10275
X1196875Y1036013
X12011Y10359
X11927Y10355
X1191168Y1041571
X1187953Y1044479
Y1047433
X1183495
X1183506Y1044479
X11834Y1041509
X118067
X11834Y103854
X1183441Y1035771
X11917Y10546
X1198
X12043
X12106
X12077Y10437
X12044Y10438
X1209785Y1038718
X1210205Y1027858
X1207105
X1210205Y1023921
X1223029Y10193
X122782
X1232612
Y101435
X122782Y1014455
X1223029Y1014234
X1238053Y1014533
X12363Y10215
Y10252
X1240458Y10256
Y1022058
X1242157Y1027629
X12499Y10256
Y10229
Y10201
X12492Y10347
X12461
X1243897Y1037
X1234793Y10371
Y10331
X122569
Y10371
X1222266Y1029708
X1238579Y09615
X11925Y09418
X1192478Y0938995
X1185223Y0945022
X11689Y0940376
Y0937676
X1165675
Y0940376
X116245
Y0937676
X1158883
Y0940376
X1155316
Y0937676
X115175
Y0940376
X1129288Y0944415
X1129144Y0947425
X1129999Y09527
X1124477Y0950208
X1120046
X1120165Y0953278
X1118032Y0956716
X111504Y0956674
X111334Y0952076
X111015
Y0948026
Y0944776
X111005Y0941676
X111Y0939
X111885Y0941676
X11037Y09453
Y09481
Y09513
X10994Y09506
Y09478
Y09538
X1099123Y0940826
Y09381
X1096315
X1251375Y0974333
X12549Y09722
X129232Y0971752
X1306058Y0970329
X13087
X1308726Y0973616
X1312Y0978274
X131534
X1321246
X13182Y0982
X1318397Y099013
X131529
X13094Y099003
X13126Y09973
X131475
X13169
X131905
X13212
X131545Y1006518
X13141Y10115
X1312696Y1017567
X1312827Y1020511
Y1023555
X13153Y10281
X13178Y1028
X13197Y10295
Y10318
X13225Y10257
X13253Y10227
X1329811Y1020111
X13298Y10176
X13339Y10193
X13371
X13403
X13429Y10227
X13382Y10257
Y102786
X133585
Y10257
X13335
Y102786
X13341Y10227
X13228Y1017567
X1318319
Y1020511
X13228Y10114
X1305411Y1010847
X1301904Y101142
Y1014
X130188Y1006212
X1305411Y1006219
X1301886Y10011
X1301904Y09964
Y1027858
Y1030494
Y1033129
Y1035765
X13019Y10384
X1301904Y10417
X13163Y10412
Y10437
X1319
Y10412
X1326379Y10392
Y10352
X1328531Y1036519
X1326379Y10432
X13357Y1041216
X13383
X134Y1039416
Y1036816
X13525Y10336
X1358367
X1364233
Y10226
X1358367
X13525
Y10113
X1358267
X1364233
X137
X13701Y10226
X1390633Y10283
X13964
X1403033Y10312
X14061Y10412
X14016Y10438
X1392286Y1043014
X13841Y10467
X1383Y1036631
X1388343Y1031936
X13869Y1011167
Y10054
X13937Y1005667
Y09999
X14004Y0998567
Y09928
X1406102Y0995934
X14052Y1007
X14037Y10135
X13992Y10193
X1398969Y0963772
X13935Y09669
X13894
X13863Y096111
Y0952507
Y0943903
X1371159Y0944101
X1368332
X1365274
Y0948092
X1368292
Y0951975
X1371159
X1365274
Y0955912
X1368292
X1365274Y0959842
Y096378
Y0967766
X1368214
Y0970736
Y0973707
X1364705
X1359Y09717
X1356379Y0971708
X1353883
X1353867Y0967758
X1356879Y0967766
X1356812Y0963773
X1353867
Y0959869
X1351163Y0959869
Y0955879
Y0953283
Y0950687
X1354083Y0948092
X1356912
Y0944088
Y0940151
X1354083
X1351163
Y0944088
X1358573Y0953975
X1356912Y0955879
X1356812Y0959779
X1348908Y0965521
X1348811Y09687
X1345853
X1342895
X1342906Y0971708
X1338968
Y09687
X13311
X132733Y0971906
X13217
X1317786Y0971857
Y09676
X13217
Y09635
X13178
Y0959563
X13217
X1325355
X1328599
X1325355Y0955626
X13217
X13178
Y0951689
X13217
X1317837Y0946063
Y0942126
X1327253
X1308726Y0944088
Y0948025
X1305858Y0948038
Y0951975
X1308726Y0951962
Y0955899
X1305858Y0955912
Y095948
X1308726
X13087Y0965482
X12998Y0956463
X1302924Y0951949
X13Y0948121
X1308726Y0940151
X132912Y0978274
X1327571Y09817
X1338962Y0978274
X1342899
X1346826
X1346879Y0981372
X1350924
X1350773Y0978274
X1354583Y0981372
X1358647
Y0978274
X1360928Y0978365
X1362Y0981372
X13652
X1365179Y0984632
X1373265
Y09814
X1371513Y0970691
X1372113Y0963825
X1369492
X1368332Y0940174
X1371159Y0938472
X1393414Y0955386
X1401595Y0953022
X1348811Y0971708
X13425Y09997
X13397Y09996
X13369
X13444Y100925
X13466
Y10116
X13444
X12892Y1016047
X1286602
X1289569Y1023869
X1281536Y1023763
X1275029
X1272235
Y102966
X1274929
X1277823
X1277804Y1026999
X12756Y10369
X1270413Y1037905
X1267761Y10347
X12647
X1263827Y1023719
Y1021657
X12599Y10197
X1259732Y10256
X1253Y10257
X1253Y1037
X1255821Y1015783
X1250124Y1015776
X1250214Y1012662
X12737Y10092
X128501Y10369
X14088Y10312
X1418Y10412
X1421997Y1043803
X14328Y10374
Y10354
X14348
Y10374
X1431333Y10303
X1438867
X14464
Y10385
X14564Y1040767
X1459447Y10408
Y10456
X14564
X14619Y10481
X1467614Y1045655
Y1040881
X14676Y10363
Y1033416
X1463332Y1033524
X1459317Y1031083
X14594Y1026333
Y10215
X1462337Y1018054
X146764Y1023674
X14676Y1028268
X14751Y10285
X14804Y10246
X14832
X14914Y1027
Y1027021
X150081
Y1038221
X14914Y10382
X1485026Y1042539
X14754Y10439
X1475119Y1040338
X14785Y10497
X1482211Y1052988
X14914Y10494
X150081Y1049421
Y10158
X14914
X148121
Y10075
X14718
Y10158
X1463078Y09987
Y0996478
Y0991978
Y0987479
Y0982479
X14591Y09805
Y09855
Y099
Y09945
X14561Y09996
X14563Y10045
X14417Y100664
Y1009869
Y1011969
Y1014468
Y1017568
X1446Y10123
X1433Y1012
X14329Y10055
X1429Y1007691
X1429Y10158
X14325Y10191
X14253Y1019
X14239Y10122
X14237Y10028
Y10005
X14235Y0991016
X1420516Y0993
X14132Y09911
X1409519Y0988258
X14092Y09829
X14066
X14067Y09854
X14119Y0982675
X141432
Y09776
X14118
X142085Y0983173
X1423431Y0983068
X1425986Y0983114
X1429158Y0983131
X14381Y09815
Y09788
X14365Y09703
Y09671
X14403
Y09703
X14441
Y09671
X1445997Y0959395
X14462Y0957
X14441Y09532
X14376Y09515
X1434
X143169Y0955717
X1426838Y09501
X1423838
X14238Y09524
X14208
X1419017Y0957257
X14192Y09655
X14217
X14242
X1428968Y0994593
X14328Y09986
X14364Y10018
X14417Y09966
Y09935
Y0991
Y09889
Y0985672
X1434337Y0990919
X14103Y09996
Y10031
X14128Y10121
X1453461Y1023834
X14535Y102875
X14563Y10361
X14407Y10463
Y10483
X14377
Y10463
X1467614Y10529
X14914Y1004621
Y10046
X150081Y1004621
Y0993421
X14914Y09934
Y0982221
Y09822
X150081Y0982221
Y0971021
X14914Y0971
Y0959821
X150081
X14664Y09577
Y09524
X1463879Y0946974
Y0942444
X1463257Y0940156
X14544Y09399
Y0943
Y0946331
Y0949661
X14536Y0975
X14618
X14743Y09417
X14799
X09657Y10969
X09608
X09319Y1098
X0925Y1097
X09192
X0912Y10957
X0906236Y10944
Y10983
X09076Y11022
Y1108
X09039Y11079
X09008
Y11008
X09068Y11132
Y11168
Y11204
Y1124
X0898868Y1118231
T02
X1256493Y0920571
X1266729
X1274406
X1278624
X1282083Y0925689
X1282084Y0928248
X1282083Y0930807
X1282084Y0933366
X1284643Y0933366
X1287201
X1289761Y0933366
Y0930807
X129232Y0928248
X1289761Y0925689
Y092313
X1284643Y092313
X1287201Y0920571
Y0925689
X1284643Y0930807
X1284643Y0935925
X1289761
X129232Y0935925
X129653Y0933366
Y0930807
X1295523Y092437
X1297932
X1297935Y0922283
X1300664
X1302753Y0919741
X130911
X1312289
X1289761Y0918012
X1279524Y0933366
X1276965Y0933366
X1274406Y0933366
X1276966Y0935925
X1266729Y0935925
X1261611Y0935925
X1251375Y0933366
X1251375Y0930807
X1246257Y0930807
Y0933366
Y0925689
X1243698Y0925689
X1241138Y092313
Y0920571
Y0918012
Y0915453
Y0912894
X1228343
Y0915453
Y0918012
X1230902
X1233461
X1230902Y0920571
X1228343Y092313
X1225784Y092313
X1222325Y0920971
X1223225Y0918012
X1220541Y0918012
X1216816Y092055
X1219611Y0926569
X1220659Y0930807
X1223225
Y0935925
X1220659
X1228343Y0933366
X1230902Y0933366
X1233461Y0933366
X123602Y0933366
X1238579
X1241139Y0930807
X1241138Y0928248
X1233461
X1230902Y0928248
X1228343Y0928248
X1230902Y0925689
X1233461
X1236021Y092313
X1248816Y0920571
X1223225Y0912894
X1220659Y09392
X1213499Y0941284
X1228343Y0941043
X1230902Y0941066
X1233461Y0941043
X1236021
X1238557Y0938484
X1241138
Y0941043
X1243698
X1243716Y0946137
X1246257Y0946161
X1241138
X1238579
X1236021
X1233461
X123352Y095128
X1236021
X123858
Y094872
X1241138Y0953839
Y0956398
X1238579
Y0964075
X1241138
X123602
Y0961516
X1233461
Y0966634
X123602Y0971752
X1232222Y0975468
X1246257Y0974311
Y0961516
X1248816Y0958957
Y0956398
X1246257Y0953839
X1248816Y095128
X1248816Y0943602
X1246257Y0938484
X1230902Y095128
X1228343
X1225784
X1223225
Y0948721
X1225784
X12477Y09878
Y09912
X12513
Y09878
X12552
Y09912
X12588
Y09878
X12624
X12655
X1268399
Y09912
X1271298
X1274198
X1277097
X1279996
X1282895
Y09878
X1279996
X1277097
X1274198
X1274406Y0979429
X1276966
Y09768
X12744Y097687
Y0974311
X1274406Y0971752
Y0969193
X1276966Y0969193
X1279524Y0969193
Y0966634
X1276966Y0964075
X1274407
Y0961516
X1274406Y0958957
X1271847Y0956398
X1269288
Y0953839
X1266729
Y0956398
X1261611
Y0953839
Y0958957
X1256493
Y0961516
X1251375
Y0958957
Y0956398
X1256493
Y095128
X1253934
X1251375
Y0943602
X1253934
X1256493Y0943602
X1256493Y0946161
X1261611
X1266729
Y0943602
X1269288Y0943602
X1266729Y0941043
Y0938484
X1261611
X1253934
X1251375
X1274406
X1276966
Y0941043
X1274406
Y0946161
Y095128
X1276966
X1279524
X1282083
Y0953839
X1276965
X1276966Y0956398
X1279524
X1284681Y0958889
X1284691Y0961416
X1284643Y0964075
X1289761Y0961516
X1292214Y0961433
X1289761Y0958957
X1289658Y0953839
X1287202
X1287201Y095128
Y094872
X1284643
X1284642Y0943602
X1282083
X1287202
X1289761
Y0938484
X129232Y0938484
X129653Y0939524
X12999
Y0943583
X129653Y0943602
X1295179Y0948721
X1292313
Y0951273
X129673Y0954039
X1296775Y0956459
X129673Y095948
Y09625
X12998Y09625
Y095948
X1297963Y09731
X12954
X1294879Y0979429
X129232
X1289761
X1287202Y097687
X1284643
Y0974311
X1282083
Y0971752
X1279524
X1269288
Y0974311
X1266729Y0974311
Y097687
X126417
Y0974311
X1266729Y0971752
Y0969193
X1269288
X1269288Y0964075
Y0961516
X1271847Y0964075
X126417
X1251375
Y0966634
Y097687
X1259052
X1269288Y0979429
X12655Y09912
X12624
X1291Y09898
X1294154
X1297353
Y0993132
X1294154Y09932
X1291
X1295817Y0985601
X1284643Y0982006
X1269288Y095128
X1266729
T05
X0865832Y0988035
X0865836Y1019526
T06
X0888137Y0900883
T07
X0894651Y1064845
M30
