G04*
G04 #@! TF.GenerationSoftware,Altium Limited,Altium Designer,20.0.13 (296)*
G04*
G04 Layer_Physical_Order=2*
G04 Layer_Color=32768*
%FSLAX24Y24*%
%MOIN*%
G70*
G01*
G75*
%ADD22C,0.0100*%
%ADD260C,0.0300*%
%ADD261C,0.0400*%
%ADD262R,0.0140X0.0170*%
%ADD263R,0.0640X0.0860*%
%ADD264O,0.0760X0.0460*%
%ADD265C,0.0514*%
%ADD266C,0.0779*%
%ADD267C,0.0740*%
%ADD268C,0.0240*%
%ADD269C,0.0320*%
D22*
X94516Y120010D02*
X94350Y120177D01*
X94017D01*
X93850Y120010D01*
Y119344D01*
X94017Y119177D01*
X94350D01*
X94516Y119344D01*
Y119677D01*
X94183D01*
X94850Y119177D02*
Y120177D01*
X95516Y119177D01*
Y120177D01*
X95849D02*
Y119177D01*
X96349D01*
X96516Y119344D01*
Y120010D01*
X96349Y120177D01*
X95849D01*
X96849Y120010D02*
X97016Y120177D01*
X97349D01*
X97515Y120010D01*
Y119344D01*
X97349Y119177D01*
X97016D01*
X96849Y119344D01*
Y120010D01*
X98515Y119177D02*
X97849D01*
X98515Y119843D01*
Y120010D01*
X98349Y120177D01*
X98015D01*
X97849Y120010D01*
D260*
X102771Y93583D02*
G03*
X102424Y93830I-346J-119D01*
G01*
X96086Y93836D02*
G03*
X95740Y93589I0J-366D01*
G01*
X101530Y93830D02*
X102424D01*
X102769Y91020D02*
Y93589D01*
X96086Y93836D02*
X96981D01*
X95740Y91020D02*
Y93589D01*
D261*
X87069Y96823D02*
G03*
X86755Y97137I-314J0D01*
G01*
X87069Y89849D02*
G03*
X87857Y89062I787J0D01*
G01*
X150776D02*
G03*
X150926Y89212I0J150D01*
G01*
Y105373D02*
G03*
X150426Y105873I-500J0D01*
G01*
X97069Y106267D02*
G03*
X97463Y105873I394J0D01*
G01*
X97069Y109731D02*
G03*
X96676Y110125I-394J0D01*
G01*
X91164Y110518D02*
G03*
X91557Y110125I394J0D01*
G01*
X91164Y112526D02*
G03*
X90770Y112920I-394J0D01*
G01*
X86912Y113156D02*
G03*
X87148Y112920I236J0D01*
G01*
X86912Y113735D02*
G03*
X86518Y114129I-394J0D01*
G01*
X85809D02*
G03*
X85416Y113735I0J-394D01*
G01*
X88546Y112113D02*
G03*
X88073Y112113I-236J0D01*
G01*
X89510Y111660D02*
G03*
X89510Y112054I0J197D01*
G01*
Y109456D02*
G03*
X89510Y109849I0J197D01*
G01*
X88073Y109397D02*
G03*
X88546Y109397I236J0D01*
G01*
X85179Y109050D02*
G03*
X85416Y109286I0J236D01*
G01*
X86920Y107960D02*
G03*
X86723Y108156I-197J0D01*
G01*
Y105086D02*
G03*
X86920Y105282I0J197D01*
G01*
X85022Y97806D02*
Y105086D01*
X86723D01*
X86920Y105282D02*
Y107960D01*
X85022Y108156D02*
X86723D01*
X85022D02*
Y109050D01*
X85179D01*
X85416Y109286D02*
Y109456D01*
X88073D01*
Y109397D02*
Y109456D01*
X88546Y109397D02*
X88546Y109397D01*
X88546Y109397D02*
Y109456D01*
X89510D01*
Y109849D02*
Y111660D01*
X88546Y112054D02*
X89510D01*
X88546Y112054D02*
X88546Y112054D01*
X88546Y112054D02*
Y112113D01*
X88546D01*
X88073Y112054D02*
Y112113D01*
X85416Y112054D02*
X88073D01*
X85416D02*
Y113735D01*
X85809Y114129D02*
X86518D01*
X86912Y113156D02*
Y113735D01*
X87148Y112920D02*
X90770D01*
X91164Y110518D02*
Y112526D01*
X91557Y110125D02*
X96676D01*
X97069Y106267D02*
Y109731D01*
X97463Y105873D02*
X150426D01*
X150926Y89212D02*
Y105373D01*
X87857Y89062D02*
X150776D01*
X87069Y89849D02*
Y96823D01*
X86164Y97137D02*
X86755D01*
X86164D02*
Y97806D01*
X85022D02*
X86164D01*
D262*
X129830Y96105D02*
D03*
D263*
X102779Y91050D02*
D03*
X95730D02*
D03*
D264*
X86148Y112350D02*
D03*
X87250D02*
D03*
X86652Y109161D02*
D03*
X89199D02*
D03*
Y112350D02*
D03*
D265*
X86584Y101953D02*
D03*
X86583Y98804D02*
D03*
D266*
X89465Y106484D02*
D03*
D267*
X88814Y90088D02*
D03*
D268*
X132170Y95956D02*
D03*
X131780D02*
D03*
X135388Y97171D02*
D03*
X135638D02*
D03*
X137211Y96383D02*
D03*
X136949D02*
D03*
X137116Y93847D02*
D03*
Y93606D02*
D03*
X135688Y96777D02*
D03*
X130940Y99003D02*
D03*
X145440Y92811D02*
D03*
Y92478D02*
D03*
Y93722D02*
D03*
Y93389D02*
D03*
Y94300D02*
D03*
Y94633D02*
D03*
Y90656D02*
D03*
Y90989D02*
D03*
X135116Y95069D02*
D03*
Y95328D02*
D03*
X136829Y95197D02*
D03*
X136500Y92690D02*
D03*
X137116Y95197D02*
D03*
X115160Y93410D02*
D03*
X114680Y96222D02*
D03*
X89887Y111823D02*
D03*
X91834Y99323D02*
D03*
X141800Y104120D02*
D03*
X140610D02*
D03*
X132860Y95956D02*
D03*
X135387Y96776D02*
D03*
Y96377D02*
D03*
X95610Y107544D02*
D03*
X117030Y90950D02*
D03*
Y91210D02*
D03*
X116780Y91200D02*
D03*
X116520D02*
D03*
X116760Y95770D02*
D03*
Y96020D02*
D03*
X116480Y95770D02*
D03*
Y96020D02*
D03*
X131529Y99013D02*
D03*
X121027Y92567D02*
D03*
X121470Y95280D02*
D03*
X137151Y97069D02*
D03*
X136821Y97074D02*
D03*
X110591Y97714D02*
D03*
X110115Y101469D02*
D03*
X121690Y90716D02*
D03*
X146308Y99198D02*
D03*
X147650Y90586D02*
D03*
X142390Y101220D02*
D03*
X141985Y90384D02*
D03*
X142210Y90640D02*
D03*
X113000Y95270D02*
D03*
X93520Y105660D02*
D03*
X96765Y102157D02*
D03*
X110806Y100684D02*
D03*
X109940Y94780D02*
D03*
Y95060D02*
D03*
Y95380D02*
D03*
X113950Y101070D02*
D03*
X116900Y99677D02*
D03*
X112696Y101616D02*
D03*
X111190Y97701D02*
D03*
X111878Y97374D02*
D03*
X111062Y99404D02*
D03*
X111574Y99660D02*
D03*
X110299Y99138D02*
D03*
X110806Y99148D02*
D03*
X133110Y96870D02*
D03*
X107650Y95830D02*
D03*
X111803Y95672D02*
D03*
X111504Y95667D02*
D03*
X90515Y100355D02*
D03*
X147836Y93699D02*
D03*
X146371Y93645D02*
D03*
X146385Y93333D02*
D03*
X146385Y92422D02*
D03*
Y92878D02*
D03*
Y91967D02*
D03*
Y91511D02*
D03*
X146385Y90600D02*
D03*
Y91056D02*
D03*
X143169Y95572D02*
D03*
X132250Y102570D02*
D03*
X131545Y100652D02*
D03*
X132280Y101757D02*
D03*
X128957Y102387D02*
D03*
X130188Y100621D02*
D03*
X130541Y100622D02*
D03*
Y101085D02*
D03*
X130189Y100110D02*
D03*
X146388Y94697D02*
D03*
Y94244D02*
D03*
X145630Y100450D02*
D03*
X146333Y103352D02*
D03*
X145630Y103610D02*
D03*
X145346Y102383D02*
D03*
X145640Y104077D02*
D03*
X145932Y103108D02*
D03*
X145940Y102633D02*
D03*
Y102150D02*
D03*
X145945Y104080D02*
D03*
X145640Y104560D02*
D03*
X139947Y92411D02*
D03*
X142916Y98313D02*
D03*
X142085Y98317D02*
D03*
X142343Y98307D02*
D03*
X142181Y92594D02*
D03*
X149030Y91490D02*
D03*
X148730Y91484D02*
D03*
X149030Y92271D02*
D03*
Y92019D02*
D03*
X148730Y91768D02*
D03*
X149030D02*
D03*
X148730Y92019D02*
D03*
Y92271D02*
D03*
Y93135D02*
D03*
X149030Y92810D02*
D03*
X148730D02*
D03*
X149020Y93460D02*
D03*
X148730D02*
D03*
X146761Y104088D02*
D03*
X147540Y104390D02*
D03*
X147512Y104034D02*
D03*
X146761Y104565D02*
D03*
X146764Y102367D02*
D03*
X146760Y103630D02*
D03*
Y103342D02*
D03*
Y102827D02*
D03*
X138300Y103663D02*
D03*
X139948Y92633D02*
D03*
X139947Y92140D02*
D03*
X125137Y91545D02*
D03*
X125393Y91801D02*
D03*
X113928Y99056D02*
D03*
X106328Y103129D02*
D03*
X106540Y103307D02*
D03*
X104234Y102782D02*
D03*
X104814Y102950D02*
D03*
X104546Y102941D02*
D03*
X104179Y103401D02*
D03*
X118131Y96310D02*
D03*
X110370Y95130D02*
D03*
Y94810D02*
D03*
Y94530D02*
D03*
X109775Y98355D02*
D03*
X115644Y102037D02*
D03*
X119687Y103601D02*
D03*
X140520Y100700D02*
D03*
X140952Y98826D02*
D03*
X109191Y101617D02*
D03*
X110038Y100684D02*
D03*
X111830Y99404D02*
D03*
X110550Y100428D02*
D03*
X110038Y99404D02*
D03*
Y99660D02*
D03*
X110550Y100172D02*
D03*
X110806D02*
D03*
X111210Y98575D02*
D03*
Y98840D02*
D03*
X110811Y99409D02*
D03*
X99467Y101513D02*
D03*
X96829Y103315D02*
D03*
X92287Y108958D02*
D03*
X90624Y109830D02*
D03*
X97990Y103690D02*
D03*
X90624Y109060D02*
D03*
X98460Y103690D02*
D03*
X119117Y104157D02*
D03*
X100557Y93872D02*
D03*
X108835Y101615D02*
D03*
X97697Y96986D02*
D03*
X97456Y97921D02*
D03*
X99659Y94123D02*
D03*
X103232Y94561D02*
D03*
X103641D02*
D03*
X108155Y90330D02*
D03*
X108407D02*
D03*
X108660D02*
D03*
X108155Y90580D02*
D03*
X108407D02*
D03*
X108660D02*
D03*
X91530Y92100D02*
D03*
X97693Y100384D02*
D03*
X90977Y92427D02*
D03*
X98170Y100384D02*
D03*
X101086Y95260D02*
D03*
X99941Y93829D02*
D03*
X101931Y97952D02*
D03*
X121027Y91930D02*
D03*
X121302D02*
D03*
X125137Y97433D02*
D03*
X92420Y101220D02*
D03*
Y100770D02*
D03*
Y101680D02*
D03*
Y99850D02*
D03*
X92620Y97890D02*
D03*
X92420Y99070D02*
D03*
Y98620D02*
D03*
X111826Y99656D02*
D03*
X131283Y102051D02*
D03*
X120710Y102786D02*
D03*
X131832Y102051D02*
D03*
X121020Y102786D02*
D03*
X131270Y101757D02*
D03*
X121020Y102392D02*
D03*
X131832Y101757D02*
D03*
X122303Y101423D02*
D03*
X145440Y91900D02*
D03*
Y91567D02*
D03*
X132733Y97191D02*
D03*
X124216Y102763D02*
D03*
X107297Y100173D02*
D03*
X108013Y100179D02*
D03*
X107775Y100176D02*
D03*
X107536D02*
D03*
X109220Y100280D02*
D03*
X130190Y101142D02*
D03*
X124990Y102560D02*
D03*
X103400Y100210D02*
D03*
X103097D02*
D03*
X102793D02*
D03*
X102490D02*
D03*
X99079Y101524D02*
D03*
X100982Y102737D02*
D03*
X87688Y106886D02*
D03*
X89830Y107510D02*
D03*
Y107750D02*
D03*
X93355Y102213D02*
D03*
X104424Y100500D02*
D03*
X95016Y103550D02*
D03*
X95021Y103138D02*
D03*
X96491Y102590D02*
D03*
X95352Y103553D02*
D03*
X112342Y98437D02*
D03*
X111318Y99404D02*
D03*
X103680Y103660D02*
D03*
X112342Y99404D02*
D03*
X111830Y100172D02*
D03*
X111574D02*
D03*
X112342Y99660D02*
D03*
X114960Y100580D02*
D03*
X113043Y99896D02*
D03*
X104330Y101840D02*
D03*
X96182Y107070D02*
D03*
X111856Y101302D02*
D03*
X111061Y101523D02*
D03*
X111851Y101087D02*
D03*
X111066Y101260D02*
D03*
X110301Y101286D02*
D03*
X110468Y101153D02*
D03*
X109215Y100048D02*
D03*
X90073Y104690D02*
D03*
X91595Y103830D02*
D03*
X91750Y107210D02*
D03*
X120606Y92781D02*
D03*
X120581Y93070D02*
D03*
X120157Y92929D02*
D03*
X112599Y99658D02*
D03*
X112016Y95328D02*
D03*
X111993Y92145D02*
D03*
X111061Y100684D02*
D03*
X112448Y95021D02*
D03*
X112483Y92443D02*
D03*
X94640Y109159D02*
D03*
X95610Y109126D02*
D03*
Y108893D02*
D03*
X104550Y103960D02*
D03*
X97480Y103690D02*
D03*
X92219Y108121D02*
D03*
X94950Y107550D02*
D03*
Y108893D02*
D03*
X93534D02*
D03*
X93850Y109159D02*
D03*
X96182Y106752D02*
D03*
X93534Y107248D02*
D03*
X122255Y95389D02*
D03*
X121315Y90838D02*
D03*
X121312Y90489D02*
D03*
X119494Y91263D02*
D03*
X121027Y91297D02*
D03*
X119870Y91732D02*
D03*
X121232Y95285D02*
D03*
X93850Y106964D02*
D03*
Y106680D02*
D03*
X135857Y95398D02*
D03*
X121340Y96880D02*
D03*
X122020D02*
D03*
Y97540D02*
D03*
X121340D02*
D03*
X121150Y93120D02*
D03*
X121370D02*
D03*
X121360Y93741D02*
D03*
X121140D02*
D03*
X88928Y105238D02*
D03*
X106839Y100711D02*
D03*
X107054Y100928D02*
D03*
X107723Y98071D02*
D03*
X111210Y98311D02*
D03*
X111900Y91610D02*
D03*
Y91365D02*
D03*
X142350Y99102D02*
D03*
X120710Y101797D02*
D03*
X101947Y95870D02*
D03*
X89950Y96021D02*
D03*
X96523Y108920D02*
D03*
X90080Y110080D02*
D03*
X114929Y95767D02*
D03*
X114957Y100315D02*
D03*
X112820Y99436D02*
D03*
X96320Y100384D02*
D03*
X102099Y101826D02*
D03*
X105043Y101115D02*
D03*
X112949Y92784D02*
D03*
X130000Y94812D02*
D03*
X130609Y93241D02*
D03*
X136518Y98463D02*
D03*
X136200Y98137D02*
D03*
X135865D02*
D03*
X136520D02*
D03*
X136093Y97836D02*
D03*
X131820Y98200D02*
D03*
X132757Y98170D02*
D03*
X132725Y94213D02*
D03*
X134250Y99970D02*
D03*
X133970Y99960D02*
D03*
X133690D02*
D03*
X134030Y101930D02*
D03*
X133710D02*
D03*
X133390D02*
D03*
X131410Y101150D02*
D03*
X115930Y97050D02*
D03*
X112588Y96520D02*
D03*
X127100Y92490D02*
D03*
X107490Y95260D02*
D03*
X119257Y93639D02*
D03*
X121232Y95590D02*
D03*
X119250Y94180D02*
D03*
X121035Y95776D02*
D03*
X131283Y102356D02*
D03*
X123261Y101435D02*
D03*
X122782Y101446D02*
D03*
X90073Y105440D02*
D03*
X119420Y94960D02*
D03*
X122227Y102971D02*
D03*
X123261Y101930D02*
D03*
X122303D02*
D03*
X122782D02*
D03*
X128920Y101605D02*
D03*
X128154Y102376D02*
D03*
X127780Y102700D02*
D03*
X127782Y102966D02*
D03*
X96424Y103682D02*
D03*
Y103315D02*
D03*
X118795Y104743D02*
D03*
Y104448D02*
D03*
X118350Y104743D02*
D03*
X118351Y104448D02*
D03*
X118340Y103854D02*
D03*
X118344Y103577D02*
D03*
X98240Y104660D02*
D03*
X96860Y104677D02*
D03*
X97320Y104671D02*
D03*
Y104993D02*
D03*
X97780Y104660D02*
D03*
X118340Y104151D02*
D03*
X96860Y104993D02*
D03*
X130292Y95195D02*
D03*
X132535Y95956D02*
D03*
X135681Y95978D02*
D03*
X136821Y96777D02*
D03*
Y97371D02*
D03*
X137116Y94410D02*
D03*
X101086Y95608D02*
D03*
X99940Y93440D02*
D03*
X101003D02*
D03*
X99233Y98824D02*
D03*
X100200D02*
D03*
X100680D02*
D03*
X99720D02*
D03*
X98760D02*
D03*
X98280D02*
D03*
X101042Y98251D02*
D03*
X97478Y92445D02*
D03*
X93850Y107248D02*
D03*
Y107816D02*
D03*
Y107532D02*
D03*
X93534D02*
D03*
X145945Y104560D02*
D03*
X130586Y95591D02*
D03*
X134585Y96870D02*
D03*
X130606Y97033D02*
D03*
X131780Y95563D02*
D03*
X132170Y95169D02*
D03*
X130586Y94804D02*
D03*
X136829Y95591D02*
D03*
X134683Y97827D02*
D03*
X136821Y92522D02*
D03*
X135681Y96377D02*
D03*
X130870Y97033D02*
D03*
X132170Y97191D02*
D03*
X131779Y97186D02*
D03*
X131568Y92862D02*
D03*
X135408Y94809D02*
D03*
X136833Y94410D02*
D03*
X136829Y94809D02*
D03*
X136833Y93222D02*
D03*
X137116D02*
D03*
X136821Y92872D02*
D03*
X135116Y95987D02*
D03*
X135408Y93229D02*
D03*
X135865Y92860D02*
D03*
X135408Y93621D02*
D03*
X135116Y94015D02*
D03*
X135458Y98137D02*
D03*
X135092D02*
D03*
X131656Y93406D02*
D03*
X135387Y95987D02*
D03*
X120420Y95776D02*
D03*
X123805Y101453D02*
D03*
X132125Y92173D02*
D03*
X131200Y97827D02*
D03*
X134688Y98137D02*
D03*
X136425Y92173D02*
D03*
X135116Y94409D02*
D03*
Y93229D02*
D03*
X135691D02*
D03*
X135408Y94015D02*
D03*
X135691D02*
D03*
Y94409D02*
D03*
Y94809D02*
D03*
Y95588D02*
D03*
X134891Y96552D02*
D03*
X133897Y96870D02*
D03*
X134881D02*
D03*
Y97171D02*
D03*
X134290Y96870D02*
D03*
X134291Y97171D02*
D03*
X133897D02*
D03*
X135269Y92860D02*
D03*
X134678D02*
D03*
X134088D02*
D03*
X133497D02*
D03*
X132710D02*
D03*
X132320D02*
D03*
X131924D02*
D03*
X130586Y95197D02*
D03*
Y95948D02*
D03*
X131784Y94213D02*
D03*
Y94606D02*
D03*
X131780Y95169D02*
D03*
X132170Y95563D02*
D03*
X132535D02*
D03*
X131780Y96350D02*
D03*
X132170D02*
D03*
Y96760D02*
D03*
X131779D02*
D03*
X127224Y102376D02*
D03*
X127503D02*
D03*
X127493Y102966D02*
D03*
X127224D02*
D03*
X126776Y103470D02*
D03*
X126470D02*
D03*
X126383Y102166D02*
D03*
X125973Y102560D02*
D03*
X125012Y101578D02*
D03*
X125300Y102570D02*
D03*
X124990Y102010D02*
D03*
Y102290D02*
D03*
X132853Y103652D02*
D03*
X131900Y104120D02*
D03*
X131630D02*
D03*
X131900Y104370D02*
D03*
X131630D02*
D03*
X133350Y102570D02*
D03*
X133585D02*
D03*
X133820D02*
D03*
Y102786D02*
D03*
X133585D02*
D03*
X133350D02*
D03*
X130190Y103049D02*
D03*
X130190Y103840D02*
D03*
X130190Y103576D02*
D03*
Y103313D02*
D03*
Y102786D02*
D03*
Y101400D02*
D03*
X120110Y103590D02*
D03*
X120770Y104370D02*
D03*
X120420Y95430D02*
D03*
X119650Y93160D02*
D03*
X120260Y94540D02*
D03*
X119999D02*
D03*
X119660D02*
D03*
X119248Y93899D02*
D03*
X119160Y91960D02*
D03*
Y92201D02*
D03*
X120270Y91010D02*
D03*
X119160Y92470D02*
D03*
X143770Y104630D02*
D03*
X144070D02*
D03*
Y104830D02*
D03*
X143770D02*
D03*
X139229Y104301D02*
D03*
X139897Y96377D02*
D03*
X139341Y95539D02*
D03*
X139350Y96690D02*
D03*
X143760Y95150D02*
D03*
X143400D02*
D03*
X142684Y95010D02*
D03*
X142384D02*
D03*
X142380Y95240D02*
D03*
X142080D02*
D03*
X144410Y96710D02*
D03*
X144030D02*
D03*
X143650D02*
D03*
X144410Y97030D02*
D03*
X144030D02*
D03*
X143650D02*
D03*
X142181Y92336D02*
D03*
X144260Y91350D02*
D03*
X144620Y90600D02*
D03*
Y90970D02*
D03*
Y91350D02*
D03*
X144340Y93410D02*
D03*
X144590Y93150D02*
D03*
Y92890D02*
D03*
Y93410D02*
D03*
X144090D02*
D03*
X139966Y91447D02*
D03*
Y91847D02*
D03*
X142370Y100280D02*
D03*
Y100050D02*
D03*
X142900Y100769D02*
D03*
X144170Y100987D02*
D03*
Y101447D02*
D03*
Y99350D02*
D03*
Y98890D02*
D03*
X141432Y97760D02*
D03*
Y98267D02*
D03*
X141190D02*
D03*
X141180Y97760D02*
D03*
X142052Y99300D02*
D03*
X146761Y105290D02*
D03*
X145350Y102875D02*
D03*
X146308Y98248D02*
D03*
Y99648D02*
D03*
Y98748D02*
D03*
X113681Y100582D02*
D03*
X109046Y99606D02*
D03*
X107722Y98570D02*
D03*
Y98321D02*
D03*
X110642Y98416D02*
D03*
X110409Y98420D02*
D03*
X110175D02*
D03*
X107490Y94080D02*
D03*
X108173D02*
D03*
X107836D02*
D03*
X107490Y94345D02*
D03*
Y94610D02*
D03*
X115282Y99235D02*
D03*
Y99958D02*
D03*
X113630Y101580D02*
D03*
X113940D02*
D03*
X114100Y101790D02*
D03*
X113790D02*
D03*
X113480D02*
D03*
X109215Y99817D02*
D03*
X109195Y100705D02*
D03*
X110796Y99916D02*
D03*
X108778Y99617D02*
D03*
X109300Y101100D02*
D03*
X109290Y101340D02*
D03*
X109513Y100878D02*
D03*
X109510Y101110D02*
D03*
X109140Y100970D02*
D03*
X114960Y100870D02*
D03*
X112768Y100830D02*
D03*
X112610Y100172D02*
D03*
X113073Y99436D02*
D03*
X113325D02*
D03*
X112344Y100172D02*
D03*
X115530Y97890D02*
D03*
X115230D02*
D03*
X114953Y98370D02*
D03*
Y98037D02*
D03*
X113720Y96910D02*
D03*
X113432D02*
D03*
Y96520D02*
D03*
X113144D02*
D03*
X112856D02*
D03*
X112220D02*
D03*
X114953Y97370D02*
D03*
Y97703D02*
D03*
X115604Y97050D02*
D03*
X115279D02*
D03*
X113140Y103257D02*
D03*
X111762Y103260D02*
D03*
X112865Y103257D02*
D03*
X112589D02*
D03*
X112314D02*
D03*
X112038D02*
D03*
X111340Y103260D02*
D03*
X111065D02*
D03*
X110790D02*
D03*
X110515D02*
D03*
X110240D02*
D03*
X107952D02*
D03*
X109460D02*
D03*
X108500D02*
D03*
X108200D02*
D03*
X112342Y100684D02*
D03*
X112086D02*
D03*
X111574Y100428D02*
D03*
X112086D02*
D03*
X111830D02*
D03*
X112086Y100172D02*
D03*
X111574Y99148D02*
D03*
X112086Y98893D02*
D03*
X112086Y99404D02*
D03*
Y99660D02*
D03*
X111830Y99148D02*
D03*
X110038D02*
D03*
X111318D02*
D03*
X111062Y100172D02*
D03*
X110806Y100428D02*
D03*
X111062Y100428D02*
D03*
X111005Y94168D02*
D03*
X111000Y93900D02*
D03*
X111235Y93718D02*
D03*
X111558D02*
D03*
X111882D02*
D03*
X112195D02*
D03*
X111885Y94168D02*
D03*
X114929Y96022D02*
D03*
X115330Y96020D02*
D03*
Y95770D02*
D03*
X115732Y96020D02*
D03*
Y95770D02*
D03*
X116133Y96020D02*
D03*
Y95770D02*
D03*
X112005Y95021D02*
D03*
X112000Y92443D02*
D03*
X111840Y93103D02*
D03*
X116720Y92920D02*
D03*
Y93200D02*
D03*
X116298Y92920D02*
D03*
Y93200D02*
D03*
X115876Y92920D02*
D03*
Y93200D02*
D03*
X115453Y92920D02*
D03*
Y93200D02*
D03*
X111807Y91140D02*
D03*
X111488D02*
D03*
X111170D02*
D03*
X111040Y91365D02*
D03*
Y91610D02*
D03*
X101947Y96145D02*
D03*
X104080Y95000D02*
D03*
X104076Y95601D02*
D03*
X97905Y98824D02*
D03*
X100380Y97950D02*
D03*
X100030D02*
D03*
X99600D02*
D03*
X99260D02*
D03*
X98830D02*
D03*
X98400D02*
D03*
X97820Y94890D02*
D03*
X96405Y95686D02*
D03*
X96570Y96670D02*
D03*
X99570Y103210D02*
D03*
X96491Y102157D02*
D03*
X97984Y101524D02*
D03*
X103040Y104967D02*
D03*
X104230Y103960D02*
D03*
X103190D02*
D03*
X103435D02*
D03*
X103680D02*
D03*
X103435Y103660D02*
D03*
X103190D02*
D03*
X102310D02*
D03*
X102555D02*
D03*
X102800D02*
D03*
Y103960D02*
D03*
X102555D02*
D03*
X102310D02*
D03*
X95116Y106450D02*
D03*
X93850Y108893D02*
D03*
X94170D02*
D03*
X94630D02*
D03*
X94640Y107816D02*
D03*
X94950D02*
D03*
X90080Y110790D02*
D03*
X90390D02*
D03*
X90680Y112040D02*
D03*
X91200Y108820D02*
D03*
Y109570D02*
D03*
X89794Y104309D02*
D03*
X89537Y104310D02*
D03*
X89280D02*
D03*
X88060Y105380D02*
D03*
X87790D02*
D03*
X87535Y105870D02*
D03*
X87280D02*
D03*
X87535Y105625D02*
D03*
X87280D02*
D03*
Y105380D02*
D03*
X87535D02*
D03*
X90130Y108040D02*
D03*
X88270Y106610D02*
D03*
Y106370D02*
D03*
Y107780D02*
D03*
Y107540D02*
D03*
X90940Y107800D02*
D03*
X90130Y108260D02*
D03*
X90364Y108409D02*
D03*
X90624Y108410D02*
D03*
X92219Y107830D02*
D03*
X91420Y106440D02*
D03*
X91410Y102760D02*
D03*
X94130Y103660D02*
D03*
X93860D02*
D03*
X93590D02*
D03*
X94130Y103900D02*
D03*
X93860D02*
D03*
X93590D02*
D03*
X92380Y102750D02*
D03*
X91929Y103830D02*
D03*
X91260D02*
D03*
X91590Y100220D02*
D03*
Y100470D02*
D03*
X92940Y97890D02*
D03*
X91820Y98420D02*
D03*
X91830Y100990D02*
D03*
X91820Y101940D02*
D03*
X91825Y101455D02*
D03*
X91830Y99620D02*
D03*
X91824Y97890D02*
D03*
X91200Y95500D02*
D03*
X89610Y96021D02*
D03*
X92150Y96150D02*
D03*
X89900Y96950D02*
D03*
X90201Y95249D02*
D03*
X89950Y94200D02*
D03*
X93650Y94850D02*
D03*
X91650Y94400D02*
D03*
X91200Y93500D02*
D03*
D269*
X129990Y93952D02*
D03*
X129653D02*
D03*
X129678Y95646D02*
D03*
X129673Y95404D02*
D03*
X129540Y97310D02*
D03*
X129796D02*
D03*
X128464Y98201D02*
D03*
X127697Y96407D02*
D03*
X129794Y92228D02*
D03*
X130066D02*
D03*
X131229Y91974D02*
D03*
X130275D02*
D03*
X130911D02*
D03*
X128208Y92569D02*
D03*
X129980Y96250D02*
D03*
X129221Y96143D02*
D03*
X125880Y99120D02*
D03*
Y98780D02*
D03*
X125520Y99120D02*
D03*
Y98780D02*
D03*
X125130D02*
D03*
Y99120D02*
D03*
X124770Y98780D02*
D03*
Y99120D02*
D03*
X129653Y93081D02*
D03*
Y93337D02*
D03*
X129232Y92825D02*
D03*
X128976Y93081D02*
D03*
X126929Y97431D02*
D03*
X129582Y98560D02*
D03*
X123346Y96152D02*
D03*
X124882Y95640D02*
D03*
X128976Y96152D02*
D03*
X127697Y95640D02*
D03*
X124882Y94360D02*
D03*
X124626Y93081D02*
D03*
Y95384D02*
D03*
X123346Y93337D02*
D03*
X123346Y92825D02*
D03*
Y92569D02*
D03*
X122834Y91801D02*
D03*
X122578Y92313D02*
D03*
X122054Y91801D02*
D03*
X122323Y91801D02*
D03*
X123090Y92825D02*
D03*
X123602Y93337D02*
D03*
X122323Y93081D02*
D03*
X128720Y95384D02*
D03*
X128976Y91801D02*
D03*
X128464Y96407D02*
D03*
X128469Y96142D02*
D03*
X127441Y96407D02*
D03*
X127441Y97943D02*
D03*
X127697D02*
D03*
Y96919D02*
D03*
X121682Y92055D02*
D03*
X121350Y94128D02*
D03*
X122066Y93081D02*
D03*
X123858Y95640D02*
D03*
X124114D02*
D03*
X126929Y96407D02*
D03*
X125137Y96663D02*
D03*
X127441Y96919D02*
D03*
X127952Y97175D02*
D03*
X128290Y98780D02*
D03*
Y99120D02*
D03*
X128000Y98780D02*
D03*
Y99120D02*
D03*
X128208Y97175D02*
D03*
X127952Y96663D02*
D03*
X128464Y97431D02*
D03*
X126240Y99120D02*
D03*
Y98780D02*
D03*
X123090Y91801D02*
D03*
X122834Y91289D02*
D03*
Y91545D02*
D03*
X124114Y95384D02*
D03*
Y92313D02*
D03*
X122066Y93920D02*
D03*
X124372Y94614D02*
D03*
X122066Y93593D02*
D03*
X123090Y94107D02*
D03*
X123602Y94104D02*
D03*
X122323Y95128D02*
D03*
X123858Y94872D02*
D03*
X123858Y94616D02*
D03*
X123602D02*
D03*
X123352Y95128D02*
D03*
X123090D02*
D03*
X122834D02*
D03*
X122578D02*
D03*
X123346Y94104D02*
D03*
X123856Y93848D02*
D03*
X123858Y95128D02*
D03*
X122233Y92097D02*
D03*
X122323Y91289D02*
D03*
X122834Y92313D02*
D03*
X121961Y92657D02*
D03*
X129735Y99313D02*
D03*
X124626Y93337D02*
D03*
X124370Y94104D02*
D03*
X126673Y95384D02*
D03*
X122834Y93337D02*
D03*
X123346Y91801D02*
D03*
X124114Y94104D02*
D03*
X123346Y94616D02*
D03*
X126840Y98780D02*
D03*
X129100Y99320D02*
D03*
X129415D02*
D03*
X126673Y97687D02*
D03*
X126550Y98780D02*
D03*
X126417Y97687D02*
D03*
Y97431D02*
D03*
X126673Y97431D02*
D03*
X126673Y97175D02*
D03*
X128720Y95128D02*
D03*
X128464Y94360D02*
D03*
X129990Y94358D02*
D03*
X128208Y94360D02*
D03*
X129231Y95127D02*
D03*
X128966Y95384D02*
D03*
X129673Y96250D02*
D03*
X128976Y95896D02*
D03*
X128720Y94872D02*
D03*
Y93337D02*
D03*
X129793Y92437D02*
D03*
X129552D02*
D03*
X128208Y93081D02*
D03*
X126929Y97943D02*
D03*
X127440Y97431D02*
D03*
X126929Y97175D02*
D03*
X126673Y96919D02*
D03*
X126929D02*
D03*
X127710Y98780D02*
D03*
Y99120D02*
D03*
X127420Y98780D02*
D03*
Y99120D02*
D03*
X127130D02*
D03*
X126840D02*
D03*
X127697Y97680D02*
D03*
X124114Y96407D02*
D03*
X123858D02*
D03*
X123602D02*
D03*
Y96152D02*
D03*
X129232Y93593D02*
D03*
X129231Y94872D02*
D03*
X129980Y95948D02*
D03*
X129673D02*
D03*
X129518Y94872D02*
D03*
X129653Y94360D02*
D03*
X129232Y93848D02*
D03*
X128976Y93337D02*
D03*
X128464Y92313D02*
D03*
X128208Y92825D02*
D03*
X128976Y92569D02*
D03*
X127952Y95640D02*
D03*
X129488Y97943D02*
D03*
X129735Y98980D02*
D03*
X129415D02*
D03*
X129232Y97943D02*
D03*
X129100Y98980D02*
D03*
X128976Y97943D02*
D03*
X128720Y97687D02*
D03*
X128976Y92313D02*
D03*
X128464Y97687D02*
D03*
X128720Y92569D02*
D03*
X122834Y92825D02*
D03*
X122323Y93593D02*
D03*
X123602Y92313D02*
D03*
X126550Y99120D02*
D03*
X128208Y97431D02*
D03*
X123090Y92569D02*
D03*
X122323Y94872D02*
D03*
X124114Y91801D02*
D03*
X128976Y93593D02*
D03*
X124114Y92057D02*
D03*
X128976Y93848D02*
D03*
X123090Y93337D02*
D03*
X128976Y94360D02*
D03*
X128464Y93081D02*
D03*
X127952Y96919D02*
D03*
X128464Y93337D02*
D03*
X128208Y93337D02*
D03*
X127441Y97175D02*
D03*
X127952Y93337D02*
D03*
X124370Y92569D02*
D03*
X127697Y93337D02*
D03*
X124114Y93081D02*
D03*
X124114Y92825D02*
D03*
X128208Y95384D02*
D03*
Y95128D02*
D03*
X123858Y93337D02*
D03*
X127952Y95128D02*
D03*
X127697Y93593D02*
D03*
X125137Y93081D02*
D03*
X127697Y95384D02*
D03*
X127185Y96407D02*
D03*
X127441Y95896D02*
D03*
X127697Y93848D02*
D03*
X124114D02*
D03*
X127697Y94104D02*
D03*
Y95128D02*
D03*
X124114Y94616D02*
D03*
X124626Y96152D02*
D03*
X127441Y93848D02*
D03*
X124626D02*
D03*
X126417Y96407D02*
D03*
X125137D02*
D03*
X127441Y94104D02*
D03*
Y95128D02*
D03*
Y94616D02*
D03*
X124882Y95896D02*
D03*
X124626Y94616D02*
D03*
X126929Y95640D02*
D03*
X125137Y95896D02*
D03*
X126673Y93848D02*
D03*
X125137D02*
D03*
X126929Y95384D02*
D03*
X125393Y93848D02*
D03*
X126161Y95896D02*
D03*
X125649D02*
D03*
X126929Y95128D02*
D03*
X126673Y95640D02*
D03*
X125137D02*
D03*
X126673Y94104D02*
D03*
Y94360D02*
D03*
X125137D02*
D03*
X126161Y95640D02*
D03*
X126673Y95128D02*
D03*
X125649Y95640D02*
D03*
X126673Y94616D02*
D03*
X125649Y94360D02*
D03*
X125393Y94360D02*
D03*
X126161Y95384D02*
D03*
M02*
