G04*
G04 #@! TF.GenerationSoftware,Altium Limited,Altium Designer,20.0.13 (296)*
G04*
G04 Layer_Color=32896*
%FSLAX24Y24*%
%MOIN*%
G70*
G01*
G75*
%ADD10C,0.0059*%
%ADD13C,0.0050*%
%ADD16C,0.0039*%
%ADD17C,0.0010*%
%ADD18C,0.0059*%
%ADD23C,0.0020*%
%ADD287C,0.0049*%
D10*
X88967Y107428D02*
X89204Y107191D01*
X88967Y107428D02*
X89214Y107675D01*
X88975Y107914D02*
X89214Y107675D01*
X88975Y107914D02*
X89161Y108100D01*
D13*
X88740Y106610D02*
Y107050D01*
X87840Y106610D02*
X88740D01*
X87840D02*
Y107050D01*
X88740D01*
Y105880D02*
Y106320D01*
X87840Y105880D02*
X88740D01*
X87840D02*
Y106320D01*
X88740D01*
X88502Y107161D02*
Y108101D01*
Y107161D02*
X89682D01*
Y108101D01*
X88502D02*
X89682D01*
X88502Y107631D02*
X89682D01*
D16*
X89435Y109515D02*
Y111996D01*
X84711D02*
X89435D01*
X84711Y109515D02*
Y111996D01*
Y109515D02*
X89435D01*
D17*
X87825Y105602D02*
X88258D01*
Y105838D01*
X87825D02*
X88258D01*
X87825Y105602D02*
Y105838D01*
X87820Y107082D02*
X88253D01*
Y107318D01*
X87820D02*
X88253D01*
X87820Y107082D02*
Y107318D01*
D18*
X131436Y103629D02*
Y103908D01*
X131830D01*
Y103629D02*
Y103908D01*
X131436Y103192D02*
Y103471D01*
Y103192D02*
X131830D01*
Y103471D01*
X132043Y103192D02*
X132437D01*
Y103908D01*
X132043D02*
X132437D01*
X132043Y103192D02*
Y103908D01*
X132853Y103890D02*
Y104170D01*
X133247D01*
Y103890D02*
Y104170D01*
X132853Y103453D02*
Y103733D01*
Y103453D02*
X133247D01*
Y103733D01*
X120463Y91102D02*
X120857D01*
Y91818D01*
X120463D02*
X120857D01*
X120463Y91102D02*
Y91818D01*
X120013Y91547D02*
Y91827D01*
X120407D01*
Y91547D02*
Y91827D01*
X120013Y91110D02*
Y91390D01*
Y91110D02*
X120407D01*
Y91390D01*
X126983Y96076D02*
Y96356D01*
X127376D01*
Y96076D02*
Y96356D01*
X126983Y95639D02*
Y95919D01*
Y95639D02*
X127376D01*
Y95919D01*
X126877Y95672D02*
Y95951D01*
X126483Y95672D02*
X126877D01*
X126483D02*
Y95951D01*
X126877Y96109D02*
Y96388D01*
X126483D02*
X126877D01*
X126483Y96109D02*
Y96388D01*
X124787Y101252D02*
Y101531D01*
X124393Y101252D02*
X124787D01*
X124393D02*
Y101531D01*
X124787Y101689D02*
Y101968D01*
X124393D02*
X124787D01*
X124393Y101689D02*
Y101968D01*
X123923Y101252D02*
X124317D01*
Y101968D01*
X123923D02*
X124317D01*
X123923Y101252D02*
Y101968D01*
X125973Y103085D02*
Y103364D01*
X126367D01*
Y103085D02*
Y103364D01*
X125973Y102648D02*
Y102927D01*
Y102648D02*
X126367D01*
Y102927D01*
X125514Y103085D02*
Y103364D01*
X125908D01*
Y103085D02*
Y103364D01*
X125514Y102648D02*
Y102927D01*
Y102648D02*
X125908D01*
Y102927D01*
X125056Y103364D02*
X125449D01*
X125056Y102648D02*
Y103364D01*
Y102648D02*
X125449D01*
Y103364D01*
X124597Y103085D02*
Y103364D01*
X124991D01*
Y103085D02*
Y103364D01*
X124597Y102648D02*
Y102927D01*
Y102648D02*
X124991D01*
Y102927D01*
X124551Y102042D02*
Y102321D01*
X124158Y102042D02*
X124551D01*
X124158D02*
Y102321D01*
X124551Y102479D02*
Y102758D01*
X124158D02*
X124551D01*
X124158Y102479D02*
Y102758D01*
X138223Y103783D02*
X138617D01*
Y104500D01*
X138223D02*
X138617D01*
X138223Y103783D02*
Y104500D01*
X138673D02*
X139067D01*
X138673Y103783D02*
Y104500D01*
Y103783D02*
X139067D01*
Y104500D01*
X144053Y96180D02*
Y96459D01*
X144447D01*
Y96180D02*
Y96459D01*
X144053Y95743D02*
Y96022D01*
Y95743D02*
X144447D01*
Y96022D01*
X139847Y96180D02*
Y96460D01*
X139453Y96180D02*
X139847D01*
X139453D02*
Y96460D01*
X139847Y96617D02*
Y96897D01*
X139453D02*
X139847D01*
X139453Y96617D02*
Y96897D01*
X131022Y96779D02*
Y97058D01*
X131415D01*
Y96779D02*
Y97058D01*
X131022Y96342D02*
Y96621D01*
Y96342D02*
X131415D01*
Y96621D01*
X130373Y97033D02*
X130767D01*
Y97750D01*
X130373D02*
X130767D01*
X130373Y97033D02*
Y97750D01*
X131022Y97542D02*
Y97759D01*
X131376D01*
X131022Y97168D02*
X131376D01*
Y97542D02*
Y97759D01*
Y97168D02*
Y97385D01*
X131022Y97168D02*
Y97385D01*
X132117Y97282D02*
Y97561D01*
X131723Y97282D02*
X132117D01*
X131723D02*
Y97561D01*
X132117Y97719D02*
Y97998D01*
X131723D02*
X132117D01*
X131723Y97719D02*
Y97998D01*
X132933Y97601D02*
Y97817D01*
X133287D01*
X132933Y97227D02*
X133287D01*
Y97601D02*
Y97817D01*
Y97227D02*
Y97443D01*
X132933Y97227D02*
Y97443D01*
X134788Y96979D02*
Y97258D01*
X134394Y96979D02*
X134788D01*
X134394D02*
Y97258D01*
X134788Y97416D02*
Y97695D01*
X134394D02*
X134788D01*
X134394Y97416D02*
Y97695D01*
X134573Y95060D02*
Y95340D01*
X134967D01*
Y95060D02*
Y95340D01*
X134573Y94623D02*
Y94903D01*
Y94623D02*
X134967D01*
Y94903D01*
X134977Y93813D02*
Y94093D01*
X134583Y93813D02*
X134977D01*
X134583D02*
Y94093D01*
X134977Y94250D02*
Y94530D01*
X134583D02*
X134977D01*
X134583Y94250D02*
Y94530D01*
X132533Y92547D02*
Y92827D01*
X132927D01*
Y92547D02*
Y92827D01*
X132533Y92110D02*
Y92390D01*
Y92110D02*
X132927D01*
Y92390D01*
X128157Y93882D02*
Y94161D01*
X127763Y93882D02*
X128157D01*
X127763D02*
Y94161D01*
X128157Y94319D02*
Y94598D01*
X127763D02*
X128157D01*
X127763Y94319D02*
Y94598D01*
X127367Y93322D02*
Y93601D01*
X126973Y93322D02*
X127367D01*
X126973D02*
Y93601D01*
X127367Y93759D02*
Y94038D01*
X126973D02*
X127367D01*
X126973Y93759D02*
Y94038D01*
X126233Y93839D02*
Y94118D01*
X126627D01*
Y93839D02*
Y94118D01*
X126233Y93402D02*
Y93681D01*
Y93402D02*
X126627D01*
Y93681D01*
X124037Y91752D02*
Y92031D01*
X123643Y91752D02*
X124037D01*
X123643D02*
Y92031D01*
X124037Y92189D02*
Y92468D01*
X123643D02*
X124037D01*
X123643Y92189D02*
Y92468D01*
X123532Y93304D02*
X123926D01*
X123532Y92587D02*
Y93304D01*
Y92587D02*
X123926D01*
Y93304D01*
X124713Y93507D02*
Y93787D01*
X125107D01*
Y93507D02*
Y93787D01*
X124713Y93070D02*
Y93350D01*
Y93070D02*
X125107D01*
Y93350D01*
X124170Y93054D02*
Y93333D01*
X124564D01*
Y93054D02*
Y93333D01*
X124170Y92617D02*
Y92896D01*
Y92617D02*
X124564D01*
Y92896D01*
X125733Y94819D02*
Y95098D01*
X126127D01*
Y94819D02*
Y95098D01*
X125733Y94382D02*
Y94661D01*
Y94382D02*
X126127D01*
Y94661D01*
X125597Y94382D02*
Y94661D01*
X125203Y94382D02*
X125597D01*
X125203D02*
Y94661D01*
X125597Y94819D02*
Y95098D01*
X125203D02*
X125597D01*
X125203Y94819D02*
Y95098D01*
X125087Y94382D02*
Y94661D01*
X124693Y94382D02*
X125087D01*
X124693D02*
Y94661D01*
X125087Y94819D02*
Y95098D01*
X124693D02*
X125087D01*
X124693Y94819D02*
Y95098D01*
X124363Y95360D02*
X124757D01*
X124363Y94643D02*
Y95360D01*
Y94643D02*
X124757D01*
Y95360D01*
X123943Y95080D02*
Y95360D01*
X124337D01*
Y95080D02*
Y95360D01*
X123943Y94643D02*
Y94923D01*
Y94643D02*
X124337D01*
Y94923D01*
X125617Y95642D02*
Y95921D01*
X125223Y95642D02*
X125617D01*
X125223D02*
Y95921D01*
X125617Y96079D02*
Y96358D01*
X125223D02*
X125617D01*
X125223Y96079D02*
Y96358D01*
X126097Y95652D02*
Y95931D01*
X125703Y95652D02*
X126097D01*
X125703D02*
Y95931D01*
X126097Y96089D02*
Y96368D01*
X125703D02*
X126097D01*
X125703Y96089D02*
Y96368D01*
X126213Y96927D02*
Y97207D01*
X126607D01*
Y96927D02*
Y97207D01*
X126213Y96490D02*
Y96770D01*
Y96490D02*
X126607D01*
Y96770D01*
X126145Y96490D02*
Y96770D01*
X125751Y96490D02*
X126145D01*
X125751D02*
Y96770D01*
X126145Y96927D02*
Y97207D01*
X125751D02*
X126145D01*
X125751Y96927D02*
Y97207D01*
X125685Y96490D02*
Y96770D01*
X125291Y96490D02*
X125685D01*
X125291D02*
Y96770D01*
X125685Y96927D02*
Y97207D01*
X125291D02*
X125685D01*
X125291Y96927D02*
Y97207D01*
X125027Y96482D02*
Y96761D01*
X124633Y96482D02*
X125027D01*
X124633D02*
Y96761D01*
X125027Y96919D02*
Y97198D01*
X124633D02*
X125027D01*
X124633Y96919D02*
Y97198D01*
X124567Y96483D02*
Y96763D01*
X124173Y96483D02*
X124567D01*
X124173D02*
Y96763D01*
X124567Y96920D02*
Y97200D01*
X124173D02*
X124567D01*
X124173Y96920D02*
Y97200D01*
X121543Y96807D02*
Y97087D01*
X121937D01*
Y96807D02*
Y97087D01*
X121543Y96370D02*
Y96650D01*
Y96370D02*
X121937D01*
Y96650D01*
X120697Y93755D02*
Y93971D01*
X120343Y93755D02*
X120697D01*
X120343Y94345D02*
X120697D01*
X120343Y93755D02*
Y93971D01*
Y94129D02*
Y94345D01*
X120697Y94129D02*
Y94345D01*
X120259Y93681D02*
Y93961D01*
X119865Y93681D02*
X120259D01*
X119865D02*
Y93961D01*
X120259Y94118D02*
Y94398D01*
X119865D02*
X120259D01*
X119865Y94118D02*
Y94398D01*
X119403Y94109D02*
Y94388D01*
X119797D01*
Y94109D02*
Y94388D01*
X119403Y93672D02*
Y93951D01*
Y93672D02*
X119797D01*
Y93951D01*
X113777Y100622D02*
Y100901D01*
X113383Y100622D02*
X113777D01*
X113383D02*
Y100901D01*
X113777Y101059D02*
Y101338D01*
X113383D02*
X113777D01*
X113383Y101059D02*
Y101338D01*
X113307Y100629D02*
Y100909D01*
X112913Y100629D02*
X113307D01*
X112913D02*
Y100909D01*
X113307Y101066D02*
Y101346D01*
X112913D02*
X113307D01*
X112913Y101066D02*
Y101346D01*
X112657Y101612D02*
Y101891D01*
X112263Y101612D02*
X112657D01*
X112263D02*
Y101891D01*
X112657Y102049D02*
Y102328D01*
X112263D02*
X112657D01*
X112263Y102049D02*
Y102328D01*
X111363Y101537D02*
X111757D01*
X111363Y100820D02*
Y101537D01*
Y100820D02*
X111757D01*
Y101537D01*
X112203Y101612D02*
Y101891D01*
X111809Y101612D02*
X112203D01*
X111809D02*
Y101891D01*
X112203Y102049D02*
Y102328D01*
X111809D02*
X112203D01*
X111809Y102049D02*
Y102328D01*
X111355Y102049D02*
Y102328D01*
X111749D01*
Y102049D02*
Y102328D01*
X111355Y101612D02*
Y101891D01*
Y101612D02*
X111749D01*
Y101891D01*
X110901Y101612D02*
X111295D01*
Y102328D01*
X110901D02*
X111295D01*
X110901Y101612D02*
Y102328D01*
X110447Y101612D02*
X110841D01*
Y102328D01*
X110447D02*
X110841D01*
X110447Y101612D02*
Y102328D01*
X110097Y99836D02*
Y100115D01*
X109703Y99836D02*
X110097D01*
X109703D02*
Y100115D01*
X110097Y100273D02*
Y100552D01*
X109703D02*
X110097D01*
X109703Y100273D02*
Y100552D01*
X110132Y99941D02*
X110526D01*
Y100657D01*
X110132D02*
X110526D01*
X110132Y99941D02*
Y100657D01*
X111537Y99692D02*
Y99971D01*
X111143Y99692D02*
X111537D01*
X111143D02*
Y99971D01*
X111537Y100129D02*
Y100408D01*
X111143D02*
X111537D01*
X111143Y100129D02*
Y100408D01*
X112363Y98367D02*
Y98647D01*
X112757D01*
Y98367D02*
Y98647D01*
X112363Y97930D02*
Y98210D01*
Y97930D02*
X112757D01*
Y98210D01*
X111868Y98367D02*
Y98647D01*
X112262D01*
Y98367D02*
Y98647D01*
X111868Y97930D02*
Y98210D01*
Y97930D02*
X112262D01*
Y98210D01*
X111373Y97930D02*
X111767D01*
Y98647D01*
X111373D02*
X111767D01*
X111373Y97930D02*
Y98647D01*
X110753Y98829D02*
Y99108D01*
X111147D01*
Y98829D02*
Y99108D01*
X110753Y98392D02*
Y98671D01*
Y98392D02*
X111147D01*
Y98671D01*
X110150Y97535D02*
Y98251D01*
X110544D01*
Y97535D02*
Y98251D01*
X110150Y97535D02*
X110544D01*
X110603D02*
X110997D01*
Y98251D01*
X110603D02*
X110997D01*
X110603Y97535D02*
Y98251D01*
X102513Y104597D02*
Y104877D01*
X102907D01*
Y104597D02*
Y104877D01*
X102513Y104160D02*
Y104440D01*
Y104160D02*
X102907D01*
Y104440D01*
X96663Y104616D02*
X97057D01*
X96663Y103899D02*
Y104616D01*
Y103899D02*
X97057D01*
Y104616D01*
X97124Y104610D02*
X97517D01*
X97124Y103893D02*
Y104610D01*
Y103893D02*
X97517D01*
Y104610D01*
X100523Y102927D02*
Y103144D01*
X100877D01*
X100523Y102553D02*
X100877D01*
Y102927D02*
Y103144D01*
Y102553D02*
Y102770D01*
X100523Y102553D02*
Y102770D01*
X100530Y93142D02*
X100924D01*
Y92426D02*
Y93142D01*
X100530Y92426D02*
X100924D01*
X100530D02*
Y93142D01*
X100070Y93144D02*
X100464D01*
Y92427D02*
Y93144D01*
X100070Y92427D02*
X100464D01*
X100070D02*
Y93144D01*
X98083Y99618D02*
X98477D01*
X98083Y98902D02*
Y99618D01*
Y98902D02*
X98477D01*
Y99618D01*
X98563D02*
X98957D01*
X98563Y98902D02*
Y99618D01*
Y98902D02*
X98957D01*
Y99618D01*
X99523D02*
X99917D01*
X99523Y98902D02*
Y99618D01*
Y98902D02*
X99917D01*
Y99618D01*
X100003D02*
X100397D01*
X100003Y98902D02*
Y99618D01*
Y98902D02*
X100397D01*
Y99618D01*
X100483D02*
X100877D01*
X100483Y98902D02*
Y99618D01*
Y98902D02*
X100877D01*
Y99618D01*
X100483Y98033D02*
X100877D01*
Y98750D01*
X100483D02*
X100877D01*
X100483Y98033D02*
Y98750D01*
X100003Y98033D02*
X100397D01*
Y98750D01*
X100003D02*
X100397D01*
X100003Y98033D02*
Y98750D01*
X99523Y98033D02*
X99917D01*
Y98750D01*
X99523D02*
X99917D01*
X99523Y98033D02*
Y98750D01*
X99043Y98033D02*
X99437D01*
Y98750D01*
X99043D02*
X99437D01*
X99043Y98033D02*
Y98750D01*
X98563Y98033D02*
X98957D01*
Y98750D01*
X98563D02*
X98957D01*
X98563Y98033D02*
Y98750D01*
X98083Y98033D02*
X98477D01*
Y98750D01*
X98083D02*
X98477D01*
X98083Y98033D02*
Y98750D01*
X91423Y95089D02*
Y95368D01*
X91817D01*
Y95089D02*
Y95368D01*
X91423Y94652D02*
Y94931D01*
Y94652D02*
X91817D01*
Y94931D01*
X91003Y95368D02*
X91397D01*
X91003Y94652D02*
Y95368D01*
Y94652D02*
X91397D01*
Y95368D01*
X92887Y102947D02*
X93280D01*
X92887Y102230D02*
Y102947D01*
Y102230D02*
X93280D01*
Y102947D01*
X92835Y102230D02*
Y102510D01*
X92442Y102230D02*
X92835D01*
X92442D02*
Y102510D01*
X92835Y102667D02*
Y102947D01*
X92442D02*
X92835D01*
X92442Y102667D02*
Y102947D01*
X91653Y102230D02*
X92047D01*
Y102947D01*
X91653D02*
X92047D01*
X91653Y102230D02*
Y102947D01*
X91929Y103770D02*
X92208D01*
Y103376D02*
Y103770D01*
X91929Y103376D02*
X92208D01*
X91492Y103770D02*
X91771D01*
X91492Y103376D02*
Y103770D01*
Y103376D02*
X91771D01*
X92533Y106357D02*
Y106637D01*
X92927D01*
Y106357D02*
Y106637D01*
X92533Y105920D02*
Y106200D01*
Y105920D02*
X92927D01*
Y106200D01*
X92078Y105920D02*
X92472D01*
Y106637D01*
X92078D02*
X92472D01*
X92078Y105920D02*
Y106637D01*
X91623D02*
X92017D01*
X91623Y105920D02*
Y106637D01*
Y105920D02*
X92017D01*
Y106637D01*
X90103Y105210D02*
X90497D01*
X90103Y104493D02*
Y105210D01*
Y104493D02*
X90497D01*
Y105210D01*
X89639Y104930D02*
Y105210D01*
X90033D01*
Y104930D02*
Y105210D01*
X89639Y104493D02*
Y104773D01*
Y104493D02*
X90033D01*
Y104773D01*
X89185Y105210D02*
X89579D01*
X89185Y104493D02*
Y105210D01*
Y104493D02*
X89579D01*
Y105210D01*
X88731Y104493D02*
X89125D01*
Y105210D01*
X88731D02*
X89125D01*
X88731Y104493D02*
Y105210D01*
X88671Y104493D02*
Y104773D01*
X88277Y104493D02*
X88671D01*
X88277D02*
Y104773D01*
X88671Y104930D02*
Y105210D01*
X88277D02*
X88671D01*
X88277Y104930D02*
Y105210D01*
X88217Y104493D02*
Y104773D01*
X87823Y104493D02*
X88217D01*
X87823D02*
Y104773D01*
X88217Y104930D02*
Y105210D01*
X87823D02*
X88217D01*
X87823Y104930D02*
Y105210D01*
X89460Y107183D02*
Y107577D01*
X88743D02*
X89460D01*
X88743Y107183D02*
Y107577D01*
Y107183D02*
X89460D01*
Y107683D02*
Y108077D01*
X88743D02*
X89460D01*
X88743Y107683D02*
Y108077D01*
Y107683D02*
X89460D01*
X90590Y111833D02*
Y112227D01*
X89873D02*
X90590D01*
X89873Y111833D02*
Y112227D01*
Y111833D02*
X90590D01*
X127111Y96489D02*
Y96883D01*
Y96489D02*
X127828D01*
Y96883D01*
X127111D02*
X127828D01*
X123580Y94163D02*
X123860D01*
X123580D02*
Y94557D01*
X123860D01*
X124017Y94163D02*
X124297D01*
Y94557D01*
X124017D02*
X124297D01*
X146562Y90797D02*
X147278D01*
Y90403D02*
Y90797D01*
X146562Y90403D02*
X147278D01*
X146562D02*
Y90797D01*
X146310Y90423D02*
Y90817D01*
X145593D02*
X146310D01*
X145593Y90423D02*
Y90817D01*
Y90423D02*
X146310D01*
X129771Y101595D02*
X130050D01*
Y101202D02*
Y101595D01*
X129771Y101202D02*
X130050D01*
X129334Y101595D02*
X129613D01*
X129334Y101202D02*
Y101595D01*
Y101202D02*
X129613D01*
X110152Y99483D02*
Y99877D01*
Y99483D02*
X110868D01*
Y99877D01*
X110152D02*
X110868D01*
X118580Y94293D02*
X118860D01*
X118580D02*
Y94687D01*
X118860D01*
X119017Y94293D02*
X119297D01*
Y94687D01*
X119017D02*
X119297D01*
X127889Y96367D02*
X128168D01*
Y95973D02*
Y96367D01*
X127889Y95973D02*
X128168D01*
X127452Y96367D02*
X127731D01*
X127452Y95973D02*
Y96367D01*
Y95973D02*
X127731D01*
X146697Y102436D02*
Y102830D01*
X145980Y102436D02*
X146697D01*
X145980D02*
Y102830D01*
X146697D01*
X122982Y95663D02*
X123261D01*
X122982D02*
Y96057D01*
X123261D01*
X123419Y95663D02*
X123698D01*
Y96057D01*
X123419D02*
X123698D01*
X123759Y95557D02*
X124038D01*
Y95163D02*
Y95557D01*
X123759Y95163D02*
X124038D01*
X123322Y95557D02*
X123601D01*
X123322Y95163D02*
Y95557D01*
Y95163D02*
X123601D01*
X125412Y95193D02*
X125691D01*
X125412D02*
Y95587D01*
X125691D01*
X125849Y95193D02*
X126128D01*
Y95587D01*
X125849D02*
X126128D01*
X125129D02*
X125408D01*
Y95193D02*
Y95587D01*
X125129Y95193D02*
X125408D01*
X124692Y95587D02*
X124971D01*
X124692Y95193D02*
Y95587D01*
Y95193D02*
X124971D01*
X125639Y93757D02*
X125919D01*
Y93363D02*
Y93757D01*
X125639Y93363D02*
X125919D01*
X125202Y93757D02*
X125482D01*
X125202Y93363D02*
Y93757D01*
Y93363D02*
X125482D01*
X125708Y94282D02*
X125988D01*
Y93888D02*
Y94282D01*
X125708Y93888D02*
X125988D01*
X125271Y94282D02*
X125551D01*
X125271Y93888D02*
Y94282D01*
Y93888D02*
X125551D01*
X124500Y93893D02*
X124780D01*
X124500D02*
Y94287D01*
X124780D01*
X124937Y93893D02*
X125217D01*
Y94287D01*
X124937D02*
X125217D01*
X126203Y94653D02*
X126483D01*
X126203D02*
Y95047D01*
X126483D01*
X126640Y94653D02*
X126920D01*
Y95047D01*
X126640D02*
X126920D01*
X127389Y95587D02*
X127668D01*
Y95193D02*
Y95587D01*
X127389Y95193D02*
X127668D01*
X126952Y95587D02*
X127231D01*
X126952Y95193D02*
Y95587D01*
Y95193D02*
X127231D01*
X127400Y96915D02*
Y97194D01*
X127006Y96915D02*
X127400D01*
X127006D02*
Y97194D01*
X127400Y97352D02*
Y97631D01*
X127006D02*
X127400D01*
X127006Y97352D02*
Y97631D01*
X124390Y93757D02*
X124670D01*
Y93363D02*
Y93757D01*
X124390Y93363D02*
X124670D01*
X123953Y93757D02*
X124233D01*
X123953Y93363D02*
Y93757D01*
Y93363D02*
X124233D01*
X123870Y95963D02*
X124150D01*
X123870D02*
Y96357D01*
X124150D01*
X124307Y95963D02*
X124587D01*
Y96357D01*
X124307D02*
X124587D01*
X124172Y91693D02*
X124888D01*
X124172D02*
Y92087D01*
X124888D01*
Y91693D02*
Y92087D01*
X124172Y91233D02*
X124888D01*
X124172D02*
Y91627D01*
X124888D01*
Y91233D02*
Y91627D01*
X124172Y92153D02*
X124451D01*
X124172D02*
Y92547D01*
X124451D01*
X124609Y92153D02*
X124888D01*
Y92547D01*
X124609D02*
X124888D01*
X125202Y92903D02*
X125482D01*
X125202D02*
Y93297D01*
X125482D01*
X125639Y92903D02*
X125919D01*
Y93297D01*
X125639D02*
X125919D01*
X121912Y93973D02*
X122191D01*
X121912D02*
Y94367D01*
X122191D01*
X122349Y93973D02*
X122628D01*
Y94367D01*
X122349D02*
X122628D01*
X122112Y94443D02*
X122391D01*
X122112D02*
Y94837D01*
X122391D01*
X122549Y94443D02*
X122828D01*
Y94837D01*
X122549D02*
X122828D01*
X134889Y92463D02*
X135105D01*
X134889Y92817D02*
X135105D01*
X134515D02*
X134731D01*
X135105Y92463D02*
Y92817D01*
X134515Y92463D02*
Y92817D01*
Y92463D02*
X134731D01*
X127992Y95827D02*
X128708D01*
Y95433D02*
Y95827D01*
X127992Y95433D02*
X128708D01*
X127992D02*
Y95827D01*
X127222Y92293D02*
X127938D01*
X127222D02*
Y92687D01*
X127938D01*
Y92293D02*
Y92687D01*
X127192Y92753D02*
X127908D01*
X127192D02*
Y93147D01*
X127908D01*
Y92753D02*
Y93147D01*
X130702Y92693D02*
X130981D01*
X130702D02*
Y93087D01*
X130981D01*
X131139Y92693D02*
X131418D01*
Y93087D01*
X131139D02*
X131418D01*
X135900Y91653D02*
X136180D01*
X135900D02*
Y92047D01*
X136180D01*
X136337Y91653D02*
X136617D01*
Y92047D01*
X136337D02*
X136617D01*
X131942Y98387D02*
X132658D01*
Y97993D02*
Y98387D01*
X131942Y97993D02*
X132658D01*
X131942D02*
Y98387D01*
X129522Y94787D02*
X130238D01*
Y94393D02*
Y94787D01*
X129522Y94393D02*
X130238D01*
X129522D02*
Y94787D01*
Y94853D02*
X130238D01*
X129522D02*
Y95247D01*
X130238D01*
Y94853D02*
Y95247D01*
X126960Y94183D02*
X127240D01*
X126960D02*
Y94577D01*
X127240D01*
X127397Y94183D02*
X127677D01*
Y94577D01*
X127397D02*
X127677D01*
X131319Y94783D02*
X131598D01*
Y94389D02*
Y94783D01*
X131319Y94389D02*
X131598D01*
X130882Y94783D02*
X131161D01*
X130882Y94389D02*
Y94783D01*
Y94389D02*
X131161D01*
X148110Y104457D02*
X148390D01*
Y104063D02*
Y104457D01*
X148110Y104063D02*
X148390D01*
X147673Y104457D02*
X147953D01*
X147673Y104063D02*
Y104457D01*
Y104063D02*
X147953D01*
X102970Y102593D02*
X103687D01*
X102970D02*
Y102987D01*
X103687D01*
Y102593D02*
Y102987D01*
X101470Y96347D02*
X101750D01*
Y95953D02*
Y96347D01*
X101470Y95953D02*
X101750D01*
X101033Y96347D02*
X101313D01*
X101033Y95953D02*
Y96347D01*
Y95953D02*
X101313D01*
X97369Y97837D02*
X97648D01*
Y97443D02*
Y97837D01*
X97369Y97443D02*
X97648D01*
X96932Y97837D02*
X97211D01*
X96932Y97443D02*
Y97837D01*
Y97443D02*
X97211D01*
X89873Y111368D02*
X90153D01*
X89873D02*
Y111762D01*
X90153D01*
X90310Y111368D02*
X90590D01*
Y111762D01*
X90310D02*
X90590D01*
X89873Y110903D02*
X90590D01*
X89873D02*
Y111297D01*
X90590D01*
Y110903D02*
Y111297D01*
X90680Y109633D02*
Y110027D01*
Y109633D02*
X91397D01*
Y110027D01*
X90680D02*
X91397D01*
X90680Y108873D02*
Y109267D01*
Y108873D02*
X91397D01*
Y109267D01*
X90680D02*
X91397D01*
X90137Y95583D02*
Y95977D01*
X89420D02*
X90137D01*
X89420Y95583D02*
Y95977D01*
Y95583D02*
X90137D01*
X118570Y95147D02*
X119287D01*
Y94753D02*
Y95147D01*
X118570Y94753D02*
X119287D01*
X118570D02*
Y95147D01*
X120070Y95215D02*
X120350D01*
Y94822D02*
Y95215D01*
X120070Y94822D02*
X120350D01*
X119633Y95215D02*
X119913D01*
X119633Y94822D02*
Y95215D01*
Y94822D02*
X119913D01*
X118570Y95663D02*
X118850D01*
X118570D02*
Y96057D01*
X118850D01*
X119007Y95663D02*
X119287D01*
Y96057D01*
X119007D02*
X119287D01*
X118310Y92077D02*
X119027D01*
Y91683D02*
Y92077D01*
X118310Y91683D02*
X119027D01*
X118310D02*
Y92077D01*
Y92133D02*
X118590D01*
X118310D02*
Y92527D01*
X118590D01*
X118747Y92133D02*
X119027D01*
Y92527D01*
X118747D02*
X119027D01*
X118310Y91233D02*
X119027D01*
X118310D02*
Y91627D01*
X119027D01*
Y91233D02*
Y91627D01*
X119310Y92133D02*
X119590D01*
X119310D02*
Y92527D01*
X119590D01*
X119747Y92133D02*
X120027D01*
Y92527D01*
X119747D02*
X120027D01*
X120092Y92133D02*
X120808D01*
X120092D02*
Y92527D01*
X120808D01*
Y92133D02*
Y92527D01*
X119007Y95602D02*
X119287D01*
Y95208D02*
Y95602D01*
X119007Y95208D02*
X119287D01*
X118570Y95602D02*
X118850D01*
X118570Y95208D02*
Y95602D01*
Y95208D02*
X118850D01*
X120070Y95671D02*
X120350D01*
Y95277D02*
Y95671D01*
X120070Y95277D02*
X120350D01*
X119633Y95671D02*
X119913D01*
X119633Y95277D02*
Y95671D01*
Y95277D02*
X119913D01*
X89412Y96487D02*
X90128D01*
Y96093D02*
Y96487D01*
X89412Y96093D02*
X90128D01*
X89412D02*
Y96487D01*
X92022Y107363D02*
X92738D01*
X92022D02*
Y107757D01*
X92738D01*
Y107363D02*
Y107757D01*
X91246Y107363D02*
X91963D01*
X91246D02*
Y107757D01*
X91963D01*
Y107363D02*
Y107757D01*
X90432Y107363D02*
X90711D01*
X90432D02*
Y107757D01*
X90711D01*
X90869Y107363D02*
X91148D01*
Y107757D01*
X90869D02*
X91148D01*
X90432Y107843D02*
X91148D01*
X90432D02*
Y108237D01*
X91148D01*
Y107843D02*
Y108237D01*
X92879Y103770D02*
X93158D01*
Y103376D02*
Y103770D01*
X92879Y103376D02*
X93158D01*
X92442Y103770D02*
X92721D01*
X92442Y103376D02*
Y103770D01*
Y103376D02*
X92721D01*
X107963Y95053D02*
X108680D01*
X107963D02*
Y95447D01*
X108680D01*
Y95053D02*
Y95447D01*
X109387Y95007D02*
X109667D01*
Y94613D02*
Y95007D01*
X109387Y94613D02*
X109667D01*
X108950Y95007D02*
X109230D01*
X108950Y94613D02*
Y95007D01*
Y94613D02*
X109230D01*
X109637Y99542D02*
Y99821D01*
X109243Y99542D02*
X109637D01*
X109243D02*
Y99821D01*
X109637Y99979D02*
Y100258D01*
X109243D02*
X109637D01*
X109243Y99979D02*
Y100258D01*
X109682Y97540D02*
Y98257D01*
X110076D01*
Y97540D02*
Y98257D01*
X109682Y97540D02*
X110076D01*
X110368Y98543D02*
Y98937D01*
X109652D02*
X110368D01*
X109652Y98543D02*
Y98937D01*
Y98543D02*
X110368D01*
X113170Y97447D02*
X113450D01*
X113170D02*
Y97841D01*
X113450D01*
X113607Y97447D02*
X113887D01*
Y97841D01*
X113607D02*
X113887D01*
X113170Y97903D02*
X113887D01*
X113170D02*
Y98297D01*
X113887D01*
Y97903D02*
Y98297D01*
X113170Y98753D02*
X113887D01*
Y98360D02*
Y98753D01*
X113170Y98360D02*
X113887D01*
X113170D02*
Y98753D01*
X114380Y97841D02*
X114660D01*
Y97447D02*
Y97841D01*
X114380Y97447D02*
X114660D01*
X113943Y97841D02*
X114223D01*
X113943Y97447D02*
Y97841D01*
Y97447D02*
X114223D01*
X109660Y101137D02*
X110377D01*
Y100743D02*
Y101137D01*
X109660Y100743D02*
X110377D01*
X109660D02*
Y101137D01*
X111584Y99685D02*
X112300D01*
X111584D02*
Y100078D01*
X112300D01*
Y99685D02*
Y100078D01*
X113132Y99867D02*
X113411D01*
Y99473D02*
Y99867D01*
X113132Y99473D02*
X113411D01*
X112695Y99867D02*
X112974D01*
X112695Y99473D02*
Y99867D01*
Y99473D02*
X112974D01*
X113132Y100354D02*
X113411D01*
Y99960D02*
Y100354D01*
X113132Y99960D02*
X113411D01*
X112695Y100354D02*
X112974D01*
X112695Y99960D02*
Y100354D01*
Y99960D02*
X112974D01*
X126510Y102134D02*
X126790D01*
Y101740D02*
Y102134D01*
X126510Y101740D02*
X126790D01*
X126073Y102134D02*
X126353D01*
X126073Y101740D02*
Y102134D01*
Y101740D02*
X126353D01*
X125191Y101993D02*
X125470D01*
X125191D02*
Y102387D01*
X125470D01*
X125628Y101993D02*
X125907D01*
Y102387D01*
X125628D02*
X125907D01*
X126270Y103603D02*
X126550D01*
X126270D02*
Y103997D01*
X126550D01*
X126707Y103603D02*
X126987D01*
Y103997D01*
X126707D02*
X126987D01*
X99722Y103033D02*
X100001D01*
X99722D02*
Y103427D01*
X100001D01*
X100159Y103033D02*
X100438D01*
Y103427D01*
X100159D02*
X100438D01*
X99722Y102553D02*
X100438D01*
X99722D02*
Y102947D01*
X100438D01*
Y102553D02*
Y102947D01*
X96930Y95603D02*
X97210D01*
X96930D02*
Y95997D01*
X97210D01*
X97367Y95603D02*
X97647D01*
Y95997D01*
X97367D02*
X97647D01*
X97369Y96457D02*
X97648D01*
Y96063D02*
Y96457D01*
X97369Y96063D02*
X97648D01*
X96932Y96457D02*
X97211D01*
X96932Y96063D02*
Y96457D01*
Y96063D02*
X97211D01*
X96930Y95143D02*
X97647D01*
X96930D02*
Y95537D01*
X97647D01*
Y95143D02*
Y95537D01*
X96930Y94683D02*
X97647D01*
X96930D02*
Y95077D01*
X97647D01*
Y94683D02*
Y95077D01*
X96932Y97377D02*
X97648D01*
Y96983D02*
Y97377D01*
X96932Y96983D02*
X97648D01*
X96932D02*
Y97377D01*
Y96523D02*
X97648D01*
X96932D02*
Y96917D01*
X97648D01*
Y96523D02*
Y96917D01*
X142002Y91913D02*
X142718D01*
X142002D02*
Y92307D01*
X142718D01*
Y91913D02*
Y92307D01*
X139072Y92027D02*
X139788D01*
Y91633D02*
Y92027D01*
X139072Y91633D02*
X139788D01*
X139072D02*
Y92027D01*
X145153Y102830D02*
X145870D01*
Y102436D02*
Y102830D01*
X145153Y102436D02*
X145870D01*
X145153D02*
Y102830D01*
Y103314D02*
X145870D01*
Y102920D02*
Y103314D01*
X145153Y102920D02*
X145870D01*
X145153D02*
Y103314D01*
X145980Y104767D02*
X146697D01*
X145980Y104373D02*
Y104767D01*
Y104373D02*
X146697D01*
Y104767D01*
X145980Y104280D02*
X146697D01*
X145980Y103886D02*
Y104280D01*
Y103886D02*
X146697D01*
Y104280D01*
X145980Y103797D02*
X146697D01*
X145980Y103403D02*
Y103797D01*
Y103403D02*
X146697D01*
Y103797D01*
X147672Y103603D02*
X148388D01*
Y103997D01*
X147672D02*
X148388D01*
X147672Y103603D02*
Y103997D01*
X145980Y103314D02*
X146697D01*
X145980Y102920D02*
Y103314D01*
Y102920D02*
X146697D01*
Y103314D01*
X145980Y102347D02*
X146697D01*
X145980Y101953D02*
Y102347D01*
Y101953D02*
X146697D01*
Y102347D01*
X94433Y106997D02*
Y107277D01*
X94827D01*
Y106997D02*
Y107277D01*
X94433Y106560D02*
Y106840D01*
Y106560D02*
X94827D01*
Y106840D01*
X95312Y106560D02*
Y107277D01*
X94919Y106560D02*
X95312D01*
X94919D02*
Y107277D01*
X95312D01*
X94422Y108489D02*
Y108768D01*
X94816D01*
Y108489D02*
Y108768D01*
X94422Y108052D02*
Y108331D01*
Y108052D02*
X94816D01*
Y108331D01*
X93847Y108052D02*
Y108331D01*
X93453Y108052D02*
X93847D01*
X93453D02*
Y108331D01*
X93847Y108489D02*
Y108768D01*
X93453D02*
X93847D01*
X93453Y108489D02*
Y108768D01*
X95300Y108052D02*
Y108768D01*
X94906Y108052D02*
X95300D01*
X94906D02*
Y108768D01*
X95300D01*
X94331Y108052D02*
Y108768D01*
X93938Y108052D02*
X94331D01*
X93938D02*
Y108768D01*
X94331D01*
X92077Y100519D02*
X92357D01*
Y100126D02*
Y100519D01*
X92077Y100126D02*
X92357D01*
X91640Y100519D02*
X91920D01*
X91640Y100126D02*
Y100519D01*
Y100126D02*
X91920D01*
X92423Y97983D02*
X93140D01*
X92423D02*
Y98377D01*
X93140D01*
Y97983D02*
Y98377D01*
X91642Y98433D02*
X92358D01*
X91642D02*
Y98827D01*
X92358D01*
Y98433D02*
Y98827D01*
X91642Y101031D02*
X92358D01*
X91642D02*
Y101424D01*
X92358D01*
Y101031D02*
Y101424D01*
X91640Y100578D02*
X92357D01*
X91640D02*
Y100972D01*
X92357D01*
Y100578D02*
Y100972D01*
X91642Y101483D02*
X92358D01*
X91642D02*
Y101877D01*
X92358D01*
Y101483D02*
Y101877D01*
X91640Y99673D02*
X92357D01*
X91640D02*
Y100067D01*
X92357D01*
Y99673D02*
Y100067D01*
X91642Y97983D02*
X92358D01*
X91642D02*
Y98377D01*
X92358D01*
Y97983D02*
Y98377D01*
X91642Y98883D02*
X92358D01*
X91642D02*
Y99277D01*
X92358D01*
Y98883D02*
Y99277D01*
D23*
X131585Y103730D02*
X131560Y103755D01*
Y103805D01*
X131585Y103830D01*
X131685D01*
X131710Y103805D01*
Y103755D01*
X131685Y103730D01*
X131710Y103580D02*
Y103680D01*
X131610Y103580D01*
X131585D01*
X131560Y103605D01*
Y103655D01*
X131585Y103680D01*
Y103530D02*
X131560Y103505D01*
Y103455D01*
X131585Y103430D01*
X131610D01*
X131635Y103455D01*
Y103480D01*
Y103455D01*
X131660Y103430D01*
X131685D01*
X131710Y103455D01*
Y103505D01*
X131685Y103530D01*
X131585Y103380D02*
X131560Y103355D01*
Y103305D01*
X131585Y103280D01*
X131610D01*
X131635Y103305D01*
X131660Y103280D01*
X131685D01*
X131710Y103305D01*
Y103355D01*
X131685Y103380D01*
X131660D01*
X131635Y103355D01*
X131610Y103380D01*
X131585D01*
X131635Y103355D02*
Y103305D01*
X132313Y103817D02*
X132163D01*
Y103742D01*
X132188Y103717D01*
X132238D01*
X132263Y103742D01*
Y103817D01*
Y103767D02*
X132313Y103717D01*
Y103667D02*
Y103617D01*
Y103642D01*
X132163D01*
X132188Y103667D01*
X132313Y103443D02*
Y103542D01*
X132213Y103443D01*
X132188D01*
X132163Y103468D01*
Y103517D01*
X132188Y103542D01*
X132163Y103293D02*
X132188Y103343D01*
X132238Y103393D01*
X132288D01*
X132313Y103368D01*
Y103318D01*
X132288Y103293D01*
X132263D01*
X132238Y103318D01*
Y103393D01*
X132995Y103990D02*
X132970Y104015D01*
Y104065D01*
X132995Y104090D01*
X133095D01*
X133120Y104065D01*
Y104015D01*
X133095Y103990D01*
X133120Y103840D02*
Y103940D01*
X133020Y103840D01*
X132995D01*
X132970Y103865D01*
Y103915D01*
X132995Y103940D01*
X133120Y103715D02*
X132970D01*
X133045Y103790D01*
Y103690D01*
X132995Y103640D02*
X132970Y103615D01*
Y103565D01*
X132995Y103540D01*
X133095D01*
X133120Y103565D01*
Y103615D01*
X133095Y103640D01*
X132995D01*
X120735Y91665D02*
X120585D01*
Y91590D01*
X120610Y91565D01*
X120660D01*
X120685Y91590D01*
Y91665D01*
Y91615D02*
X120735Y91565D01*
X120585Y91515D02*
Y91415D01*
X120610D01*
X120710Y91515D01*
X120735D01*
Y91265D02*
Y91365D01*
X120635Y91265D01*
X120610D01*
X120585Y91290D01*
Y91340D01*
X120610Y91365D01*
X120158Y91627D02*
X120133Y91652D01*
Y91702D01*
X120158Y91727D01*
X120258D01*
X120283Y91702D01*
Y91652D01*
X120258Y91627D01*
X120283Y91577D02*
Y91527D01*
Y91552D01*
X120133D01*
X120158Y91577D01*
Y91452D02*
X120133Y91427D01*
Y91377D01*
X120158Y91353D01*
X120183D01*
X120208Y91377D01*
X120233Y91353D01*
X120258D01*
X120283Y91377D01*
Y91427D01*
X120258Y91452D01*
X120233D01*
X120208Y91427D01*
X120183Y91452D01*
X120158D01*
X120208Y91427D02*
Y91377D01*
X120283Y91228D02*
X120133D01*
X120208Y91303D01*
Y91203D01*
X127128Y96157D02*
X127103Y96182D01*
Y96232D01*
X127128Y96257D01*
X127228D01*
X127253Y96232D01*
Y96182D01*
X127228Y96157D01*
X127253Y96107D02*
Y96057D01*
Y96082D01*
X127103D01*
X127128Y96107D01*
Y95982D02*
X127103Y95957D01*
Y95907D01*
X127128Y95883D01*
X127228D01*
X127253Y95907D01*
Y95957D01*
X127228Y95982D01*
X127128D01*
X127253Y95758D02*
X127103D01*
X127178Y95833D01*
Y95733D01*
X126630Y96135D02*
X126605Y96160D01*
Y96210D01*
X126630Y96235D01*
X126730D01*
X126755Y96210D01*
Y96160D01*
X126730Y96135D01*
X126605Y96085D02*
Y95985D01*
X126630D01*
X126730Y96085D01*
X126755D01*
X126630Y95935D02*
X126605Y95910D01*
Y95860D01*
X126630Y95835D01*
X126730D01*
X126755Y95860D01*
Y95910D01*
X126730Y95935D01*
X126630D01*
X124540Y101765D02*
X124515Y101790D01*
Y101840D01*
X124540Y101865D01*
X124640D01*
X124665Y101840D01*
Y101790D01*
X124640Y101765D01*
X124665Y101615D02*
Y101715D01*
X124565Y101615D01*
X124540D01*
X124515Y101640D01*
Y101690D01*
X124540Y101715D01*
X124665Y101490D02*
X124515D01*
X124590Y101565D01*
Y101465D01*
X124665Y101415D02*
Y101365D01*
Y101390D01*
X124515D01*
X124540Y101415D01*
X124193Y101877D02*
X124043D01*
Y101802D01*
X124068Y101777D01*
X124118D01*
X124143Y101802D01*
Y101877D01*
Y101827D02*
X124193Y101777D01*
Y101727D02*
Y101677D01*
Y101702D01*
X124043D01*
X124068Y101727D01*
X124193Y101503D02*
Y101602D01*
X124093Y101503D01*
X124068D01*
X124043Y101528D01*
Y101577D01*
X124068Y101602D01*
X124193Y101378D02*
X124043D01*
X124118Y101453D01*
Y101353D01*
X126115Y103186D02*
X126090Y103211D01*
Y103261D01*
X126115Y103286D01*
X126215D01*
X126240Y103261D01*
Y103211D01*
X126215Y103186D01*
X126240Y103036D02*
Y103136D01*
X126140Y103036D01*
X126115D01*
X126090Y103061D01*
Y103111D01*
X126115Y103136D01*
X126240Y102911D02*
X126090D01*
X126165Y102986D01*
Y102886D01*
X126115Y102836D02*
X126090Y102811D01*
Y102761D01*
X126115Y102736D01*
X126140D01*
X126165Y102761D01*
Y102786D01*
Y102761D01*
X126190Y102736D01*
X126215D01*
X126240Y102761D01*
Y102811D01*
X126215Y102836D01*
X125666Y103179D02*
X125641Y103204D01*
Y103254D01*
X125666Y103279D01*
X125766D01*
X125791Y103254D01*
Y103204D01*
X125766Y103179D01*
X125791Y103029D02*
Y103129D01*
X125691Y103029D01*
X125666D01*
X125641Y103054D01*
Y103104D01*
X125666Y103129D01*
X125791Y102904D02*
X125641D01*
X125716Y102979D01*
Y102879D01*
X125791Y102729D02*
Y102829D01*
X125691Y102729D01*
X125666D01*
X125641Y102754D01*
Y102804D01*
X125666Y102829D01*
X125325Y103272D02*
X125175D01*
Y103197D01*
X125200Y103172D01*
X125250D01*
X125275Y103197D01*
Y103272D01*
Y103222D02*
X125325Y103172D01*
Y103122D02*
Y103072D01*
Y103097D01*
X125175D01*
X125200Y103122D01*
X125325Y102897D02*
Y102997D01*
X125225Y102897D01*
X125200D01*
X125175Y102922D01*
Y102972D01*
X125200Y102997D01*
X125175Y102747D02*
Y102847D01*
X125250D01*
X125225Y102797D01*
Y102772D01*
X125250Y102747D01*
X125300D01*
X125325Y102772D01*
Y102822D01*
X125300Y102847D01*
X124745Y103180D02*
X124720Y103205D01*
Y103255D01*
X124745Y103280D01*
X124845D01*
X124870Y103255D01*
Y103205D01*
X124845Y103180D01*
X124870Y103030D02*
Y103130D01*
X124770Y103030D01*
X124745D01*
X124720Y103055D01*
Y103105D01*
X124745Y103130D01*
X124870Y102905D02*
X124720D01*
X124795Y102980D01*
Y102880D01*
X124720Y102730D02*
X124745Y102780D01*
X124795Y102830D01*
X124845D01*
X124870Y102805D01*
Y102755D01*
X124845Y102730D01*
X124820D01*
X124795Y102755D01*
Y102830D01*
X124300Y102580D02*
X124275Y102605D01*
Y102655D01*
X124300Y102680D01*
X124400D01*
X124425Y102655D01*
Y102605D01*
X124400Y102580D01*
X124425Y102430D02*
Y102530D01*
X124325Y102430D01*
X124300D01*
X124275Y102455D01*
Y102505D01*
X124300Y102530D01*
X124425Y102305D02*
X124275D01*
X124350Y102380D01*
Y102280D01*
X124425Y102155D02*
X124275D01*
X124350Y102230D01*
Y102130D01*
X138495Y104345D02*
X138345D01*
Y104270D01*
X138370Y104245D01*
X138420D01*
X138445Y104270D01*
Y104345D01*
Y104295D02*
X138495Y104245D01*
X138345Y104195D02*
Y104095D01*
X138370D01*
X138470Y104195D01*
X138495D01*
X138470Y104045D02*
X138495Y104020D01*
Y103970D01*
X138470Y103945D01*
X138370D01*
X138345Y103970D01*
Y104020D01*
X138370Y104045D01*
X138395D01*
X138420Y104020D01*
Y103945D01*
X138945Y104345D02*
X138795D01*
Y104270D01*
X138820Y104245D01*
X138870D01*
X138895Y104270D01*
Y104345D01*
Y104295D02*
X138945Y104245D01*
X138795Y104195D02*
Y104095D01*
X138820D01*
X138920Y104195D01*
X138945D01*
X138820Y104045D02*
X138795Y104020D01*
Y103970D01*
X138820Y103945D01*
X138845D01*
X138870Y103970D01*
X138895Y103945D01*
X138920D01*
X138945Y103970D01*
Y104020D01*
X138920Y104045D01*
X138895D01*
X138870Y104020D01*
X138845Y104045D01*
X138820D01*
X138870Y104020D02*
Y103970D01*
X144195Y96280D02*
X144170Y96305D01*
Y96355D01*
X144195Y96380D01*
X144295D01*
X144320Y96355D01*
Y96305D01*
X144295Y96280D01*
X144320Y96130D02*
Y96230D01*
X144220Y96130D01*
X144195D01*
X144170Y96155D01*
Y96205D01*
X144195Y96230D01*
X144170Y95980D02*
X144195Y96030D01*
X144245Y96080D01*
X144295D01*
X144320Y96055D01*
Y96005D01*
X144295Y95980D01*
X144270D01*
X144245Y96005D01*
Y96080D01*
X144195Y95930D02*
X144170Y95905D01*
Y95855D01*
X144195Y95830D01*
X144220D01*
X144245Y95855D01*
X144270Y95830D01*
X144295D01*
X144320Y95855D01*
Y95905D01*
X144295Y95930D01*
X144270D01*
X144245Y95905D01*
X144220Y95930D01*
X144195D01*
X144245Y95905D02*
Y95855D01*
X139595Y96710D02*
X139570Y96735D01*
Y96785D01*
X139595Y96810D01*
X139695D01*
X139720Y96785D01*
Y96735D01*
X139695Y96710D01*
X139720Y96560D02*
Y96660D01*
X139620Y96560D01*
X139595D01*
X139570Y96585D01*
Y96635D01*
X139595Y96660D01*
X139570Y96410D02*
X139595Y96460D01*
X139645Y96510D01*
X139695D01*
X139720Y96485D01*
Y96435D01*
X139695Y96410D01*
X139670D01*
X139645Y96435D01*
Y96510D01*
X139570Y96260D02*
X139595Y96310D01*
X139645Y96360D01*
X139695D01*
X139720Y96335D01*
Y96285D01*
X139695Y96260D01*
X139670D01*
X139645Y96285D01*
Y96360D01*
X131168Y96867D02*
X131143Y96892D01*
Y96942D01*
X131168Y96967D01*
X131268D01*
X131293Y96942D01*
Y96892D01*
X131268Y96867D01*
X131293Y96817D02*
Y96767D01*
Y96792D01*
X131143D01*
X131168Y96817D01*
Y96692D02*
X131143Y96667D01*
Y96617D01*
X131168Y96593D01*
X131193D01*
X131218Y96617D01*
Y96643D01*
Y96617D01*
X131243Y96593D01*
X131268D01*
X131293Y96617D01*
Y96667D01*
X131268Y96692D01*
X131168Y96543D02*
X131143Y96518D01*
Y96468D01*
X131168Y96443D01*
X131193D01*
X131218Y96468D01*
Y96493D01*
Y96468D01*
X131243Y96443D01*
X131268D01*
X131293Y96468D01*
Y96518D01*
X131268Y96543D01*
X130645Y97595D02*
X130495D01*
Y97520D01*
X130520Y97495D01*
X130570D01*
X130595Y97520D01*
Y97595D01*
Y97545D02*
X130645Y97495D01*
X130495Y97345D02*
Y97445D01*
X130570D01*
X130545Y97395D01*
Y97370D01*
X130570Y97345D01*
X130620D01*
X130645Y97370D01*
Y97420D01*
X130620Y97445D01*
X130520Y97295D02*
X130495Y97270D01*
Y97220D01*
X130520Y97195D01*
X130620D01*
X130645Y97220D01*
Y97270D01*
X130620Y97295D01*
X130520D01*
X131148Y97627D02*
X131123Y97652D01*
Y97702D01*
X131148Y97727D01*
X131248D01*
X131273Y97702D01*
Y97652D01*
X131248Y97627D01*
X131273Y97577D02*
Y97527D01*
Y97552D01*
X131123D01*
X131148Y97577D01*
X131273Y97378D02*
X131123D01*
X131198Y97452D01*
Y97353D01*
X131148Y97303D02*
X131123Y97278D01*
Y97228D01*
X131148Y97203D01*
X131173D01*
X131198Y97228D01*
X131223Y97203D01*
X131248D01*
X131273Y97228D01*
Y97278D01*
X131248Y97303D01*
X131223D01*
X131198Y97278D01*
X131173Y97303D01*
X131148D01*
X131198Y97278D02*
Y97228D01*
X131868Y97807D02*
X131843Y97832D01*
Y97882D01*
X131868Y97907D01*
X131968D01*
X131993Y97882D01*
Y97832D01*
X131968Y97807D01*
X131993Y97757D02*
Y97707D01*
Y97732D01*
X131843D01*
X131868Y97757D01*
Y97632D02*
X131843Y97607D01*
Y97557D01*
X131868Y97533D01*
X131893D01*
X131918Y97557D01*
Y97583D01*
Y97557D01*
X131943Y97533D01*
X131968D01*
X131993Y97557D01*
Y97607D01*
X131968Y97632D01*
X131993Y97408D02*
X131843D01*
X131918Y97483D01*
Y97383D01*
X133058Y97687D02*
X133033Y97712D01*
Y97762D01*
X133058Y97787D01*
X133158D01*
X133183Y97762D01*
Y97712D01*
X133158Y97687D01*
X133183Y97637D02*
Y97587D01*
Y97612D01*
X133033D01*
X133058Y97637D01*
X133033Y97413D02*
Y97512D01*
X133108D01*
X133083Y97463D01*
Y97437D01*
X133108Y97413D01*
X133158D01*
X133183Y97437D01*
Y97487D01*
X133158Y97512D01*
X133058Y97363D02*
X133033Y97338D01*
Y97288D01*
X133058Y97263D01*
X133158D01*
X133183Y97288D01*
Y97338D01*
X133158Y97363D01*
X133058D01*
X134538Y97497D02*
X134513Y97522D01*
Y97572D01*
X134538Y97597D01*
X134638D01*
X134663Y97572D01*
Y97522D01*
X134638Y97497D01*
X134663Y97447D02*
Y97397D01*
Y97422D01*
X134513D01*
X134538Y97447D01*
X134663Y97247D02*
X134513D01*
X134588Y97322D01*
Y97223D01*
X134513Y97073D02*
Y97173D01*
X134588D01*
X134563Y97123D01*
Y97098D01*
X134588Y97073D01*
X134638D01*
X134663Y97098D01*
Y97148D01*
X134638Y97173D01*
X134723Y95122D02*
X134698Y95147D01*
Y95197D01*
X134723Y95222D01*
X134823D01*
X134848Y95197D01*
Y95147D01*
X134823Y95122D01*
X134848Y95072D02*
Y95022D01*
Y95047D01*
X134698D01*
X134723Y95072D01*
X134848Y94873D02*
X134698D01*
X134773Y94947D01*
Y94848D01*
X134848Y94798D02*
Y94748D01*
Y94773D01*
X134698D01*
X134723Y94798D01*
X134728Y94337D02*
X134703Y94362D01*
Y94412D01*
X134728Y94437D01*
X134828D01*
X134853Y94412D01*
Y94362D01*
X134828Y94337D01*
X134853Y94287D02*
Y94237D01*
Y94262D01*
X134703D01*
X134728Y94287D01*
X134853Y94087D02*
X134703D01*
X134778Y94162D01*
Y94063D01*
X134853Y93938D02*
X134703D01*
X134778Y94013D01*
Y93913D01*
X132678Y92627D02*
X132653Y92652D01*
Y92702D01*
X132678Y92727D01*
X132778D01*
X132803Y92702D01*
Y92652D01*
X132778Y92627D01*
X132803Y92577D02*
Y92527D01*
Y92552D01*
X132653D01*
X132678Y92577D01*
X132803Y92353D02*
Y92452D01*
X132703Y92353D01*
X132678D01*
X132653Y92378D01*
Y92427D01*
X132678Y92452D01*
X132778Y92303D02*
X132803Y92278D01*
Y92228D01*
X132778Y92203D01*
X132678D01*
X132653Y92228D01*
Y92278D01*
X132678Y92303D01*
X132703D01*
X132728Y92278D01*
Y92203D01*
X127908Y94407D02*
X127883Y94432D01*
Y94482D01*
X127908Y94507D01*
X128008D01*
X128033Y94482D01*
Y94432D01*
X128008Y94407D01*
X128033Y94357D02*
Y94307D01*
Y94332D01*
X127883D01*
X127908Y94357D01*
X127883Y94133D02*
Y94232D01*
X127958D01*
X127933Y94183D01*
Y94157D01*
X127958Y94133D01*
X128008D01*
X128033Y94157D01*
Y94207D01*
X128008Y94232D01*
X128033Y93983D02*
Y94083D01*
X127933Y93983D01*
X127908D01*
X127883Y94008D01*
Y94058D01*
X127908Y94083D01*
X127118Y93847D02*
X127093Y93872D01*
Y93922D01*
X127118Y93947D01*
X127218D01*
X127243Y93922D01*
Y93872D01*
X127218Y93847D01*
X127243Y93797D02*
Y93747D01*
Y93772D01*
X127093D01*
X127118Y93797D01*
X127243Y93597D02*
X127093D01*
X127168Y93672D01*
Y93573D01*
X127118Y93523D02*
X127093Y93498D01*
Y93448D01*
X127118Y93423D01*
X127143D01*
X127168Y93448D01*
Y93473D01*
Y93448D01*
X127193Y93423D01*
X127218D01*
X127243Y93448D01*
Y93498D01*
X127218Y93523D01*
X126380Y93865D02*
X126355Y93890D01*
Y93940D01*
X126380Y93965D01*
X126480D01*
X126505Y93940D01*
Y93890D01*
X126480Y93865D01*
X126355Y93815D02*
Y93715D01*
X126380D01*
X126480Y93815D01*
X126505D01*
X126380Y93665D02*
X126355Y93640D01*
Y93590D01*
X126380Y93565D01*
X126405D01*
X126430Y93590D01*
Y93615D01*
Y93590D01*
X126455Y93565D01*
X126480D01*
X126505Y93590D01*
Y93640D01*
X126480Y93665D01*
X123788Y92277D02*
X123763Y92302D01*
Y92352D01*
X123788Y92377D01*
X123888D01*
X123913Y92352D01*
Y92302D01*
X123888Y92277D01*
X123913Y92227D02*
Y92177D01*
Y92202D01*
X123763D01*
X123788Y92227D01*
X123763Y92003D02*
Y92102D01*
X123838D01*
X123813Y92052D01*
Y92028D01*
X123838Y92003D01*
X123888D01*
X123913Y92028D01*
Y92077D01*
X123888Y92102D01*
X123913Y91878D02*
X123763D01*
X123838Y91953D01*
Y91853D01*
X123805Y93145D02*
X123655D01*
Y93070D01*
X123680Y93045D01*
X123730D01*
X123755Y93070D01*
Y93145D01*
Y93095D02*
X123805Y93045D01*
X123655Y92895D02*
X123680Y92945D01*
X123730Y92995D01*
X123780D01*
X123805Y92970D01*
Y92920D01*
X123780Y92895D01*
X123755D01*
X123730Y92920D01*
Y92995D01*
X123680Y92845D02*
X123655Y92820D01*
Y92770D01*
X123680Y92745D01*
X123705D01*
X123730Y92770D01*
X123755Y92745D01*
X123780D01*
X123805Y92770D01*
Y92820D01*
X123780Y92845D01*
X123755D01*
X123730Y92820D01*
X123705Y92845D01*
X123680D01*
X123730Y92820D02*
Y92770D01*
X124860Y93525D02*
X124835Y93550D01*
Y93600D01*
X124860Y93625D01*
X124960D01*
X124985Y93600D01*
Y93550D01*
X124960Y93525D01*
X124860Y93475D02*
X124835Y93450D01*
Y93400D01*
X124860Y93375D01*
X124885D01*
X124910Y93400D01*
X124935Y93375D01*
X124960D01*
X124985Y93400D01*
Y93450D01*
X124960Y93475D01*
X124935D01*
X124910Y93450D01*
X124885Y93475D01*
X124860D01*
X124910Y93450D02*
Y93400D01*
X124835Y93225D02*
X124860Y93275D01*
X124910Y93325D01*
X124960D01*
X124985Y93300D01*
Y93250D01*
X124960Y93225D01*
X124935D01*
X124910Y93250D01*
Y93325D01*
X124318Y93137D02*
X124293Y93162D01*
Y93212D01*
X124318Y93237D01*
X124418D01*
X124443Y93212D01*
Y93162D01*
X124418Y93137D01*
X124443Y93087D02*
Y93037D01*
Y93062D01*
X124293D01*
X124318Y93087D01*
X124293Y92962D02*
Y92863D01*
X124318D01*
X124418Y92962D01*
X124443D01*
X124293Y92713D02*
X124318Y92763D01*
X124368Y92813D01*
X124418D01*
X124443Y92788D01*
Y92738D01*
X124418Y92713D01*
X124393D01*
X124368Y92738D01*
Y92813D01*
X125880Y94845D02*
X125855Y94870D01*
Y94920D01*
X125880Y94945D01*
X125980D01*
X126005Y94920D01*
Y94870D01*
X125980Y94845D01*
X125855Y94795D02*
Y94695D01*
X125880D01*
X125980Y94795D01*
X126005D01*
X125855Y94545D02*
X125880Y94595D01*
X125930Y94645D01*
X125980D01*
X126005Y94620D01*
Y94570D01*
X125980Y94545D01*
X125955D01*
X125930Y94570D01*
Y94645D01*
X125345Y94820D02*
X125320Y94845D01*
Y94895D01*
X125345Y94920D01*
X125445D01*
X125470Y94895D01*
Y94845D01*
X125445Y94820D01*
Y94770D02*
X125470Y94745D01*
Y94695D01*
X125445Y94670D01*
X125345D01*
X125320Y94695D01*
Y94745D01*
X125345Y94770D01*
X125370D01*
X125395Y94745D01*
Y94670D01*
X125470Y94620D02*
Y94570D01*
Y94595D01*
X125320D01*
X125345Y94620D01*
X124840Y94845D02*
X124815Y94870D01*
Y94920D01*
X124840Y94945D01*
X124940D01*
X124965Y94920D01*
Y94870D01*
X124940Y94845D01*
Y94795D02*
X124965Y94770D01*
Y94720D01*
X124940Y94695D01*
X124840D01*
X124815Y94720D01*
Y94770D01*
X124840Y94795D01*
X124865D01*
X124890Y94770D01*
Y94695D01*
X124840Y94645D02*
X124815Y94620D01*
Y94570D01*
X124840Y94545D01*
X124940D01*
X124965Y94570D01*
Y94620D01*
X124940Y94645D01*
X124840D01*
X124630Y95180D02*
X124480D01*
Y95105D01*
X124505Y95080D01*
X124555D01*
X124580Y95105D01*
Y95180D01*
Y95130D02*
X124630Y95080D01*
Y94955D02*
X124480D01*
X124555Y95030D01*
Y94930D01*
X124630Y94880D02*
Y94830D01*
Y94855D01*
X124480D01*
X124505Y94880D01*
X124093Y95144D02*
X124068Y95169D01*
Y95219D01*
X124093Y95244D01*
X124193D01*
X124218Y95219D01*
Y95169D01*
X124193Y95144D01*
X124218Y95094D02*
Y95044D01*
Y95069D01*
X124068D01*
X124093Y95094D01*
Y94969D02*
X124068Y94944D01*
Y94894D01*
X124093Y94869D01*
X124193D01*
X124218Y94894D01*
Y94944D01*
X124193Y94969D01*
X124093D01*
X124218Y94819D02*
Y94769D01*
Y94794D01*
X124068D01*
X124093Y94819D01*
X125370Y96105D02*
X125345Y96130D01*
Y96180D01*
X125370Y96205D01*
X125470D01*
X125495Y96180D01*
Y96130D01*
X125470Y96105D01*
X125345Y96055D02*
Y95955D01*
X125370D01*
X125470Y96055D01*
X125495D01*
X125470Y95905D02*
X125495Y95880D01*
Y95830D01*
X125470Y95805D01*
X125370D01*
X125345Y95830D01*
Y95880D01*
X125370Y95905D01*
X125395D01*
X125420Y95880D01*
Y95805D01*
X125845Y96090D02*
X125820Y96115D01*
Y96165D01*
X125845Y96190D01*
X125945D01*
X125970Y96165D01*
Y96115D01*
X125945Y96090D01*
X125845Y96040D02*
X125820Y96015D01*
Y95965D01*
X125845Y95940D01*
X125870D01*
X125895Y95965D01*
X125920Y95940D01*
X125945D01*
X125970Y95965D01*
Y96015D01*
X125945Y96040D01*
X125920D01*
X125895Y96015D01*
X125870Y96040D01*
X125845D01*
X125895Y96015D02*
Y95965D01*
X125970Y95890D02*
Y95840D01*
Y95865D01*
X125820D01*
X125845Y95890D01*
X126358Y97007D02*
X126333Y97032D01*
Y97082D01*
X126358Y97107D01*
X126458D01*
X126483Y97082D01*
Y97032D01*
X126458Y97007D01*
X126483Y96957D02*
Y96907D01*
Y96932D01*
X126333D01*
X126358Y96957D01*
X126333Y96832D02*
Y96733D01*
X126358D01*
X126458Y96832D01*
X126483D01*
Y96608D02*
X126333D01*
X126408Y96683D01*
Y96583D01*
X125898Y97007D02*
X125873Y97032D01*
Y97082D01*
X125898Y97107D01*
X125998D01*
X126023Y97082D01*
Y97032D01*
X125998Y97007D01*
X126023Y96957D02*
Y96907D01*
Y96932D01*
X125873D01*
X125898Y96957D01*
X125873Y96733D02*
X125898Y96783D01*
X125948Y96832D01*
X125998D01*
X126023Y96807D01*
Y96757D01*
X125998Y96733D01*
X125973D01*
X125948Y96757D01*
Y96832D01*
X125898Y96683D02*
X125873Y96658D01*
Y96608D01*
X125898Y96583D01*
X125998D01*
X126023Y96608D01*
Y96658D01*
X125998Y96683D01*
X125898D01*
X125443Y96982D02*
X125418Y97007D01*
Y97057D01*
X125443Y97082D01*
X125543D01*
X125568Y97057D01*
Y97007D01*
X125543Y96982D01*
X125568Y96932D02*
Y96882D01*
Y96907D01*
X125418D01*
X125443Y96932D01*
X125418Y96708D02*
X125443Y96757D01*
X125493Y96807D01*
X125543D01*
X125568Y96783D01*
Y96733D01*
X125543Y96708D01*
X125518D01*
X125493Y96733D01*
Y96807D01*
X125568Y96658D02*
Y96608D01*
Y96633D01*
X125418D01*
X125443Y96658D01*
X124778Y97007D02*
X124753Y97032D01*
Y97082D01*
X124778Y97107D01*
X124878D01*
X124903Y97082D01*
Y97032D01*
X124878Y97007D01*
X124903Y96957D02*
Y96907D01*
Y96932D01*
X124753D01*
X124778Y96957D01*
X124753Y96733D02*
X124778Y96783D01*
X124828Y96832D01*
X124878D01*
X124903Y96807D01*
Y96757D01*
X124878Y96733D01*
X124853D01*
X124828Y96757D01*
Y96832D01*
X124903Y96583D02*
Y96683D01*
X124803Y96583D01*
X124778D01*
X124753Y96608D01*
Y96658D01*
X124778Y96683D01*
X124318Y97007D02*
X124293Y97032D01*
Y97082D01*
X124318Y97107D01*
X124418D01*
X124443Y97082D01*
Y97032D01*
X124418Y97007D01*
X124443Y96957D02*
Y96907D01*
Y96932D01*
X124293D01*
X124318Y96957D01*
X124293Y96733D02*
X124318Y96783D01*
X124368Y96832D01*
X124418D01*
X124443Y96807D01*
Y96757D01*
X124418Y96733D01*
X124393D01*
X124368Y96757D01*
Y96832D01*
X124318Y96683D02*
X124293Y96658D01*
Y96608D01*
X124318Y96583D01*
X124343D01*
X124368Y96608D01*
Y96633D01*
Y96608D01*
X124393Y96583D01*
X124418D01*
X124443Y96608D01*
Y96658D01*
X124418Y96683D01*
X121690Y96825D02*
X121665Y96850D01*
Y96900D01*
X121690Y96925D01*
X121790D01*
X121815Y96900D01*
Y96850D01*
X121790Y96825D01*
X121665Y96775D02*
Y96675D01*
X121690D01*
X121790Y96775D01*
X121815D01*
X121665Y96625D02*
Y96525D01*
X121690D01*
X121790Y96625D01*
X121815D01*
X120468Y94217D02*
X120443Y94242D01*
Y94292D01*
X120468Y94317D01*
X120568D01*
X120593Y94292D01*
Y94242D01*
X120568Y94217D01*
X120593Y94167D02*
Y94117D01*
Y94142D01*
X120443D01*
X120468Y94167D01*
Y94042D02*
X120443Y94017D01*
Y93968D01*
X120468Y93943D01*
X120493D01*
X120518Y93968D01*
X120543Y93943D01*
X120568D01*
X120593Y93968D01*
Y94017D01*
X120568Y94042D01*
X120543D01*
X120518Y94017D01*
X120493Y94042D01*
X120468D01*
X120518Y94017D02*
Y93968D01*
X120443Y93893D02*
Y93793D01*
X120468D01*
X120568Y93893D01*
X120593D01*
X120013Y94172D02*
X119988Y94197D01*
Y94247D01*
X120013Y94272D01*
X120113D01*
X120138Y94247D01*
Y94197D01*
X120113Y94172D01*
X120138Y94122D02*
Y94072D01*
Y94097D01*
X119988D01*
X120013Y94122D01*
X120113Y93997D02*
X120138Y93973D01*
Y93923D01*
X120113Y93898D01*
X120013D01*
X119988Y93923D01*
Y93973D01*
X120013Y93997D01*
X120038D01*
X120063Y93973D01*
Y93898D01*
X120138Y93848D02*
Y93798D01*
Y93823D01*
X119988D01*
X120013Y93848D01*
X119548Y94197D02*
X119523Y94222D01*
Y94272D01*
X119548Y94297D01*
X119648D01*
X119673Y94272D01*
Y94222D01*
X119648Y94197D01*
X119673Y94147D02*
Y94097D01*
Y94122D01*
X119523D01*
X119548Y94147D01*
X119648Y94022D02*
X119673Y93997D01*
Y93947D01*
X119648Y93923D01*
X119548D01*
X119523Y93947D01*
Y93997D01*
X119548Y94022D01*
X119573D01*
X119598Y93997D01*
Y93923D01*
X119548Y93873D02*
X119523Y93848D01*
Y93798D01*
X119548Y93773D01*
X119648D01*
X119673Y93798D01*
Y93848D01*
X119648Y93873D01*
X119548D01*
X113530Y101085D02*
X113505Y101110D01*
Y101160D01*
X113530Y101185D01*
X113630D01*
X113655Y101160D01*
Y101110D01*
X113630Y101085D01*
X113530Y101035D02*
X113505Y101010D01*
Y100960D01*
X113530Y100935D01*
X113555D01*
X113580Y100960D01*
Y100985D01*
Y100960D01*
X113605Y100935D01*
X113630D01*
X113655Y100960D01*
Y101010D01*
X113630Y101035D01*
X113505Y100785D02*
X113530Y100835D01*
X113580Y100885D01*
X113630D01*
X113655Y100860D01*
Y100810D01*
X113630Y100785D01*
X113605D01*
X113580Y100810D01*
Y100885D01*
X113060Y101085D02*
X113035Y101110D01*
Y101160D01*
X113060Y101185D01*
X113160D01*
X113185Y101160D01*
Y101110D01*
X113160Y101085D01*
X113060Y101035D02*
X113035Y101010D01*
Y100960D01*
X113060Y100935D01*
X113085D01*
X113110Y100960D01*
Y100985D01*
Y100960D01*
X113135Y100935D01*
X113160D01*
X113185Y100960D01*
Y101010D01*
X113160Y101035D01*
X113035Y100885D02*
Y100785D01*
X113060D01*
X113160Y100885D01*
X113185D01*
X112410Y102075D02*
X112385Y102100D01*
Y102150D01*
X112410Y102175D01*
X112510D01*
X112535Y102150D01*
Y102100D01*
X112510Y102075D01*
X112535Y101950D02*
X112385D01*
X112460Y102025D01*
Y101925D01*
X112385Y101875D02*
Y101775D01*
X112410D01*
X112510Y101875D01*
X112535D01*
X111635Y101375D02*
X111485D01*
Y101300D01*
X111510Y101275D01*
X111560D01*
X111585Y101300D01*
Y101375D01*
Y101325D02*
X111635Y101275D01*
Y101125D02*
Y101225D01*
X111535Y101125D01*
X111510D01*
X111485Y101150D01*
Y101200D01*
X111510Y101225D01*
X111485Y100975D02*
Y101075D01*
X111560D01*
X111535Y101025D01*
Y101000D01*
X111560Y100975D01*
X111610D01*
X111635Y101000D01*
Y101050D01*
X111610Y101075D01*
X111960Y102075D02*
X111935Y102100D01*
Y102150D01*
X111960Y102175D01*
X112060D01*
X112085Y102150D01*
Y102100D01*
X112060Y102075D01*
X112085Y101950D02*
X111935D01*
X112010Y102025D01*
Y101925D01*
X111960Y101875D02*
X111935Y101850D01*
Y101800D01*
X111960Y101775D01*
X111985D01*
X112010Y101800D01*
X112035Y101775D01*
X112060D01*
X112085Y101800D01*
Y101850D01*
X112060Y101875D01*
X112035D01*
X112010Y101850D01*
X111985Y101875D01*
X111960D01*
X112010Y101850D02*
Y101800D01*
X111500Y102075D02*
X111475Y102100D01*
Y102150D01*
X111500Y102175D01*
X111600D01*
X111625Y102150D01*
Y102100D01*
X111600Y102075D01*
X111475Y101925D02*
Y102025D01*
X111550D01*
X111525Y101975D01*
Y101950D01*
X111550Y101925D01*
X111600D01*
X111625Y101950D01*
Y102000D01*
X111600Y102025D01*
X111625Y101775D02*
Y101875D01*
X111525Y101775D01*
X111500D01*
X111475Y101800D01*
Y101850D01*
X111500Y101875D01*
X111175Y102175D02*
X111025D01*
Y102100D01*
X111050Y102075D01*
X111100D01*
X111125Y102100D01*
Y102175D01*
Y102125D02*
X111175Y102075D01*
Y101925D02*
Y102025D01*
X111075Y101925D01*
X111050D01*
X111025Y101950D01*
Y102000D01*
X111050Y102025D01*
Y101875D02*
X111025Y101850D01*
Y101800D01*
X111050Y101775D01*
X111075D01*
X111100Y101800D01*
Y101825D01*
Y101800D01*
X111125Y101775D01*
X111150D01*
X111175Y101800D01*
Y101850D01*
X111150Y101875D01*
X110715Y102175D02*
X110565D01*
Y102100D01*
X110590Y102075D01*
X110640D01*
X110665Y102100D01*
Y102175D01*
Y102125D02*
X110715Y102075D01*
Y101925D02*
Y102025D01*
X110615Y101925D01*
X110590D01*
X110565Y101950D01*
Y102000D01*
X110590Y102025D01*
X110715Y101800D02*
X110565D01*
X110640Y101875D01*
Y101775D01*
X109850Y100295D02*
X109825Y100320D01*
Y100370D01*
X109850Y100395D01*
X109950D01*
X109975Y100370D01*
Y100320D01*
X109950Y100295D01*
X109975Y100170D02*
X109825D01*
X109900Y100245D01*
Y100145D01*
X109975Y100020D02*
X109825D01*
X109900Y100095D01*
Y99995D01*
X110408Y100482D02*
X110258D01*
Y100407D01*
X110283Y100382D01*
X110333D01*
X110358Y100407D01*
Y100482D01*
Y100432D02*
X110408Y100382D01*
Y100332D02*
Y100282D01*
Y100307D01*
X110258D01*
X110283Y100332D01*
X110258Y100108D02*
Y100208D01*
X110333D01*
X110308Y100158D01*
Y100133D01*
X110333Y100108D01*
X110383D01*
X110408Y100133D01*
Y100183D01*
X110383Y100208D01*
X111290Y100155D02*
X111265Y100180D01*
Y100230D01*
X111290Y100255D01*
X111390D01*
X111415Y100230D01*
Y100180D01*
X111390Y100155D01*
X111265Y100005D02*
Y100105D01*
X111340D01*
X111315Y100055D01*
Y100030D01*
X111340Y100005D01*
X111390D01*
X111415Y100030D01*
Y100080D01*
X111390Y100105D01*
X111265Y99955D02*
Y99855D01*
X111290D01*
X111390Y99955D01*
X111415D01*
X112510Y98385D02*
X112485Y98410D01*
Y98460D01*
X112510Y98485D01*
X112610D01*
X112635Y98460D01*
Y98410D01*
X112610Y98385D01*
X112635Y98260D02*
X112485D01*
X112560Y98335D01*
Y98235D01*
X112510Y98185D02*
X112485Y98160D01*
Y98110D01*
X112510Y98085D01*
X112535D01*
X112560Y98110D01*
Y98135D01*
Y98110D01*
X112585Y98085D01*
X112610D01*
X112635Y98110D01*
Y98160D01*
X112610Y98185D01*
X112010Y98385D02*
X111985Y98410D01*
Y98460D01*
X112010Y98485D01*
X112110D01*
X112135Y98460D01*
Y98410D01*
X112110Y98385D01*
X112135Y98260D02*
X111985D01*
X112060Y98335D01*
Y98235D01*
X112135Y98085D02*
Y98185D01*
X112035Y98085D01*
X112010D01*
X111985Y98110D01*
Y98160D01*
X112010Y98185D01*
X111645Y98485D02*
X111495D01*
Y98410D01*
X111520Y98385D01*
X111570D01*
X111595Y98410D01*
Y98485D01*
Y98435D02*
X111645Y98385D01*
Y98235D02*
Y98335D01*
X111545Y98235D01*
X111520D01*
X111495Y98260D01*
Y98310D01*
X111520Y98335D01*
X111645Y98085D02*
Y98185D01*
X111545Y98085D01*
X111520D01*
X111495Y98110D01*
Y98160D01*
X111520Y98185D01*
X110900Y98855D02*
X110875Y98880D01*
Y98930D01*
X110900Y98955D01*
X111000D01*
X111025Y98930D01*
Y98880D01*
X111000Y98855D01*
X110875Y98705D02*
Y98805D01*
X110950D01*
X110925Y98755D01*
Y98730D01*
X110950Y98705D01*
X111000D01*
X111025Y98730D01*
Y98780D01*
X111000Y98805D01*
X110900Y98655D02*
X110875Y98630D01*
Y98580D01*
X110900Y98555D01*
X110925D01*
X110950Y98580D01*
Y98605D01*
Y98580D01*
X110975Y98555D01*
X111000D01*
X111025Y98580D01*
Y98630D01*
X111000Y98655D01*
X110420Y98020D02*
X110270D01*
Y97945D01*
X110295Y97920D01*
X110345D01*
X110370Y97945D01*
Y98020D01*
Y97970D02*
X110420Y97920D01*
X110270Y97870D02*
Y97770D01*
X110295D01*
X110395Y97870D01*
X110420D01*
X110875Y98095D02*
X110725D01*
Y98020D01*
X110750Y97995D01*
X110800D01*
X110825Y98020D01*
Y98095D01*
Y98045D02*
X110875Y97995D01*
Y97845D02*
Y97945D01*
X110775Y97845D01*
X110750D01*
X110725Y97870D01*
Y97920D01*
X110750Y97945D01*
Y97795D02*
X110725Y97770D01*
Y97720D01*
X110750Y97695D01*
X110850D01*
X110875Y97720D01*
Y97770D01*
X110850Y97795D01*
X110750D01*
X102660Y104615D02*
X102635Y104640D01*
Y104690D01*
X102660Y104715D01*
X102760D01*
X102785Y104690D01*
Y104640D01*
X102760Y104615D01*
X102660Y104565D02*
X102635Y104540D01*
Y104490D01*
X102660Y104465D01*
X102685D01*
X102710Y104490D01*
Y104515D01*
Y104490D01*
X102735Y104465D01*
X102760D01*
X102785Y104490D01*
Y104540D01*
X102760Y104565D01*
X102635Y104315D02*
Y104415D01*
X102710D01*
X102685Y104365D01*
Y104340D01*
X102710Y104315D01*
X102760D01*
X102785Y104340D01*
Y104390D01*
X102760Y104415D01*
X96935Y104455D02*
X96785D01*
Y104380D01*
X96810Y104355D01*
X96860D01*
X96885Y104380D01*
Y104455D01*
Y104405D02*
X96935Y104355D01*
X96910Y104305D02*
X96935Y104280D01*
Y104230D01*
X96910Y104205D01*
X96810D01*
X96785Y104230D01*
Y104280D01*
X96810Y104305D01*
X96835D01*
X96860Y104280D01*
Y104205D01*
X96935Y104055D02*
Y104155D01*
X96835Y104055D01*
X96810D01*
X96785Y104080D01*
Y104130D01*
X96810Y104155D01*
X97395Y104455D02*
X97245D01*
Y104380D01*
X97270Y104355D01*
X97320D01*
X97345Y104380D01*
Y104455D01*
Y104405D02*
X97395Y104355D01*
X97370Y104305D02*
X97395Y104280D01*
Y104230D01*
X97370Y104205D01*
X97270D01*
X97245Y104230D01*
Y104280D01*
X97270Y104305D01*
X97295D01*
X97320Y104280D01*
Y104205D01*
X97245Y104155D02*
Y104055D01*
X97270D01*
X97370Y104155D01*
X97395D01*
X100653Y102982D02*
X100628Y103007D01*
Y103057D01*
X100653Y103082D01*
X100753D01*
X100778Y103057D01*
Y103007D01*
X100753Y102982D01*
X100778Y102832D02*
Y102932D01*
X100678Y102832D01*
X100653D01*
X100628Y102857D01*
Y102907D01*
X100653Y102932D01*
X100778Y102782D02*
Y102733D01*
Y102758D01*
X100628D01*
X100653Y102782D01*
X100778Y102658D02*
Y102608D01*
Y102633D01*
X100628D01*
X100653Y102658D01*
X100797Y92523D02*
X100647D01*
Y92598D01*
X100672Y92623D01*
X100722D01*
X100747Y92598D01*
Y92523D01*
Y92573D02*
X100797Y92623D01*
Y92673D02*
Y92723D01*
Y92697D01*
X100647D01*
X100672Y92673D01*
X100647Y92897D02*
X100672Y92847D01*
X100722Y92797D01*
X100772D01*
X100797Y92822D01*
Y92872D01*
X100772Y92897D01*
X100747D01*
X100722Y92872D01*
Y92797D01*
X100647Y93047D02*
X100672Y92997D01*
X100722Y92947D01*
X100772D01*
X100797Y92972D01*
Y93022D01*
X100772Y93047D01*
X100747D01*
X100722Y93022D01*
Y92947D01*
X100337Y92523D02*
X100187D01*
Y92598D01*
X100212Y92623D01*
X100262D01*
X100287Y92598D01*
Y92523D01*
Y92573D02*
X100337Y92623D01*
Y92673D02*
Y92723D01*
Y92697D01*
X100187D01*
X100212Y92673D01*
X100187Y92897D02*
X100212Y92847D01*
X100262Y92797D01*
X100312D01*
X100337Y92822D01*
Y92872D01*
X100312Y92897D01*
X100287D01*
X100262Y92872D01*
Y92797D01*
X100187Y92947D02*
Y93047D01*
X100212D01*
X100312Y92947D01*
X100337D01*
X98353Y99527D02*
X98203D01*
Y99452D01*
X98228Y99427D01*
X98278D01*
X98303Y99452D01*
Y99527D01*
Y99477D02*
X98353Y99427D01*
Y99377D02*
Y99327D01*
Y99352D01*
X98203D01*
X98228Y99377D01*
X98203Y99153D02*
X98228Y99202D01*
X98278Y99252D01*
X98328D01*
X98353Y99227D01*
Y99178D01*
X98328Y99153D01*
X98303D01*
X98278Y99178D01*
Y99252D01*
X98353Y99003D02*
Y99103D01*
X98253Y99003D01*
X98228D01*
X98203Y99028D01*
Y99078D01*
X98228Y99103D01*
X98838Y99502D02*
X98688D01*
Y99427D01*
X98713Y99402D01*
X98763D01*
X98788Y99427D01*
Y99502D01*
Y99452D02*
X98838Y99402D01*
Y99352D02*
Y99302D01*
Y99327D01*
X98688D01*
X98713Y99352D01*
X98688Y99128D02*
X98713Y99178D01*
X98763Y99227D01*
X98813D01*
X98838Y99202D01*
Y99153D01*
X98813Y99128D01*
X98788D01*
X98763Y99153D01*
Y99227D01*
X98838Y99078D02*
Y99028D01*
Y99053D01*
X98688D01*
X98713Y99078D01*
X99793Y99527D02*
X99643D01*
Y99452D01*
X99668Y99427D01*
X99718D01*
X99743Y99452D01*
Y99527D01*
Y99477D02*
X99793Y99427D01*
Y99377D02*
Y99327D01*
Y99352D01*
X99643D01*
X99668Y99377D01*
X99643Y99153D02*
X99668Y99202D01*
X99718Y99252D01*
X99768D01*
X99793Y99227D01*
Y99178D01*
X99768Y99153D01*
X99743D01*
X99718Y99178D01*
Y99252D01*
X99643Y99003D02*
Y99103D01*
X99718D01*
X99693Y99053D01*
Y99028D01*
X99718Y99003D01*
X99768D01*
X99793Y99028D01*
Y99078D01*
X99768Y99103D01*
X100273Y99527D02*
X100123D01*
Y99452D01*
X100148Y99427D01*
X100198D01*
X100223Y99452D01*
Y99527D01*
Y99477D02*
X100273Y99427D01*
Y99377D02*
Y99327D01*
Y99352D01*
X100123D01*
X100148Y99377D01*
X100123Y99153D02*
X100148Y99202D01*
X100198Y99252D01*
X100248D01*
X100273Y99227D01*
Y99178D01*
X100248Y99153D01*
X100223D01*
X100198Y99178D01*
Y99252D01*
X100273Y99028D02*
X100123D01*
X100198Y99103D01*
Y99003D01*
X100753Y99527D02*
X100603D01*
Y99452D01*
X100628Y99427D01*
X100678D01*
X100703Y99452D01*
Y99527D01*
Y99477D02*
X100753Y99427D01*
Y99377D02*
Y99327D01*
Y99352D01*
X100603D01*
X100628Y99377D01*
X100603Y99153D02*
X100628Y99202D01*
X100678Y99252D01*
X100728D01*
X100753Y99227D01*
Y99178D01*
X100728Y99153D01*
X100703D01*
X100678Y99178D01*
Y99252D01*
X100628Y99103D02*
X100603Y99078D01*
Y99028D01*
X100628Y99003D01*
X100653D01*
X100678Y99028D01*
Y99053D01*
Y99028D01*
X100703Y99003D01*
X100728D01*
X100753Y99028D01*
Y99078D01*
X100728Y99103D01*
X100753Y98657D02*
X100603D01*
Y98582D01*
X100628Y98557D01*
X100678D01*
X100703Y98582D01*
Y98657D01*
Y98607D02*
X100753Y98557D01*
Y98507D02*
Y98457D01*
Y98482D01*
X100603D01*
X100628Y98507D01*
X100603Y98382D02*
Y98283D01*
X100628D01*
X100728Y98382D01*
X100753D01*
X100628Y98233D02*
X100603Y98208D01*
Y98158D01*
X100628Y98133D01*
X100728D01*
X100753Y98158D01*
Y98208D01*
X100728Y98233D01*
X100628D01*
X100278Y98632D02*
X100128D01*
Y98557D01*
X100153Y98532D01*
X100203D01*
X100228Y98557D01*
Y98632D01*
Y98582D02*
X100278Y98532D01*
Y98482D02*
Y98432D01*
Y98457D01*
X100128D01*
X100153Y98482D01*
X100128Y98357D02*
Y98258D01*
X100153D01*
X100253Y98357D01*
X100278D01*
Y98208D02*
Y98158D01*
Y98183D01*
X100128D01*
X100153Y98208D01*
X99793Y98657D02*
X99643D01*
Y98582D01*
X99668Y98557D01*
X99718D01*
X99743Y98582D01*
Y98657D01*
Y98607D02*
X99793Y98557D01*
Y98507D02*
Y98457D01*
Y98482D01*
X99643D01*
X99668Y98507D01*
X99643Y98382D02*
Y98283D01*
X99668D01*
X99768Y98382D01*
X99793D01*
Y98133D02*
Y98233D01*
X99693Y98133D01*
X99668D01*
X99643Y98158D01*
Y98208D01*
X99668Y98233D01*
X99313Y98657D02*
X99163D01*
Y98582D01*
X99188Y98557D01*
X99238D01*
X99263Y98582D01*
Y98657D01*
Y98607D02*
X99313Y98557D01*
Y98507D02*
Y98457D01*
Y98482D01*
X99163D01*
X99188Y98507D01*
X99163Y98382D02*
Y98283D01*
X99188D01*
X99288Y98382D01*
X99313D01*
X99188Y98233D02*
X99163Y98208D01*
Y98158D01*
X99188Y98133D01*
X99213D01*
X99238Y98158D01*
Y98183D01*
Y98158D01*
X99263Y98133D01*
X99288D01*
X99313Y98158D01*
Y98208D01*
X99288Y98233D01*
X98833Y98657D02*
X98683D01*
Y98582D01*
X98708Y98557D01*
X98758D01*
X98783Y98582D01*
Y98657D01*
Y98607D02*
X98833Y98557D01*
Y98507D02*
Y98457D01*
Y98482D01*
X98683D01*
X98708Y98507D01*
X98683Y98283D02*
X98708Y98333D01*
X98758Y98382D01*
X98808D01*
X98833Y98357D01*
Y98308D01*
X98808Y98283D01*
X98783D01*
X98758Y98308D01*
Y98382D01*
X98708Y98233D02*
X98683Y98208D01*
Y98158D01*
X98708Y98133D01*
X98733D01*
X98758Y98158D01*
X98783Y98133D01*
X98808D01*
X98833Y98158D01*
Y98208D01*
X98808Y98233D01*
X98783D01*
X98758Y98208D01*
X98733Y98233D01*
X98708D01*
X98758Y98208D02*
Y98158D01*
X98353Y98657D02*
X98203D01*
Y98582D01*
X98228Y98557D01*
X98278D01*
X98303Y98582D01*
Y98657D01*
Y98607D02*
X98353Y98557D01*
Y98507D02*
Y98457D01*
Y98482D01*
X98203D01*
X98228Y98507D01*
X98203Y98283D02*
X98228Y98333D01*
X98278Y98382D01*
X98328D01*
X98353Y98357D01*
Y98308D01*
X98328Y98283D01*
X98303D01*
X98278Y98308D01*
Y98382D01*
X98328Y98233D02*
X98353Y98208D01*
Y98158D01*
X98328Y98133D01*
X98228D01*
X98203Y98158D01*
Y98208D01*
X98228Y98233D01*
X98253D01*
X98278Y98208D01*
Y98133D01*
X91568Y95177D02*
X91543Y95202D01*
Y95252D01*
X91568Y95277D01*
X91668D01*
X91693Y95252D01*
Y95202D01*
X91668Y95177D01*
X91693Y95127D02*
Y95077D01*
Y95102D01*
X91543D01*
X91568Y95127D01*
X91543Y94903D02*
Y95002D01*
X91618D01*
X91593Y94952D01*
Y94928D01*
X91618Y94903D01*
X91668D01*
X91693Y94928D01*
Y94977D01*
X91668Y95002D01*
X91568Y94853D02*
X91543Y94828D01*
Y94778D01*
X91568Y94753D01*
X91593D01*
X91618Y94778D01*
X91643Y94753D01*
X91668D01*
X91693Y94778D01*
Y94828D01*
X91668Y94853D01*
X91643D01*
X91618Y94828D01*
X91593Y94853D01*
X91568D01*
X91618Y94828D02*
Y94778D01*
X91275Y95215D02*
X91125D01*
Y95140D01*
X91150Y95115D01*
X91200D01*
X91225Y95140D01*
Y95215D01*
Y95165D02*
X91275Y95115D01*
X91125Y94965D02*
X91150Y95015D01*
X91200Y95065D01*
X91250D01*
X91275Y95040D01*
Y94990D01*
X91250Y94965D01*
X91225D01*
X91200Y94990D01*
Y95065D01*
X91125Y94815D02*
X91150Y94865D01*
X91200Y94915D01*
X91250D01*
X91275Y94890D01*
Y94840D01*
X91250Y94815D01*
X91225D01*
X91200Y94840D01*
Y94915D01*
X93160Y102760D02*
X93010D01*
Y102685D01*
X93035Y102660D01*
X93085D01*
X93110Y102685D01*
Y102760D01*
Y102710D02*
X93160Y102660D01*
X93035Y102610D02*
X93010Y102585D01*
Y102535D01*
X93035Y102510D01*
X93060D01*
X93085Y102535D01*
Y102560D01*
Y102535D01*
X93110Y102510D01*
X93135D01*
X93160Y102535D01*
Y102585D01*
X93135Y102610D01*
X93160Y102460D02*
Y102410D01*
Y102435D01*
X93010D01*
X93035Y102460D01*
X92590Y102685D02*
X92565Y102710D01*
Y102760D01*
X92590Y102785D01*
X92690D01*
X92715Y102760D01*
Y102710D01*
X92690Y102685D01*
X92565Y102535D02*
X92590Y102585D01*
X92640Y102635D01*
X92690D01*
X92715Y102610D01*
Y102560D01*
X92690Y102535D01*
X92665D01*
X92640Y102560D01*
Y102635D01*
X92565Y102485D02*
Y102385D01*
X92590D01*
X92690Y102485D01*
X92715D01*
X91925Y102785D02*
X91775D01*
Y102710D01*
X91800Y102685D01*
X91850D01*
X91875Y102710D01*
Y102785D01*
Y102735D02*
X91925Y102685D01*
X91800Y102635D02*
X91775Y102610D01*
Y102560D01*
X91800Y102535D01*
X91825D01*
X91850Y102560D01*
Y102585D01*
Y102560D01*
X91875Y102535D01*
X91900D01*
X91925Y102560D01*
Y102610D01*
X91900Y102635D01*
X91925Y102385D02*
Y102485D01*
X91825Y102385D01*
X91800D01*
X91775Y102410D01*
Y102460D01*
X91800Y102485D01*
X91950Y103625D02*
X91975Y103650D01*
X92025D01*
X92050Y103625D01*
Y103525D01*
X92025Y103500D01*
X91975D01*
X91950Y103525D01*
X91800Y103650D02*
X91850Y103625D01*
X91900Y103575D01*
Y103525D01*
X91875Y103500D01*
X91825D01*
X91800Y103525D01*
Y103550D01*
X91825Y103575D01*
X91900D01*
X91650Y103650D02*
X91700Y103625D01*
X91750Y103575D01*
Y103525D01*
X91725Y103500D01*
X91675D01*
X91650Y103525D01*
Y103550D01*
X91675Y103575D01*
X91750D01*
X92680Y106375D02*
X92655Y106400D01*
Y106450D01*
X92680Y106475D01*
X92780D01*
X92805Y106450D01*
Y106400D01*
X92780Y106375D01*
X92655Y106225D02*
X92680Y106275D01*
X92730Y106325D01*
X92780D01*
X92805Y106300D01*
Y106250D01*
X92780Y106225D01*
X92755D01*
X92730Y106250D01*
Y106325D01*
X92680Y106175D02*
X92655Y106150D01*
Y106100D01*
X92680Y106075D01*
X92705D01*
X92730Y106100D01*
Y106125D01*
Y106100D01*
X92755Y106075D01*
X92780D01*
X92805Y106100D01*
Y106150D01*
X92780Y106175D01*
X92345Y106475D02*
X92195D01*
Y106400D01*
X92220Y106375D01*
X92270D01*
X92295Y106400D01*
Y106475D01*
Y106425D02*
X92345Y106375D01*
Y106225D02*
Y106325D01*
X92245Y106225D01*
X92220D01*
X92195Y106250D01*
Y106300D01*
X92220Y106325D01*
X92195Y106175D02*
Y106075D01*
X92220D01*
X92320Y106175D01*
X92345D01*
X91895Y106475D02*
X91745D01*
Y106400D01*
X91770Y106375D01*
X91820D01*
X91845Y106400D01*
Y106475D01*
Y106425D02*
X91895Y106375D01*
Y106225D02*
Y106325D01*
X91795Y106225D01*
X91770D01*
X91745Y106250D01*
Y106300D01*
X91770Y106325D01*
X91870Y106175D02*
X91895Y106150D01*
Y106100D01*
X91870Y106075D01*
X91770D01*
X91745Y106100D01*
Y106150D01*
X91770Y106175D01*
X91795D01*
X91820Y106150D01*
Y106075D01*
X90375Y105055D02*
X90225D01*
Y104980D01*
X90250Y104955D01*
X90300D01*
X90325Y104980D01*
Y105055D01*
Y105005D02*
X90375Y104955D01*
X90250Y104905D02*
X90225Y104880D01*
Y104830D01*
X90250Y104805D01*
X90275D01*
X90300Y104830D01*
Y104855D01*
Y104830D01*
X90325Y104805D01*
X90350D01*
X90375Y104830D01*
Y104880D01*
X90350Y104905D01*
X90225Y104655D02*
X90250Y104705D01*
X90300Y104755D01*
X90350D01*
X90375Y104730D01*
Y104680D01*
X90350Y104655D01*
X90325D01*
X90300Y104680D01*
Y104755D01*
X89790Y104955D02*
X89765Y104980D01*
Y105030D01*
X89790Y105055D01*
X89890D01*
X89915Y105030D01*
Y104980D01*
X89890Y104955D01*
Y104905D02*
X89915Y104880D01*
Y104830D01*
X89890Y104805D01*
X89790D01*
X89765Y104830D01*
Y104880D01*
X89790Y104905D01*
X89815D01*
X89840Y104880D01*
Y104805D01*
X89765Y104655D02*
Y104755D01*
X89840D01*
X89815Y104705D01*
Y104680D01*
X89840Y104655D01*
X89890D01*
X89915Y104680D01*
Y104730D01*
X89890Y104755D01*
X89455Y105055D02*
X89305D01*
Y104980D01*
X89330Y104955D01*
X89380D01*
X89405Y104980D01*
Y105055D01*
Y105005D02*
X89455Y104955D01*
X89330Y104905D02*
X89305Y104880D01*
Y104830D01*
X89330Y104805D01*
X89355D01*
X89380Y104830D01*
Y104855D01*
Y104830D01*
X89405Y104805D01*
X89430D01*
X89455Y104830D01*
Y104880D01*
X89430Y104905D01*
X89305Y104755D02*
Y104655D01*
X89330D01*
X89430Y104755D01*
X89455D01*
X89005Y105055D02*
X88855D01*
Y104980D01*
X88880Y104955D01*
X88930D01*
X88955Y104980D01*
Y105055D01*
Y105005D02*
X89005Y104955D01*
X88880Y104905D02*
X88855Y104880D01*
Y104830D01*
X88880Y104805D01*
X88905D01*
X88930Y104830D01*
Y104855D01*
Y104830D01*
X88955Y104805D01*
X88980D01*
X89005Y104830D01*
Y104880D01*
X88980Y104905D01*
X88855Y104655D02*
Y104755D01*
X88930D01*
X88905Y104705D01*
Y104680D01*
X88930Y104655D01*
X88980D01*
X89005Y104680D01*
Y104730D01*
X88980Y104755D01*
X88420Y104955D02*
X88395Y104980D01*
Y105030D01*
X88420Y105055D01*
X88520D01*
X88545Y105030D01*
Y104980D01*
X88520Y104955D01*
Y104905D02*
X88545Y104880D01*
Y104830D01*
X88520Y104805D01*
X88420D01*
X88395Y104830D01*
Y104880D01*
X88420Y104905D01*
X88445D01*
X88470Y104880D01*
Y104805D01*
X88545Y104680D02*
X88395D01*
X88470Y104755D01*
Y104655D01*
X87970Y104955D02*
X87945Y104980D01*
Y105030D01*
X87970Y105055D01*
X88070D01*
X88095Y105030D01*
Y104980D01*
X88070Y104955D01*
Y104905D02*
X88095Y104880D01*
Y104830D01*
X88070Y104805D01*
X87970D01*
X87945Y104830D01*
Y104880D01*
X87970Y104905D01*
X87995D01*
X88020Y104880D01*
Y104805D01*
X88095Y104655D02*
Y104755D01*
X87995Y104655D01*
X87970D01*
X87945Y104680D01*
Y104730D01*
X87970Y104755D01*
X88645Y105795D02*
X88745D01*
Y105645D01*
X88645D01*
X88745Y105720D02*
X88695D01*
X88595Y105795D02*
Y105645D01*
X88520D01*
X88495Y105670D01*
Y105770D01*
X88520Y105795D01*
X88595D01*
X88445Y105645D02*
X88395D01*
X88420D01*
Y105795D01*
X88445Y105770D01*
X88390Y106910D02*
X88490D01*
Y106760D01*
X88390D01*
X88490Y106835D02*
X88440D01*
X88340Y106910D02*
Y106760D01*
X88265D01*
X88240Y106785D01*
Y106885D01*
X88265Y106910D01*
X88340D01*
X88190Y106885D02*
X88165Y106910D01*
X88115D01*
X88090Y106885D01*
Y106860D01*
X88115Y106835D01*
X88140D01*
X88115D01*
X88090Y106810D01*
Y106785D01*
X88115Y106760D01*
X88165D01*
X88190Y106785D01*
X88390Y106180D02*
X88490D01*
Y106030D01*
X88390D01*
X88490Y106105D02*
X88440D01*
X88340Y106180D02*
Y106030D01*
X88265D01*
X88240Y106055D01*
Y106155D01*
X88265Y106180D01*
X88340D01*
X88090Y106030D02*
X88190D01*
X88090Y106130D01*
Y106155D01*
X88115Y106180D01*
X88165D01*
X88190Y106155D01*
X88130Y107535D02*
X88230D01*
Y107385D01*
X88130D01*
X88230Y107460D02*
X88180D01*
X88080Y107535D02*
Y107385D01*
X88005D01*
X87980Y107410D01*
Y107510D01*
X88005Y107535D01*
X88080D01*
X87855Y107385D02*
Y107535D01*
X87930Y107460D01*
X87830D01*
X90075Y107705D02*
X90175D01*
Y107630D01*
X90125D01*
X90175D01*
Y107555D01*
X90025Y107705D02*
Y107555D01*
X89950D01*
X89925Y107580D01*
Y107605D01*
X89950Y107630D01*
X90025D01*
X89950D01*
X89925Y107655D01*
Y107680D01*
X89950Y107705D01*
X90025D01*
X89875Y107555D02*
X89825D01*
X89850D01*
Y107705D01*
X89875Y107680D01*
X90200Y107305D02*
Y107455D01*
X90125D01*
X90100Y107430D01*
Y107380D01*
X90125Y107355D01*
X90200D01*
X90150D02*
X90100Y107305D01*
X90050Y107430D02*
X90025Y107455D01*
X89975D01*
X89950Y107430D01*
Y107405D01*
X89975Y107380D01*
X90000D01*
X89975D01*
X89950Y107355D01*
Y107330D01*
X89975Y107305D01*
X90025D01*
X90050Y107330D01*
X89900Y107430D02*
X89875Y107455D01*
X89825D01*
X89800Y107430D01*
Y107405D01*
X89825Y107380D01*
X89850D01*
X89825D01*
X89800Y107355D01*
Y107330D01*
X89825Y107305D01*
X89875D01*
X89900Y107330D01*
X90210Y107795D02*
Y107945D01*
X90135D01*
X90110Y107920D01*
Y107870D01*
X90135Y107845D01*
X90210D01*
X90160D02*
X90110Y107795D01*
X90060Y107920D02*
X90035Y107945D01*
X89985D01*
X89960Y107920D01*
Y107895D01*
X89985Y107870D01*
X90010D01*
X89985D01*
X89960Y107845D01*
Y107820D01*
X89985Y107795D01*
X90035D01*
X90060Y107820D01*
X89835Y107795D02*
Y107945D01*
X89910Y107870D01*
X89810D01*
X90490Y111960D02*
Y112110D01*
X90415D01*
X90390Y112085D01*
Y112035D01*
X90415Y112010D01*
X90490D01*
X90440D02*
X90390Y111960D01*
X90340D02*
X90290D01*
X90315D01*
Y112110D01*
X90340Y112085D01*
X90215D02*
X90190Y112110D01*
X90140D01*
X90115Y112085D01*
Y111985D01*
X90140Y111960D01*
X90190D01*
X90215Y111985D01*
Y112085D01*
X90065D02*
X90040Y112110D01*
X89990D01*
X89965Y112085D01*
Y111985D01*
X89990Y111960D01*
X90040D01*
X90065Y111985D01*
Y112085D01*
X127670Y96610D02*
Y96760D01*
X127595D01*
X127570Y96735D01*
Y96685D01*
X127595Y96660D01*
X127670D01*
X127620D02*
X127570Y96610D01*
X127445D02*
Y96760D01*
X127520Y96685D01*
X127420D01*
X127270Y96610D02*
X127370D01*
X127270Y96710D01*
Y96735D01*
X127295Y96760D01*
X127345D01*
X127370Y96735D01*
X124040Y94415D02*
X124065Y94440D01*
X124115D01*
X124140Y94415D01*
Y94315D01*
X124115Y94290D01*
X124065D01*
X124040Y94315D01*
X123990D02*
X123965Y94290D01*
X123915D01*
X123890Y94315D01*
Y94415D01*
X123915Y94440D01*
X123965D01*
X123990Y94415D01*
Y94390D01*
X123965Y94365D01*
X123890D01*
X123840Y94315D02*
X123815Y94290D01*
X123765D01*
X123740Y94315D01*
Y94415D01*
X123765Y94440D01*
X123815D01*
X123840Y94415D01*
Y94390D01*
X123815Y94365D01*
X123740D01*
X110700Y99610D02*
Y99760D01*
X110625D01*
X110600Y99735D01*
Y99685D01*
X110625Y99660D01*
X110700D01*
X110650D02*
X110600Y99610D01*
X110550D02*
X110500D01*
X110525D01*
Y99760D01*
X110550Y99735D01*
X110325Y99760D02*
X110375Y99735D01*
X110425Y99685D01*
Y99635D01*
X110400Y99610D01*
X110350D01*
X110325Y99635D01*
Y99660D01*
X110350Y99685D01*
X110425D01*
X102450Y104890D02*
Y105040D01*
X102375D01*
X102350Y105015D01*
Y104965D01*
X102375Y104940D01*
X102450D01*
X102200Y104890D02*
X102300D01*
X102200Y104990D01*
Y105015D01*
X102225Y105040D01*
X102275D01*
X102300Y105015D01*
X119100Y94545D02*
X119125Y94570D01*
X119175D01*
X119200Y94545D01*
Y94445D01*
X119175Y94420D01*
X119125D01*
X119100Y94445D01*
X119050Y94420D02*
X119000D01*
X119025D01*
Y94570D01*
X119050Y94545D01*
X118925Y94445D02*
X118900Y94420D01*
X118850D01*
X118825Y94445D01*
Y94545D01*
X118850Y94570D01*
X118900D01*
X118925Y94545D01*
Y94520D01*
X118900Y94495D01*
X118825D01*
X118675Y94420D02*
X118775D01*
X118675Y94520D01*
Y94545D01*
X118700Y94570D01*
X118750D01*
X118775Y94545D01*
X127970Y96225D02*
X127995Y96250D01*
X128045D01*
X128070Y96225D01*
Y96125D01*
X128045Y96100D01*
X127995D01*
X127970Y96125D01*
X127920Y96100D02*
X127870D01*
X127895D01*
Y96250D01*
X127920Y96225D01*
X127795D02*
X127770Y96250D01*
X127720D01*
X127695Y96225D01*
Y96125D01*
X127720Y96100D01*
X127770D01*
X127795Y96125D01*
Y96225D01*
X127645D02*
X127620Y96250D01*
X127570D01*
X127545Y96225D01*
Y96200D01*
X127570Y96175D01*
X127595D01*
X127570D01*
X127545Y96150D01*
Y96125D01*
X127570Y96100D01*
X127620D01*
X127645Y96125D01*
X146080Y102560D02*
Y102710D01*
X146155D01*
X146180Y102685D01*
Y102635D01*
X146155Y102610D01*
X146080D01*
X146130D02*
X146180Y102560D01*
X146230D02*
X146280D01*
X146255D01*
Y102710D01*
X146230Y102685D01*
X146455Y102710D02*
X146355D01*
Y102635D01*
X146405Y102660D01*
X146430D01*
X146455Y102635D01*
Y102585D01*
X146430Y102560D01*
X146380D01*
X146355Y102585D01*
X146505D02*
X146530Y102560D01*
X146580D01*
X146605Y102585D01*
Y102685D01*
X146580Y102710D01*
X146530D01*
X146505Y102685D01*
Y102660D01*
X146530Y102635D01*
X146605D01*
X145430Y104190D02*
X145330D01*
X145380D01*
Y104040D01*
X145205D02*
Y104190D01*
X145280Y104115D01*
X145180D01*
X145130Y104040D02*
X145080D01*
X145105D01*
Y104190D01*
X145130Y104165D01*
X145460Y104730D02*
X145360D01*
X145410D01*
Y104580D01*
X145235D02*
Y104730D01*
X145310Y104655D01*
X145210D01*
X145160Y104705D02*
X145135Y104730D01*
X145085D01*
X145060Y104705D01*
Y104605D01*
X145085Y104580D01*
X145135D01*
X145160Y104605D01*
Y104705D01*
X146640Y105350D02*
X146540D01*
X146590D01*
Y105200D01*
X146490Y105325D02*
X146465Y105350D01*
X146415D01*
X146390Y105325D01*
Y105300D01*
X146415Y105275D01*
X146440D01*
X146415D01*
X146390Y105250D01*
Y105225D01*
X146415Y105200D01*
X146465D01*
X146490Y105225D01*
X146340D02*
X146315Y105200D01*
X146265D01*
X146240Y105225D01*
Y105325D01*
X146265Y105350D01*
X146315D01*
X146340Y105325D01*
Y105300D01*
X146315Y105275D01*
X146240D01*
X147700Y102580D02*
X147600D01*
X147650D01*
Y102430D01*
X147550Y102555D02*
X147525Y102580D01*
X147475D01*
X147450Y102555D01*
Y102530D01*
X147475Y102505D01*
X147500D01*
X147475D01*
X147450Y102480D01*
Y102455D01*
X147475Y102430D01*
X147525D01*
X147550Y102455D01*
X147400Y102555D02*
X147375Y102580D01*
X147325D01*
X147300Y102555D01*
Y102530D01*
X147325Y102505D01*
X147300Y102480D01*
Y102455D01*
X147325Y102430D01*
X147375D01*
X147400Y102455D01*
Y102480D01*
X147375Y102505D01*
X147400Y102530D01*
Y102555D01*
X147375Y102505D02*
X147325D01*
X145570Y102120D02*
X145470D01*
X145520D01*
Y101970D01*
X145420Y102095D02*
X145395Y102120D01*
X145345D01*
X145320Y102095D01*
Y102070D01*
X145345Y102045D01*
X145370D01*
X145345D01*
X145320Y102020D01*
Y101995D01*
X145345Y101970D01*
X145395D01*
X145420Y101995D01*
X145270Y102120D02*
X145170D01*
Y102095D01*
X145270Y101995D01*
Y101970D01*
X145460Y103650D02*
X145360D01*
X145410D01*
Y103500D01*
X145310Y103625D02*
X145285Y103650D01*
X145235D01*
X145210Y103625D01*
Y103600D01*
X145235Y103575D01*
X145260D01*
X145235D01*
X145210Y103550D01*
Y103525D01*
X145235Y103500D01*
X145285D01*
X145310Y103525D01*
X145060Y103650D02*
X145110Y103625D01*
X145160Y103575D01*
Y103525D01*
X145135Y103500D01*
X145085D01*
X145060Y103525D01*
Y103550D01*
X145085Y103575D01*
X145160D01*
X149300Y91450D02*
X149200D01*
X149250D01*
Y91300D01*
X149150Y91425D02*
X149125Y91450D01*
X149075D01*
X149050Y91425D01*
Y91400D01*
X149075Y91375D01*
X149100D01*
X149075D01*
X149050Y91350D01*
Y91325D01*
X149075Y91300D01*
X149125D01*
X149150Y91325D01*
X148900Y91450D02*
X149000D01*
Y91375D01*
X148950Y91400D01*
X148925D01*
X148900Y91375D01*
Y91325D01*
X148925Y91300D01*
X148975D01*
X149000Y91325D01*
X146570Y90190D02*
X146470D01*
X146520D01*
Y90040D01*
X146420Y90165D02*
X146395Y90190D01*
X146345D01*
X146320Y90165D01*
Y90140D01*
X146345Y90115D01*
X146370D01*
X146345D01*
X146320Y90090D01*
Y90065D01*
X146345Y90040D01*
X146395D01*
X146420Y90065D01*
X146195Y90040D02*
Y90190D01*
X146270Y90115D01*
X146170D01*
X146230Y91170D02*
X146130D01*
X146180D01*
Y91020D01*
X146080Y91145D02*
X146055Y91170D01*
X146005D01*
X145980Y91145D01*
Y91120D01*
X146005Y91095D01*
X146030D01*
X146005D01*
X145980Y91070D01*
Y91045D01*
X146005Y91020D01*
X146055D01*
X146080Y91045D01*
X145930Y91145D02*
X145905Y91170D01*
X145855D01*
X145830Y91145D01*
Y91120D01*
X145855Y91095D01*
X145880D01*
X145855D01*
X145830Y91070D01*
Y91045D01*
X145855Y91020D01*
X145905D01*
X145930Y91045D01*
X146250Y91650D02*
X146150D01*
X146200D01*
Y91500D01*
X146100Y91625D02*
X146075Y91650D01*
X146025D01*
X146000Y91625D01*
Y91600D01*
X146025Y91575D01*
X146050D01*
X146025D01*
X146000Y91550D01*
Y91525D01*
X146025Y91500D01*
X146075D01*
X146100Y91525D01*
X145850Y91500D02*
X145950D01*
X145850Y91600D01*
Y91625D01*
X145875Y91650D01*
X145925D01*
X145950Y91625D01*
X146220Y92110D02*
X146120D01*
X146170D01*
Y91960D01*
X146070Y92085D02*
X146045Y92110D01*
X145995D01*
X145970Y92085D01*
Y92060D01*
X145995Y92035D01*
X146020D01*
X145995D01*
X145970Y92010D01*
Y91985D01*
X145995Y91960D01*
X146045D01*
X146070Y91985D01*
X145920Y91960D02*
X145870D01*
X145895D01*
Y92110D01*
X145920Y92085D01*
X149300Y92430D02*
X149200D01*
X149250D01*
Y92280D01*
X149150Y92405D02*
X149125Y92430D01*
X149075D01*
X149050Y92405D01*
Y92380D01*
X149075Y92355D01*
X149100D01*
X149075D01*
X149050Y92330D01*
Y92305D01*
X149075Y92280D01*
X149125D01*
X149150Y92305D01*
X149000Y92405D02*
X148975Y92430D01*
X148925D01*
X148900Y92405D01*
Y92305D01*
X148925Y92280D01*
X148975D01*
X149000Y92305D01*
Y92405D01*
X143170Y90900D02*
X143070D01*
X143120D01*
Y90750D01*
X142920D02*
X143020D01*
X142920Y90850D01*
Y90875D01*
X142945Y90900D01*
X142995D01*
X143020Y90875D01*
X142870Y90775D02*
X142845Y90750D01*
X142795D01*
X142770Y90775D01*
Y90875D01*
X142795Y90900D01*
X142845D01*
X142870Y90875D01*
Y90850D01*
X142845Y90825D01*
X142770D01*
X146250Y92570D02*
X146150D01*
X146200D01*
Y92420D01*
X146000D02*
X146100D01*
X146000Y92520D01*
Y92545D01*
X146025Y92570D01*
X146075D01*
X146100Y92545D01*
X145950D02*
X145925Y92570D01*
X145875D01*
X145850Y92545D01*
Y92520D01*
X145875Y92495D01*
X145850Y92470D01*
Y92445D01*
X145875Y92420D01*
X145925D01*
X145950Y92445D01*
Y92470D01*
X145925Y92495D01*
X145950Y92520D01*
Y92545D01*
X145925Y92495D02*
X145875D01*
X142460Y95790D02*
X142360D01*
X142410D01*
Y95640D01*
X142210D02*
X142310D01*
X142210Y95740D01*
Y95765D01*
X142235Y95790D01*
X142285D01*
X142310Y95765D01*
X142160Y95790D02*
X142060D01*
Y95765D01*
X142160Y95665D01*
Y95640D01*
X146240Y93030D02*
X146140D01*
X146190D01*
Y92880D01*
X145990D02*
X146090D01*
X145990Y92980D01*
Y93005D01*
X146015Y93030D01*
X146065D01*
X146090Y93005D01*
X145840Y93030D02*
X145890Y93005D01*
X145940Y92955D01*
Y92905D01*
X145915Y92880D01*
X145865D01*
X145840Y92905D01*
Y92930D01*
X145865Y92955D01*
X145940D01*
X147540Y94300D02*
X147440D01*
X147490D01*
Y94150D01*
X147290D02*
X147390D01*
X147290Y94250D01*
Y94275D01*
X147315Y94300D01*
X147365D01*
X147390Y94275D01*
X147140Y94300D02*
X147240D01*
Y94225D01*
X147190Y94250D01*
X147165D01*
X147140Y94225D01*
Y94175D01*
X147165Y94150D01*
X147215D01*
X147240Y94175D01*
X146240Y93490D02*
X146140D01*
X146190D01*
Y93340D01*
X145990D02*
X146090D01*
X145990Y93440D01*
Y93465D01*
X146015Y93490D01*
X146065D01*
X146090Y93465D01*
X145865Y93340D02*
Y93490D01*
X145940Y93415D01*
X145840D01*
X146240Y93950D02*
X146140D01*
X146190D01*
Y93800D01*
X145990D02*
X146090D01*
X145990Y93900D01*
Y93925D01*
X146015Y93950D01*
X146065D01*
X146090Y93925D01*
X145940D02*
X145915Y93950D01*
X145865D01*
X145840Y93925D01*
Y93900D01*
X145865Y93875D01*
X145890D01*
X145865D01*
X145840Y93850D01*
Y93825D01*
X145865Y93800D01*
X145915D01*
X145940Y93825D01*
X146240Y94410D02*
X146140D01*
X146190D01*
Y94260D01*
X145990D02*
X146090D01*
X145990Y94360D01*
Y94385D01*
X146015Y94410D01*
X146065D01*
X146090Y94385D01*
X145840Y94260D02*
X145940D01*
X145840Y94360D01*
Y94385D01*
X145865Y94410D01*
X145915D01*
X145940Y94385D01*
X149270Y92980D02*
X149170D01*
X149220D01*
Y92830D01*
X149020D02*
X149120D01*
X149020Y92930D01*
Y92955D01*
X149045Y92980D01*
X149095D01*
X149120Y92955D01*
X148970Y92830D02*
X148920D01*
X148945D01*
Y92980D01*
X148970Y92955D01*
X148160Y93780D02*
X148060D01*
X148110D01*
Y93630D01*
X147910D02*
X148010D01*
X147910Y93730D01*
Y93755D01*
X147935Y93780D01*
X147985D01*
X148010Y93755D01*
X147860D02*
X147835Y93780D01*
X147785D01*
X147760Y93755D01*
Y93655D01*
X147785Y93630D01*
X147835D01*
X147860Y93655D01*
Y93755D01*
X146220Y94870D02*
X146120D01*
X146170D01*
Y94720D01*
X146070D02*
X146020D01*
X146045D01*
Y94870D01*
X146070Y94845D01*
X145945Y94745D02*
X145920Y94720D01*
X145870D01*
X145845Y94745D01*
Y94845D01*
X145870Y94870D01*
X145920D01*
X145945Y94845D01*
Y94820D01*
X145920Y94795D01*
X145845D01*
X148150Y91180D02*
X148050D01*
X148100D01*
Y91030D01*
X148000D02*
X147950D01*
X147975D01*
Y91180D01*
X148000Y91155D01*
X147875D02*
X147850Y91180D01*
X147800D01*
X147775Y91155D01*
Y91130D01*
X147800Y91105D01*
X147775Y91080D01*
Y91055D01*
X147800Y91030D01*
X147850D01*
X147875Y91055D01*
Y91080D01*
X147850Y91105D01*
X147875Y91130D01*
Y91155D01*
X147850Y91105D02*
X147800D01*
X130030Y99750D02*
X129930D01*
X129980D01*
Y99600D01*
X129880D02*
X129830D01*
X129855D01*
Y99750D01*
X129880Y99725D01*
X129755Y99750D02*
X129655D01*
Y99725D01*
X129755Y99625D01*
Y99600D01*
X128490Y101630D02*
X128390D01*
X128440D01*
Y101480D01*
X128340D02*
X128290D01*
X128315D01*
Y101630D01*
X128340Y101605D01*
X128115Y101630D02*
X128165Y101605D01*
X128215Y101555D01*
Y101505D01*
X128190Y101480D01*
X128140D01*
X128115Y101505D01*
Y101530D01*
X128140Y101555D01*
X128215D01*
X121530Y103940D02*
X121430D01*
X121480D01*
Y103790D01*
X121380D02*
X121330D01*
X121355D01*
Y103940D01*
X121380Y103915D01*
X121155Y103940D02*
X121255D01*
Y103865D01*
X121205Y103890D01*
X121180D01*
X121155Y103865D01*
Y103815D01*
X121180Y103790D01*
X121230D01*
X121255Y103815D01*
X122980Y102350D02*
X122880D01*
X122930D01*
Y102200D01*
X122830D02*
X122780D01*
X122805D01*
Y102350D01*
X122830Y102325D01*
X122630Y102200D02*
Y102350D01*
X122705Y102275D01*
X122605D01*
X146630Y98240D02*
X146530D01*
X146580D01*
Y98090D01*
X146480D02*
X146430D01*
X146455D01*
Y98240D01*
X146480Y98215D01*
X146355D02*
X146330Y98240D01*
X146280D01*
X146255Y98215D01*
Y98190D01*
X146280Y98165D01*
X146305D01*
X146280D01*
X146255Y98140D01*
Y98115D01*
X146280Y98090D01*
X146330D01*
X146355Y98115D01*
X146630Y98720D02*
X146530D01*
X146580D01*
Y98570D01*
X146480D02*
X146430D01*
X146455D01*
Y98720D01*
X146480Y98695D01*
X146255Y98570D02*
X146355D01*
X146255Y98670D01*
Y98695D01*
X146280Y98720D01*
X146330D01*
X146355Y98695D01*
X146600Y99180D02*
X146500D01*
X146550D01*
Y99030D01*
X146450D02*
X146400D01*
X146425D01*
Y99180D01*
X146450Y99155D01*
X146325Y99030D02*
X146275D01*
X146300D01*
Y99180D01*
X146325Y99155D01*
X146630Y99650D02*
X146530D01*
X146580D01*
Y99500D01*
X146480D02*
X146430D01*
X146455D01*
Y99650D01*
X146480Y99625D01*
X146355D02*
X146330Y99650D01*
X146280D01*
X146255Y99625D01*
Y99525D01*
X146280Y99500D01*
X146330D01*
X146355Y99525D01*
Y99625D01*
X140730Y104580D02*
X140630D01*
X140680D01*
Y104430D01*
X140580Y104455D02*
X140555Y104430D01*
X140505D01*
X140480Y104455D01*
Y104555D01*
X140505Y104580D01*
X140555D01*
X140580Y104555D01*
Y104530D01*
X140555Y104505D01*
X140480D01*
X141930Y104560D02*
X141830D01*
X141880D01*
Y104410D01*
X141780Y104535D02*
X141755Y104560D01*
X141705D01*
X141680Y104535D01*
Y104510D01*
X141705Y104485D01*
X141680Y104460D01*
Y104435D01*
X141705Y104410D01*
X141755D01*
X141780Y104435D01*
Y104460D01*
X141755Y104485D01*
X141780Y104510D01*
Y104535D01*
X141755Y104485D02*
X141705D01*
X123850Y91500D02*
X123750D01*
X123800D01*
Y91350D01*
X123700Y91500D02*
X123600D01*
Y91475D01*
X123700Y91375D01*
Y91350D01*
X121810Y93110D02*
X121710D01*
X121760D01*
Y92960D01*
X121560Y93110D02*
X121610Y93085D01*
X121660Y93035D01*
Y92985D01*
X121635Y92960D01*
X121585D01*
X121560Y92985D01*
Y93010D01*
X121585Y93035D01*
X121660D01*
X123130Y93700D02*
X123030D01*
X123080D01*
Y93550D01*
X122880Y93700D02*
X122980D01*
Y93625D01*
X122930Y93650D01*
X122905D01*
X122880Y93625D01*
Y93575D01*
X122905Y93550D01*
X122955D01*
X122980Y93575D01*
X128870Y96650D02*
X128770D01*
X128820D01*
Y96500D01*
X128645D02*
Y96650D01*
X128720Y96575D01*
X128620D01*
X127810Y94890D02*
X127710D01*
X127760D01*
Y94740D01*
X127660Y94865D02*
X127635Y94890D01*
X127585D01*
X127560Y94865D01*
Y94840D01*
X127585Y94815D01*
X127610D01*
X127585D01*
X127560Y94790D01*
Y94765D01*
X127585Y94740D01*
X127635D01*
X127660Y94765D01*
X97550Y95270D02*
Y95420D01*
X97475D01*
X97450Y95395D01*
Y95345D01*
X97475Y95320D01*
X97550D01*
X97500D02*
X97450Y95270D01*
X97400D02*
X97350D01*
X97375D01*
Y95420D01*
X97400Y95395D01*
X97275Y95420D02*
X97175D01*
Y95395D01*
X97275Y95295D01*
Y95270D01*
X97125Y95395D02*
X97100Y95420D01*
X97050D01*
X97025Y95395D01*
Y95370D01*
X97050Y95345D01*
X97025Y95320D01*
Y95295D01*
X97050Y95270D01*
X97100D01*
X97125Y95295D01*
Y95320D01*
X97100Y95345D01*
X97125Y95370D01*
Y95395D01*
X97100Y95345D02*
X97050D01*
X97550Y94810D02*
Y94960D01*
X97475D01*
X97450Y94935D01*
Y94885D01*
X97475Y94860D01*
X97550D01*
X97500D02*
X97450Y94810D01*
X97400D02*
X97350D01*
X97375D01*
Y94960D01*
X97400Y94935D01*
X97275Y94960D02*
X97175D01*
Y94935D01*
X97275Y94835D01*
Y94810D01*
X97125Y94960D02*
X97025D01*
Y94935D01*
X97125Y94835D01*
Y94810D01*
X97550Y97110D02*
Y97260D01*
X97475D01*
X97450Y97235D01*
Y97185D01*
X97475Y97160D01*
X97550D01*
X97500D02*
X97450Y97110D01*
X97400D02*
X97350D01*
X97375D01*
Y97260D01*
X97400Y97235D01*
X97275Y97260D02*
X97175D01*
Y97235D01*
X97275Y97135D01*
Y97110D01*
X97025Y97260D02*
X97075Y97235D01*
X97125Y97185D01*
Y97135D01*
X97100Y97110D01*
X97050D01*
X97025Y97135D01*
Y97160D01*
X97050Y97185D01*
X97125D01*
X97550Y96650D02*
Y96800D01*
X97475D01*
X97450Y96775D01*
Y96725D01*
X97475Y96700D01*
X97550D01*
X97500D02*
X97450Y96650D01*
X97400D02*
X97350D01*
X97375D01*
Y96800D01*
X97400Y96775D01*
X97275Y96800D02*
X97175D01*
Y96775D01*
X97275Y96675D01*
Y96650D01*
X97025Y96800D02*
X97125D01*
Y96725D01*
X97075Y96750D01*
X97050D01*
X97025Y96725D01*
Y96675D01*
X97050Y96650D01*
X97100D01*
X97125Y96675D01*
X146080Y102080D02*
Y102230D01*
X146155D01*
X146180Y102205D01*
Y102155D01*
X146155Y102130D01*
X146080D01*
X146130D02*
X146180Y102080D01*
X146230D02*
X146280D01*
X146255D01*
Y102230D01*
X146230Y102205D01*
X146455Y102230D02*
X146405Y102205D01*
X146355Y102155D01*
Y102105D01*
X146380Y102080D01*
X146430D01*
X146455Y102105D01*
Y102130D01*
X146430Y102155D01*
X146355D01*
X146505Y102205D02*
X146530Y102230D01*
X146580D01*
X146605Y102205D01*
Y102105D01*
X146580Y102080D01*
X146530D01*
X146505Y102105D01*
Y102205D01*
X146080Y103040D02*
Y103190D01*
X146155D01*
X146180Y103165D01*
Y103115D01*
X146155Y103090D01*
X146080D01*
X146130D02*
X146180Y103040D01*
X146230D02*
X146280D01*
X146255D01*
Y103190D01*
X146230Y103165D01*
X146455Y103190D02*
X146355D01*
Y103115D01*
X146405Y103140D01*
X146430D01*
X146455Y103115D01*
Y103065D01*
X146430Y103040D01*
X146380D01*
X146355Y103065D01*
X146505Y103165D02*
X146530Y103190D01*
X146580D01*
X146605Y103165D01*
Y103140D01*
X146580Y103115D01*
X146605Y103090D01*
Y103065D01*
X146580Y103040D01*
X146530D01*
X146505Y103065D01*
Y103090D01*
X146530Y103115D01*
X146505Y103140D01*
Y103165D01*
X146530Y103115D02*
X146580D01*
X146080Y103530D02*
Y103680D01*
X146155D01*
X146180Y103655D01*
Y103605D01*
X146155Y103580D01*
X146080D01*
X146130D02*
X146180Y103530D01*
X146230D02*
X146280D01*
X146255D01*
Y103680D01*
X146230Y103655D01*
X146455Y103680D02*
X146355D01*
Y103605D01*
X146405Y103630D01*
X146430D01*
X146455Y103605D01*
Y103555D01*
X146430Y103530D01*
X146380D01*
X146355Y103555D01*
X146505Y103680D02*
X146605D01*
Y103655D01*
X146505Y103555D01*
Y103530D01*
X146080Y104010D02*
Y104160D01*
X146155D01*
X146180Y104135D01*
Y104085D01*
X146155Y104060D01*
X146080D01*
X146130D02*
X146180Y104010D01*
X146230D02*
X146280D01*
X146255D01*
Y104160D01*
X146230Y104135D01*
X146455Y104160D02*
X146355D01*
Y104085D01*
X146405Y104110D01*
X146430D01*
X146455Y104085D01*
Y104035D01*
X146430Y104010D01*
X146380D01*
X146355Y104035D01*
X146605Y104160D02*
X146555Y104135D01*
X146505Y104085D01*
Y104035D01*
X146530Y104010D01*
X146580D01*
X146605Y104035D01*
Y104060D01*
X146580Y104085D01*
X146505D01*
X147770Y103730D02*
Y103880D01*
X147845D01*
X147870Y103855D01*
Y103805D01*
X147845Y103780D01*
X147770D01*
X147820D02*
X147870Y103730D01*
X147920D02*
X147970D01*
X147945D01*
Y103880D01*
X147920Y103855D01*
X148145Y103880D02*
X148045D01*
Y103805D01*
X148095Y103830D01*
X148120D01*
X148145Y103805D01*
Y103755D01*
X148120Y103730D01*
X148070D01*
X148045Y103755D01*
X148295Y103880D02*
X148195D01*
Y103805D01*
X148245Y103830D01*
X148270D01*
X148295Y103805D01*
Y103755D01*
X148270Y103730D01*
X148220D01*
X148195Y103755D01*
X146080Y104500D02*
Y104650D01*
X146155D01*
X146180Y104625D01*
Y104575D01*
X146155Y104550D01*
X146080D01*
X146130D02*
X146180Y104500D01*
X146230D02*
X146280D01*
X146255D01*
Y104650D01*
X146230Y104625D01*
X146455Y104650D02*
X146355D01*
Y104575D01*
X146405Y104600D01*
X146430D01*
X146455Y104575D01*
Y104525D01*
X146430Y104500D01*
X146380D01*
X146355Y104525D01*
X146580Y104500D02*
Y104650D01*
X146505Y104575D01*
X146605D01*
X145770Y103040D02*
Y103190D01*
X145695D01*
X145670Y103165D01*
Y103115D01*
X145695Y103090D01*
X145770D01*
X145720D02*
X145670Y103040D01*
X145620D02*
X145570D01*
X145595D01*
Y103190D01*
X145620Y103165D01*
X145420Y103040D02*
Y103190D01*
X145495Y103115D01*
X145395D01*
X145245Y103190D02*
X145295Y103165D01*
X145345Y103115D01*
Y103065D01*
X145320Y103040D01*
X145270D01*
X145245Y103065D01*
Y103090D01*
X145270Y103115D01*
X145345D01*
X145770Y102560D02*
Y102710D01*
X145695D01*
X145670Y102685D01*
Y102635D01*
X145695Y102610D01*
X145770D01*
X145720D02*
X145670Y102560D01*
X145620D02*
X145570D01*
X145595D01*
Y102710D01*
X145620Y102685D01*
X145420Y102560D02*
Y102710D01*
X145495Y102635D01*
X145395D01*
X145245Y102710D02*
X145345D01*
Y102635D01*
X145295Y102660D01*
X145270D01*
X145245Y102635D01*
Y102585D01*
X145270Y102560D01*
X145320D01*
X145345Y102585D01*
X142620Y92040D02*
Y92190D01*
X142545D01*
X142520Y92165D01*
Y92115D01*
X142545Y92090D01*
X142620D01*
X142570D02*
X142520Y92040D01*
X142470D02*
X142420D01*
X142445D01*
Y92190D01*
X142470Y92165D01*
X142270Y92040D02*
Y92190D01*
X142345Y92115D01*
X142245D01*
X142095Y92040D02*
X142195D01*
X142095Y92140D01*
Y92165D01*
X142120Y92190D01*
X142170D01*
X142195Y92165D01*
X139690Y91760D02*
Y91910D01*
X139615D01*
X139590Y91885D01*
Y91835D01*
X139615Y91810D01*
X139690D01*
X139640D02*
X139590Y91760D01*
X139540D02*
X139490D01*
X139515D01*
Y91910D01*
X139540Y91885D01*
X139415D02*
X139390Y91910D01*
X139340D01*
X139315Y91885D01*
Y91860D01*
X139340Y91835D01*
X139365D01*
X139340D01*
X139315Y91810D01*
Y91785D01*
X139340Y91760D01*
X139390D01*
X139415Y91785D01*
X139165Y91910D02*
X139215Y91885D01*
X139265Y91835D01*
Y91785D01*
X139240Y91760D01*
X139190D01*
X139165Y91785D01*
Y91810D01*
X139190Y91835D01*
X139265D01*
X147180Y90530D02*
Y90680D01*
X147105D01*
X147080Y90655D01*
Y90605D01*
X147105Y90580D01*
X147180D01*
X147130D02*
X147080Y90530D01*
X147030D02*
X146980D01*
X147005D01*
Y90680D01*
X147030Y90655D01*
X146905D02*
X146880Y90680D01*
X146830D01*
X146805Y90655D01*
Y90630D01*
X146830Y90605D01*
X146855D01*
X146830D01*
X146805Y90580D01*
Y90555D01*
X146830Y90530D01*
X146880D01*
X146905Y90555D01*
X146655Y90680D02*
X146755D01*
Y90605D01*
X146705Y90630D01*
X146680D01*
X146655Y90605D01*
Y90555D01*
X146680Y90530D01*
X146730D01*
X146755Y90555D01*
X146210Y90550D02*
Y90700D01*
X146135D01*
X146110Y90675D01*
Y90625D01*
X146135Y90600D01*
X146210D01*
X146160D02*
X146110Y90550D01*
X146060D02*
X146010D01*
X146035D01*
Y90700D01*
X146060Y90675D01*
X145935D02*
X145910Y90700D01*
X145860D01*
X145835Y90675D01*
Y90650D01*
X145860Y90625D01*
X145885D01*
X145860D01*
X145835Y90600D01*
Y90575D01*
X145860Y90550D01*
X145910D01*
X145935Y90575D01*
X145710Y90550D02*
Y90700D01*
X145785Y90625D01*
X145685D01*
X95350Y106840D02*
Y106990D01*
X95275D01*
X95250Y106965D01*
Y106915D01*
X95275Y106890D01*
X95350D01*
X95300D02*
X95250Y106840D01*
X95200D02*
X95150D01*
X95175D01*
Y106990D01*
X95200Y106965D01*
X95075D02*
X95050Y106990D01*
X95000D01*
X94975Y106965D01*
Y106940D01*
X95000Y106915D01*
X95025D01*
X95000D01*
X94975Y106890D01*
Y106865D01*
X95000Y106840D01*
X95050D01*
X95075Y106865D01*
X94925Y106840D02*
X94875D01*
X94900D01*
Y106990D01*
X94925Y106965D01*
X95370Y108340D02*
Y108490D01*
X95295D01*
X95270Y108465D01*
Y108415D01*
X95295Y108390D01*
X95370D01*
X95320D02*
X95270Y108340D01*
X95220D02*
X95170D01*
X95195D01*
Y108490D01*
X95220Y108465D01*
X95095D02*
X95070Y108490D01*
X95020D01*
X94995Y108465D01*
Y108440D01*
X95020Y108415D01*
X95045D01*
X95020D01*
X94995Y108390D01*
Y108365D01*
X95020Y108340D01*
X95070D01*
X95095Y108365D01*
X94945Y108465D02*
X94920Y108490D01*
X94870D01*
X94845Y108465D01*
Y108365D01*
X94870Y108340D01*
X94920D01*
X94945Y108365D01*
Y108465D01*
X94400Y108340D02*
Y108490D01*
X94325D01*
X94300Y108465D01*
Y108415D01*
X94325Y108390D01*
X94400D01*
X94350D02*
X94300Y108340D01*
X94250D02*
X94200D01*
X94225D01*
Y108490D01*
X94250Y108465D01*
X94025Y108340D02*
X94125D01*
X94025Y108440D01*
Y108465D01*
X94050Y108490D01*
X94100D01*
X94125Y108465D01*
X93975Y108365D02*
X93950Y108340D01*
X93900D01*
X93875Y108365D01*
Y108465D01*
X93900Y108490D01*
X93950D01*
X93975Y108465D01*
Y108440D01*
X93950Y108415D01*
X93875D01*
X91300Y109760D02*
Y109910D01*
X91225D01*
X91200Y109885D01*
Y109835D01*
X91225Y109810D01*
X91300D01*
X91250D02*
X91200Y109760D01*
X91150D02*
X91100D01*
X91125D01*
Y109910D01*
X91150Y109885D01*
X91025D02*
X91000Y109910D01*
X90950D01*
X90925Y109885D01*
Y109785D01*
X90950Y109760D01*
X91000D01*
X91025Y109785D01*
Y109885D01*
X90775Y109910D02*
X90875D01*
Y109835D01*
X90825Y109860D01*
X90800D01*
X90775Y109835D01*
Y109785D01*
X90800Y109760D01*
X90850D01*
X90875Y109785D01*
X91300Y109000D02*
Y109150D01*
X91225D01*
X91200Y109125D01*
Y109075D01*
X91225Y109050D01*
X91300D01*
X91250D02*
X91200Y109000D01*
X91150D02*
X91100D01*
X91125D01*
Y109150D01*
X91150Y109125D01*
X91025D02*
X91000Y109150D01*
X90950D01*
X90925Y109125D01*
Y109025D01*
X90950Y109000D01*
X91000D01*
X91025Y109025D01*
Y109125D01*
X90800Y109000D02*
Y109150D01*
X90875Y109075D01*
X90775D01*
X100340Y102680D02*
Y102830D01*
X100265D01*
X100240Y102805D01*
Y102755D01*
X100265Y102730D01*
X100340D01*
X100290D02*
X100240Y102680D01*
X100190D02*
X100140D01*
X100165D01*
Y102830D01*
X100190Y102805D01*
X100065D02*
X100040Y102830D01*
X99990D01*
X99965Y102805D01*
Y102705D01*
X99990Y102680D01*
X100040D01*
X100065Y102705D01*
Y102805D01*
X99915D02*
X99890Y102830D01*
X99840D01*
X99815Y102805D01*
Y102780D01*
X99840Y102755D01*
X99865D01*
X99840D01*
X99815Y102730D01*
Y102705D01*
X99840Y102680D01*
X99890D01*
X99915Y102705D01*
X90430Y111030D02*
Y111180D01*
X90355D01*
X90330Y111155D01*
Y111105D01*
X90355Y111080D01*
X90430D01*
X90380D02*
X90330Y111030D01*
X90280Y111055D02*
X90255Y111030D01*
X90205D01*
X90180Y111055D01*
Y111155D01*
X90205Y111180D01*
X90255D01*
X90280Y111155D01*
Y111130D01*
X90255Y111105D01*
X90180D01*
X90130Y111055D02*
X90105Y111030D01*
X90055D01*
X90030Y111055D01*
Y111155D01*
X90055Y111180D01*
X90105D01*
X90130Y111155D01*
Y111130D01*
X90105Y111105D01*
X90030D01*
X92980Y98110D02*
Y98260D01*
X92905D01*
X92880Y98235D01*
Y98185D01*
X92905Y98160D01*
X92980D01*
X92930D02*
X92880Y98110D01*
X92830Y98235D02*
X92805Y98260D01*
X92755D01*
X92730Y98235D01*
Y98210D01*
X92755Y98185D01*
X92730Y98160D01*
Y98135D01*
X92755Y98110D01*
X92805D01*
X92830Y98135D01*
Y98160D01*
X92805Y98185D01*
X92830Y98210D01*
Y98235D01*
X92805Y98185D02*
X92755D01*
X92680Y98260D02*
X92580D01*
Y98235D01*
X92680Y98135D01*
Y98110D01*
X92200D02*
Y98260D01*
X92125D01*
X92100Y98235D01*
Y98185D01*
X92125Y98160D01*
X92200D01*
X92150D02*
X92100Y98110D01*
X92050Y98235D02*
X92025Y98260D01*
X91975D01*
X91950Y98235D01*
Y98210D01*
X91975Y98185D01*
X91950Y98160D01*
Y98135D01*
X91975Y98110D01*
X92025D01*
X92050Y98135D01*
Y98160D01*
X92025Y98185D01*
X92050Y98210D01*
Y98235D01*
X92025Y98185D02*
X91975D01*
X91800Y98260D02*
X91850Y98235D01*
X91900Y98185D01*
Y98135D01*
X91875Y98110D01*
X91825D01*
X91800Y98135D01*
Y98160D01*
X91825Y98185D01*
X91900D01*
X92200Y98560D02*
Y98710D01*
X92125D01*
X92100Y98685D01*
Y98635D01*
X92125Y98610D01*
X92200D01*
X92150D02*
X92100Y98560D01*
X92050Y98685D02*
X92025Y98710D01*
X91975D01*
X91950Y98685D01*
Y98660D01*
X91975Y98635D01*
X91950Y98610D01*
Y98585D01*
X91975Y98560D01*
X92025D01*
X92050Y98585D01*
Y98610D01*
X92025Y98635D01*
X92050Y98660D01*
Y98685D01*
X92025Y98635D02*
X91975D01*
X91800Y98710D02*
X91900D01*
Y98635D01*
X91850Y98660D01*
X91825D01*
X91800Y98635D01*
Y98585D01*
X91825Y98560D01*
X91875D01*
X91900Y98585D01*
X92200Y99010D02*
Y99160D01*
X92125D01*
X92100Y99135D01*
Y99085D01*
X92125Y99060D01*
X92200D01*
X92150D02*
X92100Y99010D01*
X92050Y99135D02*
X92025Y99160D01*
X91975D01*
X91950Y99135D01*
Y99110D01*
X91975Y99085D01*
X91950Y99060D01*
Y99035D01*
X91975Y99010D01*
X92025D01*
X92050Y99035D01*
Y99060D01*
X92025Y99085D01*
X92050Y99110D01*
Y99135D01*
X92025Y99085D02*
X91975D01*
X91825Y99010D02*
Y99160D01*
X91900Y99085D01*
X91800D01*
X92200Y99800D02*
Y99950D01*
X92125D01*
X92100Y99925D01*
Y99875D01*
X92125Y99850D01*
X92200D01*
X92150D02*
X92100Y99800D01*
X92050Y99925D02*
X92025Y99950D01*
X91975D01*
X91950Y99925D01*
Y99900D01*
X91975Y99875D01*
X91950Y99850D01*
Y99825D01*
X91975Y99800D01*
X92025D01*
X92050Y99825D01*
Y99850D01*
X92025Y99875D01*
X92050Y99900D01*
Y99925D01*
X92025Y99875D02*
X91975D01*
X91900Y99925D02*
X91875Y99950D01*
X91825D01*
X91800Y99925D01*
Y99900D01*
X91825Y99875D01*
X91850D01*
X91825D01*
X91800Y99850D01*
Y99825D01*
X91825Y99800D01*
X91875D01*
X91900Y99825D01*
X92200Y100700D02*
Y100850D01*
X92125D01*
X92100Y100825D01*
Y100775D01*
X92125Y100750D01*
X92200D01*
X92150D02*
X92100Y100700D01*
X92050Y100825D02*
X92025Y100850D01*
X91975D01*
X91950Y100825D01*
Y100800D01*
X91975Y100775D01*
X91950Y100750D01*
Y100725D01*
X91975Y100700D01*
X92025D01*
X92050Y100725D01*
Y100750D01*
X92025Y100775D01*
X92050Y100800D01*
Y100825D01*
X92025Y100775D02*
X91975D01*
X91800Y100700D02*
X91900D01*
X91800Y100800D01*
Y100825D01*
X91825Y100850D01*
X91875D01*
X91900Y100825D01*
X92170Y101150D02*
Y101300D01*
X92095D01*
X92070Y101275D01*
Y101225D01*
X92095Y101200D01*
X92170D01*
X92120D02*
X92070Y101150D01*
X92020Y101275D02*
X91995Y101300D01*
X91945D01*
X91920Y101275D01*
Y101250D01*
X91945Y101225D01*
X91920Y101200D01*
Y101175D01*
X91945Y101150D01*
X91995D01*
X92020Y101175D01*
Y101200D01*
X91995Y101225D01*
X92020Y101250D01*
Y101275D01*
X91995Y101225D02*
X91945D01*
X91870Y101150D02*
X91820D01*
X91845D01*
Y101300D01*
X91870Y101275D01*
X92200Y101610D02*
Y101760D01*
X92125D01*
X92100Y101735D01*
Y101685D01*
X92125Y101660D01*
X92200D01*
X92150D02*
X92100Y101610D01*
X92050Y101735D02*
X92025Y101760D01*
X91975D01*
X91950Y101735D01*
Y101710D01*
X91975Y101685D01*
X91950Y101660D01*
Y101635D01*
X91975Y101610D01*
X92025D01*
X92050Y101635D01*
Y101660D01*
X92025Y101685D01*
X92050Y101710D01*
Y101735D01*
X92025Y101685D02*
X91975D01*
X91900Y101735D02*
X91875Y101760D01*
X91825D01*
X91800Y101735D01*
Y101635D01*
X91825Y101610D01*
X91875D01*
X91900Y101635D01*
Y101735D01*
X120650Y92260D02*
Y92410D01*
X120575D01*
X120550Y92385D01*
Y92335D01*
X120575Y92310D01*
X120650D01*
X120600D02*
X120550Y92260D01*
X120500Y92410D02*
X120400D01*
Y92385D01*
X120500Y92285D01*
Y92260D01*
X120250Y92410D02*
X120300Y92385D01*
X120350Y92335D01*
Y92285D01*
X120325Y92260D01*
X120275D01*
X120250Y92285D01*
Y92310D01*
X120275Y92335D01*
X120350D01*
X119130Y94880D02*
Y95030D01*
X119055D01*
X119030Y95005D01*
Y94955D01*
X119055Y94930D01*
X119130D01*
X119080D02*
X119030Y94880D01*
X118980Y95030D02*
X118880D01*
Y95005D01*
X118980Y94905D01*
Y94880D01*
X118730Y95030D02*
X118830D01*
Y94955D01*
X118780Y94980D01*
X118755D01*
X118730Y94955D01*
Y94905D01*
X118755Y94880D01*
X118805D01*
X118830Y94905D01*
X118840Y91810D02*
Y91960D01*
X118765D01*
X118740Y91935D01*
Y91885D01*
X118765Y91860D01*
X118840D01*
X118790D02*
X118740Y91810D01*
X118690Y91960D02*
X118590D01*
Y91935D01*
X118690Y91835D01*
Y91810D01*
X118540D02*
X118490D01*
X118515D01*
Y91960D01*
X118540Y91935D01*
X118870Y91360D02*
Y91510D01*
X118795D01*
X118770Y91485D01*
Y91435D01*
X118795Y91410D01*
X118870D01*
X118820D02*
X118770Y91360D01*
X118720Y91510D02*
X118620D01*
Y91485D01*
X118720Y91385D01*
Y91360D01*
X118570Y91485D02*
X118545Y91510D01*
X118495D01*
X118470Y91485D01*
Y91385D01*
X118495Y91360D01*
X118545D01*
X118570Y91385D01*
Y91485D01*
X89970Y96220D02*
Y96370D01*
X89895D01*
X89870Y96345D01*
Y96295D01*
X89895Y96270D01*
X89970D01*
X89920D02*
X89870Y96220D01*
X89720Y96370D02*
X89770Y96345D01*
X89820Y96295D01*
Y96245D01*
X89795Y96220D01*
X89745D01*
X89720Y96245D01*
Y96270D01*
X89745Y96295D01*
X89820D01*
X89570Y96370D02*
X89670D01*
Y96295D01*
X89620Y96320D01*
X89595D01*
X89570Y96295D01*
Y96245D01*
X89595Y96220D01*
X89645D01*
X89670Y96245D01*
X89980Y95710D02*
Y95860D01*
X89905D01*
X89880Y95835D01*
Y95785D01*
X89905Y95760D01*
X89980D01*
X89930D02*
X89880Y95710D01*
X89730Y95860D02*
X89780Y95835D01*
X89830Y95785D01*
Y95735D01*
X89805Y95710D01*
X89755D01*
X89730Y95735D01*
Y95760D01*
X89755Y95785D01*
X89830D01*
X89605Y95710D02*
Y95860D01*
X89680Y95785D01*
X89580D01*
X124700Y91360D02*
Y91510D01*
X124625D01*
X124600Y91485D01*
Y91435D01*
X124625Y91410D01*
X124700D01*
X124650D02*
X124600Y91360D01*
X124450Y91510D02*
X124500Y91485D01*
X124550Y91435D01*
Y91385D01*
X124525Y91360D01*
X124475D01*
X124450Y91385D01*
Y91410D01*
X124475Y91435D01*
X124550D01*
X124400Y91360D02*
X124350D01*
X124375D01*
Y91510D01*
X124400Y91485D01*
X124730Y91820D02*
Y91970D01*
X124655D01*
X124630Y91945D01*
Y91895D01*
X124655Y91870D01*
X124730D01*
X124680D02*
X124630Y91820D01*
X124480Y91970D02*
X124530Y91945D01*
X124580Y91895D01*
Y91845D01*
X124555Y91820D01*
X124505D01*
X124480Y91845D01*
Y91870D01*
X124505Y91895D01*
X124580D01*
X124430Y91945D02*
X124405Y91970D01*
X124355D01*
X124330Y91945D01*
Y91845D01*
X124355Y91820D01*
X124405D01*
X124430Y91845D01*
Y91945D01*
X127780Y92420D02*
Y92570D01*
X127705D01*
X127680Y92545D01*
Y92495D01*
X127705Y92470D01*
X127780D01*
X127730D02*
X127680Y92420D01*
X127530Y92570D02*
X127630D01*
Y92495D01*
X127580Y92520D01*
X127555D01*
X127530Y92495D01*
Y92445D01*
X127555Y92420D01*
X127605D01*
X127630Y92445D01*
X127480D02*
X127455Y92420D01*
X127405D01*
X127380Y92445D01*
Y92545D01*
X127405Y92570D01*
X127455D01*
X127480Y92545D01*
Y92520D01*
X127455Y92495D01*
X127380D01*
X127750Y92880D02*
Y93030D01*
X127675D01*
X127650Y93005D01*
Y92955D01*
X127675Y92930D01*
X127750D01*
X127700D02*
X127650Y92880D01*
X127500Y93030D02*
X127600D01*
Y92955D01*
X127550Y92980D01*
X127525D01*
X127500Y92955D01*
Y92905D01*
X127525Y92880D01*
X127575D01*
X127600Y92905D01*
X127450Y93005D02*
X127425Y93030D01*
X127375D01*
X127350Y93005D01*
Y92980D01*
X127375Y92955D01*
X127350Y92930D01*
Y92905D01*
X127375Y92880D01*
X127425D01*
X127450Y92905D01*
Y92930D01*
X127425Y92955D01*
X127450Y92980D01*
Y93005D01*
X127425Y92955D02*
X127375D01*
X130080Y94520D02*
Y94670D01*
X130005D01*
X129980Y94645D01*
Y94595D01*
X130005Y94570D01*
X130080D01*
X130030D02*
X129980Y94520D01*
X129830Y94670D02*
X129930D01*
Y94595D01*
X129880Y94620D01*
X129855D01*
X129830Y94595D01*
Y94545D01*
X129855Y94520D01*
X129905D01*
X129930Y94545D01*
X129780Y94670D02*
X129680D01*
Y94645D01*
X129780Y94545D01*
Y94520D01*
X132500Y98120D02*
Y98270D01*
X132425D01*
X132400Y98245D01*
Y98195D01*
X132425Y98170D01*
X132500D01*
X132450D02*
X132400Y98120D01*
X132250Y98270D02*
X132350D01*
Y98195D01*
X132300Y98220D01*
X132275D01*
X132250Y98195D01*
Y98145D01*
X132275Y98120D01*
X132325D01*
X132350Y98145D01*
X132100Y98270D02*
X132150Y98245D01*
X132200Y98195D01*
Y98145D01*
X132175Y98120D01*
X132125D01*
X132100Y98145D01*
Y98170D01*
X132125Y98195D01*
X132200D01*
X130080Y94980D02*
Y95130D01*
X130005D01*
X129980Y95105D01*
Y95055D01*
X130005Y95030D01*
X130080D01*
X130030D02*
X129980Y94980D01*
X129830Y95130D02*
X129930D01*
Y95055D01*
X129880Y95080D01*
X129855D01*
X129830Y95055D01*
Y95005D01*
X129855Y94980D01*
X129905D01*
X129930Y95005D01*
X129680Y95130D02*
X129780D01*
Y95055D01*
X129730Y95080D01*
X129705D01*
X129680Y95055D01*
Y95005D01*
X129705Y94980D01*
X129755D01*
X129780Y95005D01*
X128550Y95560D02*
Y95710D01*
X128475D01*
X128450Y95685D01*
Y95635D01*
X128475Y95610D01*
X128550D01*
X128500D02*
X128450Y95560D01*
X128300Y95710D02*
X128400D01*
Y95635D01*
X128350Y95660D01*
X128325D01*
X128300Y95635D01*
Y95585D01*
X128325Y95560D01*
X128375D01*
X128400Y95585D01*
X128250Y95685D02*
X128225Y95710D01*
X128175D01*
X128150Y95685D01*
Y95660D01*
X128175Y95635D01*
X128200D01*
X128175D01*
X128150Y95610D01*
Y95585D01*
X128175Y95560D01*
X128225D01*
X128250Y95585D01*
X92580Y107490D02*
Y107640D01*
X92505D01*
X92480Y107615D01*
Y107565D01*
X92505Y107540D01*
X92580D01*
X92530D02*
X92480Y107490D01*
X92430Y107615D02*
X92405Y107640D01*
X92355D01*
X92330Y107615D01*
Y107590D01*
X92355Y107565D01*
X92380D01*
X92355D01*
X92330Y107540D01*
Y107515D01*
X92355Y107490D01*
X92405D01*
X92430Y107515D01*
X92280Y107615D02*
X92255Y107640D01*
X92205D01*
X92180Y107615D01*
Y107515D01*
X92205Y107490D01*
X92255D01*
X92280Y107515D01*
Y107615D01*
X91800Y107490D02*
Y107640D01*
X91725D01*
X91700Y107615D01*
Y107565D01*
X91725Y107540D01*
X91800D01*
X91750D02*
X91700Y107490D01*
X91550D02*
X91650D01*
X91550Y107590D01*
Y107615D01*
X91575Y107640D01*
X91625D01*
X91650Y107615D01*
X91500D02*
X91475Y107640D01*
X91425D01*
X91400Y107615D01*
Y107590D01*
X91425Y107565D01*
X91400Y107540D01*
Y107515D01*
X91425Y107490D01*
X91475D01*
X91500Y107515D01*
Y107540D01*
X91475Y107565D01*
X91500Y107590D01*
Y107615D01*
X91475Y107565D02*
X91425D01*
X90990Y107970D02*
Y108120D01*
X90915D01*
X90890Y108095D01*
Y108045D01*
X90915Y108020D01*
X90990D01*
X90940D02*
X90890Y107970D01*
X90740D02*
X90840D01*
X90740Y108070D01*
Y108095D01*
X90765Y108120D01*
X90815D01*
X90840Y108095D01*
X90590Y108120D02*
X90640Y108095D01*
X90690Y108045D01*
Y107995D01*
X90665Y107970D01*
X90615D01*
X90590Y107995D01*
Y108020D01*
X90615Y108045D01*
X90690D01*
X112120Y99810D02*
Y99960D01*
X112045D01*
X112020Y99935D01*
Y99885D01*
X112045Y99860D01*
X112120D01*
X112070D02*
X112020Y99810D01*
X111870D02*
X111970D01*
X111870Y99910D01*
Y99935D01*
X111895Y99960D01*
X111945D01*
X111970Y99935D01*
X111820Y99810D02*
X111770D01*
X111795D01*
Y99960D01*
X111820Y99935D01*
X110210Y100870D02*
Y101020D01*
X110135D01*
X110110Y100995D01*
Y100945D01*
X110135Y100920D01*
X110210D01*
X110160D02*
X110110Y100870D01*
X110060D02*
X110010D01*
X110035D01*
Y101020D01*
X110060Y100995D01*
X109935Y100895D02*
X109910Y100870D01*
X109860D01*
X109835Y100895D01*
Y100995D01*
X109860Y101020D01*
X109910D01*
X109935Y100995D01*
Y100970D01*
X109910Y100945D01*
X109835D01*
X103520Y102720D02*
Y102870D01*
X103445D01*
X103420Y102845D01*
Y102795D01*
X103445Y102770D01*
X103520D01*
X103470D02*
X103420Y102720D01*
X103370D02*
X103320D01*
X103345D01*
Y102870D01*
X103370Y102845D01*
X103245D02*
X103220Y102870D01*
X103170D01*
X103145Y102845D01*
Y102820D01*
X103170Y102795D01*
X103145Y102770D01*
Y102745D01*
X103170Y102720D01*
X103220D01*
X103245Y102745D01*
Y102770D01*
X103220Y102795D01*
X103245Y102820D01*
Y102845D01*
X103220Y102795D02*
X103170D01*
X108510Y95180D02*
Y95330D01*
X108435D01*
X108410Y95305D01*
Y95255D01*
X108435Y95230D01*
X108510D01*
X108460D02*
X108410Y95180D01*
X108360D02*
X108310D01*
X108335D01*
Y95330D01*
X108360Y95305D01*
X108235D02*
X108210Y95330D01*
X108160D01*
X108135Y95305D01*
Y95280D01*
X108160Y95255D01*
X108185D01*
X108160D01*
X108135Y95230D01*
Y95205D01*
X108160Y95180D01*
X108210D01*
X108235Y95205D01*
X113720Y98030D02*
Y98180D01*
X113645D01*
X113620Y98155D01*
Y98105D01*
X113645Y98080D01*
X113720D01*
X113670D02*
X113620Y98030D01*
X113570D02*
X113520D01*
X113545D01*
Y98180D01*
X113570Y98155D01*
X113445D02*
X113420Y98180D01*
X113370D01*
X113345Y98155D01*
Y98055D01*
X113370Y98030D01*
X113420D01*
X113445Y98055D01*
Y98155D01*
X113650Y98480D02*
Y98630D01*
X113575D01*
X113550Y98605D01*
Y98555D01*
X113575Y98530D01*
X113650D01*
X113600D02*
X113550Y98480D01*
X113500Y98505D02*
X113475Y98480D01*
X113425D01*
X113400Y98505D01*
Y98605D01*
X113425Y98630D01*
X113475D01*
X113500Y98605D01*
Y98580D01*
X113475Y98555D01*
X113400D01*
X110130Y98670D02*
Y98820D01*
X110055D01*
X110030Y98795D01*
Y98745D01*
X110055Y98720D01*
X110130D01*
X110080D02*
X110030Y98670D01*
X109880Y98820D02*
X109930Y98795D01*
X109980Y98745D01*
Y98695D01*
X109955Y98670D01*
X109905D01*
X109880Y98695D01*
Y98720D01*
X109905Y98745D01*
X109980D01*
X103620Y104270D02*
Y104420D01*
X103545D01*
X103520Y104395D01*
Y104345D01*
X103545Y104320D01*
X103620D01*
X103470Y104395D02*
X103445Y104420D01*
X103395D01*
X103370Y104395D01*
Y104370D01*
X103395Y104345D01*
X103420D01*
X103395D01*
X103370Y104320D01*
Y104295D01*
X103395Y104270D01*
X103445D01*
X103470Y104295D01*
X102420Y104270D02*
Y104420D01*
X102345D01*
X102320Y104395D01*
Y104345D01*
X102345Y104320D01*
X102420D01*
X102270Y104270D02*
X102220D01*
X102245D01*
Y104420D01*
X102270Y104395D01*
X87190Y110830D02*
X87240D01*
X87215D01*
Y110705D01*
X87240Y110680D01*
X87265D01*
X87290Y110705D01*
X87040Y110830D02*
X87140D01*
Y110755D01*
X87090Y110780D01*
X87065D01*
X87040Y110755D01*
Y110705D01*
X87065Y110680D01*
X87115D01*
X87140Y110705D01*
X87040Y100710D02*
X86990D01*
X87015D01*
Y100585D01*
X86990Y100560D01*
X86965D01*
X86940Y100585D01*
X87165Y100560D02*
Y100710D01*
X87090Y100635D01*
X87190D01*
X86270Y106680D02*
X86220D01*
X86245D01*
Y106555D01*
X86220Y106530D01*
X86195D01*
X86170Y106555D01*
X86420Y106530D02*
X86320D01*
X86420Y106630D01*
Y106655D01*
X86395Y106680D01*
X86345D01*
X86320Y106655D01*
X97460Y96315D02*
X97485Y96340D01*
X97535D01*
X97560Y96315D01*
Y96215D01*
X97535Y96190D01*
X97485D01*
X97460Y96215D01*
X97310Y96190D02*
X97410D01*
X97310Y96290D01*
Y96315D01*
X97335Y96340D01*
X97385D01*
X97410Y96315D01*
X97260Y96215D02*
X97235Y96190D01*
X97185D01*
X97160Y96215D01*
Y96315D01*
X97185Y96340D01*
X97235D01*
X97260Y96315D01*
Y96290D01*
X97235Y96265D01*
X97160D01*
X97035Y96190D02*
Y96340D01*
X97110Y96265D01*
X97010D01*
X101570Y96205D02*
X101595Y96230D01*
X101645D01*
X101670Y96205D01*
Y96105D01*
X101645Y96080D01*
X101595D01*
X101570Y96105D01*
X101420Y96080D02*
X101520D01*
X101420Y96180D01*
Y96205D01*
X101445Y96230D01*
X101495D01*
X101520Y96205D01*
X101370D02*
X101345Y96230D01*
X101295D01*
X101270Y96205D01*
Y96180D01*
X101295Y96155D01*
X101270Y96130D01*
Y96105D01*
X101295Y96080D01*
X101345D01*
X101370Y96105D01*
Y96130D01*
X101345Y96155D01*
X101370Y96180D01*
Y96205D01*
X101345Y96155D02*
X101295D01*
X101120Y96230D02*
X101220D01*
Y96155D01*
X101170Y96180D01*
X101145D01*
X101120Y96155D01*
Y96105D01*
X101145Y96080D01*
X101195D01*
X101220Y96105D01*
X97460Y97695D02*
X97485Y97720D01*
X97535D01*
X97560Y97695D01*
Y97595D01*
X97535Y97570D01*
X97485D01*
X97460Y97595D01*
X97310Y97570D02*
X97410D01*
X97310Y97670D01*
Y97695D01*
X97335Y97720D01*
X97385D01*
X97410Y97695D01*
X97260D02*
X97235Y97720D01*
X97185D01*
X97160Y97695D01*
Y97670D01*
X97185Y97645D01*
X97160Y97620D01*
Y97595D01*
X97185Y97570D01*
X97235D01*
X97260Y97595D01*
Y97620D01*
X97235Y97645D01*
X97260Y97670D01*
Y97695D01*
X97235Y97645D02*
X97185D01*
X97110Y97695D02*
X97085Y97720D01*
X97035D01*
X97010Y97695D01*
Y97670D01*
X97035Y97645D01*
X97060D01*
X97035D01*
X97010Y97620D01*
Y97595D01*
X97035Y97570D01*
X97085D01*
X97110Y97595D01*
X97460Y95855D02*
X97485Y95880D01*
X97535D01*
X97560Y95855D01*
Y95755D01*
X97535Y95730D01*
X97485D01*
X97460Y95755D01*
X97310Y95730D02*
X97410D01*
X97310Y95830D01*
Y95855D01*
X97335Y95880D01*
X97385D01*
X97410Y95855D01*
X97260D02*
X97235Y95880D01*
X97185D01*
X97160Y95855D01*
Y95830D01*
X97185Y95805D01*
X97160Y95780D01*
Y95755D01*
X97185Y95730D01*
X97235D01*
X97260Y95755D01*
Y95780D01*
X97235Y95805D01*
X97260Y95830D01*
Y95855D01*
X97235Y95805D02*
X97185D01*
X97010Y95730D02*
X97110D01*
X97010Y95830D01*
Y95855D01*
X97035Y95880D01*
X97085D01*
X97110Y95855D01*
X148180Y104315D02*
X148205Y104340D01*
X148255D01*
X148280Y104315D01*
Y104215D01*
X148255Y104190D01*
X148205D01*
X148180Y104215D01*
X148030Y104190D02*
X148130D01*
X148030Y104290D01*
Y104315D01*
X148055Y104340D01*
X148105D01*
X148130Y104315D01*
X147980Y104340D02*
X147880D01*
Y104315D01*
X147980Y104215D01*
Y104190D01*
X147830D02*
X147780D01*
X147805D01*
Y104340D01*
X147830Y104315D01*
X94800Y106965D02*
X94825Y106990D01*
X94875D01*
X94900Y106965D01*
Y106865D01*
X94875Y106840D01*
X94825D01*
X94800Y106865D01*
X94650Y106840D02*
X94750D01*
X94650Y106940D01*
Y106965D01*
X94675Y106990D01*
X94725D01*
X94750Y106965D01*
X94500Y106990D02*
X94600D01*
Y106915D01*
X94550Y106940D01*
X94525D01*
X94500Y106915D01*
Y106865D01*
X94525Y106840D01*
X94575D01*
X94600Y106865D01*
X94450Y106990D02*
X94350D01*
Y106965D01*
X94450Y106865D01*
Y106840D01*
X93820Y108465D02*
X93845Y108490D01*
X93895D01*
X93920Y108465D01*
Y108365D01*
X93895Y108340D01*
X93845D01*
X93820Y108365D01*
X93670Y108340D02*
X93770D01*
X93670Y108440D01*
Y108465D01*
X93695Y108490D01*
X93745D01*
X93770Y108465D01*
X93520Y108490D02*
X93620D01*
Y108415D01*
X93570Y108440D01*
X93545D01*
X93520Y108415D01*
Y108365D01*
X93545Y108340D01*
X93595D01*
X93620Y108365D01*
X93370Y108490D02*
X93470D01*
Y108415D01*
X93420Y108440D01*
X93395D01*
X93370Y108415D01*
Y108365D01*
X93395Y108340D01*
X93445D01*
X93470Y108365D01*
X94770Y108465D02*
X94795Y108490D01*
X94845D01*
X94870Y108465D01*
Y108365D01*
X94845Y108340D01*
X94795D01*
X94770Y108365D01*
X94620Y108340D02*
X94720D01*
X94620Y108440D01*
Y108465D01*
X94645Y108490D01*
X94695D01*
X94720Y108465D01*
X94470Y108490D02*
X94570D01*
Y108415D01*
X94520Y108440D01*
X94495D01*
X94470Y108415D01*
Y108365D01*
X94495Y108340D01*
X94545D01*
X94570Y108365D01*
X94420Y108340D02*
X94370D01*
X94395D01*
Y108490D01*
X94420Y108465D01*
X126610Y101985D02*
X126635Y102010D01*
X126685D01*
X126710Y101985D01*
Y101885D01*
X126685Y101860D01*
X126635D01*
X126610Y101885D01*
X126460Y101860D02*
X126560D01*
X126460Y101960D01*
Y101985D01*
X126485Y102010D01*
X126535D01*
X126560Y101985D01*
X126335Y101860D02*
Y102010D01*
X126410Y101935D01*
X126310D01*
X126260Y102010D02*
X126160D01*
Y101985D01*
X126260Y101885D01*
Y101860D01*
X125720Y102245D02*
X125745Y102270D01*
X125795D01*
X125820Y102245D01*
Y102145D01*
X125795Y102120D01*
X125745D01*
X125720Y102145D01*
X125570Y102120D02*
X125670D01*
X125570Y102220D01*
Y102245D01*
X125595Y102270D01*
X125645D01*
X125670Y102245D01*
X125445Y102120D02*
Y102270D01*
X125520Y102195D01*
X125420D01*
X125270Y102270D02*
X125370D01*
Y102195D01*
X125320Y102220D01*
X125295D01*
X125270Y102195D01*
Y102145D01*
X125295Y102120D01*
X125345D01*
X125370Y102145D01*
X126800Y103855D02*
X126825Y103880D01*
X126875D01*
X126900Y103855D01*
Y103755D01*
X126875Y103730D01*
X126825D01*
X126800Y103755D01*
X126650Y103730D02*
X126750D01*
X126650Y103830D01*
Y103855D01*
X126675Y103880D01*
X126725D01*
X126750Y103855D01*
X126600D02*
X126575Y103880D01*
X126525D01*
X126500Y103855D01*
Y103830D01*
X126525Y103805D01*
X126550D01*
X126525D01*
X126500Y103780D01*
Y103755D01*
X126525Y103730D01*
X126575D01*
X126600Y103755D01*
X126350Y103880D02*
X126400Y103855D01*
X126450Y103805D01*
Y103755D01*
X126425Y103730D01*
X126375D01*
X126350Y103755D01*
Y103780D01*
X126375Y103805D01*
X126450D01*
X129870Y101445D02*
X129895Y101470D01*
X129945D01*
X129970Y101445D01*
Y101345D01*
X129945Y101320D01*
X129895D01*
X129870Y101345D01*
X129720Y101320D02*
X129820D01*
X129720Y101420D01*
Y101445D01*
X129745Y101470D01*
X129795D01*
X129820Y101445D01*
X129670D02*
X129645Y101470D01*
X129595D01*
X129570Y101445D01*
Y101420D01*
X129595Y101395D01*
X129620D01*
X129595D01*
X129570Y101370D01*
Y101345D01*
X129595Y101320D01*
X129645D01*
X129670Y101345D01*
X129420Y101320D02*
X129520D01*
X129420Y101420D01*
Y101445D01*
X129445Y101470D01*
X129495D01*
X129520Y101445D01*
X100240Y103285D02*
X100265Y103310D01*
X100315D01*
X100340Y103285D01*
Y103185D01*
X100315Y103160D01*
X100265D01*
X100240Y103185D01*
X100090Y103160D02*
X100190D01*
X100090Y103260D01*
Y103285D01*
X100115Y103310D01*
X100165D01*
X100190Y103285D01*
X100040Y103160D02*
X99990D01*
X100015D01*
Y103310D01*
X100040Y103285D01*
X99915D02*
X99890Y103310D01*
X99840D01*
X99815Y103285D01*
Y103260D01*
X99840Y103235D01*
X99865D01*
X99840D01*
X99815Y103210D01*
Y103185D01*
X99840Y103160D01*
X99890D01*
X99915Y103185D01*
X90410Y111615D02*
X90435Y111640D01*
X90485D01*
X90510Y111615D01*
Y111515D01*
X90485Y111490D01*
X90435D01*
X90410Y111515D01*
X90260Y111490D02*
X90360D01*
X90260Y111590D01*
Y111615D01*
X90285Y111640D01*
X90335D01*
X90360Y111615D01*
X90210D02*
X90185Y111640D01*
X90135D01*
X90110Y111615D01*
Y111515D01*
X90135Y111490D01*
X90185D01*
X90210Y111515D01*
Y111615D01*
X90060Y111515D02*
X90035Y111490D01*
X89985D01*
X89960Y111515D01*
Y111615D01*
X89985Y111640D01*
X90035D01*
X90060Y111615D01*
Y111590D01*
X90035Y111565D01*
X89960D01*
X92160Y100375D02*
X92185Y100400D01*
X92235D01*
X92260Y100375D01*
Y100275D01*
X92235Y100250D01*
X92185D01*
X92160Y100275D01*
X92110Y100250D02*
X92060D01*
X92085D01*
Y100400D01*
X92110Y100375D01*
X91985Y100275D02*
X91960Y100250D01*
X91910D01*
X91885Y100275D01*
Y100375D01*
X91910Y100400D01*
X91960D01*
X91985Y100375D01*
Y100350D01*
X91960Y100325D01*
X91885D01*
X91760Y100250D02*
Y100400D01*
X91835Y100325D01*
X91735D01*
X120150Y95065D02*
X120175Y95090D01*
X120225D01*
X120250Y95065D01*
Y94965D01*
X120225Y94940D01*
X120175D01*
X120150Y94965D01*
X120100Y94940D02*
X120050D01*
X120075D01*
Y95090D01*
X120100Y95065D01*
X119975D02*
X119950Y95090D01*
X119900D01*
X119875Y95065D01*
Y95040D01*
X119900Y95015D01*
X119875Y94990D01*
Y94965D01*
X119900Y94940D01*
X119950D01*
X119975Y94965D01*
Y94990D01*
X119950Y95015D01*
X119975Y95040D01*
Y95065D01*
X119950Y95015D02*
X119900D01*
X119725Y95090D02*
X119775Y95065D01*
X119825Y95015D01*
Y94965D01*
X119800Y94940D01*
X119750D01*
X119725Y94965D01*
Y94990D01*
X119750Y95015D01*
X119825D01*
X119090Y95915D02*
X119115Y95940D01*
X119165D01*
X119190Y95915D01*
Y95815D01*
X119165Y95790D01*
X119115D01*
X119090Y95815D01*
X119040Y95790D02*
X118990D01*
X119015D01*
Y95940D01*
X119040Y95915D01*
X118915D02*
X118890Y95940D01*
X118840D01*
X118815Y95915D01*
Y95890D01*
X118840Y95865D01*
X118815Y95840D01*
Y95815D01*
X118840Y95790D01*
X118890D01*
X118915Y95815D01*
Y95840D01*
X118890Y95865D01*
X118915Y95890D01*
Y95915D01*
X118890Y95865D02*
X118840D01*
X118665Y95940D02*
X118765D01*
Y95865D01*
X118715Y95890D01*
X118690D01*
X118665Y95865D01*
Y95815D01*
X118690Y95790D01*
X118740D01*
X118765Y95815D01*
X119830Y92385D02*
X119855Y92410D01*
X119905D01*
X119930Y92385D01*
Y92285D01*
X119905Y92260D01*
X119855D01*
X119830Y92285D01*
X119780Y92260D02*
X119730D01*
X119755D01*
Y92410D01*
X119780Y92385D01*
X119655D02*
X119630Y92410D01*
X119580D01*
X119555Y92385D01*
Y92360D01*
X119580Y92335D01*
X119555Y92310D01*
Y92285D01*
X119580Y92260D01*
X119630D01*
X119655Y92285D01*
Y92310D01*
X119630Y92335D01*
X119655Y92360D01*
Y92385D01*
X119630Y92335D02*
X119580D01*
X119505Y92385D02*
X119480Y92410D01*
X119430D01*
X119405Y92385D01*
Y92360D01*
X119430Y92335D01*
X119455D01*
X119430D01*
X119405Y92310D01*
Y92285D01*
X119430Y92260D01*
X119480D01*
X119505Y92285D01*
X118830Y92385D02*
X118855Y92410D01*
X118905D01*
X118930Y92385D01*
Y92285D01*
X118905Y92260D01*
X118855D01*
X118830Y92285D01*
X118780Y92260D02*
X118730D01*
X118755D01*
Y92410D01*
X118780Y92385D01*
X118655D02*
X118630Y92410D01*
X118580D01*
X118555Y92385D01*
Y92360D01*
X118580Y92335D01*
X118555Y92310D01*
Y92285D01*
X118580Y92260D01*
X118630D01*
X118655Y92285D01*
Y92310D01*
X118630Y92335D01*
X118655Y92360D01*
Y92385D01*
X118630Y92335D02*
X118580D01*
X118405Y92260D02*
X118505D01*
X118405Y92360D01*
Y92385D01*
X118430Y92410D01*
X118480D01*
X118505Y92385D01*
X119070Y95455D02*
X119095Y95480D01*
X119145D01*
X119170Y95455D01*
Y95355D01*
X119145Y95330D01*
X119095D01*
X119070Y95355D01*
X119020Y95330D02*
X118970D01*
X118995D01*
Y95480D01*
X119020Y95455D01*
X118895D02*
X118870Y95480D01*
X118820D01*
X118795Y95455D01*
Y95430D01*
X118820Y95405D01*
X118795Y95380D01*
Y95355D01*
X118820Y95330D01*
X118870D01*
X118895Y95355D01*
Y95380D01*
X118870Y95405D01*
X118895Y95430D01*
Y95455D01*
X118870Y95405D02*
X118820D01*
X118745Y95330D02*
X118695D01*
X118720D01*
Y95480D01*
X118745Y95455D01*
X120150Y95525D02*
X120175Y95550D01*
X120225D01*
X120250Y95525D01*
Y95425D01*
X120225Y95400D01*
X120175D01*
X120150Y95425D01*
X120100Y95400D02*
X120050D01*
X120075D01*
Y95550D01*
X120100Y95525D01*
X119975D02*
X119950Y95550D01*
X119900D01*
X119875Y95525D01*
Y95500D01*
X119900Y95475D01*
X119875Y95450D01*
Y95425D01*
X119900Y95400D01*
X119950D01*
X119975Y95425D01*
Y95450D01*
X119950Y95475D01*
X119975Y95500D01*
Y95525D01*
X119950Y95475D02*
X119900D01*
X119825Y95525D02*
X119800Y95550D01*
X119750D01*
X119725Y95525D01*
Y95425D01*
X119750Y95400D01*
X119800D01*
X119825Y95425D01*
Y95525D01*
X127370Y97325D02*
X127395Y97350D01*
X127445D01*
X127470Y97325D01*
Y97225D01*
X127445Y97200D01*
X127395D01*
X127370Y97225D01*
X127320Y97200D02*
X127270D01*
X127295D01*
Y97350D01*
X127320Y97325D01*
X127195Y97350D02*
X127095D01*
Y97325D01*
X127195Y97225D01*
Y97200D01*
X127045Y97350D02*
X126945D01*
Y97325D01*
X127045Y97225D01*
Y97200D01*
X124470Y93615D02*
X124495Y93640D01*
X124545D01*
X124570Y93615D01*
Y93515D01*
X124545Y93490D01*
X124495D01*
X124470Y93515D01*
X124420Y93490D02*
X124370D01*
X124395D01*
Y93640D01*
X124420Y93615D01*
X124295Y93640D02*
X124195D01*
Y93615D01*
X124295Y93515D01*
Y93490D01*
X124045Y93640D02*
X124145D01*
Y93565D01*
X124095Y93590D01*
X124070D01*
X124045Y93565D01*
Y93515D01*
X124070Y93490D01*
X124120D01*
X124145Y93515D01*
X124390Y96215D02*
X124415Y96240D01*
X124465D01*
X124490Y96215D01*
Y96115D01*
X124465Y96090D01*
X124415D01*
X124390Y96115D01*
X124340Y96090D02*
X124290D01*
X124315D01*
Y96240D01*
X124340Y96215D01*
X124115Y96240D02*
X124165Y96215D01*
X124215Y96165D01*
Y96115D01*
X124190Y96090D01*
X124140D01*
X124115Y96115D01*
Y96140D01*
X124140Y96165D01*
X124215D01*
X123990Y96090D02*
Y96240D01*
X124065Y96165D01*
X123965D01*
X123500Y95915D02*
X123525Y95940D01*
X123575D01*
X123600Y95915D01*
Y95815D01*
X123575Y95790D01*
X123525D01*
X123500Y95815D01*
X123450Y95790D02*
X123400D01*
X123425D01*
Y95940D01*
X123450Y95915D01*
X123225Y95940D02*
X123325D01*
Y95865D01*
X123275Y95890D01*
X123250D01*
X123225Y95865D01*
Y95815D01*
X123250Y95790D01*
X123300D01*
X123325Y95815D01*
X123175D02*
X123150Y95790D01*
X123100D01*
X123075Y95815D01*
Y95915D01*
X123100Y95940D01*
X123150D01*
X123175Y95915D01*
Y95890D01*
X123150Y95865D01*
X123075D01*
X123840Y95415D02*
X123865Y95440D01*
X123915D01*
X123940Y95415D01*
Y95315D01*
X123915Y95290D01*
X123865D01*
X123840Y95315D01*
X123790Y95290D02*
X123740D01*
X123765D01*
Y95440D01*
X123790Y95415D01*
X123565Y95440D02*
X123665D01*
Y95365D01*
X123615Y95390D01*
X123590D01*
X123565Y95365D01*
Y95315D01*
X123590Y95290D01*
X123640D01*
X123665Y95315D01*
X123415Y95440D02*
X123465Y95415D01*
X123515Y95365D01*
Y95315D01*
X123490Y95290D01*
X123440D01*
X123415Y95315D01*
Y95340D01*
X123440Y95365D01*
X123515D01*
X124690Y92405D02*
X124715Y92430D01*
X124765D01*
X124790Y92405D01*
Y92305D01*
X124765Y92280D01*
X124715D01*
X124690Y92305D01*
X124640Y92280D02*
X124590D01*
X124615D01*
Y92430D01*
X124640Y92405D01*
X124415Y92430D02*
X124515D01*
Y92355D01*
X124465Y92380D01*
X124440D01*
X124415Y92355D01*
Y92305D01*
X124440Y92280D01*
X124490D01*
X124515Y92305D01*
X124265Y92430D02*
X124365D01*
Y92355D01*
X124315Y92380D01*
X124290D01*
X124265Y92355D01*
Y92305D01*
X124290Y92280D01*
X124340D01*
X124365Y92305D01*
X125720Y93155D02*
X125745Y93180D01*
X125795D01*
X125820Y93155D01*
Y93055D01*
X125795Y93030D01*
X125745D01*
X125720Y93055D01*
X125670Y93030D02*
X125620D01*
X125645D01*
Y93180D01*
X125670Y93155D01*
X125445Y93180D02*
X125545D01*
Y93105D01*
X125495Y93130D01*
X125470D01*
X125445Y93105D01*
Y93055D01*
X125470Y93030D01*
X125520D01*
X125545Y93055D01*
X125395Y93155D02*
X125370Y93180D01*
X125320D01*
X125295Y93155D01*
Y93130D01*
X125320Y93105D01*
X125345D01*
X125320D01*
X125295Y93080D01*
Y93055D01*
X125320Y93030D01*
X125370D01*
X125395Y93055D01*
X131220Y92945D02*
X131245Y92970D01*
X131295D01*
X131320Y92945D01*
Y92845D01*
X131295Y92820D01*
X131245D01*
X131220Y92845D01*
X131170Y92820D02*
X131120D01*
X131145D01*
Y92970D01*
X131170Y92945D01*
X130970Y92820D02*
Y92970D01*
X131045Y92895D01*
X130945D01*
X130895Y92970D02*
X130795D01*
Y92945D01*
X130895Y92845D01*
Y92820D01*
X136420Y91905D02*
X136445Y91930D01*
X136495D01*
X136520Y91905D01*
Y91805D01*
X136495Y91780D01*
X136445D01*
X136420Y91805D01*
X136370Y91780D02*
X136320D01*
X136345D01*
Y91930D01*
X136370Y91905D01*
X136170Y91780D02*
Y91930D01*
X136245Y91855D01*
X136145D01*
X135995Y91930D02*
X136045Y91905D01*
X136095Y91855D01*
Y91805D01*
X136070Y91780D01*
X136020D01*
X135995Y91805D01*
Y91830D01*
X136020Y91855D01*
X136095D01*
X131400Y94635D02*
X131425Y94660D01*
X131475D01*
X131500Y94635D01*
Y94535D01*
X131475Y94510D01*
X131425D01*
X131400Y94535D01*
X131350Y94510D02*
X131300D01*
X131325D01*
Y94660D01*
X131350Y94635D01*
X131150Y94510D02*
Y94660D01*
X131225Y94585D01*
X131125D01*
X130975Y94510D02*
X131075D01*
X130975Y94610D01*
Y94635D01*
X131000Y94660D01*
X131050D01*
X131075Y94635D01*
X134970Y92695D02*
X134995Y92720D01*
X135045D01*
X135070Y92695D01*
Y92595D01*
X135045Y92570D01*
X134995D01*
X134970Y92595D01*
X134920Y92570D02*
X134870D01*
X134895D01*
Y92720D01*
X134920Y92695D01*
X134795D02*
X134770Y92720D01*
X134720D01*
X134695Y92695D01*
Y92670D01*
X134720Y92645D01*
X134745D01*
X134720D01*
X134695Y92620D01*
Y92595D01*
X134720Y92570D01*
X134770D01*
X134795Y92595D01*
X134545Y92720D02*
X134645D01*
Y92645D01*
X134595Y92670D01*
X134570D01*
X134545Y92645D01*
Y92595D01*
X134570Y92570D01*
X134620D01*
X134645Y92595D01*
X127480Y94435D02*
X127505Y94460D01*
X127555D01*
X127580Y94435D01*
Y94335D01*
X127555Y94310D01*
X127505D01*
X127480Y94335D01*
X127430Y94310D02*
X127380D01*
X127405D01*
Y94460D01*
X127430Y94435D01*
X127305D02*
X127280Y94460D01*
X127230D01*
X127205Y94435D01*
Y94410D01*
X127230Y94385D01*
X127255D01*
X127230D01*
X127205Y94360D01*
Y94335D01*
X127230Y94310D01*
X127280D01*
X127305Y94335D01*
X127155Y94435D02*
X127130Y94460D01*
X127080D01*
X127055Y94435D01*
Y94335D01*
X127080Y94310D01*
X127130D01*
X127155Y94335D01*
Y94435D01*
X122630Y94695D02*
X122655Y94720D01*
X122705D01*
X122730Y94695D01*
Y94595D01*
X122705Y94570D01*
X122655D01*
X122630Y94595D01*
X122580Y94570D02*
X122530D01*
X122555D01*
Y94720D01*
X122580Y94695D01*
X122455D02*
X122430Y94720D01*
X122380D01*
X122355Y94695D01*
Y94595D01*
X122380Y94570D01*
X122430D01*
X122455Y94595D01*
Y94695D01*
X122305D02*
X122280Y94720D01*
X122230D01*
X122205Y94695D01*
Y94595D01*
X122230Y94570D01*
X122280D01*
X122305Y94595D01*
Y94695D01*
X122370Y94225D02*
X122395Y94250D01*
X122445D01*
X122470Y94225D01*
Y94125D01*
X122445Y94100D01*
X122395D01*
X122370Y94125D01*
X122320D02*
X122295Y94100D01*
X122245D01*
X122220Y94125D01*
Y94225D01*
X122245Y94250D01*
X122295D01*
X122320Y94225D01*
Y94200D01*
X122295Y94175D01*
X122220D01*
X122070Y94250D02*
X122120Y94225D01*
X122170Y94175D01*
Y94125D01*
X122145Y94100D01*
X122095D01*
X122070Y94125D01*
Y94150D01*
X122095Y94175D01*
X122170D01*
X124960Y94145D02*
X124985Y94170D01*
X125035D01*
X125060Y94145D01*
Y94045D01*
X125035Y94020D01*
X124985D01*
X124960Y94045D01*
X124910Y94145D02*
X124885Y94170D01*
X124835D01*
X124810Y94145D01*
Y94120D01*
X124835Y94095D01*
X124810Y94070D01*
Y94045D01*
X124835Y94020D01*
X124885D01*
X124910Y94045D01*
Y94070D01*
X124885Y94095D01*
X124910Y94120D01*
Y94145D01*
X124885Y94095D02*
X124835D01*
X124760Y94045D02*
X124735Y94020D01*
X124685D01*
X124660Y94045D01*
Y94145D01*
X124685Y94170D01*
X124735D01*
X124760Y94145D01*
Y94120D01*
X124735Y94095D01*
X124660D01*
X125730Y94135D02*
X125755Y94160D01*
X125805D01*
X125830Y94135D01*
Y94035D01*
X125805Y94010D01*
X125755D01*
X125730Y94035D01*
X125680Y94135D02*
X125655Y94160D01*
X125605D01*
X125580Y94135D01*
Y94110D01*
X125605Y94085D01*
X125580Y94060D01*
Y94035D01*
X125605Y94010D01*
X125655D01*
X125680Y94035D01*
Y94060D01*
X125655Y94085D01*
X125680Y94110D01*
Y94135D01*
X125655Y94085D02*
X125605D01*
X125530Y94135D02*
X125505Y94160D01*
X125455D01*
X125430Y94135D01*
Y94110D01*
X125455Y94085D01*
X125430Y94060D01*
Y94035D01*
X125455Y94010D01*
X125505D01*
X125530Y94035D01*
Y94060D01*
X125505Y94085D01*
X125530Y94110D01*
Y94135D01*
X125505Y94085D02*
X125455D01*
X125660Y93615D02*
X125685Y93640D01*
X125735D01*
X125760Y93615D01*
Y93515D01*
X125735Y93490D01*
X125685D01*
X125660Y93515D01*
X125610Y93615D02*
X125585Y93640D01*
X125535D01*
X125510Y93615D01*
Y93590D01*
X125535Y93565D01*
X125510Y93540D01*
Y93515D01*
X125535Y93490D01*
X125585D01*
X125610Y93515D01*
Y93540D01*
X125585Y93565D01*
X125610Y93590D01*
Y93615D01*
X125585Y93565D02*
X125535D01*
X125460Y93640D02*
X125360D01*
Y93615D01*
X125460Y93515D01*
Y93490D01*
X125870Y95445D02*
X125895Y95470D01*
X125945D01*
X125970Y95445D01*
Y95345D01*
X125945Y95320D01*
X125895D01*
X125870Y95345D01*
X125820Y95445D02*
X125795Y95470D01*
X125745D01*
X125720Y95445D01*
Y95420D01*
X125745Y95395D01*
X125720Y95370D01*
Y95345D01*
X125745Y95320D01*
X125795D01*
X125820Y95345D01*
Y95370D01*
X125795Y95395D01*
X125820Y95420D01*
Y95445D01*
X125795Y95395D02*
X125745D01*
X125670Y95445D02*
X125645Y95470D01*
X125595D01*
X125570Y95445D01*
Y95345D01*
X125595Y95320D01*
X125645D01*
X125670Y95345D01*
Y95445D01*
X125150D02*
X125175Y95470D01*
X125225D01*
X125250Y95445D01*
Y95345D01*
X125225Y95320D01*
X125175D01*
X125150Y95345D01*
X125100Y95470D02*
X125000D01*
Y95445D01*
X125100Y95345D01*
Y95320D01*
X124950Y95445D02*
X124925Y95470D01*
X124875D01*
X124850Y95445D01*
Y95420D01*
X124875Y95395D01*
X124850Y95370D01*
Y95345D01*
X124875Y95320D01*
X124925D01*
X124950Y95345D01*
Y95370D01*
X124925Y95395D01*
X124950Y95420D01*
Y95445D01*
X124925Y95395D02*
X124875D01*
X126660Y94905D02*
X126685Y94930D01*
X126735D01*
X126760Y94905D01*
Y94805D01*
X126735Y94780D01*
X126685D01*
X126660Y94805D01*
X126610Y94930D02*
X126510D01*
Y94905D01*
X126610Y94805D01*
Y94780D01*
X126360D02*
X126460D01*
X126360Y94880D01*
Y94905D01*
X126385Y94930D01*
X126435D01*
X126460Y94905D01*
X127380Y95445D02*
X127405Y95470D01*
X127455D01*
X127480Y95445D01*
Y95345D01*
X127455Y95320D01*
X127405D01*
X127380Y95345D01*
X127330Y95470D02*
X127230D01*
Y95445D01*
X127330Y95345D01*
Y95320D01*
X127180D02*
X127130D01*
X127155D01*
Y95470D01*
X127180Y95445D01*
X92900Y103625D02*
X92925Y103650D01*
X92975D01*
X93000Y103625D01*
Y103525D01*
X92975Y103500D01*
X92925D01*
X92900Y103525D01*
X92750Y103650D02*
X92800Y103625D01*
X92850Y103575D01*
Y103525D01*
X92825Y103500D01*
X92775D01*
X92750Y103525D01*
Y103550D01*
X92775Y103575D01*
X92850D01*
X92600Y103650D02*
X92700D01*
Y103575D01*
X92650Y103600D01*
X92625D01*
X92600Y103575D01*
Y103525D01*
X92625Y103500D01*
X92675D01*
X92700Y103525D01*
X90860Y107615D02*
X90885Y107640D01*
X90935D01*
X90960Y107615D01*
Y107515D01*
X90935Y107490D01*
X90885D01*
X90860Y107515D01*
X90710Y107640D02*
X90760Y107615D01*
X90810Y107565D01*
Y107515D01*
X90785Y107490D01*
X90735D01*
X90710Y107515D01*
Y107540D01*
X90735Y107565D01*
X90810D01*
X90660Y107490D02*
X90610D01*
X90635D01*
Y107640D01*
X90660Y107615D01*
X109540Y99955D02*
X109565Y99980D01*
X109615D01*
X109640Y99955D01*
Y99855D01*
X109615Y99830D01*
X109565D01*
X109540Y99855D01*
X109390Y99980D02*
X109490D01*
Y99905D01*
X109440Y99930D01*
X109415D01*
X109390Y99905D01*
Y99855D01*
X109415Y99830D01*
X109465D01*
X109490Y99855D01*
X109340Y99955D02*
X109315Y99980D01*
X109265D01*
X109240Y99955D01*
Y99855D01*
X109265Y99830D01*
X109315D01*
X109340Y99855D01*
Y99955D01*
X113150Y99725D02*
X113175Y99750D01*
X113225D01*
X113250Y99725D01*
Y99625D01*
X113225Y99600D01*
X113175D01*
X113150Y99625D01*
X113100Y99725D02*
X113075Y99750D01*
X113025D01*
X113000Y99725D01*
Y99700D01*
X113025Y99675D01*
X113050D01*
X113025D01*
X113000Y99650D01*
Y99625D01*
X113025Y99600D01*
X113075D01*
X113100Y99625D01*
X112950D02*
X112925Y99600D01*
X112875D01*
X112850Y99625D01*
Y99725D01*
X112875Y99750D01*
X112925D01*
X112950Y99725D01*
Y99700D01*
X112925Y99675D01*
X112850D01*
X113150Y100205D02*
X113175Y100230D01*
X113225D01*
X113250Y100205D01*
Y100105D01*
X113225Y100080D01*
X113175D01*
X113150Y100105D01*
X113100Y100205D02*
X113075Y100230D01*
X113025D01*
X113000Y100205D01*
Y100180D01*
X113025Y100155D01*
X113050D01*
X113025D01*
X113000Y100130D01*
Y100105D01*
X113025Y100080D01*
X113075D01*
X113100Y100105D01*
X112875Y100080D02*
Y100230D01*
X112950Y100155D01*
X112850D01*
X109410Y94865D02*
X109435Y94890D01*
X109485D01*
X109510Y94865D01*
Y94765D01*
X109485Y94740D01*
X109435D01*
X109410Y94765D01*
X109360Y94865D02*
X109335Y94890D01*
X109285D01*
X109260Y94865D01*
Y94840D01*
X109285Y94815D01*
X109310D01*
X109285D01*
X109260Y94790D01*
Y94765D01*
X109285Y94740D01*
X109335D01*
X109360Y94765D01*
X109210Y94865D02*
X109185Y94890D01*
X109135D01*
X109110Y94865D01*
Y94840D01*
X109135Y94815D01*
X109160D01*
X109135D01*
X109110Y94790D01*
Y94765D01*
X109135Y94740D01*
X109185D01*
X109210Y94765D01*
X114400Y97695D02*
X114425Y97720D01*
X114475D01*
X114500Y97695D01*
Y97595D01*
X114475Y97570D01*
X114425D01*
X114400Y97595D01*
X114250Y97570D02*
X114350D01*
X114250Y97670D01*
Y97695D01*
X114275Y97720D01*
X114325D01*
X114350Y97695D01*
X114200Y97720D02*
X114100D01*
Y97695D01*
X114200Y97595D01*
Y97570D01*
X113630Y97695D02*
X113655Y97720D01*
X113705D01*
X113730Y97695D01*
Y97595D01*
X113705Y97570D01*
X113655D01*
X113630Y97595D01*
X113480Y97570D02*
X113580D01*
X113480Y97670D01*
Y97695D01*
X113505Y97720D01*
X113555D01*
X113580Y97695D01*
X113355Y97570D02*
Y97720D01*
X113430Y97645D01*
X113330D01*
D287*
X86807Y105076D02*
G03*
X86925Y105194I0J118D01*
G01*
Y108029D02*
G03*
X86807Y108147I-118J0D01*
G01*
X85104Y104512D02*
Y105076D01*
X86807D01*
X86925Y105194D02*
Y108029D01*
X85104Y108147D02*
X86807D01*
X85104D02*
Y108712D01*
M02*
