G04*
G04 #@! TF.GenerationSoftware,Altium Limited,Altium Designer,20.0.13 (296)*
G04*
G04 Layer_Color=16711935*
%FSLAX24Y24*%
%MOIN*%
G70*
G01*
G75*
%ADD94R,0.0251X0.0251*%
%ADD96R,0.0148X0.0168*%
%ADD114R,0.0251X0.0251*%
%ADD151R,0.0207X0.0207*%
%ADD162O,0.0896X0.0601*%
%ADD163O,0.0896X0.0522*%
%ADD164O,0.0896X0.0601*%
%ADD165O,0.1113X0.0522*%
%ADD166O,0.1113X0.0601*%
%ADD167C,0.0404*%
%ADD168C,0.0669*%
%ADD169C,0.0630*%
%ADD170C,0.0210*%
%ADD171C,0.0190*%
%ADD282R,0.0207X0.0207*%
%ADD283R,0.0300X0.0300*%
%ADD284R,0.0404X0.0365*%
%ADD285C,0.0444*%
%ADD286R,0.0542X0.0207*%
D94*
X131633Y103711D02*
D03*
Y103389D02*
D03*
X132240D02*
D03*
Y103711D02*
D03*
X133050Y103973D02*
D03*
Y103650D02*
D03*
X120660Y91299D02*
D03*
Y91621D02*
D03*
X120210Y91630D02*
D03*
Y91307D02*
D03*
X127180Y96159D02*
D03*
Y95836D02*
D03*
X126680Y95869D02*
D03*
Y96191D02*
D03*
X124590Y101449D02*
D03*
Y101771D02*
D03*
X124120Y101449D02*
D03*
Y101771D02*
D03*
X126170Y103167D02*
D03*
Y102844D02*
D03*
X125711Y103167D02*
D03*
Y102844D02*
D03*
X125253Y103167D02*
D03*
Y102844D02*
D03*
X124794Y103167D02*
D03*
Y102844D02*
D03*
X124355Y102239D02*
D03*
Y102561D02*
D03*
X138420Y103980D02*
D03*
Y104303D02*
D03*
X138870D02*
D03*
Y103980D02*
D03*
X144250Y96262D02*
D03*
Y95940D02*
D03*
X139650Y96377D02*
D03*
Y96700D02*
D03*
X131219Y96861D02*
D03*
Y96539D02*
D03*
X130570Y97230D02*
D03*
Y97553D02*
D03*
X131920Y97479D02*
D03*
Y97801D02*
D03*
X134591Y97175D02*
D03*
Y97498D02*
D03*
X134770Y95143D02*
D03*
Y94820D02*
D03*
X134780Y94010D02*
D03*
Y94333D02*
D03*
X132730Y92630D02*
D03*
Y92307D02*
D03*
X127960Y94079D02*
D03*
Y94401D02*
D03*
X127170Y93519D02*
D03*
Y93841D02*
D03*
X126430Y93921D02*
D03*
Y93599D02*
D03*
X123840Y91949D02*
D03*
Y92271D02*
D03*
X123729Y93107D02*
D03*
Y92784D02*
D03*
X124910Y93590D02*
D03*
Y93267D02*
D03*
X124367Y93136D02*
D03*
Y92814D02*
D03*
X125930Y94901D02*
D03*
Y94579D02*
D03*
X125400Y94579D02*
D03*
Y94901D02*
D03*
X124890Y94579D02*
D03*
Y94901D02*
D03*
X124560Y95163D02*
D03*
Y94840D02*
D03*
X124140Y95163D02*
D03*
Y94840D02*
D03*
X125420Y95839D02*
D03*
Y96161D02*
D03*
X125900Y95849D02*
D03*
Y96171D02*
D03*
X126410Y97010D02*
D03*
Y96687D02*
D03*
X125948D02*
D03*
Y97010D02*
D03*
X125488Y96687D02*
D03*
Y97010D02*
D03*
X124830Y96679D02*
D03*
Y97001D02*
D03*
X124370Y96680D02*
D03*
Y97003D02*
D03*
X121740Y96890D02*
D03*
Y96567D02*
D03*
X120062Y93878D02*
D03*
Y94201D02*
D03*
X119600Y94191D02*
D03*
Y93869D02*
D03*
X113580Y100819D02*
D03*
Y101141D02*
D03*
X113110Y100826D02*
D03*
Y101149D02*
D03*
X112460Y101809D02*
D03*
Y102131D02*
D03*
X111560Y101340D02*
D03*
Y101017D02*
D03*
X112006Y101809D02*
D03*
Y102131D02*
D03*
X111552Y102131D02*
D03*
Y101809D02*
D03*
X111098Y101809D02*
D03*
Y102131D02*
D03*
X110644Y101809D02*
D03*
Y102131D02*
D03*
X109900Y100033D02*
D03*
Y100356D02*
D03*
X110329Y100137D02*
D03*
Y100460D02*
D03*
X111340Y99889D02*
D03*
Y100211D02*
D03*
X112560Y98450D02*
D03*
Y98127D02*
D03*
X112065Y98450D02*
D03*
Y98127D02*
D03*
X111570D02*
D03*
Y98450D02*
D03*
X110950Y98911D02*
D03*
Y98589D02*
D03*
X110347Y98055D02*
D03*
Y97732D02*
D03*
X110800D02*
D03*
Y98055D02*
D03*
X102710Y104680D02*
D03*
Y104357D02*
D03*
X96860Y104419D02*
D03*
Y104096D02*
D03*
X97320Y104413D02*
D03*
Y104090D02*
D03*
X100727Y92945D02*
D03*
Y92622D02*
D03*
X100267Y92947D02*
D03*
Y92624D02*
D03*
X98280Y99421D02*
D03*
Y99099D02*
D03*
X98760Y99421D02*
D03*
Y99099D02*
D03*
X99720Y99421D02*
D03*
Y99099D02*
D03*
X100200Y99421D02*
D03*
Y99099D02*
D03*
X100680Y99421D02*
D03*
Y99099D02*
D03*
Y98230D02*
D03*
Y98553D02*
D03*
X100200Y98230D02*
D03*
Y98553D02*
D03*
X99720Y98230D02*
D03*
Y98553D02*
D03*
X99240Y98230D02*
D03*
Y98553D02*
D03*
X98760Y98230D02*
D03*
Y98553D02*
D03*
X98280Y98230D02*
D03*
Y98553D02*
D03*
X91620Y95171D02*
D03*
Y94849D02*
D03*
X91200Y95171D02*
D03*
Y94849D02*
D03*
X93084Y102750D02*
D03*
Y102427D02*
D03*
X92639D02*
D03*
Y102750D02*
D03*
X91850Y102427D02*
D03*
Y102750D02*
D03*
X92730Y106440D02*
D03*
Y106117D02*
D03*
X92275D02*
D03*
Y106440D02*
D03*
X91820D02*
D03*
Y106117D02*
D03*
X90300Y105013D02*
D03*
Y104690D02*
D03*
X89836Y105013D02*
D03*
Y104690D02*
D03*
X89382Y105013D02*
D03*
Y104690D02*
D03*
X88928D02*
D03*
Y105013D02*
D03*
X88474Y104690D02*
D03*
Y105013D02*
D03*
X88020Y104690D02*
D03*
Y105013D02*
D03*
X127203Y97112D02*
D03*
Y97435D02*
D03*
X109440Y99739D02*
D03*
Y100061D02*
D03*
X109879Y98060D02*
D03*
Y97737D02*
D03*
X94630Y107080D02*
D03*
Y106757D02*
D03*
X95116D02*
D03*
Y107080D02*
D03*
X94619Y108571D02*
D03*
Y108249D02*
D03*
X93650Y108249D02*
D03*
Y108571D02*
D03*
X95103Y108249D02*
D03*
Y108571D02*
D03*
X94134Y108249D02*
D03*
Y108571D02*
D03*
D96*
X88150Y105720D02*
D03*
X87933D02*
D03*
X88145Y107200D02*
D03*
X87928D02*
D03*
D114*
X92011Y103573D02*
D03*
X91689D02*
D03*
X89263Y107380D02*
D03*
X88940D02*
D03*
X89263Y107880D02*
D03*
X88940D02*
D03*
X90393Y112030D02*
D03*
X90070D02*
D03*
X127308Y96686D02*
D03*
X127631D02*
D03*
X123777Y94360D02*
D03*
X124100D02*
D03*
X147081Y90600D02*
D03*
X146759D02*
D03*
X146113Y90620D02*
D03*
X145790D02*
D03*
X129853Y101398D02*
D03*
X129530D02*
D03*
X110349Y99680D02*
D03*
X110671D02*
D03*
X118777Y94490D02*
D03*
X119100D02*
D03*
X127971Y96170D02*
D03*
X127649D02*
D03*
X146500Y102633D02*
D03*
X146177D02*
D03*
X123179Y95860D02*
D03*
X123501D02*
D03*
X123841Y95360D02*
D03*
X123519D02*
D03*
X125609Y95390D02*
D03*
X125931D02*
D03*
X125211D02*
D03*
X124889D02*
D03*
X125722Y93560D02*
D03*
X125399D02*
D03*
X125791Y94085D02*
D03*
X125468D02*
D03*
X124697Y94090D02*
D03*
X125020D02*
D03*
X126400Y94850D02*
D03*
X126723D02*
D03*
X127471Y95390D02*
D03*
X127149D02*
D03*
X124473Y93560D02*
D03*
X124150D02*
D03*
X124067Y96160D02*
D03*
X124390D02*
D03*
X124369Y91890D02*
D03*
X124691D02*
D03*
X124369Y91430D02*
D03*
X124691D02*
D03*
X124369Y92350D02*
D03*
X124691D02*
D03*
X125399Y93100D02*
D03*
X125722D02*
D03*
X122109Y94170D02*
D03*
X122431D02*
D03*
X122309Y94640D02*
D03*
X122631D02*
D03*
X128511Y95630D02*
D03*
X128189D02*
D03*
X127419Y92490D02*
D03*
X127741D02*
D03*
X127389Y92950D02*
D03*
X127711D02*
D03*
X130899Y92890D02*
D03*
X131221D02*
D03*
X136097Y91850D02*
D03*
X136420D02*
D03*
X132461Y98190D02*
D03*
X132139D02*
D03*
X130041Y94590D02*
D03*
X129719D02*
D03*
Y95050D02*
D03*
X130041D02*
D03*
X127157Y94380D02*
D03*
X127480D02*
D03*
X131401Y94586D02*
D03*
X131079D02*
D03*
X148193Y104260D02*
D03*
X147870D02*
D03*
X103167Y102790D02*
D03*
X103490D02*
D03*
X101553Y96150D02*
D03*
X101230D02*
D03*
X97451Y97640D02*
D03*
X97129D02*
D03*
X90070Y111565D02*
D03*
X90393D02*
D03*
X90070Y111100D02*
D03*
X90393D02*
D03*
X90877Y109830D02*
D03*
X91200D02*
D03*
X90877Y109070D02*
D03*
X91200D02*
D03*
X89940Y95780D02*
D03*
X89617D02*
D03*
X119090Y94950D02*
D03*
X118767D02*
D03*
X120153Y95019D02*
D03*
X119830D02*
D03*
X118767Y95860D02*
D03*
X119090D02*
D03*
X118830Y91880D02*
D03*
X118507D02*
D03*
Y92330D02*
D03*
X118830D02*
D03*
X118507Y91430D02*
D03*
X118830D02*
D03*
X119507Y92330D02*
D03*
X119830D02*
D03*
X120289D02*
D03*
X120611D02*
D03*
X119090Y95405D02*
D03*
X118767D02*
D03*
X120153Y95474D02*
D03*
X119830D02*
D03*
X89931Y96290D02*
D03*
X89609D02*
D03*
X92219Y107560D02*
D03*
X92541D02*
D03*
X91443D02*
D03*
X91766D02*
D03*
X90629D02*
D03*
X90951D02*
D03*
X90629Y108040D02*
D03*
X90951D02*
D03*
X92961Y103573D02*
D03*
X92639D02*
D03*
X108160Y95250D02*
D03*
X108483D02*
D03*
X109470Y94810D02*
D03*
X109147D02*
D03*
X110171Y98740D02*
D03*
X109849D02*
D03*
X113367Y97644D02*
D03*
X113690D02*
D03*
X113367Y98100D02*
D03*
X113690D02*
D03*
Y98557D02*
D03*
X113367D02*
D03*
X114463Y97644D02*
D03*
X114140D02*
D03*
X110180Y100940D02*
D03*
X109857D02*
D03*
X111781Y99881D02*
D03*
X112103D02*
D03*
X113214Y99670D02*
D03*
X112891D02*
D03*
X113214Y100157D02*
D03*
X112891D02*
D03*
X126593Y101937D02*
D03*
X126270D02*
D03*
X125388Y102190D02*
D03*
X125711D02*
D03*
X126467Y103800D02*
D03*
X126790D02*
D03*
X99919Y103230D02*
D03*
X100241D02*
D03*
X99919Y102750D02*
D03*
X100241D02*
D03*
X97127Y95800D02*
D03*
X97450D02*
D03*
X97451Y96260D02*
D03*
X97129D02*
D03*
X97127Y95340D02*
D03*
X97450D02*
D03*
X97127Y94880D02*
D03*
X97450D02*
D03*
X97451Y97180D02*
D03*
X97129D02*
D03*
Y96720D02*
D03*
X97451D02*
D03*
X142199Y92110D02*
D03*
X142521D02*
D03*
X139591Y91830D02*
D03*
X139269D02*
D03*
X145673Y102633D02*
D03*
X145350D02*
D03*
X145673Y103117D02*
D03*
X145350D02*
D03*
X146177Y104570D02*
D03*
X146500D02*
D03*
X146177Y104083D02*
D03*
X146500D02*
D03*
X146177Y103600D02*
D03*
X146500D02*
D03*
X148191Y103800D02*
D03*
X147869D02*
D03*
X146177Y103117D02*
D03*
X146500D02*
D03*
X146177Y102150D02*
D03*
X146500D02*
D03*
X92160Y100323D02*
D03*
X91837D02*
D03*
X92620Y98180D02*
D03*
X92943D02*
D03*
X91839Y98630D02*
D03*
X92161D02*
D03*
X91839Y101228D02*
D03*
X92161D02*
D03*
X91837Y100775D02*
D03*
X92160D02*
D03*
X91839Y101680D02*
D03*
X92161D02*
D03*
X91837Y99870D02*
D03*
X92160D02*
D03*
X91839Y98180D02*
D03*
X92161D02*
D03*
X91839Y99080D02*
D03*
X92161D02*
D03*
D151*
X134684Y92640D02*
D03*
X134936D02*
D03*
D162*
X86148Y112350D02*
D03*
X87250D02*
D03*
D163*
X86652Y109161D02*
D03*
D164*
X89199D02*
D03*
Y112350D02*
D03*
D165*
X86965Y108511D02*
D03*
D166*
X85626Y108492D02*
D03*
X86965Y104712D02*
D03*
X85626Y104732D02*
D03*
D167*
X86584Y101953D02*
D03*
X86583Y98804D02*
D03*
D168*
X89465Y106484D02*
D03*
D169*
X88814Y90088D02*
D03*
D170*
X94170Y109159D02*
D03*
X126929Y96152D02*
D03*
X132170Y95956D02*
D03*
X129990Y93952D02*
D03*
X131780Y95956D02*
D03*
X129653Y93952D02*
D03*
X135388Y97171D02*
D03*
X129678Y95646D02*
D03*
X135638Y97171D02*
D03*
X129673Y95404D02*
D03*
X129540Y97310D02*
D03*
X129796D02*
D03*
X128464Y98201D02*
D03*
X127697Y96407D02*
D03*
X129794Y92228D02*
D03*
X130066D02*
D03*
X131229Y91974D02*
D03*
X130275D02*
D03*
X130911D02*
D03*
X128208Y92569D02*
D03*
X129980Y96250D02*
D03*
X135688Y96777D02*
D03*
X129221Y96143D02*
D03*
X145440Y92811D02*
D03*
X125880Y99120D02*
D03*
X145440Y92478D02*
D03*
X125880Y98780D02*
D03*
X145440Y93722D02*
D03*
X125520Y99120D02*
D03*
X145440Y93389D02*
D03*
X125520Y98780D02*
D03*
X145440Y94300D02*
D03*
X125130Y98780D02*
D03*
X145440Y94633D02*
D03*
X125130Y99120D02*
D03*
X145440Y90656D02*
D03*
X124770Y98780D02*
D03*
X145440Y90989D02*
D03*
X124770Y99120D02*
D03*
X129653Y93081D02*
D03*
Y93337D02*
D03*
X136500Y92690D02*
D03*
X137116Y95197D02*
D03*
X129232Y92825D02*
D03*
X127862Y92057D02*
D03*
X128976Y93081D02*
D03*
X114104Y97372D02*
D03*
X127440Y97687D02*
D03*
X126929Y97431D02*
D03*
X127441Y96152D02*
D03*
X128720Y94360D02*
D03*
X129582Y98560D02*
D03*
X123346Y96152D02*
D03*
X132860Y95956D02*
D03*
X124882Y95640D02*
D03*
X93238Y108060D02*
D03*
X135387Y96377D02*
D03*
X136833Y94017D02*
D03*
Y93606D02*
D03*
X95610Y107544D02*
D03*
Y107817D02*
D03*
X89090Y105750D02*
D03*
X89375D02*
D03*
X89660D02*
D03*
X115210Y90900D02*
D03*
X115540D02*
D03*
X116567Y93768D02*
D03*
X116890D02*
D03*
Y94038D02*
D03*
X116567D02*
D03*
X116760Y95770D02*
D03*
Y96020D02*
D03*
X116480Y95770D02*
D03*
Y96020D02*
D03*
X137151Y97069D02*
D03*
X128976Y96152D02*
D03*
X127697Y95640D02*
D03*
X146308Y99198D02*
D03*
X110806Y100684D02*
D03*
X124882Y94360D02*
D03*
X124626Y93081D02*
D03*
Y95384D02*
D03*
X113950Y101070D02*
D03*
X112696Y101616D02*
D03*
X111062Y99404D02*
D03*
X111574Y99660D02*
D03*
X110806Y99148D02*
D03*
X133110Y96870D02*
D03*
X146937Y93384D02*
D03*
X143169Y95572D02*
D03*
X128957Y102387D02*
D03*
X130541Y100622D02*
D03*
Y101085D02*
D03*
X146234Y101805D02*
D03*
X123346Y93337D02*
D03*
X123346Y92825D02*
D03*
X145932Y103108D02*
D03*
X123346Y92569D02*
D03*
X145940Y102633D02*
D03*
X122834Y91801D02*
D03*
X145940Y102150D02*
D03*
X122578Y92313D02*
D03*
X122054Y91801D02*
D03*
X122323Y91801D02*
D03*
X123090Y92825D02*
D03*
X123602Y93337D02*
D03*
X142085Y98317D02*
D03*
X142343Y98307D02*
D03*
X140520Y91110D02*
D03*
X142181Y92594D02*
D03*
X149030Y92271D02*
D03*
X149360Y93410D02*
D03*
X147990Y94170D02*
D03*
X147430D02*
D03*
X147580Y91498D02*
D03*
X149030Y92019D02*
D03*
X148730Y91768D02*
D03*
X149030D02*
D03*
X148730Y92019D02*
D03*
Y92271D02*
D03*
Y93135D02*
D03*
X149030Y92810D02*
D03*
X148730D02*
D03*
X149020Y93460D02*
D03*
X148730D02*
D03*
X147836Y92591D02*
D03*
X147580Y91970D02*
D03*
Y92440D02*
D03*
X147990Y91190D02*
D03*
X147430D02*
D03*
X146761Y104088D02*
D03*
X147540Y104390D02*
D03*
X148503Y104254D02*
D03*
X147512Y104034D02*
D03*
X146761Y104565D02*
D03*
X146764Y102367D02*
D03*
X146760Y103630D02*
D03*
Y103342D02*
D03*
Y102827D02*
D03*
X147510Y102850D02*
D03*
X148320Y102460D02*
D03*
X148040D02*
D03*
X138300Y103663D02*
D03*
X122323Y93081D02*
D03*
X128720Y95384D02*
D03*
X128976Y91801D02*
D03*
X128464Y96407D02*
D03*
X128469Y96142D02*
D03*
X116262Y99677D02*
D03*
X116570D02*
D03*
X116270Y100607D02*
D03*
X116262Y99250D02*
D03*
X116570D02*
D03*
X116262Y98510D02*
D03*
X116570D02*
D03*
X114131Y99065D02*
D03*
X118131Y96310D02*
D03*
X109775Y98355D02*
D03*
X140520Y100700D02*
D03*
X140952Y98826D02*
D03*
X111830Y99404D02*
D03*
X110038Y99404D02*
D03*
Y99660D02*
D03*
X110550Y100172D02*
D03*
X110806D02*
D03*
X111210Y98575D02*
D03*
Y98840D02*
D03*
X110811Y99409D02*
D03*
X127441Y96407D02*
D03*
X97590Y103000D02*
D03*
X100992Y101665D02*
D03*
X96829Y103315D02*
D03*
X97990Y103690D02*
D03*
X98460D02*
D03*
X99112Y104645D02*
D03*
X109320Y104520D02*
D03*
X109045D02*
D03*
X108770D02*
D03*
X113720D02*
D03*
X113445D02*
D03*
X112040D02*
D03*
X112315D02*
D03*
X112590D02*
D03*
X112865D02*
D03*
X111763D02*
D03*
X110220D02*
D03*
X110495D02*
D03*
X110770D02*
D03*
X111045D02*
D03*
X107168Y102438D02*
D03*
X100557Y93872D02*
D03*
X97456Y97921D02*
D03*
X102972Y94728D02*
D03*
X103641Y94561D02*
D03*
X101949Y96503D02*
D03*
X108155Y90330D02*
D03*
X108407D02*
D03*
X108660D02*
D03*
X108155Y90580D02*
D03*
X108407D02*
D03*
X108660D02*
D03*
X108065Y98580D02*
D03*
X108317D02*
D03*
X108570D02*
D03*
X97693Y100384D02*
D03*
X98170D02*
D03*
X104718Y100210D02*
D03*
X127441Y97943D02*
D03*
X99941Y93829D02*
D03*
X127697Y97943D02*
D03*
Y96919D02*
D03*
X101931Y97952D02*
D03*
X121682Y92055D02*
D03*
X121350Y94128D02*
D03*
X121027Y91930D02*
D03*
X121302D02*
D03*
X122066Y93081D02*
D03*
X123858Y95640D02*
D03*
X124114D02*
D03*
X126929Y96407D02*
D03*
X125137Y96663D02*
D03*
X124626Y97431D02*
D03*
X92420Y101220D02*
D03*
X127441Y96919D02*
D03*
X92420Y100770D02*
D03*
Y101680D02*
D03*
X127952Y97175D02*
D03*
X92420Y99850D02*
D03*
X128290Y98780D02*
D03*
X92620Y97890D02*
D03*
X128290Y99120D02*
D03*
X92420Y99070D02*
D03*
X128000Y98780D02*
D03*
X92420Y98620D02*
D03*
X128000Y99120D02*
D03*
X111826Y99656D02*
D03*
X120710Y102786D02*
D03*
X128208Y97175D02*
D03*
X127952Y96663D02*
D03*
X121020Y102786D02*
D03*
Y102392D02*
D03*
X128464Y97431D02*
D03*
X145440Y91900D02*
D03*
X126240Y99120D02*
D03*
X145440Y91567D02*
D03*
X126240Y98780D02*
D03*
X132733Y97191D02*
D03*
X124216Y102763D02*
D03*
X130190Y101142D02*
D03*
X124990Y102560D02*
D03*
X100982Y102737D02*
D03*
X92490Y103040D02*
D03*
X92220D02*
D03*
X123090Y91801D02*
D03*
X122834Y91289D02*
D03*
X89830Y107510D02*
D03*
X122834Y91545D02*
D03*
X89830Y107750D02*
D03*
X96491Y102590D02*
D03*
X111318Y99404D02*
D03*
X103680Y103660D02*
D03*
X124114Y95384D02*
D03*
Y92313D02*
D03*
X112342Y99404D02*
D03*
X111830Y100172D02*
D03*
X111574D02*
D03*
X122066Y93920D02*
D03*
X112342Y99660D02*
D03*
X97164Y97914D02*
D03*
X113043Y99896D02*
D03*
X111856Y101302D02*
D03*
X111066Y101260D02*
D03*
X110301Y101286D02*
D03*
X110468Y101153D02*
D03*
X109215Y100048D02*
D03*
X125393Y95128D02*
D03*
X124372Y94614D02*
D03*
X100992Y101060D02*
D03*
X92910Y100150D02*
D03*
X91595Y103830D02*
D03*
X91750Y107210D02*
D03*
X120606Y92781D02*
D03*
X120581Y93070D02*
D03*
X120157Y92929D02*
D03*
X122066Y93593D02*
D03*
X112599Y99658D02*
D03*
X123090Y94107D02*
D03*
X112016Y95328D02*
D03*
X111993Y92145D02*
D03*
X123602Y94104D02*
D03*
X111061Y100684D02*
D03*
X112448Y95021D02*
D03*
X112483Y92443D02*
D03*
X100990Y103001D02*
D03*
X122323Y95128D02*
D03*
X94640Y109159D02*
D03*
X123858Y94872D02*
D03*
X123858Y94616D02*
D03*
X123602D02*
D03*
X104550Y103960D02*
D03*
X97895Y102595D02*
D03*
X97480Y103690D02*
D03*
X92219Y108121D02*
D03*
X100990Y103511D02*
D03*
X100977Y104067D02*
D03*
X123352Y95128D02*
D03*
X94950Y107550D02*
D03*
X123090Y95128D02*
D03*
X94950Y108893D02*
D03*
X122834Y95128D02*
D03*
X93534Y108893D02*
D03*
X122578Y95128D02*
D03*
X93850Y109159D02*
D03*
X93534Y107248D02*
D03*
X103538Y104957D02*
D03*
X123346Y94104D02*
D03*
X123856Y93848D02*
D03*
X123602Y95128D02*
D03*
X123858D02*
D03*
X123222Y97547D02*
D03*
X121090Y99830D02*
D03*
X123602Y97175D02*
D03*
X102810Y104957D02*
D03*
X122233Y92097D02*
D03*
X122323Y91289D02*
D03*
X121312Y91297D02*
D03*
X121027D02*
D03*
X122834Y92313D02*
D03*
X121232Y95285D02*
D03*
X93850Y106964D02*
D03*
Y106680D02*
D03*
X123346Y96663D02*
D03*
X135857Y95398D02*
D03*
X121961Y92657D02*
D03*
X88928Y105238D02*
D03*
X106839Y100711D02*
D03*
X107054Y100928D02*
D03*
X107723Y98071D02*
D03*
X111210Y98311D02*
D03*
X111900Y91610D02*
D03*
Y91365D02*
D03*
X142599Y98311D02*
D03*
X129735Y99313D02*
D03*
X89500Y96608D02*
D03*
X114929Y95767D02*
D03*
X114957Y100315D02*
D03*
X114312Y100592D02*
D03*
X112820Y99436D02*
D03*
X116199Y91204D02*
D03*
X124626Y93337D02*
D03*
X118522Y94502D02*
D03*
X124370Y94104D02*
D03*
X125137Y93337D02*
D03*
X102099Y101826D02*
D03*
X105043Y101115D02*
D03*
X101778Y100600D02*
D03*
X135865Y98137D02*
D03*
X136520D02*
D03*
X136093Y97836D02*
D03*
X115930Y97050D02*
D03*
X112588Y96520D02*
D03*
X115540Y91204D02*
D03*
X115870D02*
D03*
X115210D02*
D03*
X126161Y93593D02*
D03*
X126673Y95384D02*
D03*
X143434Y99092D02*
D03*
X107490Y95260D02*
D03*
X111015Y94478D02*
D03*
X119257Y93639D02*
D03*
X121232Y95590D02*
D03*
X119250Y94180D02*
D03*
X121035Y95776D02*
D03*
X122834Y93337D02*
D03*
X123346Y91801D02*
D03*
X90073Y105440D02*
D03*
X119420Y94960D02*
D03*
X124114Y94104D02*
D03*
X123346Y94616D02*
D03*
X128920Y101605D02*
D03*
X128154Y102376D02*
D03*
X127780Y102700D02*
D03*
X127782Y102966D02*
D03*
X126840Y98780D02*
D03*
X129100Y99320D02*
D03*
X129415D02*
D03*
X98240Y104660D02*
D03*
X96860Y104677D02*
D03*
X97320Y104671D02*
D03*
Y104993D02*
D03*
X126673Y97687D02*
D03*
X97780Y104660D02*
D03*
X126550Y98780D02*
D03*
X126417Y97687D02*
D03*
Y97431D02*
D03*
X126673Y97431D02*
D03*
X96860Y104993D02*
D03*
X126673Y97175D02*
D03*
X128720Y95128D02*
D03*
X128464Y94360D02*
D03*
X129990Y94358D02*
D03*
X135681Y95978D02*
D03*
X128208Y94360D02*
D03*
X129231Y95127D02*
D03*
X128966Y95384D02*
D03*
X129673Y96250D02*
D03*
X128976Y95896D02*
D03*
X128468Y95889D02*
D03*
X136821Y96777D02*
D03*
Y97371D02*
D03*
X128720Y94872D02*
D03*
Y93337D02*
D03*
X128464Y94872D02*
D03*
X129793Y92437D02*
D03*
X129552D02*
D03*
X128208Y93081D02*
D03*
X137116Y94410D02*
D03*
X126929Y97943D02*
D03*
X101086Y95608D02*
D03*
X127440Y97431D02*
D03*
X126929Y97175D02*
D03*
X99940Y93440D02*
D03*
X126673Y96919D02*
D03*
X101003Y93440D02*
D03*
X126929Y96919D02*
D03*
X99233Y98824D02*
D03*
X127710Y98780D02*
D03*
X100200Y98824D02*
D03*
X127710Y99120D02*
D03*
X100680Y98824D02*
D03*
X127420Y98780D02*
D03*
X99720Y98824D02*
D03*
X127420Y99120D02*
D03*
X98760Y98824D02*
D03*
X127130Y99120D02*
D03*
X98280Y98824D02*
D03*
X126840Y99120D02*
D03*
X101042Y98251D02*
D03*
X127697Y97680D02*
D03*
X97478Y92445D02*
D03*
X93850Y107816D02*
D03*
X124114Y96407D02*
D03*
X93850Y107532D02*
D03*
X123858Y96407D02*
D03*
X93534Y107532D02*
D03*
X123602Y96407D02*
D03*
Y96152D02*
D03*
X145945Y104560D02*
D03*
X129232Y93593D02*
D03*
X130586Y95591D02*
D03*
X129231Y94872D02*
D03*
X129980Y95948D02*
D03*
X129673D02*
D03*
X130873Y94409D02*
D03*
X134585Y96870D02*
D03*
X130606Y97033D02*
D03*
X130873Y97362D02*
D03*
X131780Y95563D02*
D03*
X132170Y95169D02*
D03*
X129518Y94872D02*
D03*
X129653Y94360D02*
D03*
X129232Y93848D02*
D03*
X130586Y94804D02*
D03*
X128976Y93337D02*
D03*
X136829Y95591D02*
D03*
X134683Y97827D02*
D03*
X136821Y92522D02*
D03*
X128464Y92313D02*
D03*
X130870Y97033D02*
D03*
X132170Y97191D02*
D03*
X131779Y97186D02*
D03*
X131568Y92862D02*
D03*
X135408Y94809D02*
D03*
X136829D02*
D03*
X136527Y95591D02*
D03*
X136833Y93222D02*
D03*
X135116Y95987D02*
D03*
X135408Y93229D02*
D03*
X136528Y93222D02*
D03*
X128208Y92825D02*
D03*
X135865Y92860D02*
D03*
X135408Y93621D02*
D03*
X135116Y94015D02*
D03*
X135458Y98137D02*
D03*
X135092D02*
D03*
X130873Y95196D02*
D03*
X128976Y92569D02*
D03*
X131656Y93406D02*
D03*
X135387Y95987D02*
D03*
X136471Y97371D02*
D03*
X127952Y95640D02*
D03*
X114250Y103257D02*
D03*
X125649Y94616D02*
D03*
X120420Y95776D02*
D03*
X123805Y101453D02*
D03*
X125021Y101266D02*
D03*
X127041Y103791D02*
D03*
X132125Y92173D02*
D03*
X131200Y97827D02*
D03*
X134688Y98137D02*
D03*
X136527Y94410D02*
D03*
X136425Y92173D02*
D03*
X135116Y94409D02*
D03*
Y93229D02*
D03*
X135691D02*
D03*
X135408Y94015D02*
D03*
X135691D02*
D03*
Y94409D02*
D03*
Y94809D02*
D03*
Y95588D02*
D03*
X134891Y96552D02*
D03*
X133897Y96870D02*
D03*
X134881D02*
D03*
Y97171D02*
D03*
X134290Y96870D02*
D03*
X134291Y97171D02*
D03*
X133897D02*
D03*
X135269Y92860D02*
D03*
X134088Y93210D02*
D03*
X134678Y92860D02*
D03*
X134088D02*
D03*
X133497D02*
D03*
X132710D02*
D03*
X132320D02*
D03*
X131924D02*
D03*
X130873Y93228D02*
D03*
X130586Y95197D02*
D03*
Y95948D02*
D03*
X131535Y92173D02*
D03*
X132520D02*
D03*
X133307D02*
D03*
X133897D02*
D03*
X135079D02*
D03*
X136063D02*
D03*
X136527Y94809D02*
D03*
Y95197D02*
D03*
X135865Y97827D02*
D03*
X135077D02*
D03*
X134290D02*
D03*
X133896D02*
D03*
X132912D02*
D03*
X132125D02*
D03*
X131534D02*
D03*
X130873Y95948D02*
D03*
Y95590D02*
D03*
Y94803D02*
D03*
Y94015D02*
D03*
X131784Y94213D02*
D03*
Y94606D02*
D03*
X131780Y95169D02*
D03*
X132170Y95563D02*
D03*
X132535D02*
D03*
X131780Y96350D02*
D03*
X132170D02*
D03*
Y96760D02*
D03*
X131779D02*
D03*
X124920Y103470D02*
D03*
X124610D02*
D03*
X127224Y102376D02*
D03*
X127503D02*
D03*
X127493Y102966D02*
D03*
X127224D02*
D03*
X126776Y103470D02*
D03*
X126470D02*
D03*
X126383Y102372D02*
D03*
Y102166D02*
D03*
X125973Y102560D02*
D03*
X125990Y101970D02*
D03*
X125012Y101578D02*
D03*
X125582Y101578D02*
D03*
X125300Y102570D02*
D03*
X124990Y102010D02*
D03*
Y102290D02*
D03*
X124046Y102560D02*
D03*
X134000Y103682D02*
D03*
Y103942D02*
D03*
X133830Y104122D02*
D03*
X133570D02*
D03*
X132853Y103652D02*
D03*
X131780Y102800D02*
D03*
X131530Y102810D02*
D03*
X131970Y102950D02*
D03*
Y103180D02*
D03*
X132638Y103920D02*
D03*
Y103520D02*
D03*
Y104320D02*
D03*
X131900Y104120D02*
D03*
X131630D02*
D03*
X131900Y104370D02*
D03*
X131630D02*
D03*
X133350Y102570D02*
D03*
X133585D02*
D03*
X133820D02*
D03*
Y102786D02*
D03*
X133585D02*
D03*
X133350D02*
D03*
X130190Y103049D02*
D03*
X130190Y103840D02*
D03*
X130190Y103576D02*
D03*
Y103313D02*
D03*
Y102786D02*
D03*
Y99640D02*
D03*
Y104170D02*
D03*
Y101400D02*
D03*
X120110Y103590D02*
D03*
X120978Y103872D02*
D03*
X120770Y104370D02*
D03*
X120130Y101950D02*
D03*
Y102180D02*
D03*
X118450Y95860D02*
D03*
X120730Y94930D02*
D03*
X120420Y95430D02*
D03*
X119480Y95670D02*
D03*
X119257Y93360D02*
D03*
X119650Y93160D02*
D03*
X120870Y93741D02*
D03*
Y94080D02*
D03*
X120676Y94540D02*
D03*
X120260D02*
D03*
X119999D02*
D03*
X119660D02*
D03*
X119248Y93899D02*
D03*
X118360Y93468D02*
D03*
X119167Y91551D02*
D03*
X119160Y91960D02*
D03*
Y92201D02*
D03*
X119631Y92762D02*
D03*
X120270Y91010D02*
D03*
X119160Y92470D02*
D03*
X138834Y103194D02*
D03*
X143280Y103540D02*
D03*
X143480D02*
D03*
Y103740D02*
D03*
X143280D02*
D03*
X143770Y104630D02*
D03*
X144070D02*
D03*
Y104830D02*
D03*
X143770D02*
D03*
X142200Y104380D02*
D03*
X140160Y104380D02*
D03*
X139229Y104301D02*
D03*
X138410Y104670D02*
D03*
X144600Y95940D02*
D03*
X139897Y96377D02*
D03*
X140160Y95302D02*
D03*
X139341Y95539D02*
D03*
X139350Y96690D02*
D03*
X142420Y96550D02*
D03*
X142170D02*
D03*
X141920D02*
D03*
X143760Y95150D02*
D03*
X143400D02*
D03*
X142684Y95010D02*
D03*
X142384D02*
D03*
X142380Y95240D02*
D03*
X142080D02*
D03*
X144410Y96710D02*
D03*
X144030D02*
D03*
X143650D02*
D03*
X144410Y97030D02*
D03*
X144030D02*
D03*
X143650D02*
D03*
X142181Y92336D02*
D03*
X141857Y92342D02*
D03*
X142520Y90980D02*
D03*
Y90675D02*
D03*
X142940Y90370D02*
D03*
X142520D02*
D03*
X144260Y91350D02*
D03*
X144620Y90600D02*
D03*
Y90970D02*
D03*
Y91350D02*
D03*
X144340Y93410D02*
D03*
X144590Y93150D02*
D03*
Y92890D02*
D03*
Y93410D02*
D03*
X144090D02*
D03*
X138780Y91377D02*
D03*
X138770Y91890D02*
D03*
X139966Y91447D02*
D03*
Y91847D02*
D03*
X140768Y91447D02*
D03*
X141000Y91110D02*
D03*
X141020Y91840D02*
D03*
X140540D02*
D03*
X146650Y90290D02*
D03*
X146880Y90900D02*
D03*
X146045Y90290D02*
D03*
X146326Y94016D02*
D03*
X146330Y93110D02*
D03*
X146895Y92912D02*
D03*
X146390Y92210D02*
D03*
X146895Y92439D02*
D03*
Y91967D02*
D03*
X146455Y91298D02*
D03*
X145440Y91274D02*
D03*
Y94966D02*
D03*
Y93990D02*
D03*
Y93110D02*
D03*
Y92210D02*
D03*
Y90290D02*
D03*
X149670Y92586D02*
D03*
Y93090D02*
D03*
X129488Y97943D02*
D03*
X129735Y98980D02*
D03*
X129415D02*
D03*
X129232Y97943D02*
D03*
X129100Y98980D02*
D03*
X128976Y97943D02*
D03*
X128720Y92057D02*
D03*
X123090D02*
D03*
X128720Y97687D02*
D03*
X128976Y92313D02*
D03*
X124114Y91289D02*
D03*
X128464Y97687D02*
D03*
X128720Y92569D02*
D03*
X122834Y92825D02*
D03*
X122323Y93593D02*
D03*
X123602Y92313D02*
D03*
X124114Y91545D02*
D03*
X126550Y99120D02*
D03*
X128208Y97431D02*
D03*
X123090Y92569D02*
D03*
X122323Y94872D02*
D03*
X124114Y91801D02*
D03*
X128976Y93593D02*
D03*
X122578Y94872D02*
D03*
X124114Y92057D02*
D03*
X128976Y93848D02*
D03*
X128464Y93593D02*
D03*
X127441Y92057D02*
D03*
X123090Y93337D02*
D03*
X125137Y97687D02*
D03*
X128976Y94360D02*
D03*
X122834Y94104D02*
D03*
X128464Y93081D02*
D03*
X125905Y97687D02*
D03*
X127952Y96919D02*
D03*
X124882Y92057D02*
D03*
X128464Y93337D02*
D03*
X124626Y92569D02*
D03*
X126673Y92057D02*
D03*
X128208Y93337D02*
D03*
X125649Y92057D02*
D03*
X127441Y97175D02*
D03*
X127952Y93337D02*
D03*
X124370Y92569D02*
D03*
X127697Y93337D02*
D03*
X124114Y93081D02*
D03*
X124114Y92825D02*
D03*
X128208Y95384D02*
D03*
Y95128D02*
D03*
X123858Y93337D02*
D03*
X127952Y95128D02*
D03*
X127697Y93593D02*
D03*
X125137Y93081D02*
D03*
X127697Y95384D02*
D03*
X127185Y96407D02*
D03*
X127441Y93337D02*
D03*
X127441Y95896D02*
D03*
X127697Y93848D02*
D03*
X124114D02*
D03*
X127697Y94104D02*
D03*
Y95128D02*
D03*
X124114Y94616D02*
D03*
X124626Y96152D02*
D03*
X127441Y93848D02*
D03*
X124626D02*
D03*
X126417Y96407D02*
D03*
X125137D02*
D03*
X127441Y94104D02*
D03*
Y95128D02*
D03*
Y94616D02*
D03*
X127185Y95640D02*
D03*
X125137Y96152D02*
D03*
X124882Y95896D02*
D03*
X126673Y93593D02*
D03*
X125649Y96152D02*
D03*
X126929Y94360D02*
D03*
X124626Y94616D02*
D03*
X126929Y95640D02*
D03*
X125137Y95896D02*
D03*
X126673Y93848D02*
D03*
X125137D02*
D03*
X126929Y95384D02*
D03*
X125393Y93848D02*
D03*
X126161Y95896D02*
D03*
X125649D02*
D03*
X126929Y95128D02*
D03*
X124882D02*
D03*
X126161Y93848D02*
D03*
X126673Y95640D02*
D03*
X125137D02*
D03*
X126673Y94104D02*
D03*
Y94360D02*
D03*
X125137D02*
D03*
X126161Y95640D02*
D03*
X126673Y95128D02*
D03*
X125649Y95640D02*
D03*
X126673Y94616D02*
D03*
X125137Y95128D02*
D03*
X125649Y94360D02*
D03*
X125393Y94360D02*
D03*
X126161Y95384D02*
D03*
X125649Y95128D02*
D03*
X126161Y94616D02*
D03*
X142900Y101580D02*
D03*
X141280Y101210D02*
D03*
X142370Y100280D02*
D03*
Y100050D02*
D03*
X142900Y100769D02*
D03*
X141030Y99960D02*
D03*
Y100310D02*
D03*
X143300Y101200D02*
D03*
X144170Y101197D02*
D03*
Y101757D02*
D03*
Y100664D02*
D03*
Y100987D02*
D03*
Y101447D02*
D03*
Y99350D02*
D03*
Y98890D02*
D03*
X142897Y99459D02*
D03*
X140610Y99593D02*
D03*
X143810Y97880D02*
D03*
Y98150D02*
D03*
X141432Y97760D02*
D03*
Y98267D02*
D03*
X141190D02*
D03*
X141180Y97760D02*
D03*
X142052Y99300D02*
D03*
X141320Y99110D02*
D03*
X144170Y98567D02*
D03*
Y99660D02*
D03*
Y99100D02*
D03*
X148221Y105299D02*
D03*
X147850Y104970D02*
D03*
X146761Y105290D02*
D03*
X145350Y102875D02*
D03*
X145910Y99450D02*
D03*
Y99000D02*
D03*
Y98550D02*
D03*
Y98050D02*
D03*
X146308Y98248D02*
D03*
Y99648D02*
D03*
Y98748D02*
D03*
X113681Y100582D02*
D03*
X112850Y98450D02*
D03*
X113088Y98190D02*
D03*
X112850D02*
D03*
X111820Y97720D02*
D03*
X111540D02*
D03*
X113417Y100127D02*
D03*
X108246Y100840D02*
D03*
X111820Y97060D02*
D03*
X111457D02*
D03*
X111093D02*
D03*
X110730D02*
D03*
X110347D02*
D03*
X110003D02*
D03*
X109640D02*
D03*
X108359Y101616D02*
D03*
X108076Y101288D02*
D03*
X114097Y97145D02*
D03*
X109046Y99606D02*
D03*
X107722Y98570D02*
D03*
Y98321D02*
D03*
X107600Y101800D02*
D03*
X110642Y98416D02*
D03*
X110409Y98420D02*
D03*
X110175D02*
D03*
X109140Y94500D02*
D03*
X107490Y94080D02*
D03*
X108173D02*
D03*
X107836D02*
D03*
X107490Y94345D02*
D03*
Y94610D02*
D03*
X109632Y93810D02*
D03*
X109912Y94083D02*
D03*
Y93810D02*
D03*
X109351D02*
D03*
X109070D02*
D03*
Y94083D02*
D03*
X108500Y95620D02*
D03*
X114537Y100894D02*
D03*
X115282Y99235D02*
D03*
Y99958D02*
D03*
X113630Y101580D02*
D03*
X113940D02*
D03*
X114100Y101790D02*
D03*
X113790D02*
D03*
X113480D02*
D03*
X112964Y101620D02*
D03*
X114557Y99224D02*
D03*
X114943Y99223D02*
D03*
X114557Y99958D02*
D03*
X114943D02*
D03*
X113607Y103257D02*
D03*
X113929D02*
D03*
X108570Y98820D02*
D03*
X108317D02*
D03*
X108065D02*
D03*
X109215Y99817D02*
D03*
X109195Y100705D02*
D03*
X108778Y99617D02*
D03*
X109300Y101100D02*
D03*
X109290Y101340D02*
D03*
X109513Y100878D02*
D03*
X116270Y101200D02*
D03*
X109510Y101110D02*
D03*
X109140Y100970D02*
D03*
X114960Y100870D02*
D03*
X112768Y100830D02*
D03*
X111061Y100994D02*
D03*
X112610Y100172D02*
D03*
X113073Y99436D02*
D03*
X113325D02*
D03*
X112344Y100172D02*
D03*
X112755Y101076D02*
D03*
X115530Y97890D02*
D03*
X115230D02*
D03*
X114953Y98370D02*
D03*
Y98037D02*
D03*
X116570Y97650D02*
D03*
Y98230D02*
D03*
Y97940D02*
D03*
X116262D02*
D03*
Y98230D02*
D03*
X114338Y97144D02*
D03*
X114100Y96917D02*
D03*
X113720Y96910D02*
D03*
X113432D02*
D03*
Y96520D02*
D03*
X113144D02*
D03*
X112856D02*
D03*
X112220D02*
D03*
X114953Y97370D02*
D03*
Y97703D02*
D03*
X115604Y97050D02*
D03*
X115279D02*
D03*
X113140Y103257D02*
D03*
X111762Y103260D02*
D03*
X112865Y103257D02*
D03*
X112589D02*
D03*
X112314D02*
D03*
X112038D02*
D03*
X111340Y103260D02*
D03*
X111065D02*
D03*
X110790D02*
D03*
X110515D02*
D03*
X110240D02*
D03*
X107952D02*
D03*
X109460D02*
D03*
X108500D02*
D03*
X108200D02*
D03*
X111574Y100684D02*
D03*
X112342D02*
D03*
X112086D02*
D03*
X111574Y100428D02*
D03*
X112086D02*
D03*
X111830D02*
D03*
X112086Y100172D02*
D03*
X111574Y99404D02*
D03*
Y99148D02*
D03*
X112086Y98893D02*
D03*
X112086Y99404D02*
D03*
Y99660D02*
D03*
X111830Y98893D02*
D03*
Y99148D02*
D03*
X110038D02*
D03*
X111318D02*
D03*
X111062Y100172D02*
D03*
X110806Y100428D02*
D03*
X111062Y100428D02*
D03*
X103028Y101826D02*
D03*
X111005Y94168D02*
D03*
X111000Y93900D02*
D03*
X111235Y93718D02*
D03*
X111558D02*
D03*
X111882D02*
D03*
X112195D02*
D03*
X111885Y94168D02*
D03*
X114929Y96022D02*
D03*
X115330Y96020D02*
D03*
Y95770D02*
D03*
X115732Y96020D02*
D03*
Y95770D02*
D03*
X116133Y96020D02*
D03*
Y95770D02*
D03*
X115175Y94038D02*
D03*
X115532D02*
D03*
X115888D02*
D03*
X116245D02*
D03*
Y93768D02*
D03*
X115888D02*
D03*
X115532D02*
D03*
X115175D02*
D03*
X111015Y94803D02*
D03*
Y95208D02*
D03*
X111334D02*
D03*
X112005Y95021D02*
D03*
X112929Y94442D02*
D03*
X112914Y94743D02*
D03*
X112949Y92165D02*
D03*
Y91864D02*
D03*
X112000Y92443D02*
D03*
X111698Y92631D02*
D03*
X111369Y92630D02*
D03*
X111040D02*
D03*
Y92305D02*
D03*
Y91980D02*
D03*
X111840Y93103D02*
D03*
X116720Y92920D02*
D03*
Y93200D02*
D03*
X116298Y92920D02*
D03*
Y93200D02*
D03*
X115876Y92920D02*
D03*
Y93200D02*
D03*
X115453Y92920D02*
D03*
Y93200D02*
D03*
X111807Y91140D02*
D03*
X111488D02*
D03*
X111170D02*
D03*
X111040Y91365D02*
D03*
Y91610D02*
D03*
X100930Y96150D02*
D03*
X101947Y96145D02*
D03*
X102646Y94992D02*
D03*
X104080Y95000D02*
D03*
X104076Y95601D02*
D03*
X103740Y96083D02*
D03*
X104475Y96705D02*
D03*
Y96209D02*
D03*
Y97111D02*
D03*
X103485Y98134D02*
D03*
X103923Y98130D02*
D03*
X103090D02*
D03*
X102230Y97620D02*
D03*
X101917Y97307D02*
D03*
X101473D02*
D03*
X97905Y98824D02*
D03*
Y98550D02*
D03*
X100380Y97950D02*
D03*
X100030D02*
D03*
X99600D02*
D03*
X99260D02*
D03*
X98830D02*
D03*
X98400D02*
D03*
X101042Y98553D02*
D03*
X98190Y96990D02*
D03*
X97820Y94890D02*
D03*
Y96270D02*
D03*
X96405Y95686D02*
D03*
X96570Y96670D02*
D03*
X94962Y94503D02*
D03*
X95430Y94151D02*
D03*
X98191Y92445D02*
D03*
X103047Y93754D02*
D03*
X101981Y94117D02*
D03*
X102390Y94108D02*
D03*
X102785Y93996D02*
D03*
X102329Y93490D02*
D03*
X101979Y93530D02*
D03*
X103100Y92489D02*
D03*
X103099Y93180D02*
D03*
X103149Y91870D02*
D03*
X103279Y90400D02*
D03*
Y90750D02*
D03*
Y91120D02*
D03*
X103099Y92831D02*
D03*
X103279Y91510D02*
D03*
X102278Y91120D02*
D03*
X102288Y90750D02*
D03*
X102288Y90400D02*
D03*
X102299Y91520D02*
D03*
X102447Y92831D02*
D03*
Y92489D02*
D03*
X102437Y91875D02*
D03*
X102447Y93179D02*
D03*
Y92180D02*
D03*
X102942Y90400D02*
D03*
X102615D02*
D03*
X95894D02*
D03*
X95567D02*
D03*
X96062Y92180D02*
D03*
X96530Y93530D02*
D03*
X96180Y93490D02*
D03*
X96062Y93179D02*
D03*
X96072Y91875D02*
D03*
X96062Y92489D02*
D03*
Y92831D02*
D03*
X96210Y91520D02*
D03*
X96221Y90400D02*
D03*
X96221Y90750D02*
D03*
X96231Y91120D02*
D03*
X95230Y91510D02*
D03*
X95705Y94050D02*
D03*
X96080Y94151D02*
D03*
X96450Y94180D02*
D03*
X95410Y92831D02*
D03*
Y92489D02*
D03*
X95230Y91120D02*
D03*
Y90750D02*
D03*
Y90400D02*
D03*
X95360Y91870D02*
D03*
X95410Y93180D02*
D03*
X95421Y93775D02*
D03*
X99570Y103210D02*
D03*
X95347Y102670D02*
D03*
X95349Y103130D02*
D03*
X96491Y102157D02*
D03*
X95410Y101760D02*
D03*
X97480Y102160D02*
D03*
X97895D02*
D03*
X98310D02*
D03*
X97480Y102595D02*
D03*
X98310D02*
D03*
Y103000D02*
D03*
X97895D02*
D03*
X98622Y101524D02*
D03*
X97984D02*
D03*
X97227Y100384D02*
D03*
X103040Y104967D02*
D03*
X104230Y103960D02*
D03*
X101972D02*
D03*
X103850Y104957D02*
D03*
X103940Y103960D02*
D03*
X103190D02*
D03*
X103435D02*
D03*
X103680D02*
D03*
X103435Y103660D02*
D03*
X103190D02*
D03*
X102310D02*
D03*
X102555D02*
D03*
X102800D02*
D03*
Y103960D02*
D03*
X102555D02*
D03*
X102310D02*
D03*
X93190Y109800D02*
D03*
X95610Y109360D02*
D03*
Y108450D02*
D03*
X95116Y106450D02*
D03*
X94630D02*
D03*
X94160Y107248D02*
D03*
X93207Y108893D02*
D03*
X93850D02*
D03*
X94170D02*
D03*
X94630D02*
D03*
X94640Y107816D02*
D03*
X94950D02*
D03*
X93534D02*
D03*
X90080Y110790D02*
D03*
X90390D02*
D03*
X90680Y112040D02*
D03*
Y112400D02*
D03*
Y111320D02*
D03*
Y111680D02*
D03*
X90877Y108820D02*
D03*
X91200D02*
D03*
Y109570D02*
D03*
X90624Y108690D02*
D03*
Y109440D02*
D03*
X88020Y104310D02*
D03*
X88480D02*
D03*
X89375Y105440D02*
D03*
X89794Y104309D02*
D03*
X89537Y104310D02*
D03*
X89280D02*
D03*
X89660Y105440D02*
D03*
X89090D02*
D03*
X88630D02*
D03*
X88060Y105380D02*
D03*
X87790D02*
D03*
X87535Y105870D02*
D03*
X87280D02*
D03*
X87535Y105625D02*
D03*
X87280D02*
D03*
Y105380D02*
D03*
X87535D02*
D03*
X87675Y107246D02*
D03*
X90130Y108040D02*
D03*
X88270Y106610D02*
D03*
Y106370D02*
D03*
Y107780D02*
D03*
Y107540D02*
D03*
X88960Y106120D02*
D03*
Y106820D02*
D03*
X90940Y107800D02*
D03*
X90130Y108260D02*
D03*
X90364Y108409D02*
D03*
X90624Y108410D02*
D03*
X91820Y108400D02*
D03*
X92219Y107830D02*
D03*
X91420Y106440D02*
D03*
Y105840D02*
D03*
Y106070D02*
D03*
X93792Y105660D02*
D03*
X94063D02*
D03*
X94333D02*
D03*
X92220Y103250D02*
D03*
X92490D02*
D03*
X91410Y102760D02*
D03*
Y102430D02*
D03*
X94130Y103660D02*
D03*
X93860D02*
D03*
X93590D02*
D03*
X94130Y103900D02*
D03*
X93860D02*
D03*
X93590D02*
D03*
X92380Y102750D02*
D03*
X91929Y103830D02*
D03*
X91260D02*
D03*
X91590Y100220D02*
D03*
Y100470D02*
D03*
X90300Y91800D02*
D03*
X92940Y97890D02*
D03*
X92910Y100570D02*
D03*
X92705Y101680D02*
D03*
X92710Y101220D02*
D03*
Y100770D02*
D03*
X91820Y98420D02*
D03*
X91830Y100990D02*
D03*
X91820Y101940D02*
D03*
X91050Y97450D02*
D03*
X91825Y101455D02*
D03*
X91830Y99620D02*
D03*
X91824Y97890D02*
D03*
X92160D02*
D03*
X91480Y99490D02*
D03*
X91620Y95500D02*
D03*
X91200D02*
D03*
X89610Y96021D02*
D03*
X92150Y96150D02*
D03*
X91298Y95802D02*
D03*
X90800Y96150D02*
D03*
X89900Y96950D02*
D03*
X90800Y94150D02*
D03*
X91250Y94500D02*
D03*
X90201Y95249D02*
D03*
X89950Y94200D02*
D03*
X87850Y94600D02*
D03*
X88250D02*
D03*
Y96000D02*
D03*
X87850D02*
D03*
X93650Y94850D02*
D03*
X92334Y94066D02*
D03*
X92750Y94500D02*
D03*
X91650Y94400D02*
D03*
X90050Y95000D02*
D03*
X91200Y93500D02*
D03*
X91750D02*
D03*
X92198Y93048D02*
D03*
X89900Y93400D02*
D03*
Y91900D02*
D03*
X90300Y93500D02*
D03*
X90750D02*
D03*
D171*
X110299Y99389D02*
D03*
Y99138D02*
D03*
X110550Y100428D02*
D03*
X110796Y99916D02*
D03*
X110294Y100684D02*
D03*
D282*
X131199Y97337D02*
D03*
Y97589D02*
D03*
X133110Y97396D02*
D03*
Y97648D02*
D03*
X120520Y94176D02*
D03*
Y93924D02*
D03*
X100700Y102722D02*
D03*
Y102974D02*
D03*
D283*
X88540Y106830D02*
D03*
X88040D02*
D03*
X88540Y106100D02*
D03*
X88040D02*
D03*
D284*
X88745Y107392D02*
D03*
X88743Y107868D02*
D03*
X89436Y107393D02*
D03*
X89437Y107868D02*
D03*
D285*
X102320Y104960D02*
D03*
X123724Y91425D02*
D03*
X123010Y93620D02*
D03*
X121680Y93040D02*
D03*
X127689Y94818D02*
D03*
X128750Y96570D02*
D03*
X121340Y103860D02*
D03*
X122790Y102270D02*
D03*
X141810Y104480D02*
D03*
X140610Y104500D02*
D03*
X129840Y99670D02*
D03*
X128300Y101550D02*
D03*
X102320Y104340D02*
D03*
X103500D02*
D03*
X147340Y94220D02*
D03*
X142260Y95710D02*
D03*
X142970Y90820D02*
D03*
X149100Y92900D02*
D03*
Y92350D02*
D03*
Y91370D02*
D03*
X147960Y93700D02*
D03*
Y91100D02*
D03*
X146037Y94330D02*
D03*
Y93870D02*
D03*
Y93410D02*
D03*
Y94790D02*
D03*
Y92950D02*
D03*
X146030Y91090D02*
D03*
X146370Y90110D02*
D03*
X146046Y92490D02*
D03*
Y91570D02*
D03*
Y92030D02*
D03*
X146440Y98640D02*
D03*
Y99100D02*
D03*
Y98160D02*
D03*
Y99570D02*
D03*
X145260Y103570D02*
D03*
X145370Y102040D02*
D03*
X145260Y104650D02*
D03*
Y104110D02*
D03*
X147500Y102500D02*
D03*
X146444Y105276D02*
D03*
D286*
X87250Y106868D02*
D03*
Y106612D02*
D03*
Y106356D02*
D03*
Y107124D02*
D03*
Y106100D02*
D03*
M02*
