G04*
G04 #@! TF.GenerationSoftware,Altium Limited,Altium Designer,20.0.13 (296)*
G04*
G04 Layer_Color=16711935*
%FSLAX24Y24*%
%MOIN*%
G70*
G01*
G75*
%ADD13C,0.0050*%
%ADD288C,0.0050*%
D13*
X89375Y90088D02*
G03*
X89375Y90088I-561J0D01*
G01*
X87069Y96823D02*
G03*
X86755Y97137I-314J0D01*
G01*
X150926Y105373D02*
G03*
X150426Y105873I-500J0D01*
G01*
X150776Y89062D02*
G03*
X150926Y89212I0J150D01*
G01*
X86723Y105086D02*
G03*
X86920Y105282I0J197D01*
G01*
Y107960D02*
G03*
X86723Y108156I-197J0D01*
G01*
X85179Y109050D02*
G03*
X85416Y109286I0J236D01*
G01*
X88073Y109397D02*
G03*
X88546Y109397I236J0D01*
G01*
X89510Y109456D02*
G03*
X89510Y109849I0J197D01*
G01*
Y111660D02*
G03*
X89510Y112054I0J197D01*
G01*
X88546Y112113D02*
G03*
X88073Y112113I-236J0D01*
G01*
X85809Y114129D02*
G03*
X85416Y113735I0J-394D01*
G01*
X86912D02*
G03*
X86518Y114129I-394J0D01*
G01*
X86912Y113156D02*
G03*
X87148Y112920I236J0D01*
G01*
X91164Y112526D02*
G03*
X90770Y112920I-394J0D01*
G01*
X91164Y110518D02*
G03*
X91557Y110125I394J0D01*
G01*
X97069Y109731D02*
G03*
X96676Y110125I-394J0D01*
G01*
X97069Y106267D02*
G03*
X97463Y105873I394J0D01*
G01*
X87069Y89849D02*
G03*
X87857Y89062I787J0D01*
G01*
X88546Y112054D02*
Y112113D01*
X88073Y112054D02*
Y112113D01*
X88546Y109397D02*
Y109456D01*
X88073Y109397D02*
Y109456D01*
X85416Y109298D02*
Y109456D01*
X87069Y90834D02*
Y96823D01*
X144233Y105873D02*
X150426D01*
X150926Y96818D02*
Y105373D01*
X86920Y105282D02*
Y107960D01*
X85022Y108156D02*
X86723D01*
X85022D02*
Y109050D01*
X85179D01*
X85416Y109456D02*
X88073D01*
X88546D02*
X89510D01*
Y109849D02*
Y111660D01*
X88546Y112054D02*
X89510D01*
X85416D02*
X88073D01*
X85809Y114129D02*
X86518D01*
X87148Y112920D02*
X90770D01*
X91164Y110518D02*
Y112526D01*
X91557Y110125D02*
X96676D01*
X97069Y106267D02*
Y109731D01*
X97463Y105873D02*
X144233D01*
X150926Y89212D02*
Y96818D01*
X87857Y89062D02*
X150776D01*
X87069Y89849D02*
Y90834D01*
X86164Y97137D02*
X86755D01*
X86164D02*
Y97806D01*
X85022D02*
Y103727D01*
Y105086D01*
X86723D01*
X85022Y97806D02*
X85413D01*
X86164D01*
X85416Y112054D02*
Y113735D01*
X86912Y113156D02*
Y113735D01*
D288*
X85652Y97834D02*
D03*
M02*
