G04*
G04 #@! TF.GenerationSoftware,Altium Limited,Altium Designer,20.0.13 (296)*
G04*
G04 Layer_Color=8388736*
%FSLAX24Y24*%
%MOIN*%
G70*
G01*
G75*
%ADD93C,0.0315*%
%ADD94R,0.0251X0.0251*%
%ADD95R,0.0444X0.0365*%
%ADD96R,0.0148X0.0168*%
%ADD97C,0.0141*%
%ADD98R,0.0349X0.0365*%
%ADD99O,0.0601X0.1034*%
%ADD100R,0.0286X0.0601*%
%ADD101R,0.0148X0.0207*%
%ADD102R,0.0207X0.0148*%
%ADD103C,0.0129*%
%ADD104R,0.0601X0.0444*%
%ADD105R,0.0601X0.0286*%
%ADD106R,0.0503X0.0601*%
%ADD107R,0.0168X0.0148*%
%ADD108R,0.0444X0.0286*%
%ADD109R,0.0444X0.0168*%
%ADD110R,0.0759X0.0365*%
%ADD111R,0.0444X0.0444*%
%ADD112R,0.0837X0.0759*%
%ADD113R,0.0365X0.0349*%
%ADD114R,0.0251X0.0251*%
%ADD115C,0.0168*%
%ADD116R,0.0444X0.1231*%
%ADD117R,0.0404X0.0286*%
%ADD118R,0.0404X0.0660*%
%ADD119R,0.0404X0.0522*%
%ADD120R,0.0286X0.0404*%
%ADD121R,0.0660X0.0404*%
%ADD122R,0.0522X0.0404*%
%ADD123R,0.0522X0.0680*%
%ADD124R,0.0650X0.0286*%
%ADD125R,0.0650X0.0650*%
%ADD126R,0.0365X0.0168*%
%ADD127R,0.0404X0.0247*%
%ADD128R,0.1231X0.0444*%
%ADD129R,0.0444X0.0444*%
%ADD130R,0.0247X0.0168*%
%ADD131R,0.0739X0.1074*%
%ADD132R,0.0444X0.0601*%
%ADD133R,0.0522X0.0129*%
%ADD134R,0.0522X0.0365*%
%ADD135R,0.0680X0.1113*%
%ADD136R,0.0247X0.0148*%
%ADD137R,0.0148X0.0247*%
%ADD138R,0.1172X0.1172*%
%ADD139R,0.0759X0.0168*%
%ADD140R,0.0522X0.0759*%
%ADD141R,0.0483X0.0641*%
%ADD142R,0.0267X0.0267*%
%ADD143R,0.0247X0.0207*%
%ADD144R,0.0148X0.0267*%
%ADD145R,0.0641X0.0365*%
%ADD146R,0.0641X0.0641*%
%ADD147R,0.0798X0.2137*%
%ADD148R,0.0522X0.0286*%
%ADD149R,0.0522X0.0522*%
%ADD150R,0.2137X0.0798*%
%ADD151R,0.0207X0.0207*%
%ADD152R,0.0286X0.0522*%
%ADD153R,0.0641X0.1625*%
%ADD154R,0.0129X0.0522*%
%ADD155R,0.0326X0.0522*%
%ADD156R,0.1625X0.0641*%
%ADD157R,0.0444X0.0148*%
%ADD158R,0.0148X0.0444*%
%ADD159C,0.0286*%
%ADD160R,0.0247X0.0562*%
%ADD161R,0.0562X0.0247*%
%ADD162O,0.0896X0.0601*%
%ADD163O,0.0896X0.0522*%
%ADD164O,0.0896X0.0601*%
%ADD165O,0.1113X0.0522*%
%ADD166O,0.1113X0.0601*%
%ADD167C,0.0404*%
%ADD168C,0.0669*%
%ADD169C,0.0630*%
%ADD170C,0.0210*%
%ADD171C,0.0190*%
D93*
X101417Y104067D02*
Y105400D01*
X103309Y91780D02*
X103959D01*
X105400Y102900D02*
Y105150D01*
X109950D01*
X105400Y90000D02*
Y92950D01*
Y90000D02*
X109950D01*
X112350Y105150D02*
X117300D01*
Y102900D02*
Y105150D01*
X112350Y90000D02*
X117300D01*
X138200D02*
X140550D01*
X142950D02*
X145000D01*
Y92950D01*
Y95350D02*
Y98700D01*
Y101100D02*
Y102350D01*
X142950D02*
X145000D01*
X138200D02*
X140550D01*
X117800Y105150D02*
X121750D01*
X124150D02*
X131050D01*
X133450D02*
X137600D01*
Y102900D02*
Y105150D01*
X137600Y95400D02*
Y100500D01*
X138200Y101100D02*
Y102350D01*
Y95400D02*
Y98700D01*
Y90000D02*
Y92900D01*
X137600Y90000D02*
Y92900D01*
X133450Y90000D02*
X137600D01*
X124150D02*
X131050D01*
X117800D02*
X121750D01*
X117800D02*
Y92950D01*
X117300Y90000D02*
Y92950D01*
X117800Y95350D02*
Y100500D01*
X117300Y95350D02*
Y100450D01*
X117800Y102900D02*
Y105150D01*
X105400Y95350D02*
Y100450D01*
X104845Y96925D02*
Y99480D01*
X104843Y91780D02*
Y94437D01*
X100550Y91780D02*
X101950D01*
X96050D02*
X98146D01*
X94550D02*
Y94480D01*
Y96880D02*
Y99480D01*
X100550D02*
X104845Y99480D01*
X94550Y99480D02*
X98150D01*
X94550Y105400D02*
X96700D01*
X99100D02*
X101417D01*
Y100030D02*
Y101550D01*
X99100Y100030D02*
X101417D01*
X94550D02*
X96650D01*
X94550D02*
Y101550D01*
Y104090D02*
Y105400D01*
X138350Y97450D02*
X145000Y97450D01*
X103200Y91780D02*
X104843D01*
X94550D02*
X95200D01*
D94*
X143320Y104368D02*
D03*
Y104045D02*
D03*
X143760Y100990D02*
D03*
Y100667D02*
D03*
Y101450D02*
D03*
Y101773D02*
D03*
Y99350D02*
D03*
Y99673D02*
D03*
Y98890D02*
D03*
Y98567D02*
D03*
X140150Y96700D02*
D03*
Y96377D02*
D03*
X139650Y95539D02*
D03*
Y95861D02*
D03*
Y96711D02*
D03*
Y96389D02*
D03*
X132060Y100660D02*
D03*
Y100337D02*
D03*
X132070Y101147D02*
D03*
Y101470D02*
D03*
X131610D02*
D03*
Y101147D02*
D03*
X119840Y96880D02*
D03*
Y97203D02*
D03*
X120330Y97203D02*
D03*
Y96880D02*
D03*
Y97991D02*
D03*
Y97669D02*
D03*
X119840Y98003D02*
D03*
Y97680D02*
D03*
X120836Y99670D02*
D03*
Y99993D02*
D03*
X112690Y92779D02*
D03*
Y93101D02*
D03*
X112230D02*
D03*
Y92779D02*
D03*
X98240Y104089D02*
D03*
Y104412D02*
D03*
X97780Y104089D02*
D03*
Y104412D02*
D03*
X97320Y104090D02*
D03*
Y104413D02*
D03*
X96860Y104090D02*
D03*
Y104413D02*
D03*
X99080Y101160D02*
D03*
Y100837D02*
D03*
X98620Y101163D02*
D03*
Y100840D02*
D03*
X98160Y101170D02*
D03*
Y100847D02*
D03*
X97693Y101170D02*
D03*
Y100847D02*
D03*
X97227Y101170D02*
D03*
Y100847D02*
D03*
X96760D02*
D03*
Y101170D02*
D03*
X102773Y92647D02*
D03*
Y92970D02*
D03*
X102803Y97297D02*
D03*
Y97620D02*
D03*
Y96797D02*
D03*
Y96474D02*
D03*
X102300Y96479D02*
D03*
Y96801D02*
D03*
X100680Y98553D02*
D03*
Y98230D02*
D03*
X100200Y98553D02*
D03*
Y98230D02*
D03*
X99720Y98553D02*
D03*
Y98230D02*
D03*
X99240Y98553D02*
D03*
Y98230D02*
D03*
X98760Y98553D02*
D03*
Y98230D02*
D03*
X98280Y98553D02*
D03*
Y98230D02*
D03*
X95740Y92647D02*
D03*
Y92970D02*
D03*
X90300Y92877D02*
D03*
Y93200D02*
D03*
X90750D02*
D03*
Y92877D02*
D03*
X91200D02*
D03*
Y93200D02*
D03*
X90300Y92423D02*
D03*
Y92100D02*
D03*
X90750D02*
D03*
Y92423D02*
D03*
X91200D02*
D03*
Y92100D02*
D03*
X94660Y106757D02*
D03*
Y107080D02*
D03*
X95116Y106757D02*
D03*
Y107080D02*
D03*
X140150Y95861D02*
D03*
Y95539D02*
D03*
X112695Y95669D02*
D03*
Y95346D02*
D03*
X112245D02*
D03*
Y95669D02*
D03*
D95*
X141682Y103730D02*
D03*
X140698D02*
D03*
X88916Y96550D02*
D03*
X89900D02*
D03*
D96*
X146308Y99450D02*
D03*
X146092D02*
D03*
X146308Y99000D02*
D03*
X146092D02*
D03*
X146308Y98550D02*
D03*
X146092D02*
D03*
X146308Y98050D02*
D03*
X146092D02*
D03*
X89633Y95000D02*
D03*
X89850D02*
D03*
X89633Y95400D02*
D03*
X89850D02*
D03*
X91825Y98180D02*
D03*
X92042D02*
D03*
X91825Y98630D02*
D03*
X92042D02*
D03*
Y99080D02*
D03*
X91825D02*
D03*
Y99910D02*
D03*
X92042D02*
D03*
X91825Y100810D02*
D03*
X92042D02*
D03*
X91825Y101210D02*
D03*
X92042D02*
D03*
X91825Y101660D02*
D03*
X92042D02*
D03*
X90062Y112410D02*
D03*
X90278D02*
D03*
X90062Y111680D02*
D03*
X90278D02*
D03*
X90063Y109440D02*
D03*
X90280D02*
D03*
X90063Y108690D02*
D03*
X90280D02*
D03*
X140609Y104380D02*
D03*
X140392D02*
D03*
X141793D02*
D03*
X142010D02*
D03*
D97*
X142703Y101003D02*
D03*
X143097Y101397D02*
D03*
Y101003D02*
D03*
X142900D02*
D03*
Y101200D02*
D03*
X142703D02*
D03*
Y101397D02*
D03*
X142900D02*
D03*
X143097Y101200D02*
D03*
X142703Y98906D02*
D03*
X143097Y99300D02*
D03*
Y98906D02*
D03*
X142900D02*
D03*
Y99103D02*
D03*
X142703D02*
D03*
Y99300D02*
D03*
X142900D02*
D03*
X143097Y99103D02*
D03*
X131141Y97559D02*
D03*
X136259D02*
D03*
X131141Y92441D02*
D03*
X136259D02*
D03*
X131141Y97165D02*
D03*
X134094Y97559D02*
D03*
X136259Y93819D02*
D03*
X136062D02*
D03*
X135668Y97362D02*
D03*
X135472D02*
D03*
X135865Y95197D02*
D03*
X136062D02*
D03*
Y96181D02*
D03*
X136259D02*
D03*
X136062Y94016D02*
D03*
X135865Y97362D02*
D03*
X136259Y95394D02*
D03*
X135865Y95984D02*
D03*
X136259Y94213D02*
D03*
X135865Y94016D02*
D03*
X136062Y97165D02*
D03*
Y96968D02*
D03*
X136259D02*
D03*
X135865Y96772D02*
D03*
Y93622D02*
D03*
X136062D02*
D03*
Y96772D02*
D03*
X136259Y93425D02*
D03*
X136062Y93228D02*
D03*
X135865D02*
D03*
X136259Y93032D02*
D03*
X136062Y92835D02*
D03*
X136259D02*
D03*
X134487Y97362D02*
D03*
X134684Y97559D02*
D03*
Y97362D02*
D03*
X134881Y97559D02*
D03*
X135865Y96378D02*
D03*
X135078Y97362D02*
D03*
X135275Y97559D02*
D03*
Y97362D02*
D03*
X135472Y97559D02*
D03*
X136259Y95000D02*
D03*
X135865Y94803D02*
D03*
X136062D02*
D03*
X136259Y94606D02*
D03*
X135865Y94409D02*
D03*
X136062D02*
D03*
Y96378D02*
D03*
X136259Y96575D02*
D03*
X131338Y95591D02*
D03*
X131535D02*
D03*
Y95984D02*
D03*
X131338D02*
D03*
X131141Y95787D02*
D03*
X131338D02*
D03*
Y96772D02*
D03*
X131535D02*
D03*
X131338Y96575D02*
D03*
Y96378D02*
D03*
X131141Y96181D02*
D03*
Y95394D02*
D03*
X131338D02*
D03*
Y95197D02*
D03*
X131535D02*
D03*
X131141Y95000D02*
D03*
X134487Y92638D02*
D03*
Y92441D02*
D03*
X131338Y93622D02*
D03*
Y93819D02*
D03*
X132913Y92638D02*
D03*
Y92441D02*
D03*
X131928Y92638D02*
D03*
Y92441D02*
D03*
X134291D02*
D03*
X131535Y93622D02*
D03*
X132716Y92441D02*
D03*
X132125Y92638D02*
D03*
X133109Y92441D02*
D03*
Y92638D02*
D03*
X131732Y92441D02*
D03*
X131535Y92638D02*
D03*
X131338Y92835D02*
D03*
X131141D02*
D03*
X135668Y92638D02*
D03*
X135472D02*
D03*
X131141Y93032D02*
D03*
X135472Y92441D02*
D03*
X135275D02*
D03*
X135078Y92638D02*
D03*
X134881D02*
D03*
Y92441D02*
D03*
X134684D02*
D03*
X131141Y93819D02*
D03*
X131338Y94016D02*
D03*
X131535D02*
D03*
X131141Y94213D02*
D03*
X131535Y93228D02*
D03*
Y94409D02*
D03*
X131338D02*
D03*
X131141Y94606D02*
D03*
X131535Y94803D02*
D03*
X134094Y92441D02*
D03*
X133897Y92638D02*
D03*
X133700Y92441D02*
D03*
Y92638D02*
D03*
X133503Y92441D02*
D03*
X133306Y92638D02*
D03*
X131338Y93228D02*
D03*
X131141Y93425D02*
D03*
X132322Y97559D02*
D03*
Y97362D02*
D03*
X132716Y97559D02*
D03*
Y97362D02*
D03*
X132519D02*
D03*
Y97559D02*
D03*
X133700Y97362D02*
D03*
Y97559D02*
D03*
X133503Y97362D02*
D03*
Y97559D02*
D03*
X133306D02*
D03*
X132125Y97362D02*
D03*
X131928Y97559D02*
D03*
X131732Y97362D02*
D03*
Y97559D02*
D03*
X131535Y97362D02*
D03*
X132519Y92638D02*
D03*
X133109Y97362D02*
D03*
X131535Y96378D02*
D03*
X135865Y95591D02*
D03*
X136062Y95787D02*
D03*
X136259Y92638D02*
D03*
X136062D02*
D03*
X131338Y97165D02*
D03*
X132322Y92638D02*
D03*
X131338D02*
D03*
Y97559D02*
D03*
X134094Y97362D02*
D03*
X131338Y95000D02*
D03*
X135275Y92638D02*
D03*
X134684D02*
D03*
X136062Y93032D02*
D03*
X135865Y92638D02*
D03*
Y92441D02*
D03*
X136062Y93425D02*
D03*
Y94213D02*
D03*
Y94606D02*
D03*
Y95000D02*
D03*
Y95394D02*
D03*
Y95984D02*
D03*
X136259Y95787D02*
D03*
X136062Y96575D02*
D03*
X134881Y97362D02*
D03*
X135668Y97559D02*
D03*
X136062Y97362D02*
D03*
Y97559D02*
D03*
X134094Y92638D02*
D03*
X133503D02*
D03*
X132716D02*
D03*
X133897Y97362D02*
D03*
X133306D02*
D03*
X132913D02*
D03*
X134291D02*
D03*
X131732Y92638D02*
D03*
X131141D02*
D03*
X131338Y93032D02*
D03*
X132125Y92441D02*
D03*
X131338Y93425D02*
D03*
Y94213D02*
D03*
Y94803D02*
D03*
Y94606D02*
D03*
X131928Y97362D02*
D03*
X131338D02*
D03*
X131141Y96968D02*
D03*
X131338D02*
D03*
X131141Y96378D02*
D03*
X131338Y96181D02*
D03*
X136259Y96378D02*
D03*
X136062Y92441D02*
D03*
X135668D02*
D03*
X135078D02*
D03*
X136259Y93228D02*
D03*
Y93622D02*
D03*
Y94016D02*
D03*
Y94409D02*
D03*
Y94803D02*
D03*
Y95197D02*
D03*
Y95591D02*
D03*
X136062D02*
D03*
X136259Y95984D02*
D03*
Y96772D02*
D03*
Y97165D02*
D03*
X135865Y97559D02*
D03*
X136259Y97362D02*
D03*
X135078Y97559D02*
D03*
X133897Y92441D02*
D03*
X133306D02*
D03*
X134291Y92638D02*
D03*
X132322Y92441D02*
D03*
X132519D02*
D03*
X134487Y97559D02*
D03*
X134291D02*
D03*
X132913D02*
D03*
X133109D02*
D03*
X133897D02*
D03*
X131338Y92441D02*
D03*
X131535D02*
D03*
X131141Y93228D02*
D03*
Y93622D02*
D03*
Y94016D02*
D03*
Y94409D02*
D03*
Y94803D02*
D03*
Y95591D02*
D03*
Y95984D02*
D03*
Y97362D02*
D03*
X132125Y97559D02*
D03*
X131535D02*
D03*
X131141Y96575D02*
D03*
Y96772D02*
D03*
Y95197D02*
D03*
X126175Y102166D02*
D03*
X125978Y102363D02*
D03*
X125387Y101378D02*
D03*
X125191Y101575D02*
D03*
X125584Y101378D02*
D03*
X125191Y101772D02*
D03*
X124600Y102363D02*
D03*
X124403Y102166D02*
D03*
X125781Y102363D02*
D03*
X124600Y102953D02*
D03*
X124403Y102559D02*
D03*
X126569D02*
D03*
X126175Y101969D02*
D03*
X124403Y102363D02*
D03*
Y102756D02*
D03*
X124600Y102559D02*
D03*
X124797D02*
D03*
X126569Y102166D02*
D03*
X124797Y102363D02*
D03*
X126962Y102756D02*
D03*
Y102559D02*
D03*
Y102363D02*
D03*
X126765Y102953D02*
D03*
Y102756D02*
D03*
Y102559D02*
D03*
Y102363D02*
D03*
Y102166D02*
D03*
X125191Y102363D02*
D03*
X126569Y102953D02*
D03*
X124797Y102166D02*
D03*
X128340Y102559D02*
D03*
Y102166D02*
D03*
Y101575D02*
D03*
Y101181D02*
D03*
X128143Y102953D02*
D03*
Y100788D02*
D03*
X127750Y103150D02*
D03*
Y100591D02*
D03*
X126962Y103150D02*
D03*
Y102953D02*
D03*
Y102166D02*
D03*
Y101969D02*
D03*
Y101772D02*
D03*
Y101575D02*
D03*
Y101378D02*
D03*
Y101181D02*
D03*
Y100985D02*
D03*
Y100788D02*
D03*
Y100591D02*
D03*
X126765Y103150D02*
D03*
Y101969D02*
D03*
Y101772D02*
D03*
Y101575D02*
D03*
Y101378D02*
D03*
Y101181D02*
D03*
Y100985D02*
D03*
Y100788D02*
D03*
Y100591D02*
D03*
X126569Y103150D02*
D03*
Y102756D02*
D03*
Y102363D02*
D03*
Y101969D02*
D03*
Y101772D02*
D03*
Y101575D02*
D03*
Y101378D02*
D03*
Y101181D02*
D03*
Y100985D02*
D03*
Y100788D02*
D03*
Y100591D02*
D03*
X126372Y103150D02*
D03*
Y102953D02*
D03*
Y102756D02*
D03*
Y102559D02*
D03*
Y100985D02*
D03*
Y100788D02*
D03*
Y100591D02*
D03*
X126175Y103150D02*
D03*
Y102953D02*
D03*
Y102756D02*
D03*
Y102363D02*
D03*
Y101772D02*
D03*
Y101575D02*
D03*
Y101378D02*
D03*
Y100985D02*
D03*
Y100788D02*
D03*
Y100591D02*
D03*
X125978Y103150D02*
D03*
Y102953D02*
D03*
Y102756D02*
D03*
Y101378D02*
D03*
Y100985D02*
D03*
Y100788D02*
D03*
Y100591D02*
D03*
X125781Y103150D02*
D03*
Y102953D02*
D03*
Y102756D02*
D03*
Y101378D02*
D03*
Y100985D02*
D03*
Y100788D02*
D03*
Y100591D02*
D03*
X125584Y103150D02*
D03*
Y102953D02*
D03*
Y102756D02*
D03*
Y102363D02*
D03*
Y100985D02*
D03*
Y100788D02*
D03*
Y100591D02*
D03*
X125387Y103150D02*
D03*
Y102953D02*
D03*
Y102756D02*
D03*
Y102363D02*
D03*
Y100985D02*
D03*
Y100788D02*
D03*
Y100591D02*
D03*
X125191Y103150D02*
D03*
Y102953D02*
D03*
Y102756D02*
D03*
Y102166D02*
D03*
Y101969D02*
D03*
Y101378D02*
D03*
Y100985D02*
D03*
Y100788D02*
D03*
Y100591D02*
D03*
X124994Y103150D02*
D03*
Y102953D02*
D03*
Y102756D02*
D03*
Y100985D02*
D03*
Y100788D02*
D03*
Y100591D02*
D03*
X124797Y103150D02*
D03*
Y102953D02*
D03*
Y102756D02*
D03*
Y101969D02*
D03*
Y101772D02*
D03*
Y101575D02*
D03*
Y101378D02*
D03*
Y101181D02*
D03*
Y100985D02*
D03*
Y100788D02*
D03*
Y100591D02*
D03*
X124600Y103150D02*
D03*
Y102756D02*
D03*
Y102166D02*
D03*
Y101969D02*
D03*
Y101772D02*
D03*
Y101575D02*
D03*
Y101378D02*
D03*
Y101181D02*
D03*
Y100985D02*
D03*
Y100788D02*
D03*
Y100591D02*
D03*
X124403Y103150D02*
D03*
Y102953D02*
D03*
Y101969D02*
D03*
Y101772D02*
D03*
Y101575D02*
D03*
Y101378D02*
D03*
Y101181D02*
D03*
Y100985D02*
D03*
Y100788D02*
D03*
Y100591D02*
D03*
X123616Y103150D02*
D03*
Y100591D02*
D03*
X123222Y102953D02*
D03*
Y100788D02*
D03*
X123025Y102559D02*
D03*
Y102166D02*
D03*
Y101575D02*
D03*
Y101181D02*
D03*
D98*
X142882Y98010D02*
D03*
X143480D02*
D03*
X141682D02*
D03*
X142280D02*
D03*
X103980Y101821D02*
D03*
X103382D02*
D03*
X92596Y100360D02*
D03*
X91997D02*
D03*
X100479Y102910D02*
D03*
X99881D02*
D03*
X88030Y105750D02*
D03*
X88629D02*
D03*
X114309Y96570D02*
D03*
X113711D02*
D03*
X147848Y105300D02*
D03*
X147250D02*
D03*
X116659Y90820D02*
D03*
X116061D02*
D03*
X115899Y100894D02*
D03*
X115301D02*
D03*
X99882Y103520D02*
D03*
X100480D02*
D03*
X99882Y104140D02*
D03*
X100480D02*
D03*
X115899Y98907D02*
D03*
X115301D02*
D03*
X108359Y101300D02*
D03*
X108958D02*
D03*
X114312Y100244D02*
D03*
X113713D02*
D03*
X108239Y100517D02*
D03*
X108837D02*
D03*
X141372Y100150D02*
D03*
X141970D02*
D03*
X96000Y96280D02*
D03*
X95402D02*
D03*
X115899Y99569D02*
D03*
X115301D02*
D03*
X114262Y100894D02*
D03*
X113663D02*
D03*
X138911Y92250D02*
D03*
X139509D02*
D03*
X115899Y100282D02*
D03*
X115301D02*
D03*
X100479Y102290D02*
D03*
X99881D02*
D03*
X96073Y101020D02*
D03*
X95474D02*
D03*
X115890Y98244D02*
D03*
X115292D02*
D03*
X132219Y91650D02*
D03*
X131621D02*
D03*
X135860Y91750D02*
D03*
X135262D02*
D03*
X99881Y101050D02*
D03*
X100479D02*
D03*
X108249Y99890D02*
D03*
X108848D02*
D03*
X96023Y102120D02*
D03*
X95424D02*
D03*
X99882Y101670D02*
D03*
X100480D02*
D03*
D99*
X144000Y94100D02*
D03*
X142268D02*
D03*
D100*
X132276Y102988D02*
D03*
X132650D02*
D03*
X133024D02*
D03*
Y104012D02*
D03*
X132276D02*
D03*
X133354Y101350D02*
D03*
X132980D02*
D03*
X132606D02*
D03*
Y100326D02*
D03*
X133354D02*
D03*
D101*
X119995Y93358D02*
D03*
X120503D02*
D03*
X120673D02*
D03*
X119657D02*
D03*
X119826D02*
D03*
X119995Y94302D02*
D03*
X119826D02*
D03*
X119657D02*
D03*
X119487D02*
D03*
Y93358D02*
D03*
X120334Y94302D02*
D03*
X120503D02*
D03*
X120673D02*
D03*
X120165Y93358D02*
D03*
X120334D02*
D03*
X120165Y94302D02*
D03*
D102*
X119509Y93915D02*
D03*
X120651Y93576D02*
D03*
Y93745D02*
D03*
Y93915D02*
D03*
Y94084D02*
D03*
X119509Y93576D02*
D03*
Y94084D02*
D03*
Y93745D02*
D03*
D103*
X120573Y95108D02*
D03*
Y95423D02*
D03*
X120730Y95580D02*
D03*
X121045Y95265D02*
D03*
X120730Y95108D02*
D03*
X120573Y95265D02*
D03*
X120887Y95580D02*
D03*
X121045D02*
D03*
X120573D02*
D03*
X120887Y95423D02*
D03*
X121045D02*
D03*
X120730Y95265D02*
D03*
X120887D02*
D03*
X121045Y95108D02*
D03*
X112383Y91483D02*
D03*
Y91640D02*
D03*
X112225Y91483D02*
D03*
Y91640D02*
D03*
X112697Y91797D02*
D03*
Y91955D02*
D03*
X112540Y91797D02*
D03*
X112383Y91955D02*
D03*
X112540D02*
D03*
X112225Y91797D02*
D03*
X112383D02*
D03*
X112697Y91483D02*
D03*
Y91640D02*
D03*
X112540Y91483D02*
D03*
Y91640D02*
D03*
X112697Y92112D02*
D03*
X112540D02*
D03*
X112225Y91955D02*
D03*
X112383Y92112D02*
D03*
X112225D02*
D03*
X112347Y94060D02*
D03*
Y94218D02*
D03*
X112190Y94060D02*
D03*
Y94218D02*
D03*
X112662Y94375D02*
D03*
Y94533D02*
D03*
X112505Y94375D02*
D03*
X112347Y94533D02*
D03*
X112505D02*
D03*
X112190Y94375D02*
D03*
X112347D02*
D03*
X112662Y94060D02*
D03*
Y94218D02*
D03*
X112505Y94060D02*
D03*
Y94218D02*
D03*
X112662Y94690D02*
D03*
X112505D02*
D03*
X112190Y94533D02*
D03*
X112347Y94690D02*
D03*
X112190D02*
D03*
D104*
X119830Y95280D02*
D03*
X118964Y94906D02*
D03*
Y95654D02*
D03*
X90800Y95248D02*
D03*
Y94500D02*
D03*
X91666Y94874D02*
D03*
X90800Y96550D02*
D03*
Y95802D02*
D03*
X91666Y96176D02*
D03*
X108008Y95254D02*
D03*
Y94506D02*
D03*
X108874Y94880D02*
D03*
X138854Y104304D02*
D03*
Y103556D02*
D03*
X139720Y103930D02*
D03*
X92334Y95224D02*
D03*
Y94476D02*
D03*
X93200Y94850D02*
D03*
D105*
X102968Y101204D02*
D03*
Y100830D02*
D03*
Y100456D02*
D03*
X103992D02*
D03*
Y100830D02*
D03*
Y101204D02*
D03*
X91850Y103498D02*
D03*
Y103124D02*
D03*
Y102750D02*
D03*
X92874D02*
D03*
Y103498D02*
D03*
X91882Y105686D02*
D03*
Y106060D02*
D03*
Y106434D02*
D03*
X90858D02*
D03*
Y106060D02*
D03*
Y105686D02*
D03*
D106*
X104053Y97547D02*
D03*
X103423Y96523D02*
D03*
X104053D02*
D03*
X103423Y97547D02*
D03*
X95435Y94608D02*
D03*
X96065Y95632D02*
D03*
X95435D02*
D03*
X96065Y94608D02*
D03*
X118585Y97602D02*
D03*
X119215Y96578D02*
D03*
X118585D02*
D03*
X119215Y97602D02*
D03*
D107*
X89900Y92883D02*
D03*
Y93100D02*
D03*
Y92417D02*
D03*
Y92200D02*
D03*
D108*
X88037Y95989D02*
D03*
Y94611D02*
D03*
D109*
X89022Y95398D02*
D03*
Y95595D02*
D03*
Y95005D02*
D03*
Y95202D02*
D03*
D110*
X89487Y104920D02*
D03*
X88227D02*
D03*
D111*
X93900Y104400D02*
D03*
Y105187D02*
D03*
X121680Y98324D02*
D03*
Y97536D02*
D03*
X121660Y92396D02*
D03*
Y93184D02*
D03*
X116660Y95284D02*
D03*
Y94496D02*
D03*
X115920Y95284D02*
D03*
Y94496D02*
D03*
X131820Y99307D02*
D03*
Y98520D02*
D03*
X115170Y95284D02*
D03*
Y94496D02*
D03*
X116820Y91683D02*
D03*
Y92470D02*
D03*
X116090D02*
D03*
Y91683D02*
D03*
X115390Y92470D02*
D03*
Y91683D02*
D03*
D112*
X92950Y104450D02*
D03*
Y105946D02*
D03*
D113*
X95680Y106403D02*
D03*
Y107001D02*
D03*
X130390Y92923D02*
D03*
Y92324D02*
D03*
X91750Y93048D02*
D03*
Y92450D02*
D03*
X102125Y100593D02*
D03*
Y101192D02*
D03*
X90180Y106410D02*
D03*
Y105812D02*
D03*
X113620Y102749D02*
D03*
Y102151D02*
D03*
X102300Y95002D02*
D03*
Y95600D02*
D03*
X121699Y96869D02*
D03*
Y96271D02*
D03*
X143860Y104289D02*
D03*
Y103691D02*
D03*
X110710Y104133D02*
D03*
Y103535D02*
D03*
X112038Y104133D02*
D03*
Y103535D02*
D03*
X131142Y99336D02*
D03*
Y98737D02*
D03*
X131650Y103152D02*
D03*
Y103750D02*
D03*
X113530Y104133D02*
D03*
Y103535D02*
D03*
X110073Y104133D02*
D03*
Y103535D02*
D03*
X110384Y97439D02*
D03*
Y98038D02*
D03*
X109513Y94810D02*
D03*
Y94212D02*
D03*
X130470Y99333D02*
D03*
Y98734D02*
D03*
X111346Y104133D02*
D03*
Y103535D02*
D03*
X142760Y104289D02*
D03*
Y103691D02*
D03*
X102966Y95002D02*
D03*
Y95600D02*
D03*
X108580Y104133D02*
D03*
Y103534D02*
D03*
X118680Y93479D02*
D03*
Y92881D02*
D03*
X134010Y100321D02*
D03*
Y100919D02*
D03*
X110999Y97430D02*
D03*
Y98028D02*
D03*
X98780Y104099D02*
D03*
Y104697D02*
D03*
X133650Y103750D02*
D03*
Y103152D02*
D03*
X142200Y96198D02*
D03*
Y95600D02*
D03*
X121659Y93841D02*
D03*
Y94439D02*
D03*
X114240Y102749D02*
D03*
Y102151D02*
D03*
X111480Y92149D02*
D03*
Y91551D02*
D03*
X109749Y97430D02*
D03*
Y98028D02*
D03*
X109272Y104133D02*
D03*
Y103535D02*
D03*
X111480Y94739D02*
D03*
Y94141D02*
D03*
X103640Y95599D02*
D03*
Y95001D02*
D03*
X104710Y100515D02*
D03*
Y101113D02*
D03*
X144250Y95652D02*
D03*
Y96250D02*
D03*
X112730Y104133D02*
D03*
Y103535D02*
D03*
D114*
X119859Y96400D02*
D03*
X120181D02*
D03*
X134251Y101480D02*
D03*
X133929D02*
D03*
X132761Y99360D02*
D03*
X132439D02*
D03*
X146177Y104083D02*
D03*
X146500D02*
D03*
X90390Y111320D02*
D03*
X90067D02*
D03*
X90391Y112040D02*
D03*
X90069D02*
D03*
X90857Y109070D02*
D03*
X91180D02*
D03*
X90857Y109830D02*
D03*
X91180D02*
D03*
X90390D02*
D03*
X90067D02*
D03*
X90390Y109060D02*
D03*
X90067D02*
D03*
X89950Y95780D02*
D03*
X89627D02*
D03*
X89639Y94550D02*
D03*
X89961D02*
D03*
X118507Y92330D02*
D03*
X118830D02*
D03*
X104230Y104765D02*
D03*
X104553D02*
D03*
X139410Y91710D02*
D03*
X139087D02*
D03*
X142173Y91100D02*
D03*
X141850D02*
D03*
X142173Y92100D02*
D03*
X141850D02*
D03*
X141850Y91600D02*
D03*
X142173D02*
D03*
X120437Y101550D02*
D03*
X120760D02*
D03*
X96523Y109150D02*
D03*
X96200D02*
D03*
X132761Y98420D02*
D03*
X132439D02*
D03*
X141172Y101687D02*
D03*
X140849D02*
D03*
X130873Y100399D02*
D03*
X130550D02*
D03*
X145859Y91967D02*
D03*
X146181D02*
D03*
X96103Y104030D02*
D03*
X95780D02*
D03*
X130873Y103152D02*
D03*
X130550D02*
D03*
X146500Y102633D02*
D03*
X146177D02*
D03*
X142050Y98560D02*
D03*
X141727D02*
D03*
X95779Y103130D02*
D03*
X96102D02*
D03*
X142050Y100700D02*
D03*
X141727D02*
D03*
X120437Y102000D02*
D03*
X120760D02*
D03*
X142921Y98560D02*
D03*
X142599D02*
D03*
X95740Y92160D02*
D03*
X95417D02*
D03*
X104553Y104290D02*
D03*
X104230D02*
D03*
Y105240D02*
D03*
X104553D02*
D03*
X145859Y92878D02*
D03*
X146181D02*
D03*
X120437Y104100D02*
D03*
X120760D02*
D03*
X130873Y102693D02*
D03*
X130550D02*
D03*
X132439Y98890D02*
D03*
X132761D02*
D03*
X146500Y103600D02*
D03*
X146177D02*
D03*
X146501Y104560D02*
D03*
X146179D02*
D03*
X142047Y101207D02*
D03*
X141724D02*
D03*
X118507Y91430D02*
D03*
X118830D02*
D03*
X141720Y101687D02*
D03*
X142043D02*
D03*
X120437Y103600D02*
D03*
X120760D02*
D03*
X146500Y102150D02*
D03*
X146177D02*
D03*
X96103Y103580D02*
D03*
X95780D02*
D03*
X95779Y101570D02*
D03*
X96102D02*
D03*
X145859Y91056D02*
D03*
X146181D02*
D03*
X130873Y101317D02*
D03*
X130550D02*
D03*
X149027Y93100D02*
D03*
X149350D02*
D03*
X142050Y99100D02*
D03*
X141727D02*
D03*
X115442Y101572D02*
D03*
X115765D02*
D03*
X102773Y93470D02*
D03*
X103096D02*
D03*
X130873Y103611D02*
D03*
X130550D02*
D03*
X145859Y94700D02*
D03*
X146181D02*
D03*
X145859Y92422D02*
D03*
X146181D02*
D03*
X130871Y100858D02*
D03*
X130549D02*
D03*
X95740Y93470D02*
D03*
X95417D02*
D03*
X141727Y99600D02*
D03*
X142050D02*
D03*
X130873Y102234D02*
D03*
X130550D02*
D03*
Y99940D02*
D03*
X130873D02*
D03*
X145859Y91511D02*
D03*
X146181D02*
D03*
X102773Y92160D02*
D03*
X103096D02*
D03*
X145859Y94244D02*
D03*
X146181D02*
D03*
X139420Y91240D02*
D03*
X139097D02*
D03*
X141172Y99600D02*
D03*
X140850D02*
D03*
X130873Y101776D02*
D03*
X130550D02*
D03*
X145859Y90600D02*
D03*
X146181D02*
D03*
X145859Y93333D02*
D03*
X146181D02*
D03*
X130550Y104070D02*
D03*
X130873D02*
D03*
X145859Y93789D02*
D03*
X146181D02*
D03*
X95777Y102670D02*
D03*
X96100D02*
D03*
X118507Y91880D02*
D03*
X118830D02*
D03*
X96523Y108690D02*
D03*
X96200D02*
D03*
X146500Y103117D02*
D03*
X146177D02*
D03*
X140850Y100700D02*
D03*
X141172D02*
D03*
X114951Y101570D02*
D03*
X114628D02*
D03*
D115*
X110422Y100300D02*
D03*
X110166D02*
D03*
X111958Y100044D02*
D03*
X110678Y100300D02*
D03*
X111702Y99788D02*
D03*
Y100044D02*
D03*
Y100812D02*
D03*
X110678Y100044D02*
D03*
X111190Y99020D02*
D03*
X110166Y100556D02*
D03*
X110422Y100044D02*
D03*
X110166D02*
D03*
X110422Y100812D02*
D03*
X112470Y99276D02*
D03*
X111702Y99532D02*
D03*
X110678Y100556D02*
D03*
X110934D02*
D03*
X111190Y99532D02*
D03*
X111446Y99020D02*
D03*
X112470D02*
D03*
X112214D02*
D03*
X110422D02*
D03*
X110166D02*
D03*
X110934D02*
D03*
X110166Y99532D02*
D03*
Y99276D02*
D03*
X111446Y100812D02*
D03*
X110678D02*
D03*
X110166D02*
D03*
X111702Y99020D02*
D03*
X112470Y100812D02*
D03*
X110934D02*
D03*
X111190D02*
D03*
X111446Y100556D02*
D03*
X110934Y99788D02*
D03*
X110422Y100556D02*
D03*
X111958Y99020D02*
D03*
X111446Y99532D02*
D03*
X110422Y99276D02*
D03*
X110678D02*
D03*
Y99020D02*
D03*
X110422Y99532D02*
D03*
X111190Y99276D02*
D03*
X110678Y99788D02*
D03*
X112214Y100044D02*
D03*
X112470Y99788D02*
D03*
Y100556D02*
D03*
X110934Y100044D02*
D03*
X111190Y99788D02*
D03*
X111446Y100044D02*
D03*
X112470Y99532D02*
D03*
X111958Y99788D02*
D03*
X111446Y100300D02*
D03*
X112214Y99532D02*
D03*
Y99788D02*
D03*
X112470Y100044D02*
D03*
X111958Y100300D02*
D03*
Y99532D02*
D03*
X111190Y100556D02*
D03*
Y100300D02*
D03*
X111702Y99276D02*
D03*
X110934D02*
D03*
X112470Y100300D02*
D03*
X112214D02*
D03*
Y100812D02*
D03*
X111958Y100556D02*
D03*
Y100812D02*
D03*
X110934Y99532D02*
D03*
X110422Y99788D02*
D03*
X110934Y100300D02*
D03*
X112214Y99276D02*
D03*
X111446Y99788D02*
D03*
Y99276D02*
D03*
X111190Y100044D02*
D03*
X111702Y100556D02*
D03*
X112214D02*
D03*
X111702Y100300D02*
D03*
X111958Y99276D02*
D03*
X110166Y99788D02*
D03*
X110678Y99532D02*
D03*
X122450Y98327D02*
D03*
X122706D02*
D03*
X122962D02*
D03*
X123218D02*
D03*
X123474D02*
D03*
X123730D02*
D03*
X123986D02*
D03*
X124242D02*
D03*
X124498D02*
D03*
X124754D02*
D03*
X126289D02*
D03*
X126545D02*
D03*
X128592D02*
D03*
X122450Y98071D02*
D03*
X122706D02*
D03*
X122962D02*
D03*
X123218D02*
D03*
X123474D02*
D03*
X123730D02*
D03*
X123986D02*
D03*
X124242D02*
D03*
X124498D02*
D03*
X124754D02*
D03*
X126289D02*
D03*
X128336D02*
D03*
X122450Y97815D02*
D03*
X122706D02*
D03*
X128080D02*
D03*
X128336D02*
D03*
X122450Y97559D02*
D03*
X122706D02*
D03*
X122962D02*
D03*
X125010D02*
D03*
X125265D02*
D03*
X125777D02*
D03*
X126033D02*
D03*
X126545D02*
D03*
X127313D02*
D03*
X128080D02*
D03*
X128336D02*
D03*
X129104D02*
D03*
X129360D02*
D03*
X122450Y97303D02*
D03*
X122706D02*
D03*
X124242D02*
D03*
X125010D02*
D03*
X125265D02*
D03*
X125777D02*
D03*
X126033D02*
D03*
X127824D02*
D03*
X128080D02*
D03*
X129104D02*
D03*
X129360D02*
D03*
X122450Y97047D02*
D03*
X122706D02*
D03*
X122962D02*
D03*
X123218D02*
D03*
X123986D02*
D03*
X124498D02*
D03*
X125010D02*
D03*
X125265D02*
D03*
X125777D02*
D03*
X126033D02*
D03*
X127824D02*
D03*
X128848D02*
D03*
X129104D02*
D03*
X129360D02*
D03*
X122450Y96791D02*
D03*
X122706D02*
D03*
X123474D02*
D03*
X123730D02*
D03*
X124242D02*
D03*
X124498D02*
D03*
X125010D02*
D03*
X125265D02*
D03*
X125777D02*
D03*
X126033D02*
D03*
X127569D02*
D03*
X128336D02*
D03*
X129104D02*
D03*
X129360D02*
D03*
X122450Y96535D02*
D03*
X122706D02*
D03*
X122962D02*
D03*
X123218D02*
D03*
X123474D02*
D03*
X123730D02*
D03*
X123986D02*
D03*
X124498D02*
D03*
X125010D02*
D03*
X125777D02*
D03*
X126033D02*
D03*
X126545D02*
D03*
X127313D02*
D03*
X127824D02*
D03*
X128080D02*
D03*
X128336D02*
D03*
X128592D02*
D03*
X128848D02*
D03*
X122450Y96280D02*
D03*
X122706D02*
D03*
X122962D02*
D03*
X123218D02*
D03*
X125777D02*
D03*
X126033D02*
D03*
X126801D02*
D03*
X128336D02*
D03*
X128592D02*
D03*
X122450Y96024D02*
D03*
X122706D02*
D03*
X122450Y95768D02*
D03*
X122706D02*
D03*
X122962D02*
D03*
X123218D02*
D03*
X123474D02*
D03*
X123730D02*
D03*
X127824D02*
D03*
X128080D02*
D03*
X122450Y95512D02*
D03*
X122706D02*
D03*
X122962D02*
D03*
X123218D02*
D03*
X123730D02*
D03*
X122450Y95256D02*
D03*
X122706D02*
D03*
X127824Y95000D02*
D03*
X129104D02*
D03*
X129360D02*
D03*
X123730Y94744D02*
D03*
X127824D02*
D03*
X128080D02*
D03*
X128336D02*
D03*
X128592D02*
D03*
X128848D02*
D03*
X129104D02*
D03*
Y94488D02*
D03*
X123986Y94232D02*
D03*
X127824D02*
D03*
X122450Y93976D02*
D03*
X122706D02*
D03*
X122962D02*
D03*
X123218D02*
D03*
X123474D02*
D03*
X123730D02*
D03*
X127824D02*
D03*
X128080D02*
D03*
X128336D02*
D03*
X128592D02*
D03*
X122706Y93720D02*
D03*
Y93465D02*
D03*
X123474D02*
D03*
X124242D02*
D03*
X127824D02*
D03*
X129104D02*
D03*
X129360D02*
D03*
X122962Y93209D02*
D03*
X123474D02*
D03*
X123730D02*
D03*
X129360D02*
D03*
X122450Y92953D02*
D03*
X123730D02*
D03*
X124498D02*
D03*
X125777D02*
D03*
X126033D02*
D03*
X126545D02*
D03*
X126801D02*
D03*
X127313D02*
D03*
X122450Y92697D02*
D03*
X122706D02*
D03*
X123986D02*
D03*
X124242D02*
D03*
X126033D02*
D03*
X129104D02*
D03*
X122450Y92441D02*
D03*
X122962D02*
D03*
X123730D02*
D03*
X123986D02*
D03*
X125777D02*
D03*
X126033D02*
D03*
X126801D02*
D03*
X127313D02*
D03*
X126033Y92185D02*
D03*
X126801D02*
D03*
X127569D02*
D03*
X123730Y91929D02*
D03*
X125777D02*
D03*
X126033D02*
D03*
X122706Y91673D02*
D03*
X123218D02*
D03*
X123474D02*
D03*
X123730D02*
D03*
X123986D02*
D03*
X126033D02*
D03*
X127313D02*
D03*
X122706Y91417D02*
D03*
X123218D02*
D03*
X123474D02*
D03*
X123730D02*
D03*
X123986D02*
D03*
X126289D02*
D03*
X127313D02*
D03*
X127569D02*
D03*
X122450Y91929D02*
D03*
X123474Y92697D02*
D03*
X122450Y91673D02*
D03*
X122706Y92185D02*
D03*
X122962D02*
D03*
X123218Y91929D02*
D03*
X127569Y96280D02*
D03*
X122706Y92441D02*
D03*
X125777Y93209D02*
D03*
X125265D02*
D03*
X129104Y92185D02*
D03*
X129360D02*
D03*
X129104Y95512D02*
D03*
X129360D02*
D03*
X129104Y92953D02*
D03*
X129360D02*
D03*
X129104Y96535D02*
D03*
X129360D02*
D03*
X128848Y92185D02*
D03*
Y95000D02*
D03*
X128336Y92953D02*
D03*
Y95512D02*
D03*
X129360Y92441D02*
D03*
X129104D02*
D03*
X128848Y96280D02*
D03*
X128336Y95768D02*
D03*
X129104Y96280D02*
D03*
X129360Y96024D02*
D03*
X128080Y93209D02*
D03*
X129104Y91929D02*
D03*
X128080Y95512D02*
D03*
X128336Y92697D02*
D03*
X128848Y92441D02*
D03*
X128080Y92953D02*
D03*
X128592Y92441D02*
D03*
X129104Y91673D02*
D03*
X129360D02*
D03*
X129104Y95768D02*
D03*
X128848Y95512D02*
D03*
X129360Y95768D02*
D03*
X128592Y95512D02*
D03*
X129360Y96280D02*
D03*
X128336Y95000D02*
D03*
X129360Y95256D02*
D03*
X128080Y95000D02*
D03*
X129104Y95256D02*
D03*
X128080Y93465D02*
D03*
X128336D02*
D03*
X128592Y93209D02*
D03*
X128336D02*
D03*
X128848Y92697D02*
D03*
X129360Y91929D02*
D03*
X128848Y95768D02*
D03*
X129104Y96024D02*
D03*
X128848Y93465D02*
D03*
X129104Y93209D02*
D03*
X129360Y93976D02*
D03*
X129104D02*
D03*
X128848Y93209D02*
D03*
X129360Y92697D02*
D03*
Y94744D02*
D03*
Y94488D02*
D03*
X128848Y94232D02*
D03*
X129360D02*
D03*
X129104D02*
D03*
X128080D02*
D03*
X128336D02*
D03*
X129360Y93720D02*
D03*
X129104D02*
D03*
X128848Y93976D02*
D03*
X128592Y91673D02*
D03*
Y91417D02*
D03*
X125265Y91673D02*
D03*
Y91417D02*
D03*
X127824Y91673D02*
D03*
Y91417D02*
D03*
X124498D02*
D03*
Y91673D02*
D03*
X128848D02*
D03*
X125777Y91417D02*
D03*
X127313Y92697D02*
D03*
X125265Y92441D02*
D03*
X128336Y91417D02*
D03*
Y91673D02*
D03*
X124498Y92185D02*
D03*
Y91929D02*
D03*
X125010Y92441D02*
D03*
X124754Y91417D02*
D03*
X127824Y92441D02*
D03*
X128592Y91929D02*
D03*
X125010Y92697D02*
D03*
X127824D02*
D03*
X128336Y91929D02*
D03*
X128080Y92441D02*
D03*
X128336Y92185D02*
D03*
X129360Y91417D02*
D03*
X129104D02*
D03*
X125010D02*
D03*
X125265Y91929D02*
D03*
X125010Y91673D02*
D03*
X125265Y92185D02*
D03*
Y92697D02*
D03*
X125521Y91673D02*
D03*
X125777Y92697D02*
D03*
X125521Y91417D02*
D03*
X125777Y91673D02*
D03*
X127569Y92697D02*
D03*
X128080Y91673D02*
D03*
Y91417D02*
D03*
X127569Y92441D02*
D03*
X128080Y91929D02*
D03*
X128848Y91417D02*
D03*
X125010Y91929D02*
D03*
X124754Y91673D02*
D03*
X126801Y92697D02*
D03*
X127569Y91673D02*
D03*
X126801Y91417D02*
D03*
Y91673D02*
D03*
X127569Y91929D02*
D03*
X127313D02*
D03*
X126033Y91417D02*
D03*
X126289Y91673D02*
D03*
X126545Y91417D02*
D03*
Y91929D02*
D03*
Y91673D02*
D03*
Y92697D02*
D03*
Y92441D02*
D03*
X127057Y91417D02*
D03*
X126801Y91929D02*
D03*
X127057Y91673D02*
D03*
X127569Y94232D02*
D03*
X126545Y93209D02*
D03*
X127569Y95000D02*
D03*
Y95512D02*
D03*
X123986Y97303D02*
D03*
X123218Y94744D02*
D03*
X122450Y93465D02*
D03*
Y93720D02*
D03*
X123218Y95000D02*
D03*
X123474D02*
D03*
X122450D02*
D03*
X124242Y95512D02*
D03*
X123986D02*
D03*
X124242Y95768D02*
D03*
X123986Y96280D02*
D03*
X124242D02*
D03*
X123730D02*
D03*
X122962Y95000D02*
D03*
X122706D02*
D03*
X124242Y93976D02*
D03*
X123218Y92697D02*
D03*
Y94232D02*
D03*
X124242D02*
D03*
Y95000D02*
D03*
X123986Y95768D02*
D03*
X123474Y94232D02*
D03*
X126801Y97047D02*
D03*
X127569Y97559D02*
D03*
Y98071D02*
D03*
X122706Y93209D02*
D03*
X124754Y94744D02*
D03*
X122450Y93209D02*
D03*
X123218Y93465D02*
D03*
X126801Y96791D02*
D03*
X126545D02*
D03*
X128336Y98327D02*
D03*
X128080Y98071D02*
D03*
X124242Y92185D02*
D03*
Y91929D02*
D03*
X127824Y95512D02*
D03*
X125265Y92953D02*
D03*
X126545Y98071D02*
D03*
X126801Y97559D02*
D03*
Y97303D02*
D03*
Y97815D02*
D03*
Y98071D02*
D03*
X126545Y97047D02*
D03*
X123474Y92185D02*
D03*
X128592Y98071D02*
D03*
X128080Y96280D02*
D03*
X127824D02*
D03*
X128592Y97303D02*
D03*
X128336Y97047D02*
D03*
X128592Y97815D02*
D03*
X125265Y98071D02*
D03*
Y98327D02*
D03*
X125521Y98071D02*
D03*
Y98327D02*
D03*
X125777Y98071D02*
D03*
Y98327D02*
D03*
X126033Y98071D02*
D03*
Y98327D02*
D03*
X125010Y98071D02*
D03*
Y98327D02*
D03*
X123986Y95000D02*
D03*
X127313Y97815D02*
D03*
X127569D02*
D03*
X127313Y97303D02*
D03*
X123986Y93465D02*
D03*
X127824Y98327D02*
D03*
X127313Y98071D02*
D03*
X127057Y98327D02*
D03*
X127313D02*
D03*
X127569D02*
D03*
Y93976D02*
D03*
X126801Y93209D02*
D03*
X125777Y94232D02*
D03*
X126033Y95256D02*
D03*
X124498Y93209D02*
D03*
X125010Y92953D02*
D03*
X124498Y94232D02*
D03*
X122450Y94744D02*
D03*
X125265Y96280D02*
D03*
X126801Y96535D02*
D03*
X124242Y92441D02*
D03*
X124498Y95000D02*
D03*
Y92697D02*
D03*
Y93976D02*
D03*
Y94744D02*
D03*
X125265Y96535D02*
D03*
X127057Y98071D02*
D03*
X126801Y98327D02*
D03*
X122706Y92953D02*
D03*
X127313Y96791D02*
D03*
X127569Y97303D02*
D03*
X128080Y98327D02*
D03*
X127824Y98071D02*
D03*
X127569Y97047D02*
D03*
X122706Y94232D02*
D03*
X122450D02*
D03*
X122962Y91673D02*
D03*
Y91417D02*
D03*
X123730Y92185D02*
D03*
X122962Y94744D02*
D03*
X122450Y94488D02*
D03*
X122706D02*
D03*
X123986Y93209D02*
D03*
X123730Y93465D02*
D03*
Y95000D02*
D03*
X123986Y94744D02*
D03*
X126545Y97815D02*
D03*
Y97303D02*
D03*
X123986Y93976D02*
D03*
X124242Y92953D02*
D03*
X128080Y96791D02*
D03*
X128848Y98327D02*
D03*
X122962Y93465D02*
D03*
X127824Y93209D02*
D03*
X127569Y92953D02*
D03*
X122706Y91929D02*
D03*
X123730Y94232D02*
D03*
X123474Y94744D02*
D03*
X124242D02*
D03*
X127313Y97047D02*
D03*
X123474Y92953D02*
D03*
X122962Y92697D02*
D03*
X123218Y93209D02*
D03*
X122450Y91417D02*
D03*
X123218Y92441D02*
D03*
X129360Y98327D02*
D03*
X129104D02*
D03*
Y98071D02*
D03*
X129360D02*
D03*
X128848D02*
D03*
X129104Y97815D02*
D03*
X129360D02*
D03*
X128848D02*
D03*
Y97303D02*
D03*
Y97559D02*
D03*
X128592Y97047D02*
D03*
X127569Y95768D02*
D03*
X127313Y96280D02*
D03*
X124498Y97815D02*
D03*
Y97559D02*
D03*
X124242Y97047D02*
D03*
X124498Y95512D02*
D03*
X123730Y97815D02*
D03*
Y97559D02*
D03*
X124242Y97815D02*
D03*
Y97559D02*
D03*
X123474D02*
D03*
Y97815D02*
D03*
X123218D02*
D03*
Y97303D02*
D03*
X127313Y95000D02*
D03*
X127569Y93465D02*
D03*
X126801D02*
D03*
X126545D02*
D03*
X127313Y93209D02*
D03*
X126033D02*
D03*
X127569Y94744D02*
D03*
X127313D02*
D03*
Y93976D02*
D03*
Y94232D02*
D03*
X126033Y93465D02*
D03*
X125777D02*
D03*
X126545Y94744D02*
D03*
X126801Y95000D02*
D03*
X126545D02*
D03*
Y95256D02*
D03*
Y95512D02*
D03*
X126801D02*
D03*
X126545Y94232D02*
D03*
Y93976D02*
D03*
Y94488D02*
D03*
X126801Y95256D02*
D03*
X127057Y93720D02*
D03*
Y93976D02*
D03*
X126289Y94744D02*
D03*
X125777D02*
D03*
X125521D02*
D03*
X126289Y95000D02*
D03*
X125777D02*
D03*
X125521D02*
D03*
X126289Y95512D02*
D03*
Y95768D02*
D03*
X126801Y96024D02*
D03*
X126033D02*
D03*
X125777D02*
D03*
X125521D02*
D03*
X125265Y93465D02*
D03*
Y96024D02*
D03*
X125010D02*
D03*
X124754D02*
D03*
X125010Y96280D02*
D03*
X124498D02*
D03*
X126801Y94744D02*
D03*
Y93976D02*
D03*
Y94232D02*
D03*
Y94488D02*
D03*
X127057D02*
D03*
X128592Y92697D02*
D03*
X128848Y91929D02*
D03*
X128592Y94232D02*
D03*
Y95000D02*
D03*
Y95768D02*
D03*
X128080Y92185D02*
D03*
X127313D02*
D03*
X126545D02*
D03*
X128592Y93465D02*
D03*
X127313D02*
D03*
X126033Y93720D02*
D03*
X126289D02*
D03*
Y93976D02*
D03*
X126033D02*
D03*
X126289Y94232D02*
D03*
Y94488D02*
D03*
Y95256D02*
D03*
X127313Y95512D02*
D03*
Y95768D02*
D03*
X127057Y95512D02*
D03*
X126801Y95768D02*
D03*
X127057D02*
D03*
Y96024D02*
D03*
X126545D02*
D03*
Y95768D02*
D03*
X127057Y95000D02*
D03*
Y95256D02*
D03*
Y94744D02*
D03*
Y94232D02*
D03*
X126801Y93720D02*
D03*
X126545D02*
D03*
X126289Y96024D02*
D03*
X124242Y91417D02*
D03*
Y91673D02*
D03*
X124498Y92441D02*
D03*
X125777Y92185D02*
D03*
X125010D02*
D03*
Y93209D02*
D03*
X125777Y93720D02*
D03*
Y93976D02*
D03*
X125010Y93720D02*
D03*
X124754D02*
D03*
X125010Y93465D02*
D03*
X125521Y93720D02*
D03*
X125265D02*
D03*
X126033Y94232D02*
D03*
Y94488D02*
D03*
X125777D02*
D03*
X126033Y94744D02*
D03*
X125010D02*
D03*
X125265D02*
D03*
Y95000D02*
D03*
X125010D02*
D03*
Y95256D02*
D03*
X126033Y95000D02*
D03*
X124754D02*
D03*
Y95256D02*
D03*
X125777D02*
D03*
X125521D02*
D03*
X125265D02*
D03*
X125777Y97815D02*
D03*
X126033D02*
D03*
X124498Y97303D02*
D03*
X125010Y97815D02*
D03*
X125265D02*
D03*
X123730Y97303D02*
D03*
X122962Y91929D02*
D03*
X123474D02*
D03*
X122706Y94744D02*
D03*
X122962Y94232D02*
D03*
X123474Y95512D02*
D03*
Y96280D02*
D03*
Y97047D02*
D03*
X122962Y97815D02*
D03*
Y97303D02*
D03*
X122450Y92185D02*
D03*
X125010Y95512D02*
D03*
X125265Y95768D02*
D03*
X124754D02*
D03*
Y95512D02*
D03*
X125010Y95768D02*
D03*
X125777Y95512D02*
D03*
X125521D02*
D03*
Y95768D02*
D03*
X125265Y95512D02*
D03*
X125777Y95768D02*
D03*
X126033D02*
D03*
Y95512D02*
D03*
X124498Y95768D02*
D03*
X126545Y96280D02*
D03*
X124498Y93465D02*
D03*
X124754Y93976D02*
D03*
Y94232D02*
D03*
Y94488D02*
D03*
X125010D02*
D03*
Y94232D02*
D03*
Y93976D02*
D03*
X125265D02*
D03*
X125521D02*
D03*
X125265Y94232D02*
D03*
Y94488D02*
D03*
X125521Y94232D02*
D03*
Y94488D02*
D03*
D116*
X109580Y102436D02*
D03*
X108697D02*
D03*
X91700Y104740D02*
D03*
X90817D02*
D03*
X112830Y102394D02*
D03*
X111947D02*
D03*
X114478Y98474D02*
D03*
X113595D02*
D03*
D117*
X138200Y98699D02*
D03*
Y101101D02*
D03*
X145000Y98699D02*
D03*
Y101101D02*
D03*
X137600Y100499D02*
D03*
Y102901D02*
D03*
X117800Y92949D02*
D03*
Y95351D02*
D03*
Y100499D02*
D03*
Y102901D02*
D03*
X137600Y92949D02*
D03*
Y95351D02*
D03*
X145000Y92949D02*
D03*
Y95351D02*
D03*
X138200Y92949D02*
D03*
Y95351D02*
D03*
X117300Y100500D02*
D03*
Y102902D02*
D03*
X105400Y100499D02*
D03*
Y102901D02*
D03*
X117300Y92949D02*
D03*
Y95351D02*
D03*
X105400Y92949D02*
D03*
Y95351D02*
D03*
X94550Y101628D02*
D03*
Y104029D02*
D03*
Y94491D02*
D03*
Y96892D02*
D03*
X101400Y101628D02*
D03*
Y104029D02*
D03*
X104850Y94491D02*
D03*
Y96892D02*
D03*
D118*
X138200Y99239D02*
D03*
Y100561D02*
D03*
X145000Y99239D02*
D03*
Y100561D02*
D03*
X137600Y101039D02*
D03*
Y102361D02*
D03*
X117800Y93489D02*
D03*
Y94811D02*
D03*
Y101039D02*
D03*
Y102361D02*
D03*
X137600Y93489D02*
D03*
Y94811D02*
D03*
X145000Y93489D02*
D03*
Y94811D02*
D03*
X138200Y93489D02*
D03*
Y94811D02*
D03*
X117300Y101039D02*
D03*
Y102362D02*
D03*
X105400Y101039D02*
D03*
Y102361D02*
D03*
X117300Y93489D02*
D03*
Y94811D02*
D03*
X105400Y93489D02*
D03*
Y94811D02*
D03*
X94550Y102167D02*
D03*
Y103490D02*
D03*
Y95030D02*
D03*
Y96353D02*
D03*
X101400Y102167D02*
D03*
Y103490D02*
D03*
X104850Y95030D02*
D03*
Y96353D02*
D03*
D119*
X138200Y99900D02*
D03*
X145000D02*
D03*
X137600Y101700D02*
D03*
X117800Y94150D02*
D03*
Y101700D02*
D03*
X137600Y94150D02*
D03*
X145000D02*
D03*
X138200D02*
D03*
X117300Y101701D02*
D03*
X105400Y101700D02*
D03*
X117300Y94150D02*
D03*
X105400D02*
D03*
X94550Y102829D02*
D03*
Y95691D02*
D03*
X101400Y102829D02*
D03*
X104850Y95691D02*
D03*
D120*
X131049Y105150D02*
D03*
X133451D02*
D03*
X121738D02*
D03*
X124139D02*
D03*
X121749Y90000D02*
D03*
X124151D02*
D03*
X131049D02*
D03*
X133451D02*
D03*
X140549D02*
D03*
X142951D02*
D03*
X140549Y102350D02*
D03*
X142951D02*
D03*
X109949Y105150D02*
D03*
X112351D02*
D03*
X109949Y90000D02*
D03*
X112351D02*
D03*
X100551Y91780D02*
D03*
X98149D02*
D03*
X100551Y99480D02*
D03*
X98149D02*
D03*
X99101Y100020D02*
D03*
X96699D02*
D03*
X99112Y105400D02*
D03*
X96711D02*
D03*
D121*
X131589Y105150D02*
D03*
X132911D02*
D03*
X122277D02*
D03*
X123600D02*
D03*
X122289Y90000D02*
D03*
X123611D02*
D03*
X131589D02*
D03*
X132911D02*
D03*
X141089D02*
D03*
X142411D02*
D03*
X141089Y102350D02*
D03*
X142411D02*
D03*
X110489Y105150D02*
D03*
X111811D02*
D03*
X110489Y90000D02*
D03*
X111811D02*
D03*
X100011Y91780D02*
D03*
X98689D02*
D03*
X100011Y99480D02*
D03*
X98689D02*
D03*
X98561Y100020D02*
D03*
X97239D02*
D03*
X98573Y105400D02*
D03*
X97250D02*
D03*
D122*
X132250Y105150D02*
D03*
X122939D02*
D03*
X122950Y90000D02*
D03*
X132250D02*
D03*
X141750D02*
D03*
Y102350D02*
D03*
X111150Y105150D02*
D03*
Y90000D02*
D03*
X99350Y91780D02*
D03*
Y99480D02*
D03*
X97900Y100020D02*
D03*
X97911Y105400D02*
D03*
D123*
X144150Y91850D02*
D03*
X142969D02*
D03*
X144131Y92850D02*
D03*
X142950D02*
D03*
X140609Y105030D02*
D03*
X141790D02*
D03*
X142950Y90850D02*
D03*
X144131D02*
D03*
D124*
X91031Y100355D02*
D03*
Y99922D02*
D03*
Y101221D02*
D03*
Y98622D02*
D03*
Y100788D02*
D03*
Y99056D02*
D03*
Y98189D02*
D03*
Y101654D02*
D03*
Y99489D02*
D03*
D125*
X90519Y103465D02*
D03*
X86740Y104095D02*
D03*
X86582Y97166D02*
D03*
X90519Y97481D02*
D03*
D126*
X147200Y104241D02*
D03*
Y103847D02*
D03*
Y103650D02*
D03*
Y103453D02*
D03*
Y103256D02*
D03*
Y103059D02*
D03*
Y104044D02*
D03*
Y102863D02*
D03*
D127*
X148184Y104634D02*
D03*
Y102469D02*
D03*
D128*
X95700Y96897D02*
D03*
Y97780D02*
D03*
X112629Y96971D02*
D03*
Y97854D02*
D03*
X110801Y102807D02*
D03*
Y101924D02*
D03*
D129*
X113753Y99544D02*
D03*
X114540D02*
D03*
X113703Y97494D02*
D03*
X114490D02*
D03*
X136140Y98540D02*
D03*
X136927D02*
D03*
X115340Y97494D02*
D03*
X116127D02*
D03*
X109358Y99220D02*
D03*
X108570D02*
D03*
X107177Y101870D02*
D03*
X106390D02*
D03*
X93400Y96250D02*
D03*
X92613D02*
D03*
D130*
X140237Y91841D02*
D03*
Y91053D02*
D03*
X141300Y91447D02*
D03*
Y91053D02*
D03*
Y91250D02*
D03*
X140237Y91447D02*
D03*
X141300Y91841D02*
D03*
Y91644D02*
D03*
X140237D02*
D03*
Y91250D02*
D03*
D131*
X140768Y91447D02*
D03*
D132*
X140776Y95617D02*
D03*
X141524D02*
D03*
X141150Y96483D02*
D03*
X92558Y107926D02*
D03*
X91810D02*
D03*
X92184Y107060D02*
D03*
X91284Y107926D02*
D03*
X90536D02*
D03*
X90910Y107060D02*
D03*
X142826Y95634D02*
D03*
X143574D02*
D03*
X143200Y96500D02*
D03*
D133*
X148200Y93857D02*
D03*
X147216Y93542D02*
D03*
Y93699D02*
D03*
Y93069D02*
D03*
Y93227D02*
D03*
Y92597D02*
D03*
Y92754D02*
D03*
Y92124D02*
D03*
Y92282D02*
D03*
X148200Y93699D02*
D03*
X147216Y91652D02*
D03*
Y91809D02*
D03*
X148200Y91494D02*
D03*
Y92597D02*
D03*
X147216Y93857D02*
D03*
Y93384D02*
D03*
Y92912D02*
D03*
Y92439D02*
D03*
Y91967D02*
D03*
Y91494D02*
D03*
X148200Y92439D02*
D03*
Y92124D02*
D03*
Y91967D02*
D03*
Y91652D02*
D03*
Y91809D02*
D03*
Y92282D02*
D03*
Y93542D02*
D03*
Y93384D02*
D03*
Y93069D02*
D03*
Y92912D02*
D03*
Y92754D02*
D03*
Y93227D02*
D03*
D134*
Y94192D02*
D03*
Y91200D02*
D03*
X147216Y94192D02*
D03*
Y91200D02*
D03*
D135*
X106389Y100840D02*
D03*
X107491D02*
D03*
X103681Y102860D02*
D03*
X102579D02*
D03*
D136*
X98687Y102276D02*
D03*
Y102119D02*
D03*
Y102749D02*
D03*
Y103221D02*
D03*
Y102906D02*
D03*
Y102434D02*
D03*
Y102591D02*
D03*
X97113Y102749D02*
D03*
Y102119D02*
D03*
Y103221D02*
D03*
Y102906D02*
D03*
Y103064D02*
D03*
Y102434D02*
D03*
X98687Y103064D02*
D03*
X97113Y102276D02*
D03*
Y102591D02*
D03*
D137*
X97506Y101883D02*
D03*
X98136Y103457D02*
D03*
X98451Y101883D02*
D03*
X97349D02*
D03*
X97821D02*
D03*
X97664D02*
D03*
X97506Y103457D02*
D03*
X97979Y101883D02*
D03*
X97664Y103457D02*
D03*
X97349D02*
D03*
X97821D02*
D03*
X98451D02*
D03*
X97979D02*
D03*
X98136Y101883D02*
D03*
X98294Y103457D02*
D03*
Y101883D02*
D03*
D138*
X97900Y102670D02*
D03*
D139*
X129567Y103967D02*
D03*
Y103770D02*
D03*
Y102589D02*
D03*
Y101211D02*
D03*
Y100030D02*
D03*
Y99833D02*
D03*
X121633Y100030D02*
D03*
Y100227D02*
D03*
Y100424D02*
D03*
Y102195D02*
D03*
Y103770D02*
D03*
Y100817D02*
D03*
Y102786D02*
D03*
Y101408D02*
D03*
Y102392D02*
D03*
Y102589D02*
D03*
Y101014D02*
D03*
X129567Y100227D02*
D03*
Y103573D02*
D03*
Y101605D02*
D03*
X121633Y101211D02*
D03*
Y100620D02*
D03*
Y103573D02*
D03*
Y103376D02*
D03*
Y102983D02*
D03*
Y103180D02*
D03*
X129567Y103376D02*
D03*
Y103180D02*
D03*
Y102983D02*
D03*
Y102786D02*
D03*
Y101014D02*
D03*
Y100817D02*
D03*
Y100620D02*
D03*
Y100424D02*
D03*
X121633Y101605D02*
D03*
Y101998D02*
D03*
X129567Y102392D02*
D03*
Y102195D02*
D03*
Y101998D02*
D03*
Y101408D02*
D03*
X121633Y104164D02*
D03*
Y99636D02*
D03*
X129567Y104164D02*
D03*
Y101802D02*
D03*
X121633Y103967D02*
D03*
Y101802D02*
D03*
X129567Y99636D02*
D03*
X121633Y99833D02*
D03*
D140*
X96220Y89853D02*
D03*
X95260D02*
D03*
X103249D02*
D03*
X102288D02*
D03*
D141*
X95740Y91020D02*
D03*
X102769D02*
D03*
D142*
X102595Y105262D02*
D03*
Y104318D02*
D03*
X103225Y105262D02*
D03*
Y104318D02*
D03*
D143*
X102300Y105262D02*
D03*
Y104318D02*
D03*
X103520Y105262D02*
D03*
Y104318D02*
D03*
D144*
X102989Y105262D02*
D03*
X102831D02*
D03*
Y104318D02*
D03*
X102989D02*
D03*
D145*
X147050Y99472D02*
D03*
Y99000D02*
D03*
Y98528D02*
D03*
Y98055D02*
D03*
D146*
X148534Y100024D02*
D03*
Y97504D02*
D03*
D147*
X140929Y93770D02*
D03*
X139590D02*
D03*
D148*
X89307Y92886D02*
D03*
Y92414D02*
D03*
D149*
X87811Y93241D02*
D03*
Y92059D02*
D03*
D150*
X106771Y98327D02*
D03*
Y99666D02*
D03*
D151*
X140928Y98010D02*
D03*
X141180D02*
D03*
X141201Y98557D02*
D03*
X140949D02*
D03*
D152*
X115320Y102070D02*
D03*
X114966D02*
D03*
Y104550D02*
D03*
X115320D02*
D03*
D153*
X114621Y92020D02*
D03*
X113440D02*
D03*
D154*
X93534Y109571D02*
D03*
X94794D02*
D03*
Y108229D02*
D03*
X94636Y109571D02*
D03*
X94479Y108229D02*
D03*
X94321D02*
D03*
X94164D02*
D03*
X94006D02*
D03*
X93849D02*
D03*
X93691D02*
D03*
Y109571D02*
D03*
X93849D02*
D03*
X94006D02*
D03*
X94321D02*
D03*
X95109Y108229D02*
D03*
X94951D02*
D03*
X95109Y109571D02*
D03*
X94951D02*
D03*
X94479D02*
D03*
X94636Y108229D02*
D03*
X95266Y109571D02*
D03*
X94164D02*
D03*
X93534Y108229D02*
D03*
X95266D02*
D03*
D155*
X95620Y109571D02*
D03*
X93180D02*
D03*
Y108229D02*
D03*
X95620D02*
D03*
D156*
X113940Y95321D02*
D03*
Y94140D02*
D03*
D157*
X119480Y92324D02*
D03*
X120661Y91733D02*
D03*
X119480Y91536D02*
D03*
X120661Y92127D02*
D03*
Y92324D02*
D03*
X119480Y91733D02*
D03*
Y92127D02*
D03*
X120661Y91536D02*
D03*
X119480Y91930D02*
D03*
X120661D02*
D03*
D158*
X120267Y92521D02*
D03*
X120267Y91339D02*
D03*
X120071D02*
D03*
X119874Y92521D02*
D03*
Y91339D02*
D03*
X120071Y92521D02*
D03*
D159*
X98900Y93836D02*
D03*
X99609D02*
D03*
X100317D02*
D03*
D160*
X99609Y92980D02*
D03*
X99254D02*
D03*
X98900D02*
D03*
X98546D02*
D03*
X97837D02*
D03*
X101026Y97527D02*
D03*
X100672D02*
D03*
X101026Y92980D02*
D03*
X99963D02*
D03*
X97483D02*
D03*
Y97527D02*
D03*
X100672Y92980D02*
D03*
X100317D02*
D03*
X99963Y97527D02*
D03*
X100317D02*
D03*
X98546D02*
D03*
X98900D02*
D03*
X99609D02*
D03*
X99254D02*
D03*
X97837D02*
D03*
X98191Y92980D02*
D03*
Y97527D02*
D03*
D161*
X96981Y95254D02*
D03*
Y95608D02*
D03*
Y95962D02*
D03*
Y96317D02*
D03*
X101528Y94899D02*
D03*
Y94545D02*
D03*
X96981Y93836D02*
D03*
Y94545D02*
D03*
X101528Y96671D02*
D03*
Y95254D02*
D03*
Y95608D02*
D03*
Y95962D02*
D03*
X96981Y96671D02*
D03*
Y94899D02*
D03*
X101528Y93836D02*
D03*
Y96317D02*
D03*
X96981Y97025D02*
D03*
X101528D02*
D03*
X96981Y93482D02*
D03*
X101528D02*
D03*
X96981Y94191D02*
D03*
X101528D02*
D03*
D162*
X86148Y112350D02*
D03*
X87250D02*
D03*
D163*
X86652Y109161D02*
D03*
D164*
X89199D02*
D03*
Y112350D02*
D03*
D165*
X86965Y108511D02*
D03*
D166*
X85626Y108492D02*
D03*
X86965Y104712D02*
D03*
X85626Y104732D02*
D03*
D167*
X86584Y101953D02*
D03*
X86583Y98804D02*
D03*
D168*
X89465Y106484D02*
D03*
D169*
X88814Y90088D02*
D03*
D170*
X94170Y109159D02*
D03*
X126929Y96152D02*
D03*
X132170Y95956D02*
D03*
X129990Y93952D02*
D03*
X131780Y95956D02*
D03*
X129653Y93952D02*
D03*
X135388Y97171D02*
D03*
X129678Y95646D02*
D03*
X135638Y97171D02*
D03*
X129673Y95404D02*
D03*
X129540Y97310D02*
D03*
X129796D02*
D03*
X128464Y98201D02*
D03*
X127697Y96407D02*
D03*
X129794Y92228D02*
D03*
X130066D02*
D03*
X131229Y91974D02*
D03*
X130275D02*
D03*
X130911D02*
D03*
X128208Y92569D02*
D03*
X129980Y96250D02*
D03*
X135688Y96777D02*
D03*
X129221Y96143D02*
D03*
X145440Y92811D02*
D03*
X125880Y99120D02*
D03*
X145440Y92478D02*
D03*
X125880Y98780D02*
D03*
X145440Y93722D02*
D03*
X125520Y99120D02*
D03*
X145440Y93389D02*
D03*
X125520Y98780D02*
D03*
X145440Y94300D02*
D03*
X125130Y98780D02*
D03*
X145440Y94633D02*
D03*
X125130Y99120D02*
D03*
X145440Y90656D02*
D03*
X124770Y98780D02*
D03*
X145440Y90989D02*
D03*
X124770Y99120D02*
D03*
X129653Y93081D02*
D03*
Y93337D02*
D03*
X136500Y92690D02*
D03*
X137116Y95197D02*
D03*
X129232Y92825D02*
D03*
X127862Y92057D02*
D03*
X128976Y93081D02*
D03*
X114104Y97372D02*
D03*
X127440Y97687D02*
D03*
X126929Y97431D02*
D03*
X127441Y96152D02*
D03*
X128720Y94360D02*
D03*
X129582Y98560D02*
D03*
X123346Y96152D02*
D03*
X132860Y95956D02*
D03*
X124882Y95640D02*
D03*
X93238Y108060D02*
D03*
X135387Y96377D02*
D03*
X136833Y94017D02*
D03*
Y93606D02*
D03*
X95610Y107544D02*
D03*
Y107817D02*
D03*
X89090Y105750D02*
D03*
X89375D02*
D03*
X89660D02*
D03*
X115210Y90900D02*
D03*
X115540D02*
D03*
X116567Y93768D02*
D03*
X116890D02*
D03*
Y94038D02*
D03*
X116567D02*
D03*
X116760Y95770D02*
D03*
Y96020D02*
D03*
X116480Y95770D02*
D03*
Y96020D02*
D03*
X137151Y97069D02*
D03*
X128976Y96152D02*
D03*
X127697Y95640D02*
D03*
X146308Y99198D02*
D03*
X110806Y100684D02*
D03*
X124882Y94360D02*
D03*
X124626Y93081D02*
D03*
Y95384D02*
D03*
X113950Y101070D02*
D03*
X112696Y101616D02*
D03*
X111062Y99404D02*
D03*
X111574Y99660D02*
D03*
X110806Y99148D02*
D03*
X133110Y96870D02*
D03*
X146937Y93384D02*
D03*
X143169Y95572D02*
D03*
X128957Y102387D02*
D03*
X130541Y100622D02*
D03*
Y101085D02*
D03*
X146234Y101805D02*
D03*
X123346Y93337D02*
D03*
X123346Y92825D02*
D03*
X145932Y103108D02*
D03*
X123346Y92569D02*
D03*
X145940Y102633D02*
D03*
X122834Y91801D02*
D03*
X145940Y102150D02*
D03*
X122578Y92313D02*
D03*
X122054Y91801D02*
D03*
X122323Y91801D02*
D03*
X123090Y92825D02*
D03*
X123602Y93337D02*
D03*
X142085Y98317D02*
D03*
X142343Y98307D02*
D03*
X140520Y91110D02*
D03*
X142181Y92594D02*
D03*
X149030Y92271D02*
D03*
X149360Y93410D02*
D03*
X147990Y94170D02*
D03*
X147430D02*
D03*
X147580Y91498D02*
D03*
X149030Y92019D02*
D03*
X148730Y91768D02*
D03*
X149030D02*
D03*
X148730Y92019D02*
D03*
Y92271D02*
D03*
Y93135D02*
D03*
X149030Y92810D02*
D03*
X148730D02*
D03*
X149020Y93460D02*
D03*
X148730D02*
D03*
X147836Y92591D02*
D03*
X147580Y91970D02*
D03*
Y92440D02*
D03*
X147990Y91190D02*
D03*
X147430D02*
D03*
X146761Y104088D02*
D03*
X147540Y104390D02*
D03*
X148503Y104254D02*
D03*
X147512Y104034D02*
D03*
X146761Y104565D02*
D03*
X146764Y102367D02*
D03*
X146760Y103630D02*
D03*
Y103342D02*
D03*
Y102827D02*
D03*
X147510Y102850D02*
D03*
X148320Y102460D02*
D03*
X148040D02*
D03*
X138300Y103663D02*
D03*
X122323Y93081D02*
D03*
X128720Y95384D02*
D03*
X128976Y91801D02*
D03*
X128464Y96407D02*
D03*
X128469Y96142D02*
D03*
X116262Y99677D02*
D03*
X116570D02*
D03*
X116270Y100607D02*
D03*
X116262Y99250D02*
D03*
X116570D02*
D03*
X116262Y98510D02*
D03*
X116570D02*
D03*
X114131Y99065D02*
D03*
X118131Y96310D02*
D03*
X109775Y98355D02*
D03*
X140520Y100700D02*
D03*
X140952Y98826D02*
D03*
X111830Y99404D02*
D03*
X110038Y99404D02*
D03*
Y99660D02*
D03*
X110550Y100172D02*
D03*
X110806D02*
D03*
X111210Y98575D02*
D03*
Y98840D02*
D03*
X110811Y99409D02*
D03*
X127441Y96407D02*
D03*
X97590Y103000D02*
D03*
X100992Y101665D02*
D03*
X96829Y103315D02*
D03*
X97990Y103690D02*
D03*
X98460D02*
D03*
X99112Y104645D02*
D03*
X109320Y104520D02*
D03*
X109045D02*
D03*
X108770D02*
D03*
X113720D02*
D03*
X113445D02*
D03*
X112040D02*
D03*
X112315D02*
D03*
X112590D02*
D03*
X112865D02*
D03*
X111763D02*
D03*
X110220D02*
D03*
X110495D02*
D03*
X110770D02*
D03*
X111045D02*
D03*
X107168Y102438D02*
D03*
X100557Y93872D02*
D03*
X97456Y97921D02*
D03*
X102972Y94728D02*
D03*
X103641Y94561D02*
D03*
X101949Y96503D02*
D03*
X108155Y90330D02*
D03*
X108407D02*
D03*
X108660D02*
D03*
X108155Y90580D02*
D03*
X108407D02*
D03*
X108660D02*
D03*
X108065Y98580D02*
D03*
X108317D02*
D03*
X108570D02*
D03*
X97693Y100384D02*
D03*
X98170D02*
D03*
X104718Y100210D02*
D03*
X127441Y97943D02*
D03*
X99941Y93829D02*
D03*
X127697Y97943D02*
D03*
Y96919D02*
D03*
X101931Y97952D02*
D03*
X121682Y92055D02*
D03*
X121350Y94128D02*
D03*
X121027Y91930D02*
D03*
X121302D02*
D03*
X122066Y93081D02*
D03*
X123858Y95640D02*
D03*
X124114D02*
D03*
X126929Y96407D02*
D03*
X125137Y96663D02*
D03*
X124626Y97431D02*
D03*
X92420Y101220D02*
D03*
X127441Y96919D02*
D03*
X92420Y100770D02*
D03*
Y101680D02*
D03*
X127952Y97175D02*
D03*
X92420Y99850D02*
D03*
X128290Y98780D02*
D03*
X92620Y97890D02*
D03*
X128290Y99120D02*
D03*
X92420Y99070D02*
D03*
X128000Y98780D02*
D03*
X92420Y98620D02*
D03*
X128000Y99120D02*
D03*
X111826Y99656D02*
D03*
X120710Y102786D02*
D03*
X128208Y97175D02*
D03*
X127952Y96663D02*
D03*
X121020Y102786D02*
D03*
Y102392D02*
D03*
X128464Y97431D02*
D03*
X145440Y91900D02*
D03*
X126240Y99120D02*
D03*
X145440Y91567D02*
D03*
X126240Y98780D02*
D03*
X132733Y97191D02*
D03*
X124216Y102763D02*
D03*
X130190Y101142D02*
D03*
X124990Y102560D02*
D03*
X100982Y102737D02*
D03*
X92490Y103040D02*
D03*
X92220D02*
D03*
X123090Y91801D02*
D03*
X122834Y91289D02*
D03*
X89830Y107510D02*
D03*
X122834Y91545D02*
D03*
X89830Y107750D02*
D03*
X96491Y102590D02*
D03*
X111318Y99404D02*
D03*
X103680Y103660D02*
D03*
X124114Y95384D02*
D03*
Y92313D02*
D03*
X112342Y99404D02*
D03*
X111830Y100172D02*
D03*
X111574D02*
D03*
X122066Y93920D02*
D03*
X112342Y99660D02*
D03*
X97164Y97914D02*
D03*
X113043Y99896D02*
D03*
X111856Y101302D02*
D03*
X111066Y101260D02*
D03*
X110301Y101286D02*
D03*
X110468Y101153D02*
D03*
X109215Y100048D02*
D03*
X125393Y95128D02*
D03*
X124372Y94614D02*
D03*
X100992Y101060D02*
D03*
X92910Y100150D02*
D03*
X91595Y103830D02*
D03*
X91750Y107210D02*
D03*
X120606Y92781D02*
D03*
X120581Y93070D02*
D03*
X120157Y92929D02*
D03*
X122066Y93593D02*
D03*
X112599Y99658D02*
D03*
X123090Y94107D02*
D03*
X112016Y95328D02*
D03*
X111993Y92145D02*
D03*
X123602Y94104D02*
D03*
X111061Y100684D02*
D03*
X112448Y95021D02*
D03*
X112483Y92443D02*
D03*
X100990Y103001D02*
D03*
X122323Y95128D02*
D03*
X94640Y109159D02*
D03*
X123858Y94872D02*
D03*
X123858Y94616D02*
D03*
X123602D02*
D03*
X104550Y103960D02*
D03*
X97895Y102595D02*
D03*
X97480Y103690D02*
D03*
X92219Y108121D02*
D03*
X100990Y103511D02*
D03*
X100977Y104067D02*
D03*
X123352Y95128D02*
D03*
X94950Y107550D02*
D03*
X123090Y95128D02*
D03*
X94950Y108893D02*
D03*
X122834Y95128D02*
D03*
X93534Y108893D02*
D03*
X122578Y95128D02*
D03*
X93850Y109159D02*
D03*
X93534Y107248D02*
D03*
X103538Y104957D02*
D03*
X123346Y94104D02*
D03*
X123856Y93848D02*
D03*
X123602Y95128D02*
D03*
X123858D02*
D03*
X123222Y97547D02*
D03*
X121090Y99830D02*
D03*
X123602Y97175D02*
D03*
X102810Y104957D02*
D03*
X122233Y92097D02*
D03*
X122323Y91289D02*
D03*
X121312Y91297D02*
D03*
X121027D02*
D03*
X122834Y92313D02*
D03*
X121232Y95285D02*
D03*
X93850Y106964D02*
D03*
Y106680D02*
D03*
X123346Y96663D02*
D03*
X135857Y95398D02*
D03*
X121961Y92657D02*
D03*
X88928Y105238D02*
D03*
X106839Y100711D02*
D03*
X107054Y100928D02*
D03*
X107723Y98071D02*
D03*
X111210Y98311D02*
D03*
X111900Y91610D02*
D03*
Y91365D02*
D03*
X142599Y98311D02*
D03*
X129735Y99313D02*
D03*
X89500Y96608D02*
D03*
X114929Y95767D02*
D03*
X114957Y100315D02*
D03*
X114312Y100592D02*
D03*
X112820Y99436D02*
D03*
X116199Y91204D02*
D03*
X124626Y93337D02*
D03*
X118522Y94502D02*
D03*
X124370Y94104D02*
D03*
X125137Y93337D02*
D03*
X102099Y101826D02*
D03*
X105043Y101115D02*
D03*
X101778Y100600D02*
D03*
X135865Y98137D02*
D03*
X136520D02*
D03*
X136093Y97836D02*
D03*
X115930Y97050D02*
D03*
X112588Y96520D02*
D03*
X115540Y91204D02*
D03*
X115870D02*
D03*
X115210D02*
D03*
X126161Y93593D02*
D03*
X126673Y95384D02*
D03*
X143434Y99092D02*
D03*
X107490Y95260D02*
D03*
X111015Y94478D02*
D03*
X119257Y93639D02*
D03*
X121232Y95590D02*
D03*
X119250Y94180D02*
D03*
X121035Y95776D02*
D03*
X122834Y93337D02*
D03*
X123346Y91801D02*
D03*
X90073Y105440D02*
D03*
X119420Y94960D02*
D03*
X124114Y94104D02*
D03*
X123346Y94616D02*
D03*
X128920Y101605D02*
D03*
X128154Y102376D02*
D03*
X127780Y102700D02*
D03*
X127782Y102966D02*
D03*
X126840Y98780D02*
D03*
X129100Y99320D02*
D03*
X129415D02*
D03*
X98240Y104660D02*
D03*
X96860Y104677D02*
D03*
X97320Y104671D02*
D03*
Y104993D02*
D03*
X126673Y97687D02*
D03*
X97780Y104660D02*
D03*
X126550Y98780D02*
D03*
X126417Y97687D02*
D03*
Y97431D02*
D03*
X126673Y97431D02*
D03*
X96860Y104993D02*
D03*
X126673Y97175D02*
D03*
X128720Y95128D02*
D03*
X128464Y94360D02*
D03*
X129990Y94358D02*
D03*
X135681Y95978D02*
D03*
X128208Y94360D02*
D03*
X129231Y95127D02*
D03*
X128966Y95384D02*
D03*
X129673Y96250D02*
D03*
X128976Y95896D02*
D03*
X128468Y95889D02*
D03*
X136821Y96777D02*
D03*
Y97371D02*
D03*
X128720Y94872D02*
D03*
Y93337D02*
D03*
X128464Y94872D02*
D03*
X129793Y92437D02*
D03*
X129552D02*
D03*
X128208Y93081D02*
D03*
X137116Y94410D02*
D03*
X126929Y97943D02*
D03*
X101086Y95608D02*
D03*
X127440Y97431D02*
D03*
X126929Y97175D02*
D03*
X99940Y93440D02*
D03*
X126673Y96919D02*
D03*
X101003Y93440D02*
D03*
X126929Y96919D02*
D03*
X99233Y98824D02*
D03*
X127710Y98780D02*
D03*
X100200Y98824D02*
D03*
X127710Y99120D02*
D03*
X100680Y98824D02*
D03*
X127420Y98780D02*
D03*
X99720Y98824D02*
D03*
X127420Y99120D02*
D03*
X98760Y98824D02*
D03*
X127130Y99120D02*
D03*
X98280Y98824D02*
D03*
X126840Y99120D02*
D03*
X101042Y98251D02*
D03*
X127697Y97680D02*
D03*
X97478Y92445D02*
D03*
X93850Y107816D02*
D03*
X124114Y96407D02*
D03*
X93850Y107532D02*
D03*
X123858Y96407D02*
D03*
X93534Y107532D02*
D03*
X123602Y96407D02*
D03*
Y96152D02*
D03*
X145945Y104560D02*
D03*
X129232Y93593D02*
D03*
X130586Y95591D02*
D03*
X129231Y94872D02*
D03*
X129980Y95948D02*
D03*
X129673D02*
D03*
X130873Y94409D02*
D03*
X134585Y96870D02*
D03*
X130606Y97033D02*
D03*
X130873Y97362D02*
D03*
X131780Y95563D02*
D03*
X132170Y95169D02*
D03*
X129518Y94872D02*
D03*
X129653Y94360D02*
D03*
X129232Y93848D02*
D03*
X130586Y94804D02*
D03*
X128976Y93337D02*
D03*
X136829Y95591D02*
D03*
X134683Y97827D02*
D03*
X136821Y92522D02*
D03*
X128464Y92313D02*
D03*
X130870Y97033D02*
D03*
X132170Y97191D02*
D03*
X131779Y97186D02*
D03*
X131568Y92862D02*
D03*
X135408Y94809D02*
D03*
X136829D02*
D03*
X136527Y95591D02*
D03*
X136833Y93222D02*
D03*
X135116Y95987D02*
D03*
X135408Y93229D02*
D03*
X136528Y93222D02*
D03*
X128208Y92825D02*
D03*
X135865Y92860D02*
D03*
X135408Y93621D02*
D03*
X135116Y94015D02*
D03*
X135458Y98137D02*
D03*
X135092D02*
D03*
X130873Y95196D02*
D03*
X128976Y92569D02*
D03*
X131656Y93406D02*
D03*
X135387Y95987D02*
D03*
X136471Y97371D02*
D03*
X127952Y95640D02*
D03*
X114250Y103257D02*
D03*
X125649Y94616D02*
D03*
X120420Y95776D02*
D03*
X123805Y101453D02*
D03*
X125021Y101266D02*
D03*
X127041Y103791D02*
D03*
X132125Y92173D02*
D03*
X131200Y97827D02*
D03*
X134688Y98137D02*
D03*
X136527Y94410D02*
D03*
X136425Y92173D02*
D03*
X135116Y94409D02*
D03*
Y93229D02*
D03*
X135691D02*
D03*
X135408Y94015D02*
D03*
X135691D02*
D03*
Y94409D02*
D03*
Y94809D02*
D03*
Y95588D02*
D03*
X134891Y96552D02*
D03*
X133897Y96870D02*
D03*
X134881D02*
D03*
Y97171D02*
D03*
X134290Y96870D02*
D03*
X134291Y97171D02*
D03*
X133897D02*
D03*
X135269Y92860D02*
D03*
X134088Y93210D02*
D03*
X134678Y92860D02*
D03*
X134088D02*
D03*
X133497D02*
D03*
X132710D02*
D03*
X132320D02*
D03*
X131924D02*
D03*
X130873Y93228D02*
D03*
X130586Y95197D02*
D03*
Y95948D02*
D03*
X131535Y92173D02*
D03*
X132520D02*
D03*
X133307D02*
D03*
X133897D02*
D03*
X135079D02*
D03*
X136063D02*
D03*
X136527Y94809D02*
D03*
Y95197D02*
D03*
X135865Y97827D02*
D03*
X135077D02*
D03*
X134290D02*
D03*
X133896D02*
D03*
X132912D02*
D03*
X132125D02*
D03*
X131534D02*
D03*
X130873Y95948D02*
D03*
Y95590D02*
D03*
Y94803D02*
D03*
Y94015D02*
D03*
X131784Y94213D02*
D03*
Y94606D02*
D03*
X131780Y95169D02*
D03*
X132170Y95563D02*
D03*
X132535D02*
D03*
X131780Y96350D02*
D03*
X132170D02*
D03*
Y96760D02*
D03*
X131779D02*
D03*
X124920Y103470D02*
D03*
X124610D02*
D03*
X127224Y102376D02*
D03*
X127503D02*
D03*
X127493Y102966D02*
D03*
X127224D02*
D03*
X126776Y103470D02*
D03*
X126470D02*
D03*
X126383Y102372D02*
D03*
Y102166D02*
D03*
X125973Y102560D02*
D03*
X125990Y101970D02*
D03*
X125012Y101578D02*
D03*
X125582Y101578D02*
D03*
X125300Y102570D02*
D03*
X124990Y102010D02*
D03*
Y102290D02*
D03*
X124046Y102560D02*
D03*
X134000Y103682D02*
D03*
Y103942D02*
D03*
X133830Y104122D02*
D03*
X133570D02*
D03*
X132853Y103652D02*
D03*
X131780Y102800D02*
D03*
X131530Y102810D02*
D03*
X131970Y102950D02*
D03*
Y103180D02*
D03*
X132638Y103920D02*
D03*
Y103520D02*
D03*
Y104320D02*
D03*
X131900Y104120D02*
D03*
X131630D02*
D03*
X131900Y104370D02*
D03*
X131630D02*
D03*
X133350Y102570D02*
D03*
X133585D02*
D03*
X133820D02*
D03*
Y102786D02*
D03*
X133585D02*
D03*
X133350D02*
D03*
X130190Y103049D02*
D03*
X130190Y103840D02*
D03*
X130190Y103576D02*
D03*
Y103313D02*
D03*
Y102786D02*
D03*
Y99640D02*
D03*
Y104170D02*
D03*
Y101400D02*
D03*
X120110Y103590D02*
D03*
X120978Y103872D02*
D03*
X120770Y104370D02*
D03*
X120130Y101950D02*
D03*
Y102180D02*
D03*
X118450Y95860D02*
D03*
X120730Y94930D02*
D03*
X120420Y95430D02*
D03*
X119480Y95670D02*
D03*
X119257Y93360D02*
D03*
X119650Y93160D02*
D03*
X120870Y93741D02*
D03*
Y94080D02*
D03*
X120676Y94540D02*
D03*
X120260D02*
D03*
X119999D02*
D03*
X119660D02*
D03*
X119248Y93899D02*
D03*
X118360Y93468D02*
D03*
X119167Y91551D02*
D03*
X119160Y91960D02*
D03*
Y92201D02*
D03*
X119631Y92762D02*
D03*
X120270Y91010D02*
D03*
X119160Y92470D02*
D03*
X138834Y103194D02*
D03*
X143280Y103540D02*
D03*
X143480D02*
D03*
Y103740D02*
D03*
X143280D02*
D03*
X143770Y104630D02*
D03*
X144070D02*
D03*
Y104830D02*
D03*
X143770D02*
D03*
X142200Y104380D02*
D03*
X140160Y104380D02*
D03*
X139229Y104301D02*
D03*
X138410Y104670D02*
D03*
X144600Y95940D02*
D03*
X139897Y96377D02*
D03*
X140160Y95302D02*
D03*
X139341Y95539D02*
D03*
X139350Y96690D02*
D03*
X142420Y96550D02*
D03*
X142170D02*
D03*
X141920D02*
D03*
X143760Y95150D02*
D03*
X143400D02*
D03*
X142684Y95010D02*
D03*
X142384D02*
D03*
X142380Y95240D02*
D03*
X142080D02*
D03*
X144410Y96710D02*
D03*
X144030D02*
D03*
X143650D02*
D03*
X144410Y97030D02*
D03*
X144030D02*
D03*
X143650D02*
D03*
X142181Y92336D02*
D03*
X141857Y92342D02*
D03*
X142520Y90980D02*
D03*
Y90675D02*
D03*
X142940Y90370D02*
D03*
X142520D02*
D03*
X144260Y91350D02*
D03*
X144620Y90600D02*
D03*
Y90970D02*
D03*
Y91350D02*
D03*
X144340Y93410D02*
D03*
X144590Y93150D02*
D03*
Y92890D02*
D03*
Y93410D02*
D03*
X144090D02*
D03*
X138780Y91377D02*
D03*
X138770Y91890D02*
D03*
X139966Y91447D02*
D03*
Y91847D02*
D03*
X140768Y91447D02*
D03*
X141000Y91110D02*
D03*
X141020Y91840D02*
D03*
X140540D02*
D03*
X146650Y90290D02*
D03*
X146880Y90900D02*
D03*
X146045Y90290D02*
D03*
X146326Y94016D02*
D03*
X146330Y93110D02*
D03*
X146895Y92912D02*
D03*
X146390Y92210D02*
D03*
X146895Y92439D02*
D03*
Y91967D02*
D03*
X146455Y91298D02*
D03*
X145440Y91274D02*
D03*
Y94966D02*
D03*
Y93990D02*
D03*
Y93110D02*
D03*
Y92210D02*
D03*
Y90290D02*
D03*
X149670Y92586D02*
D03*
Y93090D02*
D03*
X129488Y97943D02*
D03*
X129735Y98980D02*
D03*
X129415D02*
D03*
X129232Y97943D02*
D03*
X129100Y98980D02*
D03*
X128976Y97943D02*
D03*
X128720Y92057D02*
D03*
X123090D02*
D03*
X128720Y97687D02*
D03*
X128976Y92313D02*
D03*
X124114Y91289D02*
D03*
X128464Y97687D02*
D03*
X128720Y92569D02*
D03*
X122834Y92825D02*
D03*
X122323Y93593D02*
D03*
X123602Y92313D02*
D03*
X124114Y91545D02*
D03*
X126550Y99120D02*
D03*
X128208Y97431D02*
D03*
X123090Y92569D02*
D03*
X122323Y94872D02*
D03*
X124114Y91801D02*
D03*
X128976Y93593D02*
D03*
X122578Y94872D02*
D03*
X124114Y92057D02*
D03*
X128976Y93848D02*
D03*
X128464Y93593D02*
D03*
X127441Y92057D02*
D03*
X123090Y93337D02*
D03*
X125137Y97687D02*
D03*
X128976Y94360D02*
D03*
X122834Y94104D02*
D03*
X128464Y93081D02*
D03*
X125905Y97687D02*
D03*
X127952Y96919D02*
D03*
X124882Y92057D02*
D03*
X128464Y93337D02*
D03*
X124626Y92569D02*
D03*
X126673Y92057D02*
D03*
X128208Y93337D02*
D03*
X125649Y92057D02*
D03*
X127441Y97175D02*
D03*
X127952Y93337D02*
D03*
X124370Y92569D02*
D03*
X127697Y93337D02*
D03*
X124114Y93081D02*
D03*
X124114Y92825D02*
D03*
X128208Y95384D02*
D03*
Y95128D02*
D03*
X123858Y93337D02*
D03*
X127952Y95128D02*
D03*
X127697Y93593D02*
D03*
X125137Y93081D02*
D03*
X127697Y95384D02*
D03*
X127185Y96407D02*
D03*
X127441Y93337D02*
D03*
X127441Y95896D02*
D03*
X127697Y93848D02*
D03*
X124114D02*
D03*
X127697Y94104D02*
D03*
Y95128D02*
D03*
X124114Y94616D02*
D03*
X124626Y96152D02*
D03*
X127441Y93848D02*
D03*
X124626D02*
D03*
X126417Y96407D02*
D03*
X125137D02*
D03*
X127441Y94104D02*
D03*
Y95128D02*
D03*
Y94616D02*
D03*
X127185Y95640D02*
D03*
X125137Y96152D02*
D03*
X124882Y95896D02*
D03*
X126673Y93593D02*
D03*
X125649Y96152D02*
D03*
X126929Y94360D02*
D03*
X124626Y94616D02*
D03*
X126929Y95640D02*
D03*
X125137Y95896D02*
D03*
X126673Y93848D02*
D03*
X125137D02*
D03*
X126929Y95384D02*
D03*
X125393Y93848D02*
D03*
X126161Y95896D02*
D03*
X125649D02*
D03*
X126929Y95128D02*
D03*
X124882D02*
D03*
X126161Y93848D02*
D03*
X126673Y95640D02*
D03*
X125137D02*
D03*
X126673Y94104D02*
D03*
Y94360D02*
D03*
X125137D02*
D03*
X126161Y95640D02*
D03*
X126673Y95128D02*
D03*
X125649Y95640D02*
D03*
X126673Y94616D02*
D03*
X125137Y95128D02*
D03*
X125649Y94360D02*
D03*
X125393Y94360D02*
D03*
X126161Y95384D02*
D03*
X125649Y95128D02*
D03*
X126161Y94616D02*
D03*
X142900Y101580D02*
D03*
X141280Y101210D02*
D03*
X142370Y100280D02*
D03*
Y100050D02*
D03*
X142900Y100769D02*
D03*
X141030Y99960D02*
D03*
Y100310D02*
D03*
X143300Y101200D02*
D03*
X144170Y101197D02*
D03*
Y101757D02*
D03*
Y100664D02*
D03*
Y100987D02*
D03*
Y101447D02*
D03*
Y99350D02*
D03*
Y98890D02*
D03*
X142897Y99459D02*
D03*
X140610Y99593D02*
D03*
X143810Y97880D02*
D03*
Y98150D02*
D03*
X141432Y97760D02*
D03*
Y98267D02*
D03*
X141190D02*
D03*
X141180Y97760D02*
D03*
X142052Y99300D02*
D03*
X141320Y99110D02*
D03*
X144170Y98567D02*
D03*
Y99660D02*
D03*
Y99100D02*
D03*
X148221Y105299D02*
D03*
X147850Y104970D02*
D03*
X146761Y105290D02*
D03*
X145350Y102875D02*
D03*
X145910Y99450D02*
D03*
Y99000D02*
D03*
Y98550D02*
D03*
Y98050D02*
D03*
X146308Y98248D02*
D03*
Y99648D02*
D03*
Y98748D02*
D03*
X113681Y100582D02*
D03*
X112850Y98450D02*
D03*
X113088Y98190D02*
D03*
X112850D02*
D03*
X111820Y97720D02*
D03*
X111540D02*
D03*
X113417Y100127D02*
D03*
X108246Y100840D02*
D03*
X111820Y97060D02*
D03*
X111457D02*
D03*
X111093D02*
D03*
X110730D02*
D03*
X110347D02*
D03*
X110003D02*
D03*
X109640D02*
D03*
X108359Y101616D02*
D03*
X108076Y101288D02*
D03*
X114097Y97145D02*
D03*
X109046Y99606D02*
D03*
X107722Y98570D02*
D03*
Y98321D02*
D03*
X107600Y101800D02*
D03*
X110642Y98416D02*
D03*
X110409Y98420D02*
D03*
X110175D02*
D03*
X109140Y94500D02*
D03*
X107490Y94080D02*
D03*
X108173D02*
D03*
X107836D02*
D03*
X107490Y94345D02*
D03*
Y94610D02*
D03*
X109632Y93810D02*
D03*
X109912Y94083D02*
D03*
Y93810D02*
D03*
X109351D02*
D03*
X109070D02*
D03*
Y94083D02*
D03*
X108500Y95620D02*
D03*
X114537Y100894D02*
D03*
X115282Y99235D02*
D03*
Y99958D02*
D03*
X113630Y101580D02*
D03*
X113940D02*
D03*
X114100Y101790D02*
D03*
X113790D02*
D03*
X113480D02*
D03*
X112964Y101620D02*
D03*
X114557Y99224D02*
D03*
X114943Y99223D02*
D03*
X114557Y99958D02*
D03*
X114943D02*
D03*
X113607Y103257D02*
D03*
X113929D02*
D03*
X108570Y98820D02*
D03*
X108317D02*
D03*
X108065D02*
D03*
X109215Y99817D02*
D03*
X109195Y100705D02*
D03*
X108778Y99617D02*
D03*
X109300Y101100D02*
D03*
X109290Y101340D02*
D03*
X109513Y100878D02*
D03*
X116270Y101200D02*
D03*
X109510Y101110D02*
D03*
X109140Y100970D02*
D03*
X114960Y100870D02*
D03*
X112768Y100830D02*
D03*
X111061Y100994D02*
D03*
X112610Y100172D02*
D03*
X113073Y99436D02*
D03*
X113325D02*
D03*
X112344Y100172D02*
D03*
X112755Y101076D02*
D03*
X115530Y97890D02*
D03*
X115230D02*
D03*
X114953Y98370D02*
D03*
Y98037D02*
D03*
X116570Y97650D02*
D03*
Y98230D02*
D03*
Y97940D02*
D03*
X116262D02*
D03*
Y98230D02*
D03*
X114338Y97144D02*
D03*
X114100Y96917D02*
D03*
X113720Y96910D02*
D03*
X113432D02*
D03*
Y96520D02*
D03*
X113144D02*
D03*
X112856D02*
D03*
X112220D02*
D03*
X114953Y97370D02*
D03*
Y97703D02*
D03*
X115604Y97050D02*
D03*
X115279D02*
D03*
X113140Y103257D02*
D03*
X111762Y103260D02*
D03*
X112865Y103257D02*
D03*
X112589D02*
D03*
X112314D02*
D03*
X112038D02*
D03*
X111340Y103260D02*
D03*
X111065D02*
D03*
X110790D02*
D03*
X110515D02*
D03*
X110240D02*
D03*
X107952D02*
D03*
X109460D02*
D03*
X108500D02*
D03*
X108200D02*
D03*
X111574Y100684D02*
D03*
X112342D02*
D03*
X112086D02*
D03*
X111574Y100428D02*
D03*
X112086D02*
D03*
X111830D02*
D03*
X112086Y100172D02*
D03*
X111574Y99404D02*
D03*
Y99148D02*
D03*
X112086Y98893D02*
D03*
X112086Y99404D02*
D03*
Y99660D02*
D03*
X111830Y98893D02*
D03*
Y99148D02*
D03*
X110038D02*
D03*
X111318D02*
D03*
X111062Y100172D02*
D03*
X110806Y100428D02*
D03*
X111062Y100428D02*
D03*
X103028Y101826D02*
D03*
X111005Y94168D02*
D03*
X111000Y93900D02*
D03*
X111235Y93718D02*
D03*
X111558D02*
D03*
X111882D02*
D03*
X112195D02*
D03*
X111885Y94168D02*
D03*
X114929Y96022D02*
D03*
X115330Y96020D02*
D03*
Y95770D02*
D03*
X115732Y96020D02*
D03*
Y95770D02*
D03*
X116133Y96020D02*
D03*
Y95770D02*
D03*
X115175Y94038D02*
D03*
X115532D02*
D03*
X115888D02*
D03*
X116245D02*
D03*
Y93768D02*
D03*
X115888D02*
D03*
X115532D02*
D03*
X115175D02*
D03*
X111015Y94803D02*
D03*
Y95208D02*
D03*
X111334D02*
D03*
X112005Y95021D02*
D03*
X112929Y94442D02*
D03*
X112914Y94743D02*
D03*
X112949Y92165D02*
D03*
Y91864D02*
D03*
X112000Y92443D02*
D03*
X111698Y92631D02*
D03*
X111369Y92630D02*
D03*
X111040D02*
D03*
Y92305D02*
D03*
Y91980D02*
D03*
X111840Y93103D02*
D03*
X116720Y92920D02*
D03*
Y93200D02*
D03*
X116298Y92920D02*
D03*
Y93200D02*
D03*
X115876Y92920D02*
D03*
Y93200D02*
D03*
X115453Y92920D02*
D03*
Y93200D02*
D03*
X111807Y91140D02*
D03*
X111488D02*
D03*
X111170D02*
D03*
X111040Y91365D02*
D03*
Y91610D02*
D03*
X100930Y96150D02*
D03*
X101947Y96145D02*
D03*
X102646Y94992D02*
D03*
X104080Y95000D02*
D03*
X104076Y95601D02*
D03*
X103740Y96083D02*
D03*
X104475Y96705D02*
D03*
Y96209D02*
D03*
Y97111D02*
D03*
X103485Y98134D02*
D03*
X103923Y98130D02*
D03*
X103090D02*
D03*
X102230Y97620D02*
D03*
X101917Y97307D02*
D03*
X101473D02*
D03*
X97905Y98824D02*
D03*
Y98550D02*
D03*
X100380Y97950D02*
D03*
X100030D02*
D03*
X99600D02*
D03*
X99260D02*
D03*
X98830D02*
D03*
X98400D02*
D03*
X101042Y98553D02*
D03*
X98190Y96990D02*
D03*
X97820Y94890D02*
D03*
Y96270D02*
D03*
X96405Y95686D02*
D03*
X96570Y96670D02*
D03*
X94962Y94503D02*
D03*
X95430Y94151D02*
D03*
X98191Y92445D02*
D03*
X103047Y93754D02*
D03*
X101981Y94117D02*
D03*
X102390Y94108D02*
D03*
X102785Y93996D02*
D03*
X102329Y93490D02*
D03*
X101979Y93530D02*
D03*
X103100Y92489D02*
D03*
X103099Y93180D02*
D03*
X103149Y91870D02*
D03*
X103279Y90400D02*
D03*
Y90750D02*
D03*
Y91120D02*
D03*
X103099Y92831D02*
D03*
X103279Y91510D02*
D03*
X102278Y91120D02*
D03*
X102288Y90750D02*
D03*
X102288Y90400D02*
D03*
X102299Y91520D02*
D03*
X102447Y92831D02*
D03*
Y92489D02*
D03*
X102437Y91875D02*
D03*
X102447Y93179D02*
D03*
Y92180D02*
D03*
X102942Y90400D02*
D03*
X102615D02*
D03*
X95894D02*
D03*
X95567D02*
D03*
X96062Y92180D02*
D03*
X96530Y93530D02*
D03*
X96180Y93490D02*
D03*
X96062Y93179D02*
D03*
X96072Y91875D02*
D03*
X96062Y92489D02*
D03*
Y92831D02*
D03*
X96210Y91520D02*
D03*
X96221Y90400D02*
D03*
X96221Y90750D02*
D03*
X96231Y91120D02*
D03*
X95230Y91510D02*
D03*
X95705Y94050D02*
D03*
X96080Y94151D02*
D03*
X96450Y94180D02*
D03*
X95410Y92831D02*
D03*
Y92489D02*
D03*
X95230Y91120D02*
D03*
Y90750D02*
D03*
Y90400D02*
D03*
X95360Y91870D02*
D03*
X95410Y93180D02*
D03*
X95421Y93775D02*
D03*
X99570Y103210D02*
D03*
X95347Y102670D02*
D03*
X95349Y103130D02*
D03*
X96491Y102157D02*
D03*
X95410Y101760D02*
D03*
X97480Y102160D02*
D03*
X97895D02*
D03*
X98310D02*
D03*
X97480Y102595D02*
D03*
X98310D02*
D03*
Y103000D02*
D03*
X97895D02*
D03*
X98622Y101524D02*
D03*
X97984D02*
D03*
X97227Y100384D02*
D03*
X103040Y104967D02*
D03*
X104230Y103960D02*
D03*
X101972D02*
D03*
X103850Y104957D02*
D03*
X103940Y103960D02*
D03*
X103190D02*
D03*
X103435D02*
D03*
X103680D02*
D03*
X103435Y103660D02*
D03*
X103190D02*
D03*
X102310D02*
D03*
X102555D02*
D03*
X102800D02*
D03*
Y103960D02*
D03*
X102555D02*
D03*
X102310D02*
D03*
X93190Y109800D02*
D03*
X95610Y109360D02*
D03*
Y108450D02*
D03*
X95116Y106450D02*
D03*
X94630D02*
D03*
X94160Y107248D02*
D03*
X93207Y108893D02*
D03*
X93850D02*
D03*
X94170D02*
D03*
X94630D02*
D03*
X94640Y107816D02*
D03*
X94950D02*
D03*
X93534D02*
D03*
X90080Y110790D02*
D03*
X90390D02*
D03*
X90680Y112040D02*
D03*
Y112400D02*
D03*
Y111320D02*
D03*
Y111680D02*
D03*
X90877Y108820D02*
D03*
X91200D02*
D03*
Y109570D02*
D03*
X90624Y108690D02*
D03*
Y109440D02*
D03*
X88020Y104310D02*
D03*
X88480D02*
D03*
X89375Y105440D02*
D03*
X89794Y104309D02*
D03*
X89537Y104310D02*
D03*
X89280D02*
D03*
X89660Y105440D02*
D03*
X89090D02*
D03*
X88630D02*
D03*
X88060Y105380D02*
D03*
X87790D02*
D03*
X87535Y105870D02*
D03*
X87280D02*
D03*
X87535Y105625D02*
D03*
X87280D02*
D03*
Y105380D02*
D03*
X87535D02*
D03*
X87675Y107246D02*
D03*
X90130Y108040D02*
D03*
X88270Y106610D02*
D03*
Y106370D02*
D03*
Y107780D02*
D03*
Y107540D02*
D03*
X88960Y106120D02*
D03*
Y106820D02*
D03*
X90940Y107800D02*
D03*
X90130Y108260D02*
D03*
X90364Y108409D02*
D03*
X90624Y108410D02*
D03*
X91820Y108400D02*
D03*
X92219Y107830D02*
D03*
X91420Y106440D02*
D03*
Y105840D02*
D03*
Y106070D02*
D03*
X93792Y105660D02*
D03*
X94063D02*
D03*
X94333D02*
D03*
X92220Y103250D02*
D03*
X92490D02*
D03*
X91410Y102760D02*
D03*
Y102430D02*
D03*
X94130Y103660D02*
D03*
X93860D02*
D03*
X93590D02*
D03*
X94130Y103900D02*
D03*
X93860D02*
D03*
X93590D02*
D03*
X92380Y102750D02*
D03*
X91929Y103830D02*
D03*
X91260D02*
D03*
X91590Y100220D02*
D03*
Y100470D02*
D03*
X90300Y91800D02*
D03*
X92940Y97890D02*
D03*
X92910Y100570D02*
D03*
X92705Y101680D02*
D03*
X92710Y101220D02*
D03*
Y100770D02*
D03*
X91820Y98420D02*
D03*
X91830Y100990D02*
D03*
X91820Y101940D02*
D03*
X91050Y97450D02*
D03*
X91825Y101455D02*
D03*
X91830Y99620D02*
D03*
X91824Y97890D02*
D03*
X92160D02*
D03*
X91480Y99490D02*
D03*
X91620Y95500D02*
D03*
X91200D02*
D03*
X89610Y96021D02*
D03*
X92150Y96150D02*
D03*
X91298Y95802D02*
D03*
X90800Y96150D02*
D03*
X89900Y96950D02*
D03*
X90800Y94150D02*
D03*
X91250Y94500D02*
D03*
X90201Y95249D02*
D03*
X89950Y94200D02*
D03*
X87850Y94600D02*
D03*
X88250D02*
D03*
Y96000D02*
D03*
X87850D02*
D03*
X93650Y94850D02*
D03*
X92334Y94066D02*
D03*
X92750Y94500D02*
D03*
X91650Y94400D02*
D03*
X90050Y95000D02*
D03*
X91200Y93500D02*
D03*
X91750D02*
D03*
X92198Y93048D02*
D03*
X89900Y93400D02*
D03*
Y91900D02*
D03*
X90300Y93500D02*
D03*
X90750D02*
D03*
D171*
X110299Y99389D02*
D03*
Y99138D02*
D03*
X110550Y100428D02*
D03*
X110796Y99916D02*
D03*
X110294Y100684D02*
D03*
M02*
